<?xml version="1.0" encoding="utf-8" standalone="no"?>
<!DOCTYPE svg PUBLIC "-//W3C//DTD SVG 1.1//EN"
  "http://www.w3.org/Graphics/SVG/1.1/DTD/svg11.dtd">
<svg xmlns:xlink="http://www.w3.org/1999/xlink" width="607.50375pt" height="437.666906pt" viewBox="0 0 607.50375 437.666906" xmlns="http://www.w3.org/2000/svg" version="1.1">
 <metadata>
  <rdf:RDF xmlns:dc="http://purl.org/dc/elements/1.1/" xmlns:cc="http://creativecommons.org/ns#" xmlns:rdf="http://www.w3.org/1999/02/22-rdf-syntax-ns#">
   <cc:Work>
    <dc:type rdf:resource="http://purl.org/dc/dcmitype/StillImage"/>
    <dc:date>2026-06-28T04:26:24.069178</dc:date>
    <dc:format>image/svg+xml</dc:format>
    <dc:creator>
     <cc:Agent>
      <dc:title>Matplotlib v3.10.9, https://matplotlib.org/</dc:title>
     </cc:Agent>
    </dc:creator>
   </cc:Work>
  </rdf:RDF>
 </metadata>
 <defs>
  <style type="text/css">*{stroke-linejoin: round; stroke-linecap: butt}</style>
 </defs>
 <g id="figure_1">
  <g id="patch_1">
   <path d="M 0 437.666906 
L 607.50375 437.666906 
L 607.50375 -0 
L 0 -0 
z
" style="fill: #ffffff"/>
  </g>
  <g id="axes_1">
   <g id="patch_2">
    <path d="M 62.19375 380.9555 
L 589.50375 380.9555 
L 589.50375 44.1575 
L 62.19375 44.1575 
z
" style="fill: #ffffff"/>
   </g>
   <g id="matplotlib.axis_1">
    <g id="xtick_1">
     <g id="line2d_1">
      <defs>
       <path id="m18109461ce" d="M 0 0 
L 0 3.5 
" style="stroke: #333333; stroke-width: 0.8"/>
      </defs>
      <g>
       <use xlink:href="#m18109461ce" x="194.02125" y="380.9555" style="fill: #333333; stroke: #333333; stroke-width: 0.8"/>
      </g>
     </g>
     <g id="text_1">
      <!-- Female -->
      <g style="fill: #333333" transform="translate(173.232305 396.693703) scale(0.115 -0.115)">
       <defs>
        <path id="DejaVuSans-46" d="M 628 4666 
L 3309 4666 
L 3309 4134 
L 1259 4134 
L 1259 2759 
L 3109 2759 
L 3109 2228 
L 1259 2228 
L 1259 0 
L 628 0 
L 628 4666 
z
" transform="scale(0.015625)"/>
        <path id="DejaVuSans-65" d="M 3597 1894 
L 3597 1613 
L 953 1613 
Q 991 1019 1311 708 
Q 1631 397 2203 397 
Q 2534 397 2845 478 
Q 3156 559 3463 722 
L 3463 178 
Q 3153 47 2828 -22 
Q 2503 -91 2169 -91 
Q 1331 -91 842 396 
Q 353 884 353 1716 
Q 353 2575 817 3079 
Q 1281 3584 2069 3584 
Q 2775 3584 3186 3129 
Q 3597 2675 3597 1894 
z
M 3022 2063 
Q 3016 2534 2758 2815 
Q 2500 3097 2075 3097 
Q 1594 3097 1305 2825 
Q 1016 2553 972 2059 
L 3022 2063 
z
" transform="scale(0.015625)"/>
        <path id="DejaVuSans-6d" d="M 3328 2828 
Q 3544 3216 3844 3400 
Q 4144 3584 4550 3584 
Q 5097 3584 5394 3201 
Q 5691 2819 5691 2113 
L 5691 0 
L 5113 0 
L 5113 2094 
Q 5113 2597 4934 2840 
Q 4756 3084 4391 3084 
Q 3944 3084 3684 2787 
Q 3425 2491 3425 1978 
L 3425 0 
L 2847 0 
L 2847 2094 
Q 2847 2600 2669 2842 
Q 2491 3084 2119 3084 
Q 1678 3084 1418 2786 
Q 1159 2488 1159 1978 
L 1159 0 
L 581 0 
L 581 3500 
L 1159 3500 
L 1159 2956 
Q 1356 3278 1631 3431 
Q 1906 3584 2284 3584 
Q 2666 3584 2933 3390 
Q 3200 3197 3328 2828 
z
" transform="scale(0.015625)"/>
        <path id="DejaVuSans-61" d="M 2194 1759 
Q 1497 1759 1228 1600 
Q 959 1441 959 1056 
Q 959 750 1161 570 
Q 1363 391 1709 391 
Q 2188 391 2477 730 
Q 2766 1069 2766 1631 
L 2766 1759 
L 2194 1759 
z
M 3341 1997 
L 3341 0 
L 2766 0 
L 2766 531 
Q 2569 213 2275 61 
Q 1981 -91 1556 -91 
Q 1019 -91 701 211 
Q 384 513 384 1019 
Q 384 1609 779 1909 
Q 1175 2209 1959 2209 
L 2766 2209 
L 2766 2266 
Q 2766 2663 2505 2880 
Q 2244 3097 1772 3097 
Q 1472 3097 1187 3025 
Q 903 2953 641 2809 
L 641 3341 
Q 956 3463 1253 3523 
Q 1550 3584 1831 3584 
Q 2591 3584 2966 3190 
Q 3341 2797 3341 1997 
z
" transform="scale(0.015625)"/>
        <path id="DejaVuSans-6c" d="M 603 4863 
L 1178 4863 
L 1178 0 
L 603 0 
L 603 4863 
z
" transform="scale(0.015625)"/>
       </defs>
       <use xlink:href="#DejaVuSans-46"/>
       <use xlink:href="#DejaVuSans-65" transform="translate(52.019531 0)"/>
       <use xlink:href="#DejaVuSans-6d" transform="translate(113.542969 0)"/>
       <use xlink:href="#DejaVuSans-61" transform="translate(210.955078 0)"/>
       <use xlink:href="#DejaVuSans-6c" transform="translate(272.234375 0)"/>
       <use xlink:href="#DejaVuSans-65" transform="translate(300.017578 0)"/>
      </g>
     </g>
    </g>
    <g id="xtick_2">
     <g id="line2d_2">
      <g>
       <use xlink:href="#m18109461ce" x="457.67625" y="380.9555" style="fill: #333333; stroke: #333333; stroke-width: 0.8"/>
      </g>
     </g>
     <g id="text_2">
      <!-- Male -->
      <g style="fill: #333333" transform="translate(444.055938 396.693703) scale(0.115 -0.115)">
       <defs>
        <path id="DejaVuSans-4d" d="M 628 4666 
L 1569 4666 
L 2759 1491 
L 3956 4666 
L 4897 4666 
L 4897 0 
L 4281 0 
L 4281 4097 
L 3078 897 
L 2444 897 
L 1241 4097 
L 1241 0 
L 628 0 
L 628 4666 
z
" transform="scale(0.015625)"/>
       </defs>
       <use xlink:href="#DejaVuSans-4d"/>
       <use xlink:href="#DejaVuSans-61" transform="translate(86.279297 0)"/>
       <use xlink:href="#DejaVuSans-6c" transform="translate(147.558594 0)"/>
       <use xlink:href="#DejaVuSans-65" transform="translate(175.341797 0)"/>
      </g>
     </g>
    </g>
    <g id="text_3">
     <!-- Sex -->
     <g transform="translate(313.989297 416.963313) scale(0.13 -0.13)">
      <defs>
       <path id="DejaVuSans-53" d="M 3425 4513 
L 3425 3897 
Q 3066 4069 2747 4153 
Q 2428 4238 2131 4238 
Q 1616 4238 1336 4038 
Q 1056 3838 1056 3469 
Q 1056 3159 1242 3001 
Q 1428 2844 1947 2747 
L 2328 2669 
Q 3034 2534 3370 2195 
Q 3706 1856 3706 1288 
Q 3706 609 3251 259 
Q 2797 -91 1919 -91 
Q 1588 -91 1214 -16 
Q 841 59 441 206 
L 441 856 
Q 825 641 1194 531 
Q 1563 422 1919 422 
Q 2459 422 2753 634 
Q 3047 847 3047 1241 
Q 3047 1584 2836 1778 
Q 2625 1972 2144 2069 
L 1759 2144 
Q 1053 2284 737 2584 
Q 422 2884 422 3419 
Q 422 4038 858 4394 
Q 1294 4750 2059 4750 
Q 2388 4750 2728 4690 
Q 3069 4631 3425 4513 
z
" transform="scale(0.015625)"/>
       <path id="DejaVuSans-78" d="M 3513 3500 
L 2247 1797 
L 3578 0 
L 2900 0 
L 1881 1375 
L 863 0 
L 184 0 
L 1544 1831 
L 300 3500 
L 978 3500 
L 1906 2253 
L 2834 3500 
L 3513 3500 
z
" transform="scale(0.015625)"/>
      </defs>
      <use xlink:href="#DejaVuSans-53"/>
      <use xlink:href="#DejaVuSans-65" transform="translate(63.476562 0)"/>
      <use xlink:href="#DejaVuSans-78" transform="translate(123.25 0)"/>
     </g>
    </g>
   </g>
   <g id="matplotlib.axis_2">
    <g id="ytick_1">
     <g id="line2d_3">
      <path d="M 62.19375 340.982 
L 589.50375 340.982 
" clip-path="url(#p1d9d4a0872)" style="fill: none; stroke: #dddddd; stroke-width: 0.7; stroke-linecap: square"/>
     </g>
     <g id="line2d_4">
      <defs>
       <path id="m35dcf50a52" d="M 0 0 
L -3.5 0 
" style="stroke: #333333; stroke-width: 0.8"/>
      </defs>
      <g>
       <use xlink:href="#m35dcf50a52" x="62.19375" y="340.982" style="fill: #333333; stroke: #333333; stroke-width: 0.8"/>
      </g>
     </g>
     <g id="text_4">
      <!-- 20 -->
      <g style="fill: #333333" transform="translate(40.56 345.351102) scale(0.115 -0.115)">
       <defs>
        <path id="DejaVuSans-32" d="M 1228 531 
L 3431 531 
L 3431 0 
L 469 0 
L 469 531 
Q 828 903 1448 1529 
Q 2069 2156 2228 2338 
Q 2531 2678 2651 2914 
Q 2772 3150 2772 3378 
Q 2772 3750 2511 3984 
Q 2250 4219 1831 4219 
Q 1534 4219 1204 4116 
Q 875 4013 500 3803 
L 500 4441 
Q 881 4594 1212 4672 
Q 1544 4750 1819 4750 
Q 2544 4750 2975 4387 
Q 3406 4025 3406 3419 
Q 3406 3131 3298 2873 
Q 3191 2616 2906 2266 
Q 2828 2175 2409 1742 
Q 1991 1309 1228 531 
z
" transform="scale(0.015625)"/>
        <path id="DejaVuSans-30" d="M 2034 4250 
Q 1547 4250 1301 3770 
Q 1056 3291 1056 2328 
Q 1056 1369 1301 889 
Q 1547 409 2034 409 
Q 2525 409 2770 889 
Q 3016 1369 3016 2328 
Q 3016 3291 2770 3770 
Q 2525 4250 2034 4250 
z
M 2034 4750 
Q 2819 4750 3233 4129 
Q 3647 3509 3647 2328 
Q 3647 1150 3233 529 
Q 2819 -91 2034 -91 
Q 1250 -91 836 529 
Q 422 1150 422 2328 
Q 422 3509 836 4129 
Q 1250 4750 2034 4750 
z
" transform="scale(0.015625)"/>
       </defs>
       <use xlink:href="#DejaVuSans-32"/>
       <use xlink:href="#DejaVuSans-30" transform="translate(63.623047 0)"/>
      </g>
     </g>
    </g>
    <g id="ytick_2">
     <g id="line2d_5">
      <path d="M 62.19375 298.457 
L 589.50375 298.457 
" clip-path="url(#p1d9d4a0872)" style="fill: none; stroke: #dddddd; stroke-width: 0.7; stroke-linecap: square"/>
     </g>
     <g id="line2d_6">
      <g>
       <use xlink:href="#m35dcf50a52" x="62.19375" y="298.457" style="fill: #333333; stroke: #333333; stroke-width: 0.8"/>
      </g>
     </g>
     <g id="text_5">
      <!-- 30 -->
      <g style="fill: #333333" transform="translate(40.56 302.826102) scale(0.115 -0.115)">
       <defs>
        <path id="DejaVuSans-33" d="M 2597 2516 
Q 3050 2419 3304 2112 
Q 3559 1806 3559 1356 
Q 3559 666 3084 287 
Q 2609 -91 1734 -91 
Q 1441 -91 1130 -33 
Q 819 25 488 141 
L 488 750 
Q 750 597 1062 519 
Q 1375 441 1716 441 
Q 2309 441 2620 675 
Q 2931 909 2931 1356 
Q 2931 1769 2642 2001 
Q 2353 2234 1838 2234 
L 1294 2234 
L 1294 2753 
L 1863 2753 
Q 2328 2753 2575 2939 
Q 2822 3125 2822 3475 
Q 2822 3834 2567 4026 
Q 2313 4219 1838 4219 
Q 1578 4219 1281 4162 
Q 984 4106 628 3988 
L 628 4550 
Q 988 4650 1302 4700 
Q 1616 4750 1894 4750 
Q 2613 4750 3031 4423 
Q 3450 4097 3450 3541 
Q 3450 3153 3228 2886 
Q 3006 2619 2597 2516 
z
" transform="scale(0.015625)"/>
       </defs>
       <use xlink:href="#DejaVuSans-33"/>
       <use xlink:href="#DejaVuSans-30" transform="translate(63.623047 0)"/>
      </g>
     </g>
    </g>
    <g id="ytick_3">
     <g id="line2d_7">
      <path d="M 62.19375 255.932 
L 589.50375 255.932 
" clip-path="url(#p1d9d4a0872)" style="fill: none; stroke: #dddddd; stroke-width: 0.7; stroke-linecap: square"/>
     </g>
     <g id="line2d_8">
      <g>
       <use xlink:href="#m35dcf50a52" x="62.19375" y="255.932" style="fill: #333333; stroke: #333333; stroke-width: 0.8"/>
      </g>
     </g>
     <g id="text_6">
      <!-- 40 -->
      <g style="fill: #333333" transform="translate(40.56 260.301102) scale(0.115 -0.115)">
       <defs>
        <path id="DejaVuSans-34" d="M 2419 4116 
L 825 1625 
L 2419 1625 
L 2419 4116 
z
M 2253 4666 
L 3047 4666 
L 3047 1625 
L 3713 1625 
L 3713 1100 
L 3047 1100 
L 3047 0 
L 2419 0 
L 2419 1100 
L 313 1100 
L 313 1709 
L 2253 4666 
z
" transform="scale(0.015625)"/>
       </defs>
       <use xlink:href="#DejaVuSans-34"/>
       <use xlink:href="#DejaVuSans-30" transform="translate(63.623047 0)"/>
      </g>
     </g>
    </g>
    <g id="ytick_4">
     <g id="line2d_9">
      <path d="M 62.19375 213.407 
L 589.50375 213.407 
" clip-path="url(#p1d9d4a0872)" style="fill: none; stroke: #dddddd; stroke-width: 0.7; stroke-linecap: square"/>
     </g>
     <g id="line2d_10">
      <g>
       <use xlink:href="#m35dcf50a52" x="62.19375" y="213.407" style="fill: #333333; stroke: #333333; stroke-width: 0.8"/>
      </g>
     </g>
     <g id="text_7">
      <!-- 50 -->
      <g style="fill: #333333" transform="translate(40.56 217.776102) scale(0.115 -0.115)">
       <defs>
        <path id="DejaVuSans-35" d="M 691 4666 
L 3169 4666 
L 3169 4134 
L 1269 4134 
L 1269 2991 
Q 1406 3038 1543 3061 
Q 1681 3084 1819 3084 
Q 2600 3084 3056 2656 
Q 3513 2228 3513 1497 
Q 3513 744 3044 326 
Q 2575 -91 1722 -91 
Q 1428 -91 1123 -41 
Q 819 9 494 109 
L 494 744 
Q 775 591 1075 516 
Q 1375 441 1709 441 
Q 2250 441 2565 725 
Q 2881 1009 2881 1497 
Q 2881 1984 2565 2268 
Q 2250 2553 1709 2553 
Q 1456 2553 1204 2497 
Q 953 2441 691 2322 
L 691 4666 
z
" transform="scale(0.015625)"/>
       </defs>
       <use xlink:href="#DejaVuSans-35"/>
       <use xlink:href="#DejaVuSans-30" transform="translate(63.623047 0)"/>
      </g>
     </g>
    </g>
    <g id="ytick_5">
     <g id="line2d_11">
      <path d="M 62.19375 170.882 
L 589.50375 170.882 
" clip-path="url(#p1d9d4a0872)" style="fill: none; stroke: #dddddd; stroke-width: 0.7; stroke-linecap: square"/>
     </g>
     <g id="line2d_12">
      <g>
       <use xlink:href="#m35dcf50a52" x="62.19375" y="170.882" style="fill: #333333; stroke: #333333; stroke-width: 0.8"/>
      </g>
     </g>
     <g id="text_8">
      <!-- 60 -->
      <g style="fill: #333333" transform="translate(40.56 175.251102) scale(0.115 -0.115)">
       <defs>
        <path id="DejaVuSans-36" d="M 2113 2584 
Q 1688 2584 1439 2293 
Q 1191 2003 1191 1497 
Q 1191 994 1439 701 
Q 1688 409 2113 409 
Q 2538 409 2786 701 
Q 3034 994 3034 1497 
Q 3034 2003 2786 2293 
Q 2538 2584 2113 2584 
z
M 3366 4563 
L 3366 3988 
Q 3128 4100 2886 4159 
Q 2644 4219 2406 4219 
Q 1781 4219 1451 3797 
Q 1122 3375 1075 2522 
Q 1259 2794 1537 2939 
Q 1816 3084 2150 3084 
Q 2853 3084 3261 2657 
Q 3669 2231 3669 1497 
Q 3669 778 3244 343 
Q 2819 -91 2113 -91 
Q 1303 -91 875 529 
Q 447 1150 447 2328 
Q 447 3434 972 4092 
Q 1497 4750 2381 4750 
Q 2619 4750 2861 4703 
Q 3103 4656 3366 4563 
z
" transform="scale(0.015625)"/>
       </defs>
       <use xlink:href="#DejaVuSans-36"/>
       <use xlink:href="#DejaVuSans-30" transform="translate(63.623047 0)"/>
      </g>
     </g>
    </g>
    <g id="ytick_6">
     <g id="line2d_13">
      <path d="M 62.19375 128.357 
L 589.50375 128.357 
" clip-path="url(#p1d9d4a0872)" style="fill: none; stroke: #dddddd; stroke-width: 0.7; stroke-linecap: square"/>
     </g>
     <g id="line2d_14">
      <g>
       <use xlink:href="#m35dcf50a52" x="62.19375" y="128.357" style="fill: #333333; stroke: #333333; stroke-width: 0.8"/>
      </g>
     </g>
     <g id="text_9">
      <!-- 70 -->
      <g style="fill: #333333" transform="translate(40.56 132.726102) scale(0.115 -0.115)">
       <defs>
        <path id="DejaVuSans-37" d="M 525 4666 
L 3525 4666 
L 3525 4397 
L 1831 0 
L 1172 0 
L 2766 4134 
L 525 4134 
L 525 4666 
z
" transform="scale(0.015625)"/>
       </defs>
       <use xlink:href="#DejaVuSans-37"/>
       <use xlink:href="#DejaVuSans-30" transform="translate(63.623047 0)"/>
      </g>
     </g>
    </g>
    <g id="ytick_7">
     <g id="line2d_15">
      <path d="M 62.19375 85.832 
L 589.50375 85.832 
" clip-path="url(#p1d9d4a0872)" style="fill: none; stroke: #dddddd; stroke-width: 0.7; stroke-linecap: square"/>
     </g>
     <g id="line2d_16">
      <g>
       <use xlink:href="#m35dcf50a52" x="62.19375" y="85.832" style="fill: #333333; stroke: #333333; stroke-width: 0.8"/>
      </g>
     </g>
     <g id="text_10">
      <!-- 80 -->
      <g style="fill: #333333" transform="translate(40.56 90.201102) scale(0.115 -0.115)">
       <defs>
        <path id="DejaVuSans-38" d="M 2034 2216 
Q 1584 2216 1326 1975 
Q 1069 1734 1069 1313 
Q 1069 891 1326 650 
Q 1584 409 2034 409 
Q 2484 409 2743 651 
Q 3003 894 3003 1313 
Q 3003 1734 2745 1975 
Q 2488 2216 2034 2216 
z
M 1403 2484 
Q 997 2584 770 2862 
Q 544 3141 544 3541 
Q 544 4100 942 4425 
Q 1341 4750 2034 4750 
Q 2731 4750 3128 4425 
Q 3525 4100 3525 3541 
Q 3525 3141 3298 2862 
Q 3072 2584 2669 2484 
Q 3125 2378 3379 2068 
Q 3634 1759 3634 1313 
Q 3634 634 3220 271 
Q 2806 -91 2034 -91 
Q 1263 -91 848 271 
Q 434 634 434 1313 
Q 434 1759 690 2068 
Q 947 2378 1403 2484 
z
M 1172 3481 
Q 1172 3119 1398 2916 
Q 1625 2713 2034 2713 
Q 2441 2713 2670 2916 
Q 2900 3119 2900 3481 
Q 2900 3844 2670 4047 
Q 2441 4250 2034 4250 
Q 1625 4250 1398 4047 
Q 1172 3844 1172 3481 
z
" transform="scale(0.015625)"/>
       </defs>
       <use xlink:href="#DejaVuSans-38"/>
       <use xlink:href="#DejaVuSans-30" transform="translate(63.623047 0)"/>
      </g>
     </g>
    </g>
    <g id="text_11">
     <!-- Body Mass Index (kg/m$^2$) -->
     <g transform="translate(29.83 294.1965) rotate(-90) scale(0.13 -0.13)">
      <defs>
       <path id="DejaVuSans-42" d="M 1259 2228 
L 1259 519 
L 2272 519 
Q 2781 519 3026 730 
Q 3272 941 3272 1375 
Q 3272 1813 3026 2020 
Q 2781 2228 2272 2228 
L 1259 2228 
z
M 1259 4147 
L 1259 2741 
L 2194 2741 
Q 2656 2741 2882 2914 
Q 3109 3088 3109 3444 
Q 3109 3797 2882 3972 
Q 2656 4147 2194 4147 
L 1259 4147 
z
M 628 4666 
L 2241 4666 
Q 2963 4666 3353 4366 
Q 3744 4066 3744 3513 
Q 3744 3084 3544 2831 
Q 3344 2578 2956 2516 
Q 3422 2416 3680 2098 
Q 3938 1781 3938 1306 
Q 3938 681 3513 340 
Q 3088 0 2303 0 
L 628 0 
L 628 4666 
z
" transform="scale(0.015625)"/>
       <path id="DejaVuSans-6f" d="M 1959 3097 
Q 1497 3097 1228 2736 
Q 959 2375 959 1747 
Q 959 1119 1226 758 
Q 1494 397 1959 397 
Q 2419 397 2687 759 
Q 2956 1122 2956 1747 
Q 2956 2369 2687 2733 
Q 2419 3097 1959 3097 
z
M 1959 3584 
Q 2709 3584 3137 3096 
Q 3566 2609 3566 1747 
Q 3566 888 3137 398 
Q 2709 -91 1959 -91 
Q 1206 -91 779 398 
Q 353 888 353 1747 
Q 353 2609 779 3096 
Q 1206 3584 1959 3584 
z
" transform="scale(0.015625)"/>
       <path id="DejaVuSans-64" d="M 2906 2969 
L 2906 4863 
L 3481 4863 
L 3481 0 
L 2906 0 
L 2906 525 
Q 2725 213 2448 61 
Q 2172 -91 1784 -91 
Q 1150 -91 751 415 
Q 353 922 353 1747 
Q 353 2572 751 3078 
Q 1150 3584 1784 3584 
Q 2172 3584 2448 3432 
Q 2725 3281 2906 2969 
z
M 947 1747 
Q 947 1113 1208 752 
Q 1469 391 1925 391 
Q 2381 391 2643 752 
Q 2906 1113 2906 1747 
Q 2906 2381 2643 2742 
Q 2381 3103 1925 3103 
Q 1469 3103 1208 2742 
Q 947 2381 947 1747 
z
" transform="scale(0.015625)"/>
       <path id="DejaVuSans-79" d="M 2059 -325 
Q 1816 -950 1584 -1140 
Q 1353 -1331 966 -1331 
L 506 -1331 
L 506 -850 
L 844 -850 
Q 1081 -850 1212 -737 
Q 1344 -625 1503 -206 
L 1606 56 
L 191 3500 
L 800 3500 
L 1894 763 
L 2988 3500 
L 3597 3500 
L 2059 -325 
z
" transform="scale(0.015625)"/>
       <path id="DejaVuSans-20" transform="scale(0.015625)"/>
       <path id="DejaVuSans-73" d="M 2834 3397 
L 2834 2853 
Q 2591 2978 2328 3040 
Q 2066 3103 1784 3103 
Q 1356 3103 1142 2972 
Q 928 2841 928 2578 
Q 928 2378 1081 2264 
Q 1234 2150 1697 2047 
L 1894 2003 
Q 2506 1872 2764 1633 
Q 3022 1394 3022 966 
Q 3022 478 2636 193 
Q 2250 -91 1575 -91 
Q 1294 -91 989 -36 
Q 684 19 347 128 
L 347 722 
Q 666 556 975 473 
Q 1284 391 1588 391 
Q 1994 391 2212 530 
Q 2431 669 2431 922 
Q 2431 1156 2273 1281 
Q 2116 1406 1581 1522 
L 1381 1569 
Q 847 1681 609 1914 
Q 372 2147 372 2553 
Q 372 3047 722 3315 
Q 1072 3584 1716 3584 
Q 2034 3584 2315 3537 
Q 2597 3491 2834 3397 
z
" transform="scale(0.015625)"/>
       <path id="DejaVuSans-49" d="M 628 4666 
L 1259 4666 
L 1259 0 
L 628 0 
L 628 4666 
z
" transform="scale(0.015625)"/>
       <path id="DejaVuSans-6e" d="M 3513 2113 
L 3513 0 
L 2938 0 
L 2938 2094 
Q 2938 2591 2744 2837 
Q 2550 3084 2163 3084 
Q 1697 3084 1428 2787 
Q 1159 2491 1159 1978 
L 1159 0 
L 581 0 
L 581 3500 
L 1159 3500 
L 1159 2956 
Q 1366 3272 1645 3428 
Q 1925 3584 2291 3584 
Q 2894 3584 3203 3211 
Q 3513 2838 3513 2113 
z
" transform="scale(0.015625)"/>
       <path id="DejaVuSans-28" d="M 1984 4856 
Q 1566 4138 1362 3434 
Q 1159 2731 1159 2009 
Q 1159 1288 1364 580 
Q 1569 -128 1984 -844 
L 1484 -844 
Q 1016 -109 783 600 
Q 550 1309 550 2009 
Q 550 2706 781 3412 
Q 1013 4119 1484 4856 
L 1984 4856 
z
" transform="scale(0.015625)"/>
       <path id="DejaVuSans-6b" d="M 581 4863 
L 1159 4863 
L 1159 1991 
L 2875 3500 
L 3609 3500 
L 1753 1863 
L 3688 0 
L 2938 0 
L 1159 1709 
L 1159 0 
L 581 0 
L 581 4863 
z
" transform="scale(0.015625)"/>
       <path id="DejaVuSans-67" d="M 2906 1791 
Q 2906 2416 2648 2759 
Q 2391 3103 1925 3103 
Q 1463 3103 1205 2759 
Q 947 2416 947 1791 
Q 947 1169 1205 825 
Q 1463 481 1925 481 
Q 2391 481 2648 825 
Q 2906 1169 2906 1791 
z
M 3481 434 
Q 3481 -459 3084 -895 
Q 2688 -1331 1869 -1331 
Q 1566 -1331 1297 -1286 
Q 1028 -1241 775 -1147 
L 775 -588 
Q 1028 -725 1275 -790 
Q 1522 -856 1778 -856 
Q 2344 -856 2625 -561 
Q 2906 -266 2906 331 
L 2906 616 
Q 2728 306 2450 153 
Q 2172 0 1784 0 
Q 1141 0 747 490 
Q 353 981 353 1791 
Q 353 2603 747 3093 
Q 1141 3584 1784 3584 
Q 2172 3584 2450 3431 
Q 2728 3278 2906 2969 
L 2906 3500 
L 3481 3500 
L 3481 434 
z
" transform="scale(0.015625)"/>
       <path id="DejaVuSans-2f" d="M 1625 4666 
L 2156 4666 
L 531 -594 
L 0 -594 
L 1625 4666 
z
" transform="scale(0.015625)"/>
       <path id="DejaVuSans-29" d="M 513 4856 
L 1013 4856 
Q 1481 4119 1714 3412 
Q 1947 2706 1947 2009 
Q 1947 1309 1714 600 
Q 1481 -109 1013 -844 
L 513 -844 
Q 928 -128 1133 580 
Q 1338 1288 1338 2009 
Q 1338 2731 1133 3434 
Q 928 4138 513 4856 
z
" transform="scale(0.015625)"/>
      </defs>
      <use xlink:href="#DejaVuSans-42" transform="translate(0 0.765625)"/>
      <use xlink:href="#DejaVuSans-6f" transform="translate(68.603516 0.765625)"/>
      <use xlink:href="#DejaVuSans-64" transform="translate(129.785156 0.765625)"/>
      <use xlink:href="#DejaVuSans-79" transform="translate(193.261719 0.765625)"/>
      <use xlink:href="#DejaVuSans-20" transform="translate(252.441406 0.765625)"/>
      <use xlink:href="#DejaVuSans-4d" transform="translate(284.228516 0.765625)"/>
      <use xlink:href="#DejaVuSans-61" transform="translate(370.507812 0.765625)"/>
      <use xlink:href="#DejaVuSans-73" transform="translate(431.787109 0.765625)"/>
      <use xlink:href="#DejaVuSans-73" transform="translate(483.886719 0.765625)"/>
      <use xlink:href="#DejaVuSans-20" transform="translate(535.986328 0.765625)"/>
      <use xlink:href="#DejaVuSans-49" transform="translate(567.773438 0.765625)"/>
      <use xlink:href="#DejaVuSans-6e" transform="translate(597.265625 0.765625)"/>
      <use xlink:href="#DejaVuSans-64" transform="translate(660.644531 0.765625)"/>
      <use xlink:href="#DejaVuSans-65" transform="translate(724.121094 0.765625)"/>
      <use xlink:href="#DejaVuSans-78" transform="translate(785.644531 0.765625)"/>
      <use xlink:href="#DejaVuSans-20" transform="translate(844.824219 0.765625)"/>
      <use xlink:href="#DejaVuSans-28" transform="translate(876.611328 0.765625)"/>
      <use xlink:href="#DejaVuSans-6b" transform="translate(915.625 0.765625)"/>
      <use xlink:href="#DejaVuSans-67" transform="translate(973.535156 0.765625)"/>
      <use xlink:href="#DejaVuSans-2f" transform="translate(1037.011719 0.765625)"/>
      <use xlink:href="#DejaVuSans-6d" transform="translate(1070.703125 0.765625)"/>
      <use xlink:href="#DejaVuSans-32" transform="translate(1169.072266 39.046875) scale(0.7)"/>
      <use xlink:href="#DejaVuSans-29" transform="translate(1216.342773 0.765625)"/>
     </g>
    </g>
   </g>
   <g id="patch_3">
    <path d="M 128.1075 321.84575 
L 259.935 321.84575 
L 259.935 279.32075 
L 128.1075 279.32075 
L 128.1075 321.84575 
z
" clip-path="url(#p1d9d4a0872)" style="fill: #d47a64; stroke: #242424; stroke-linejoin: miter"/>
   </g>
   <g id="line2d_17">
    <path d="M 194.02125 321.84575 
L 194.02125 365.6465 
" clip-path="url(#p1d9d4a0872)" style="fill: none; stroke: #242424"/>
   </g>
   <g id="line2d_18">
    <path d="M 194.02125 279.32075 
L 194.02125 215.9585 
" clip-path="url(#p1d9d4a0872)" style="fill: none; stroke: #242424"/>
   </g>
   <g id="line2d_19">
    <path d="M 161.064375 365.6465 
L 226.978125 365.6465 
" clip-path="url(#p1d9d4a0872)" style="fill: none; stroke: #242424; stroke-linecap: square"/>
   </g>
   <g id="line2d_20">
    <path d="M 161.064375 215.9585 
L 226.978125 215.9585 
" clip-path="url(#p1d9d4a0872)" style="fill: none; stroke: #242424; stroke-linecap: square"/>
   </g>
   <g id="line2d_21">
    <defs>
     <path id="m76585422ee" d="M 0 1 
C 0.265203 1 0.51958 0.894634 0.707107 0.707107 
C 0.894634 0.51958 1 0.265203 1 0 
C 1 -0.265203 0.894634 -0.51958 0.707107 -0.707107 
C 0.51958 -0.894634 0.265203 -1 0 -1 
C -0.265203 -1 -0.51958 -0.894634 -0.707107 -0.707107 
C -0.894634 -0.51958 -1 -0.265203 -1 0 
C -1 0.265203 -0.894634 0.51958 -0.707107 0.707107 
C -0.51958 0.894634 -0.265203 1 0 1 
z
" style="stroke: #242424"/>
    </defs>
    <g clip-path="url(#p1d9d4a0872)">
     <use xlink:href="#m76585422ee" x="194.02125" y="144.5165" style="fill-opacity: 0; stroke: #242424"/>
     <use xlink:href="#m76585422ee" x="194.02125" y="176.41025" style="fill-opacity: 0; stroke: #242424"/>
     <use xlink:href="#m76585422ee" x="194.02125" y="107.945" style="fill-opacity: 0; stroke: #242424"/>
     <use xlink:href="#m76585422ee" x="194.02125" y="202.77575" style="fill-opacity: 0; stroke: #242424"/>
     <use xlink:href="#m76585422ee" x="194.02125" y="211.706" style="fill-opacity: 0; stroke: #242424"/>
     <use xlink:href="#m76585422ee" x="194.02125" y="204.902" style="fill-opacity: 0; stroke: #242424"/>
     <use xlink:href="#m76585422ee" x="194.02125" y="210.8555" style="fill-opacity: 0; stroke: #242424"/>
     <use xlink:href="#m76585422ee" x="194.02125" y="156.4235" style="fill-opacity: 0; stroke: #242424"/>
     <use xlink:href="#m76585422ee" x="194.02125" y="208.304" style="fill-opacity: 0; stroke: #242424"/>
     <use xlink:href="#m76585422ee" x="194.02125" y="164.078" style="fill-opacity: 0; stroke: #242424"/>
     <use xlink:href="#m76585422ee" x="194.02125" y="190.01825" style="fill-opacity: 0; stroke: #242424"/>
     <use xlink:href="#m76585422ee" x="194.02125" y="209.1545" style="fill-opacity: 0; stroke: #242424"/>
     <use xlink:href="#m76585422ee" x="194.02125" y="185.3405" style="fill-opacity: 0; stroke: #242424"/>
     <use xlink:href="#m76585422ee" x="194.02125" y="193.8455" style="fill-opacity: 0; stroke: #242424"/>
     <use xlink:href="#m76585422ee" x="194.02125" y="174.70925" style="fill-opacity: 0; stroke: #242424"/>
     <use xlink:href="#m76585422ee" x="194.02125" y="214.2575" style="fill-opacity: 0; stroke: #242424"/>
     <use xlink:href="#m76585422ee" x="194.02125" y="215.108" style="fill-opacity: 0; stroke: #242424"/>
     <use xlink:href="#m76585422ee" x="194.02125" y="198.52325" style="fill-opacity: 0; stroke: #242424"/>
     <use xlink:href="#m76585422ee" x="194.02125" y="205.7525" style="fill-opacity: 0; stroke: #242424"/>
     <use xlink:href="#m76585422ee" x="194.02125" y="156.4235" style="fill-opacity: 0; stroke: #242424"/>
     <use xlink:href="#m76585422ee" x="194.02125" y="201.5" style="fill-opacity: 0; stroke: #242424"/>
     <use xlink:href="#m76585422ee" x="194.02125" y="186.191" style="fill-opacity: 0; stroke: #242424"/>
     <use xlink:href="#m76585422ee" x="194.02125" y="214.2575" style="fill-opacity: 0; stroke: #242424"/>
     <use xlink:href="#m76585422ee" x="194.02125" y="199.799" style="fill-opacity: 0; stroke: #242424"/>
     <use xlink:href="#m76585422ee" x="194.02125" y="146.2175" style="fill-opacity: 0; stroke: #242424"/>
     <use xlink:href="#m76585422ee" x="194.02125" y="202.3505" style="fill-opacity: 0; stroke: #242424"/>
     <use xlink:href="#m76585422ee" x="194.02125" y="203.201" style="fill-opacity: 0; stroke: #242424"/>
     <use xlink:href="#m76585422ee" x="194.02125" y="212.13125" style="fill-opacity: 0; stroke: #242424"/>
     <use xlink:href="#m76585422ee" x="194.02125" y="153.0215" style="fill-opacity: 0; stroke: #242424"/>
     <use xlink:href="#m76585422ee" x="194.02125" y="168.3305" style="fill-opacity: 0; stroke: #242424"/>
     <use xlink:href="#m76585422ee" x="194.02125" y="204.0515" style="fill-opacity: 0; stroke: #242424"/>
     <use xlink:href="#m76585422ee" x="194.02125" y="210.005" style="fill-opacity: 0; stroke: #242424"/>
     <use xlink:href="#m76585422ee" x="194.02125" y="172.15775" style="fill-opacity: 0; stroke: #242424"/>
     <use xlink:href="#m76585422ee" x="194.02125" y="150.89525" style="fill-opacity: 0; stroke: #242424"/>
     <use xlink:href="#m76585422ee" x="194.02125" y="138.13775" style="fill-opacity: 0; stroke: #242424"/>
     <use xlink:href="#m76585422ee" x="194.02125" y="197.67275" style="fill-opacity: 0; stroke: #242424"/>
     <use xlink:href="#m76585422ee" x="194.02125" y="187.46675" style="fill-opacity: 0; stroke: #242424"/>
     <use xlink:href="#m76585422ee" x="194.02125" y="175.985" style="fill-opacity: 0; stroke: #242424"/>
     <use xlink:href="#m76585422ee" x="194.02125" y="201.5" style="fill-opacity: 0; stroke: #242424"/>
     <use xlink:href="#m76585422ee" x="194.02125" y="210.005" style="fill-opacity: 0; stroke: #242424"/>
     <use xlink:href="#m76585422ee" x="194.02125" y="203.201" style="fill-opacity: 0; stroke: #242424"/>
     <use xlink:href="#m76585422ee" x="194.02125" y="202.3505" style="fill-opacity: 0; stroke: #242424"/>
     <use xlink:href="#m76585422ee" x="194.02125" y="182.789" style="fill-opacity: 0; stroke: #242424"/>
     <use xlink:href="#m76585422ee" x="194.02125" y="213.83225" style="fill-opacity: 0; stroke: #242424"/>
     <use xlink:href="#m76585422ee" x="194.02125" y="155.99825" style="fill-opacity: 0; stroke: #242424"/>
     <use xlink:href="#m76585422ee" x="194.02125" y="207.87875" style="fill-opacity: 0; stroke: #242424"/>
     <use xlink:href="#m76585422ee" x="194.02125" y="204.902" style="fill-opacity: 0; stroke: #242424"/>
     <use xlink:href="#m76585422ee" x="194.02125" y="181.9385" style="fill-opacity: 0; stroke: #242424"/>
     <use xlink:href="#m76585422ee" x="194.02125" y="208.72925" style="fill-opacity: 0; stroke: #242424"/>
     <use xlink:href="#m76585422ee" x="194.02125" y="200.22425" style="fill-opacity: 0; stroke: #242424"/>
     <use xlink:href="#m76585422ee" x="194.02125" y="194.27075" style="fill-opacity: 0; stroke: #242424"/>
     <use xlink:href="#m76585422ee" x="194.02125" y="214.2575" style="fill-opacity: 0; stroke: #242424"/>
     <use xlink:href="#m76585422ee" x="194.02125" y="204.0515" style="fill-opacity: 0; stroke: #242424"/>
     <use xlink:href="#m76585422ee" x="194.02125" y="199.799" style="fill-opacity: 0; stroke: #242424"/>
     <use xlink:href="#m76585422ee" x="194.02125" y="212.13125" style="fill-opacity: 0; stroke: #242424"/>
     <use xlink:href="#m76585422ee" x="194.02125" y="207.87875" style="fill-opacity: 0; stroke: #242424"/>
     <use xlink:href="#m76585422ee" x="194.02125" y="191.71925" style="fill-opacity: 0; stroke: #242424"/>
     <use xlink:href="#m76585422ee" x="194.02125" y="161.95175" style="fill-opacity: 0; stroke: #242424"/>
     <use xlink:href="#m76585422ee" x="194.02125" y="200.22425" style="fill-opacity: 0; stroke: #242424"/>
     <use xlink:href="#m76585422ee" x="194.02125" y="201.07475" style="fill-opacity: 0; stroke: #242424"/>
     <use xlink:href="#m76585422ee" x="194.02125" y="184.06475" style="fill-opacity: 0; stroke: #242424"/>
     <use xlink:href="#m76585422ee" x="194.02125" y="169.60625" style="fill-opacity: 0; stroke: #242424"/>
     <use xlink:href="#m76585422ee" x="194.02125" y="182.36375" style="fill-opacity: 0; stroke: #242424"/>
     <use xlink:href="#m76585422ee" x="194.02125" y="148.34375" style="fill-opacity: 0; stroke: #242424"/>
     <use xlink:href="#m76585422ee" x="194.02125" y="204.47675" style="fill-opacity: 0; stroke: #242424"/>
     <use xlink:href="#m76585422ee" x="194.02125" y="193.42025" style="fill-opacity: 0; stroke: #242424"/>
     <use xlink:href="#m76585422ee" x="194.02125" y="199.37375" style="fill-opacity: 0; stroke: #242424"/>
     <use xlink:href="#m76585422ee" x="194.02125" y="185.76575" style="fill-opacity: 0; stroke: #242424"/>
     <use xlink:href="#m76585422ee" x="194.02125" y="206.603" style="fill-opacity: 0; stroke: #242424"/>
     <use xlink:href="#m76585422ee" x="194.02125" y="210.43025" style="fill-opacity: 0; stroke: #242424"/>
     <use xlink:href="#m76585422ee" x="194.02125" y="67.121" style="fill-opacity: 0; stroke: #242424"/>
     <use xlink:href="#m76585422ee" x="194.02125" y="180.66275" style="fill-opacity: 0; stroke: #242424"/>
    </g>
   </g>
   <g id="patch_4">
    <path d="M 391.7625 319.7195 
L 523.59 319.7195 
L 523.59 286.97525 
L 391.7625 286.97525 
L 391.7625 319.7195 
z
" clip-path="url(#p1d9d4a0872)" style="fill: #2c444d; stroke: #242424; stroke-linejoin: miter"/>
   </g>
   <g id="line2d_22">
    <path d="M 457.67625 319.7195 
L 457.67625 362.66975 
" clip-path="url(#p1d9d4a0872)" style="fill: none; stroke: #242424"/>
   </g>
   <g id="line2d_23">
    <path d="M 457.67625 286.97525 
L 457.67625 238.0715 
" clip-path="url(#p1d9d4a0872)" style="fill: none; stroke: #242424"/>
   </g>
   <g id="line2d_24">
    <path d="M 424.719375 362.66975 
L 490.633125 362.66975 
" clip-path="url(#p1d9d4a0872)" style="fill: none; stroke: #242424; stroke-linecap: square"/>
   </g>
   <g id="line2d_25">
    <path d="M 424.719375 238.0715 
L 490.633125 238.0715 
" clip-path="url(#p1d9d4a0872)" style="fill: none; stroke: #242424; stroke-linecap: square"/>
   </g>
   <g id="line2d_26">
    <g clip-path="url(#p1d9d4a0872)">
     <use xlink:href="#m76585422ee" x="457.67625" y="214.68275" style="fill-opacity: 0; stroke: #242424"/>
     <use xlink:href="#m76585422ee" x="457.67625" y="236.79575" style="fill-opacity: 0; stroke: #242424"/>
     <use xlink:href="#m76585422ee" x="457.67625" y="231.69275" style="fill-opacity: 0; stroke: #242424"/>
     <use xlink:href="#m76585422ee" x="457.67625" y="223.18775" style="fill-opacity: 0; stroke: #242424"/>
     <use xlink:href="#m76585422ee" x="457.67625" y="229.5665" style="fill-opacity: 0; stroke: #242424"/>
     <use xlink:href="#m76585422ee" x="457.67625" y="213.407" style="fill-opacity: 0; stroke: #242424"/>
     <use xlink:href="#m76585422ee" x="457.67625" y="190.86875" style="fill-opacity: 0; stroke: #242424"/>
     <use xlink:href="#m76585422ee" x="457.67625" y="232.9685" style="fill-opacity: 0; stroke: #242424"/>
     <use xlink:href="#m76585422ee" x="457.67625" y="168.3305" style="fill-opacity: 0; stroke: #242424"/>
     <use xlink:href="#m76585422ee" x="457.67625" y="236.3705" style="fill-opacity: 0; stroke: #242424"/>
     <use xlink:href="#m76585422ee" x="457.67625" y="220.211" style="fill-opacity: 0; stroke: #242424"/>
     <use xlink:href="#m76585422ee" x="457.67625" y="233.39375" style="fill-opacity: 0; stroke: #242424"/>
     <use xlink:href="#m76585422ee" x="457.67625" y="234.6695" style="fill-opacity: 0; stroke: #242424"/>
     <use xlink:href="#m76585422ee" x="457.67625" y="226.1645" style="fill-opacity: 0; stroke: #242424"/>
     <use xlink:href="#m76585422ee" x="457.67625" y="194.696" style="fill-opacity: 0; stroke: #242424"/>
     <use xlink:href="#m76585422ee" x="457.67625" y="186.61625" style="fill-opacity: 0; stroke: #242424"/>
     <use xlink:href="#m76585422ee" x="457.67625" y="197.67275" style="fill-opacity: 0; stroke: #242424"/>
     <use xlink:href="#m76585422ee" x="457.67625" y="235.09475" style="fill-opacity: 0; stroke: #242424"/>
     <use xlink:href="#m76585422ee" x="457.67625" y="193.8455" style="fill-opacity: 0; stroke: #242424"/>
     <use xlink:href="#m76585422ee" x="457.67625" y="223.18775" style="fill-opacity: 0; stroke: #242424"/>
     <use xlink:href="#m76585422ee" x="457.67625" y="180.66275" style="fill-opacity: 0; stroke: #242424"/>
     <use xlink:href="#m76585422ee" x="457.67625" y="210.43025" style="fill-opacity: 0; stroke: #242424"/>
     <use xlink:href="#m76585422ee" x="457.67625" y="234.6695" style="fill-opacity: 0; stroke: #242424"/>
     <use xlink:href="#m76585422ee" x="457.67625" y="162.80225" style="fill-opacity: 0; stroke: #242424"/>
     <use xlink:href="#m76585422ee" x="457.67625" y="222.33725" style="fill-opacity: 0; stroke: #242424"/>
     <use xlink:href="#m76585422ee" x="457.67625" y="207.02825" style="fill-opacity: 0; stroke: #242424"/>
     <use xlink:href="#m76585422ee" x="457.67625" y="222.33725" style="fill-opacity: 0; stroke: #242424"/>
     <use xlink:href="#m76585422ee" x="457.67625" y="185.76575" style="fill-opacity: 0; stroke: #242424"/>
     <use xlink:href="#m76585422ee" x="457.67625" y="235.09475" style="fill-opacity: 0; stroke: #242424"/>
     <use xlink:href="#m76585422ee" x="457.67625" y="228.29075" style="fill-opacity: 0; stroke: #242424"/>
     <use xlink:href="#m76585422ee" x="457.67625" y="224.03825" style="fill-opacity: 0; stroke: #242424"/>
     <use xlink:href="#m76585422ee" x="457.67625" y="187.892" style="fill-opacity: 0; stroke: #242424"/>
     <use xlink:href="#m76585422ee" x="457.67625" y="233.39375" style="fill-opacity: 0; stroke: #242424"/>
     <use xlink:href="#m76585422ee" x="457.67625" y="162.377" style="fill-opacity: 0; stroke: #242424"/>
     <use xlink:href="#m76585422ee" x="457.67625" y="59.4665" style="fill-opacity: 0; stroke: #242424"/>
     <use xlink:href="#m76585422ee" x="457.67625" y="233.819" style="fill-opacity: 0; stroke: #242424"/>
     <use xlink:href="#m76585422ee" x="457.67625" y="197.2475" style="fill-opacity: 0; stroke: #242424"/>
     <use xlink:href="#m76585422ee" x="457.67625" y="198.52325" style="fill-opacity: 0; stroke: #242424"/>
     <use xlink:href="#m76585422ee" x="457.67625" y="235.52" style="fill-opacity: 0; stroke: #242424"/>
     <use xlink:href="#m76585422ee" x="457.67625" y="209.1545" style="fill-opacity: 0; stroke: #242424"/>
     <use xlink:href="#m76585422ee" x="457.67625" y="220.63625" style="fill-opacity: 0; stroke: #242424"/>
     <use xlink:href="#m76585422ee" x="457.67625" y="226.1645" style="fill-opacity: 0; stroke: #242424"/>
     <use xlink:href="#m76585422ee" x="457.67625" y="223.613" style="fill-opacity: 0; stroke: #242424"/>
     <use xlink:href="#m76585422ee" x="457.67625" y="234.6695" style="fill-opacity: 0; stroke: #242424"/>
     <use xlink:href="#m76585422ee" x="457.67625" y="234.24425" style="fill-opacity: 0; stroke: #242424"/>
     <use xlink:href="#m76585422ee" x="457.67625" y="236.79575" style="fill-opacity: 0; stroke: #242424"/>
     <use xlink:href="#m76585422ee" x="457.67625" y="201.5" style="fill-opacity: 0; stroke: #242424"/>
     <use xlink:href="#m76585422ee" x="457.67625" y="179.387" style="fill-opacity: 0; stroke: #242424"/>
     <use xlink:href="#m76585422ee" x="457.67625" y="219.78575" style="fill-opacity: 0; stroke: #242424"/>
     <use xlink:href="#m76585422ee" x="457.67625" y="237.221" style="fill-opacity: 0; stroke: #242424"/>
     <use xlink:href="#m76585422ee" x="457.67625" y="229.99175" style="fill-opacity: 0; stroke: #242424"/>
     <use xlink:href="#m76585422ee" x="457.67625" y="205.32725" style="fill-opacity: 0; stroke: #242424"/>
     <use xlink:href="#m76585422ee" x="457.67625" y="235.94525" style="fill-opacity: 0; stroke: #242424"/>
     <use xlink:href="#m76585422ee" x="457.67625" y="236.79575" style="fill-opacity: 0; stroke: #242424"/>
     <use xlink:href="#m76585422ee" x="457.67625" y="235.52" style="fill-opacity: 0; stroke: #242424"/>
     <use xlink:href="#m76585422ee" x="457.67625" y="232.9685" style="fill-opacity: 0; stroke: #242424"/>
     <use xlink:href="#m76585422ee" x="457.67625" y="193.8455" style="fill-opacity: 0; stroke: #242424"/>
     <use xlink:href="#m76585422ee" x="457.67625" y="215.9585" style="fill-opacity: 0; stroke: #242424"/>
     <use xlink:href="#m76585422ee" x="457.67625" y="221.48675" style="fill-opacity: 0; stroke: #242424"/>
     <use xlink:href="#m76585422ee" x="457.67625" y="236.3705" style="fill-opacity: 0; stroke: #242424"/>
     <use xlink:href="#m76585422ee" x="457.67625" y="197.67275" style="fill-opacity: 0; stroke: #242424"/>
     <use xlink:href="#m76585422ee" x="457.67625" y="229.99175" style="fill-opacity: 0; stroke: #242424"/>
     <use xlink:href="#m76585422ee" x="457.67625" y="187.46675" style="fill-opacity: 0; stroke: #242424"/>
     <use xlink:href="#m76585422ee" x="457.67625" y="136.0115" style="fill-opacity: 0; stroke: #242424"/>
     <use xlink:href="#m76585422ee" x="457.67625" y="237.64625" style="fill-opacity: 0; stroke: #242424"/>
     <use xlink:href="#m76585422ee" x="457.67625" y="218.51" style="fill-opacity: 0; stroke: #242424"/>
    </g>
   </g>
   <g id="line2d_27">
    <path d="M 128.1075 303.13475 
L 259.935 303.13475 
" clip-path="url(#p1d9d4a0872)" style="fill: none; stroke: #242424"/>
   </g>
   <g id="line2d_28">
    <path d="M 391.7625 305.261 
L 523.59 305.261 
" clip-path="url(#p1d9d4a0872)" style="fill: none; stroke: #242424"/>
   </g>
   <g id="patch_5">
    <path d="M 62.19375 380.9555 
L 62.19375 44.1575 
" style="fill: none; stroke: #333333; stroke-linejoin: miter; stroke-linecap: square"/>
   </g>
   <g id="patch_6">
    <path d="M 62.19375 380.9555 
L 589.50375 380.9555 
" style="fill: none; stroke: #333333; stroke-linejoin: miter; stroke-linecap: square"/>
   </g>
   <g id="text_12">
    <!-- Boxplot of BMI by Sex -->
    <g transform="translate(226.86625 30.1575) scale(0.16 -0.16)">
     <defs>
      <path id="DejaVuSans-Bold-42" d="M 2456 2859 
Q 2741 2859 2887 2984 
Q 3034 3109 3034 3353 
Q 3034 3594 2887 3720 
Q 2741 3847 2456 3847 
L 1791 3847 
L 1791 2859 
L 2456 2859 
z
M 2497 819 
Q 2859 819 3042 972 
Q 3225 1125 3225 1434 
Q 3225 1738 3044 1889 
Q 2863 2041 2497 2041 
L 1791 2041 
L 1791 819 
L 2497 819 
z
M 3616 2497 
Q 4003 2384 4215 2081 
Q 4428 1778 4428 1338 
Q 4428 663 3972 331 
Q 3516 0 2584 0 
L 588 0 
L 588 4666 
L 2394 4666 
Q 3366 4666 3802 4372 
Q 4238 4078 4238 3431 
Q 4238 3091 4078 2852 
Q 3919 2613 3616 2497 
z
" transform="scale(0.015625)"/>
      <path id="DejaVuSans-Bold-6f" d="M 2203 2784 
Q 1831 2784 1636 2517 
Q 1441 2250 1441 1747 
Q 1441 1244 1636 976 
Q 1831 709 2203 709 
Q 2569 709 2762 976 
Q 2956 1244 2956 1747 
Q 2956 2250 2762 2517 
Q 2569 2784 2203 2784 
z
M 2203 3584 
Q 3106 3584 3614 3096 
Q 4122 2609 4122 1747 
Q 4122 884 3614 396 
Q 3106 -91 2203 -91 
Q 1297 -91 786 396 
Q 275 884 275 1747 
Q 275 2609 786 3096 
Q 1297 3584 2203 3584 
z
" transform="scale(0.015625)"/>
      <path id="DejaVuSans-Bold-78" d="M 1422 1791 
L 159 3500 
L 1344 3500 
L 2059 2463 
L 2784 3500 
L 3969 3500 
L 2706 1797 
L 4031 0 
L 2847 0 
L 2059 1106 
L 1281 0 
L 97 0 
L 1422 1791 
z
" transform="scale(0.015625)"/>
      <path id="DejaVuSans-Bold-70" d="M 1656 506 
L 1656 -1331 
L 538 -1331 
L 538 3500 
L 1656 3500 
L 1656 2988 
Q 1888 3294 2169 3439 
Q 2450 3584 2816 3584 
Q 3463 3584 3878 3070 
Q 4294 2556 4294 1747 
Q 4294 938 3878 423 
Q 3463 -91 2816 -91 
Q 2450 -91 2169 54 
Q 1888 200 1656 506 
z
M 2400 2772 
Q 2041 2772 1848 2508 
Q 1656 2244 1656 1747 
Q 1656 1250 1848 986 
Q 2041 722 2400 722 
Q 2759 722 2948 984 
Q 3138 1247 3138 1747 
Q 3138 2247 2948 2509 
Q 2759 2772 2400 2772 
z
" transform="scale(0.015625)"/>
      <path id="DejaVuSans-Bold-6c" d="M 538 4863 
L 1656 4863 
L 1656 0 
L 538 0 
L 538 4863 
z
" transform="scale(0.015625)"/>
      <path id="DejaVuSans-Bold-74" d="M 1759 4494 
L 1759 3500 
L 2913 3500 
L 2913 2700 
L 1759 2700 
L 1759 1216 
Q 1759 972 1856 886 
Q 1953 800 2241 800 
L 2816 800 
L 2816 0 
L 1856 0 
Q 1194 0 917 276 
Q 641 553 641 1216 
L 641 2700 
L 84 2700 
L 84 3500 
L 641 3500 
L 641 4494 
L 1759 4494 
z
" transform="scale(0.015625)"/>
      <path id="DejaVuSans-Bold-20" transform="scale(0.015625)"/>
      <path id="DejaVuSans-Bold-66" d="M 2841 4863 
L 2841 4128 
L 2222 4128 
Q 1984 4128 1890 4042 
Q 1797 3956 1797 3744 
L 1797 3500 
L 2753 3500 
L 2753 2700 
L 1797 2700 
L 1797 0 
L 678 0 
L 678 2700 
L 122 2700 
L 122 3500 
L 678 3500 
L 678 3744 
Q 678 4316 997 4589 
Q 1316 4863 1984 4863 
L 2841 4863 
z
" transform="scale(0.015625)"/>
      <path id="DejaVuSans-Bold-4d" d="M 588 4666 
L 2119 4666 
L 3181 2169 
L 4250 4666 
L 5778 4666 
L 5778 0 
L 4641 0 
L 4641 3413 
L 3566 897 
L 2803 897 
L 1728 3413 
L 1728 0 
L 588 0 
L 588 4666 
z
" transform="scale(0.015625)"/>
      <path id="DejaVuSans-Bold-49" d="M 588 4666 
L 1791 4666 
L 1791 0 
L 588 0 
L 588 4666 
z
" transform="scale(0.015625)"/>
      <path id="DejaVuSans-Bold-62" d="M 2400 722 
Q 2759 722 2948 984 
Q 3138 1247 3138 1747 
Q 3138 2247 2948 2509 
Q 2759 2772 2400 2772 
Q 2041 2772 1848 2508 
Q 1656 2244 1656 1747 
Q 1656 1250 1848 986 
Q 2041 722 2400 722 
z
M 1656 2988 
Q 1888 3294 2169 3439 
Q 2450 3584 2816 3584 
Q 3463 3584 3878 3070 
Q 4294 2556 4294 1747 
Q 4294 938 3878 423 
Q 3463 -91 2816 -91 
Q 2450 -91 2169 54 
Q 1888 200 1656 506 
L 1656 0 
L 538 0 
L 538 4863 
L 1656 4863 
L 1656 2988 
z
" transform="scale(0.015625)"/>
      <path id="DejaVuSans-Bold-79" d="M 78 3500 
L 1197 3500 
L 2138 1125 
L 2938 3500 
L 4056 3500 
L 2584 -331 
Q 2363 -916 2067 -1148 
Q 1772 -1381 1288 -1381 
L 641 -1381 
L 641 -647 
L 991 -647 
Q 1275 -647 1404 -556 
Q 1534 -466 1606 -231 
L 1638 -134 
L 78 3500 
z
" transform="scale(0.015625)"/>
      <path id="DejaVuSans-Bold-53" d="M 3834 4519 
L 3834 3531 
Q 3450 3703 3084 3790 
Q 2719 3878 2394 3878 
Q 1963 3878 1756 3759 
Q 1550 3641 1550 3391 
Q 1550 3203 1689 3098 
Q 1828 2994 2194 2919 
L 2706 2816 
Q 3484 2659 3812 2340 
Q 4141 2022 4141 1434 
Q 4141 663 3683 286 
Q 3225 -91 2284 -91 
Q 1841 -91 1394 -6 
Q 947 78 500 244 
L 500 1259 
Q 947 1022 1364 901 
Q 1781 781 2169 781 
Q 2563 781 2772 912 
Q 2981 1044 2981 1288 
Q 2981 1506 2839 1625 
Q 2697 1744 2272 1838 
L 1806 1941 
Q 1106 2091 782 2419 
Q 459 2747 459 3303 
Q 459 4000 909 4375 
Q 1359 4750 2203 4750 
Q 2588 4750 2994 4692 
Q 3400 4634 3834 4519 
z
" transform="scale(0.015625)"/>
      <path id="DejaVuSans-Bold-65" d="M 4031 1759 
L 4031 1441 
L 1416 1441 
Q 1456 1047 1700 850 
Q 1944 653 2381 653 
Q 2734 653 3104 758 
Q 3475 863 3866 1075 
L 3866 213 
Q 3469 63 3072 -14 
Q 2675 -91 2278 -91 
Q 1328 -91 801 392 
Q 275 875 275 1747 
Q 275 2603 792 3093 
Q 1309 3584 2216 3584 
Q 3041 3584 3536 3087 
Q 4031 2591 4031 1759 
z
M 2881 2131 
Q 2881 2450 2695 2645 
Q 2509 2841 2209 2841 
Q 1884 2841 1681 2658 
Q 1478 2475 1428 2131 
L 2881 2131 
z
" transform="scale(0.015625)"/>
     </defs>
     <use xlink:href="#DejaVuSans-Bold-42"/>
     <use xlink:href="#DejaVuSans-Bold-6f" transform="translate(76.220703 0)"/>
     <use xlink:href="#DejaVuSans-Bold-78" transform="translate(144.921875 0)"/>
     <use xlink:href="#DejaVuSans-Bold-70" transform="translate(209.423828 0)"/>
     <use xlink:href="#DejaVuSans-Bold-6c" transform="translate(281.005859 0)"/>
     <use xlink:href="#DejaVuSans-Bold-6f" transform="translate(315.283203 0)"/>
     <use xlink:href="#DejaVuSans-Bold-74" transform="translate(383.984375 0)"/>
     <use xlink:href="#DejaVuSans-Bold-20" transform="translate(431.787109 0)"/>
     <use xlink:href="#DejaVuSans-Bold-6f" transform="translate(466.601562 0)"/>
     <use xlink:href="#DejaVuSans-Bold-66" transform="translate(535.302734 0)"/>
     <use xlink:href="#DejaVuSans-Bold-20" transform="translate(578.808594 0)"/>
     <use xlink:href="#DejaVuSans-Bold-42" transform="translate(613.623047 0)"/>
     <use xlink:href="#DejaVuSans-Bold-4d" transform="translate(689.84375 0)"/>
     <use xlink:href="#DejaVuSans-Bold-49" transform="translate(789.355469 0)"/>
     <use xlink:href="#DejaVuSans-Bold-20" transform="translate(826.5625 0)"/>
     <use xlink:href="#DejaVuSans-Bold-62" transform="translate(861.376953 0)"/>
     <use xlink:href="#DejaVuSans-Bold-79" transform="translate(932.958984 0)"/>
     <use xlink:href="#DejaVuSans-Bold-20" transform="translate(998.144531 0)"/>
     <use xlink:href="#DejaVuSans-Bold-53" transform="translate(1032.958984 0)"/>
     <use xlink:href="#DejaVuSans-Bold-65" transform="translate(1104.980469 0)"/>
     <use xlink:href="#DejaVuSans-Bold-78" transform="translate(1172.802734 0)"/>
    </g>
   </g>
  </g>
 </g>
 <defs>
  <clipPath id="p1d9d4a0872">
   <rect x="62.19375" y="44.1575" width="527.31" height="336.798"/>
  </clipPath>
 </defs>
</svg>
