<?xml version="1.0" encoding="utf-8" standalone="no"?>
<!DOCTYPE svg PUBLIC "-//W3C//DTD SVG 1.1//EN"
  "http://www.w3.org/Graphics/SVG/1.1/DTD/svg11.dtd">
<svg xmlns:xlink="http://www.w3.org/1999/xlink" width="616.497031pt" height="439.645344pt" viewBox="0 0 616.497031 439.645344" xmlns="http://www.w3.org/2000/svg" version="1.1">
 <metadata>
  <rdf:RDF xmlns:dc="http://purl.org/dc/elements/1.1/" xmlns:cc="http://creativecommons.org/ns#" xmlns:rdf="http://www.w3.org/1999/02/22-rdf-syntax-ns#">
   <cc:Work>
    <dc:type rdf:resource="http://purl.org/dc/dcmitype/StillImage"/>
    <dc:date>2026-06-28T05:18:25.045084</dc:date>
    <dc:format>image/svg+xml</dc:format>
    <dc:creator>
     <cc:Agent>
      <dc:title>Matplotlib v3.10.9, https://matplotlib.org/</dc:title>
     </cc:Agent>
    </dc:creator>
   </cc:Work>
  </rdf:RDF>
 </metadata>
 <defs>
  <style type="text/css">*{stroke-linejoin: round; stroke-linecap: butt}</style>
 </defs>
 <g id="figure_1">
  <g id="patch_1">
   <path d="M 0 439.645344 
L 616.497031 439.645344 
L 616.497031 -0 
L 0 -0 
z
" style="fill: #ffffff"/>
  </g>
  <g id="axes_1">
   <g id="patch_2">
    <path d="M 71.187031 380.9555 
L 598.497031 380.9555 
L 598.497031 44.1575 
L 71.187031 44.1575 
z
" style="fill: #ffffff"/>
   </g>
   <g id="FillBetweenPolyCollection_1">
    <defs>
     <path id="m593cf088c4" d="M 99.816236 -73.998844 
L 99.816236 -80.061146 
L 101.403902 -81.274358 
L 102.991568 -82.63908 
L 104.579234 -84.168059 
L 106.1669 -85.877585 
L 107.754566 -87.787712 
L 109.342232 -89.921875 
L 110.929898 -92.305831 
L 112.517564 -94.965946 
L 114.105231 -97.927002 
L 115.692897 -101.209844 
L 117.280563 -104.829324 
L 118.868229 -108.793045 
L 120.455895 -113.101314 
L 122.043561 -117.748524 
L 123.631227 -122.725818 
L 125.218893 -128.024545 
L 126.806559 -133.639668 
L 128.394225 -139.572215 
L 129.981891 -145.829933 
L 131.569557 -152.425752 
L 133.157224 -159.374188 
L 134.74489 -166.686451 
L 136.332556 -174.365441 
L 137.920222 -182.401971 
L 139.507888 -190.773316 
L 141.095554 -199.44459 
L 142.68322 -208.37267 
L 144.270886 -217.511661 
L 145.858552 -226.818369 
L 147.446218 -236.256205 
L 149.033884 -245.796358 
L 150.62155 -255.41579 
L 152.209217 -265.092546 
L 153.796883 -274.799586 
L 155.384549 -284.498775 
L 156.972215 -294.136604 
L 158.559881 -303.64274 
L 160.147547 -312.931788 
L 161.735213 -321.907903 
L 163.322879 -330.471318 
L 164.910545 -338.525559 
L 166.498211 -345.98417 
L 168.085877 -352.775962 
L 169.673543 -358.848169 
L 171.26121 -364.167245 
L 172.848876 -368.717378 
L 174.436542 -372.497038 
L 176.024208 -375.514217 
L 177.611874 -377.781171 
L 179.19954 -379.309673 
L 180.787206 -380.107775 
L 182.374872 -380.178844 
L 183.962538 -379.523244 
L 185.550204 -378.1424 
L 187.13787 -376.04437 
L 188.725536 -373.249562 
L 190.313203 -369.795052 
L 191.900869 -365.73617 
L 193.488535 -361.144569 
L 195.076201 -356.102879 
L 196.663867 -350.696858 
L 198.251533 -345.006683 
L 199.839199 -339.099302 
L 201.426865 -333.02362 
L 203.014531 -326.809633 
L 204.602197 -320.471732 
L 206.189863 -314.015353 
L 207.77753 -307.445356 
L 209.365196 -300.774096 
L 210.952862 -294.02721 
L 212.540528 -287.245751 
L 214.128194 -280.484165 
L 215.71586 -273.804589 
L 217.303526 -267.268805 
L 218.891192 -260.929614 
L 220.478858 -254.823456 
L 222.066524 -248.965692 
L 223.65419 -243.349328 
L 225.241856 -237.947163 
L 226.829523 -232.71671 
L 228.417189 -227.60678 
L 230.004855 -222.564486 
L 231.592521 -217.541559 
L 233.180187 -212.499198 
L 234.767853 -207.411108 
L 236.355519 -202.264742 
L 237.943185 -197.061104 
L 239.530851 -191.813546 
L 241.118517 -186.546032 
L 242.706183 -181.291175 
L 244.293849 -176.088212 
L 245.881516 -170.980901 
L 247.469182 -166.01528 
L 249.056848 -161.237198 
L 250.644514 -156.689668 
L 252.23218 -152.410202 
L 253.819846 -148.428397 
L 255.407512 -144.764108 
L 256.995178 -141.426441 
L 258.582844 -138.413692 
L 260.17051 -135.714138 
L 261.758176 -133.307444 
L 263.345842 -131.166359 
L 264.933509 -129.258371 
L 266.521175 -127.547142 
L 268.108841 -125.99366 
L 269.696507 -124.557237 
L 271.284173 -123.196573 
L 272.871839 -121.871117 
L 274.459505 -120.542874 
L 276.047171 -119.178634 
L 277.634837 -117.752398 
L 279.222503 -116.24761 
L 280.810169 -114.658678 
L 282.397835 -112.991314 
L 283.985502 -111.261371 
L 285.573168 -109.492166 
L 287.160834 -107.710619 
L 288.7485 -105.942867 
L 290.336166 -104.210227 
L 291.923832 -102.526371 
L 293.511498 -100.896343 
L 295.099164 -99.31764 
L 296.68683 -97.783085 
L 298.274496 -96.284748 
L 299.862162 -94.817922 
L 301.449828 -93.384127 
L 303.037495 -91.992381 
L 304.625161 -90.6584 
L 306.212827 -89.401934 
L 307.800493 -88.24289 
L 309.388159 -87.197171 
L 310.975825 -86.27321 
L 312.563491 -85.469968 
L 314.151157 -84.776803 
L 315.738823 -84.175165 
L 317.326489 -83.641688 
L 318.914155 -83.151961 
L 320.501821 -82.684199 
L 322.089488 -82.222096 
L 323.677154 -81.756429 
L 325.26482 -81.285254 
L 326.852486 -80.812854 
L 328.440152 -80.347847 
L 330.027818 -79.900947 
L 331.615484 -79.482863 
L 333.20315 -79.102723 
L 334.790816 -78.767203 
L 336.378482 -78.480364 
L 337.966148 -78.24404 
L 339.553814 -78.058517 
L 341.141481 -77.923223 
L 342.729147 -77.837185 
L 344.316813 -77.799137 
L 345.904479 -77.807242 
L 347.492145 -77.858554 
L 349.079811 -77.948401 
L 350.667477 -78.069928 
L 352.255143 -78.213984 
L 353.842809 -78.369484 
L 355.430475 -78.524209 
L 357.018141 -78.665945 
L 358.605807 -78.783704 
L 360.193474 -78.868797 
L 361.78114 -78.915517 
L 363.368806 -78.921329 
L 364.956472 -78.886544 
L 366.544138 -78.813627 
L 368.131804 -78.706308 
L 369.71947 -78.568751 
L 371.307136 -78.404929 
L 372.894802 -78.218314 
L 374.482468 -78.01187 
L 376.070134 -77.788275 
L 377.6578 -77.550245 
L 379.245467 -77.300846 
L 380.833133 -77.043728 
L 382.420799 -76.78323 
L 384.008465 -76.524364 
L 385.596131 -76.272701 
L 387.183797 -76.034174 
L 388.771463 -75.814794 
L 390.359129 -75.6203 
L 391.946795 -75.455725 
L 393.534461 -75.324937 
L 395.122127 -75.230175 
L 396.709793 -75.171658 
L 398.29746 -75.147354 
L 399.885126 -75.152933 
L 401.472792 -75.181971 
L 403.060458 -75.226378 
L 404.648124 -75.277027 
L 406.23579 -75.324525 
L 407.823456 -75.36005 
L 409.411122 -75.37615 
L 410.998788 -75.367431 
L 412.586454 -75.331034 
L 414.17412 -75.266837 
L 415.761786 -75.177349 
L 417.349453 -75.067306 
L 418.937119 -74.943024 
L 420.524785 -74.811606 
L 422.112451 -74.68013 
L 423.700117 -74.554941 
L 425.287783 -74.44113 
L 426.875449 -74.342275 
L 428.463115 -74.260428 
L 430.050781 -74.196314 
L 431.638447 -74.149655 
L 433.226113 -74.119544 
L 434.81378 -74.104775 
L 436.401446 -74.104064 
L 437.989112 -74.116147 
L 439.576778 -74.139742 
L 441.164444 -74.173409 
L 442.75211 -74.215376 
L 444.339776 -74.263372 
L 445.927442 -74.314546 
L 447.515108 -74.365523 
L 449.102774 -74.412593 
L 450.69044 -74.452036 
L 452.278106 -74.480534 
L 453.865773 -74.495576 
L 455.453439 -74.495795 
L 457.041105 -74.481155 
L 458.628771 -74.45295 
L 460.216437 -74.413607 
L 461.804103 -74.366342 
L 463.391769 -74.314723 
L 464.979435 -74.262233 
L 466.567101 -74.211896 
L 468.154767 -74.166024 
L 469.742433 -74.126104 
L 471.330099 -74.092819 
L 472.917766 -74.066164 
L 474.505432 -74.045626 
L 476.093098 -74.030382 
L 477.680764 -74.019469 
L 479.26843 -74.011929 
L 480.856096 -74.006897 
L 482.443762 -74.003652 
L 484.031428 -74.001628 
L 485.619094 -74.000408 
L 487.20676 -73.999696 
L 488.794426 -73.999295 
L 490.382092 -73.999075 
L 491.969759 -73.998959 
L 493.557425 -73.998899 
L 495.145091 -73.99887 
L 496.732757 -73.998856 
L 498.320423 -73.998849 
L 499.908089 -73.998846 
L 501.495755 -73.998845 
L 503.083421 -73.998844 
L 504.671087 -73.998844 
L 506.258753 -73.998844 
L 507.846419 -73.998844 
L 509.434085 -73.998844 
L 511.021752 -73.998844 
L 512.609418 -73.998844 
L 514.197084 -73.998844 
L 515.78475 -73.998844 
L 517.372416 -73.998844 
L 518.960082 -73.998844 
L 520.547748 -73.998844 
L 522.135414 -73.998844 
L 523.72308 -73.998844 
L 525.310746 -73.998844 
L 526.898412 -73.998844 
L 528.486078 -73.998845 
L 530.073745 -73.998847 
L 531.661411 -73.998852 
L 533.249077 -73.998861 
L 534.836743 -73.998881 
L 536.424409 -73.998923 
L 538.012075 -73.999006 
L 539.599741 -73.999164 
L 541.187407 -73.99946 
L 542.775073 -73.999992 
L 544.362739 -74.00092 
L 545.950405 -74.002484 
L 547.538071 -74.005038 
L 549.125738 -74.009068 
L 550.713404 -74.015214 
L 552.30107 -74.024271 
L 553.888736 -74.037157 
L 555.476402 -74.054847 
L 557.064068 -74.078256 
L 558.651734 -74.108082 
L 560.2394 -74.144616 
L 561.827066 -74.187549 
L 563.414732 -74.235819 
L 565.002398 -74.287535 
L 566.590064 -74.340016 
L 568.177731 -74.389978 
L 569.765397 -74.433843 
L 571.353063 -74.468156 
L 572.940729 -74.490029 
L 574.528395 -74.497544 
L 574.528395 -73.998844 
L 574.528395 -73.998844 
L 572.940729 -73.998844 
L 571.353063 -73.998844 
L 569.765397 -73.998844 
L 568.177731 -73.998844 
L 566.590064 -73.998844 
L 565.002398 -73.998844 
L 563.414732 -73.998844 
L 561.827066 -73.998844 
L 560.2394 -73.998844 
L 558.651734 -73.998844 
L 557.064068 -73.998844 
L 555.476402 -73.998844 
L 553.888736 -73.998844 
L 552.30107 -73.998844 
L 550.713404 -73.998844 
L 549.125738 -73.998844 
L 547.538071 -73.998844 
L 545.950405 -73.998844 
L 544.362739 -73.998844 
L 542.775073 -73.998844 
L 541.187407 -73.998844 
L 539.599741 -73.998844 
L 538.012075 -73.998844 
L 536.424409 -73.998844 
L 534.836743 -73.998844 
L 533.249077 -73.998844 
L 531.661411 -73.998844 
L 530.073745 -73.998844 
L 528.486078 -73.998844 
L 526.898412 -73.998844 
L 525.310746 -73.998844 
L 523.72308 -73.998844 
L 522.135414 -73.998844 
L 520.547748 -73.998844 
L 518.960082 -73.998844 
L 517.372416 -73.998844 
L 515.78475 -73.998844 
L 514.197084 -73.998844 
L 512.609418 -73.998844 
L 511.021752 -73.998844 
L 509.434085 -73.998844 
L 507.846419 -73.998844 
L 506.258753 -73.998844 
L 504.671087 -73.998844 
L 503.083421 -73.998844 
L 501.495755 -73.998844 
L 499.908089 -73.998844 
L 498.320423 -73.998844 
L 496.732757 -73.998844 
L 495.145091 -73.998844 
L 493.557425 -73.998844 
L 491.969759 -73.998844 
L 490.382092 -73.998844 
L 488.794426 -73.998844 
L 487.20676 -73.998844 
L 485.619094 -73.998844 
L 484.031428 -73.998844 
L 482.443762 -73.998844 
L 480.856096 -73.998844 
L 479.26843 -73.998844 
L 477.680764 -73.998844 
L 476.093098 -73.998844 
L 474.505432 -73.998844 
L 472.917766 -73.998844 
L 471.330099 -73.998844 
L 469.742433 -73.998844 
L 468.154767 -73.998844 
L 466.567101 -73.998844 
L 464.979435 -73.998844 
L 463.391769 -73.998844 
L 461.804103 -73.998844 
L 460.216437 -73.998844 
L 458.628771 -73.998844 
L 457.041105 -73.998844 
L 455.453439 -73.998844 
L 453.865773 -73.998844 
L 452.278106 -73.998844 
L 450.69044 -73.998844 
L 449.102774 -73.998844 
L 447.515108 -73.998844 
L 445.927442 -73.998844 
L 444.339776 -73.998844 
L 442.75211 -73.998844 
L 441.164444 -73.998844 
L 439.576778 -73.998844 
L 437.989112 -73.998844 
L 436.401446 -73.998844 
L 434.81378 -73.998844 
L 433.226113 -73.998844 
L 431.638447 -73.998844 
L 430.050781 -73.998844 
L 428.463115 -73.998844 
L 426.875449 -73.998844 
L 425.287783 -73.998844 
L 423.700117 -73.998844 
L 422.112451 -73.998844 
L 420.524785 -73.998844 
L 418.937119 -73.998844 
L 417.349453 -73.998844 
L 415.761786 -73.998844 
L 414.17412 -73.998844 
L 412.586454 -73.998844 
L 410.998788 -73.998844 
L 409.411122 -73.998844 
L 407.823456 -73.998844 
L 406.23579 -73.998844 
L 404.648124 -73.998844 
L 403.060458 -73.998844 
L 401.472792 -73.998844 
L 399.885126 -73.998844 
L 398.29746 -73.998844 
L 396.709793 -73.998844 
L 395.122127 -73.998844 
L 393.534461 -73.998844 
L 391.946795 -73.998844 
L 390.359129 -73.998844 
L 388.771463 -73.998844 
L 387.183797 -73.998844 
L 385.596131 -73.998844 
L 384.008465 -73.998844 
L 382.420799 -73.998844 
L 380.833133 -73.998844 
L 379.245467 -73.998844 
L 377.6578 -73.998844 
L 376.070134 -73.998844 
L 374.482468 -73.998844 
L 372.894802 -73.998844 
L 371.307136 -73.998844 
L 369.71947 -73.998844 
L 368.131804 -73.998844 
L 366.544138 -73.998844 
L 364.956472 -73.998844 
L 363.368806 -73.998844 
L 361.78114 -73.998844 
L 360.193474 -73.998844 
L 358.605807 -73.998844 
L 357.018141 -73.998844 
L 355.430475 -73.998844 
L 353.842809 -73.998844 
L 352.255143 -73.998844 
L 350.667477 -73.998844 
L 349.079811 -73.998844 
L 347.492145 -73.998844 
L 345.904479 -73.998844 
L 344.316813 -73.998844 
L 342.729147 -73.998844 
L 341.141481 -73.998844 
L 339.553814 -73.998844 
L 337.966148 -73.998844 
L 336.378482 -73.998844 
L 334.790816 -73.998844 
L 333.20315 -73.998844 
L 331.615484 -73.998844 
L 330.027818 -73.998844 
L 328.440152 -73.998844 
L 326.852486 -73.998844 
L 325.26482 -73.998844 
L 323.677154 -73.998844 
L 322.089488 -73.998844 
L 320.501821 -73.998844 
L 318.914155 -73.998844 
L 317.326489 -73.998844 
L 315.738823 -73.998844 
L 314.151157 -73.998844 
L 312.563491 -73.998844 
L 310.975825 -73.998844 
L 309.388159 -73.998844 
L 307.800493 -73.998844 
L 306.212827 -73.998844 
L 304.625161 -73.998844 
L 303.037495 -73.998844 
L 301.449828 -73.998844 
L 299.862162 -73.998844 
L 298.274496 -73.998844 
L 296.68683 -73.998844 
L 295.099164 -73.998844 
L 293.511498 -73.998844 
L 291.923832 -73.998844 
L 290.336166 -73.998844 
L 288.7485 -73.998844 
L 287.160834 -73.998844 
L 285.573168 -73.998844 
L 283.985502 -73.998844 
L 282.397835 -73.998844 
L 280.810169 -73.998844 
L 279.222503 -73.998844 
L 277.634837 -73.998844 
L 276.047171 -73.998844 
L 274.459505 -73.998844 
L 272.871839 -73.998844 
L 271.284173 -73.998844 
L 269.696507 -73.998844 
L 268.108841 -73.998844 
L 266.521175 -73.998844 
L 264.933509 -73.998844 
L 263.345842 -73.998844 
L 261.758176 -73.998844 
L 260.17051 -73.998844 
L 258.582844 -73.998844 
L 256.995178 -73.998844 
L 255.407512 -73.998844 
L 253.819846 -73.998844 
L 252.23218 -73.998844 
L 250.644514 -73.998844 
L 249.056848 -73.998844 
L 247.469182 -73.998844 
L 245.881516 -73.998844 
L 244.293849 -73.998844 
L 242.706183 -73.998844 
L 241.118517 -73.998844 
L 239.530851 -73.998844 
L 237.943185 -73.998844 
L 236.355519 -73.998844 
L 234.767853 -73.998844 
L 233.180187 -73.998844 
L 231.592521 -73.998844 
L 230.004855 -73.998844 
L 228.417189 -73.998844 
L 226.829523 -73.998844 
L 225.241856 -73.998844 
L 223.65419 -73.998844 
L 222.066524 -73.998844 
L 220.478858 -73.998844 
L 218.891192 -73.998844 
L 217.303526 -73.998844 
L 215.71586 -73.998844 
L 214.128194 -73.998844 
L 212.540528 -73.998844 
L 210.952862 -73.998844 
L 209.365196 -73.998844 
L 207.77753 -73.998844 
L 206.189863 -73.998844 
L 204.602197 -73.998844 
L 203.014531 -73.998844 
L 201.426865 -73.998844 
L 199.839199 -73.998844 
L 198.251533 -73.998844 
L 196.663867 -73.998844 
L 195.076201 -73.998844 
L 193.488535 -73.998844 
L 191.900869 -73.998844 
L 190.313203 -73.998844 
L 188.725536 -73.998844 
L 187.13787 -73.998844 
L 185.550204 -73.998844 
L 183.962538 -73.998844 
L 182.374872 -73.998844 
L 180.787206 -73.998844 
L 179.19954 -73.998844 
L 177.611874 -73.998844 
L 176.024208 -73.998844 
L 174.436542 -73.998844 
L 172.848876 -73.998844 
L 171.26121 -73.998844 
L 169.673543 -73.998844 
L 168.085877 -73.998844 
L 166.498211 -73.998844 
L 164.910545 -73.998844 
L 163.322879 -73.998844 
L 161.735213 -73.998844 
L 160.147547 -73.998844 
L 158.559881 -73.998844 
L 156.972215 -73.998844 
L 155.384549 -73.998844 
L 153.796883 -73.998844 
L 152.209217 -73.998844 
L 150.62155 -73.998844 
L 149.033884 -73.998844 
L 147.446218 -73.998844 
L 145.858552 -73.998844 
L 144.270886 -73.998844 
L 142.68322 -73.998844 
L 141.095554 -73.998844 
L 139.507888 -73.998844 
L 137.920222 -73.998844 
L 136.332556 -73.998844 
L 134.74489 -73.998844 
L 133.157224 -73.998844 
L 131.569557 -73.998844 
L 129.981891 -73.998844 
L 128.394225 -73.998844 
L 126.806559 -73.998844 
L 125.218893 -73.998844 
L 123.631227 -73.998844 
L 122.043561 -73.998844 
L 120.455895 -73.998844 
L 118.868229 -73.998844 
L 117.280563 -73.998844 
L 115.692897 -73.998844 
L 114.105231 -73.998844 
L 112.517564 -73.998844 
L 110.929898 -73.998844 
L 109.342232 -73.998844 
L 107.754566 -73.998844 
L 106.1669 -73.998844 
L 104.579234 -73.998844 
L 102.991568 -73.998844 
L 101.403902 -73.998844 
L 99.816236 -73.998844 
z
" style="stroke: #264653; stroke-opacity: 0.18"/>
    </defs>
    <g clip-path="url(#p9685473158)">
     <use xlink:href="#m593cf088c4" x="0" y="439.645344" style="fill: #264653; fill-opacity: 0.18; stroke: #264653; stroke-opacity: 0.18"/>
    </g>
   </g>
   <g id="FillBetweenPolyCollection_2">
    <defs>
     <path id="m8c7ff5387f" d="M 95.155668 -73.998844 
L 95.155668 -78.178591 
L 96.71884 -79.132459 
L 98.282011 -80.274504 
L 99.845183 -81.635022 
L 101.408355 -83.246821 
L 102.971527 -85.144546 
L 104.534699 -87.363687 
L 106.097871 -89.939283 
L 107.661043 -92.904314 
L 109.224215 -96.287864 
L 110.787387 -100.113143 
L 112.350559 -104.395508 
L 113.913731 -109.140655 
L 115.476903 -114.343167 
L 117.040075 -119.985599 
L 118.603247 -126.038253 
L 120.166419 -132.459744 
L 121.729591 -139.198383 
L 123.292762 -146.194321 
L 124.855934 -153.382306 
L 126.419106 -160.694843 
L 127.982278 -168.065498 
L 129.54545 -175.432033 
L 131.108622 -182.739138 
L 132.671794 -189.940513 
L 134.234966 -197.000155 
L 135.798138 -203.892797 
L 137.36131 -210.60353 
L 138.924482 -217.126695 
L 140.487654 -223.464229 
L 142.050826 -229.62365 
L 143.613998 -235.615876 
L 145.17717 -241.453052 
L 146.740342 -247.146548 
L 148.303513 -252.70521 
L 149.866685 -258.133957 
L 151.429857 -263.432759 
L 152.993029 -268.596019 
L 154.556201 -273.612373 
L 156.119373 -278.464928 
L 157.682545 -283.131915 
L 159.245717 -287.587752 
L 160.808889 -291.804466 
L 162.372061 -295.753388 
L 163.935233 -299.406989 
L 165.498405 -302.740697 
L 167.061577 -305.734496 
L 168.624749 -308.374092 
L 170.187921 -310.651486 
L 171.751093 -312.56481 
L 173.314264 -314.117425 
L 174.877436 -315.316343 
L 176.440608 -316.170205 
L 178.00378 -316.687103 
L 179.566952 -316.872632 
L 181.130124 -316.728544 
L 182.693296 -316.252319 
L 184.256468 -315.437818 
L 185.81964 -314.277044 
L 187.382812 -312.762796 
L 188.945984 -310.89186 
L 190.509156 -308.668221 
L 192.072328 -306.105771 
L 193.6355 -303.229998 
L 195.198672 -300.078301 
L 196.761844 -296.698764 
L 198.325015 -293.147467 
L 199.888187 -289.484621 
L 201.451359 -285.770013 
L 203.014531 -282.058338 
L 204.577703 -278.395003 
L 206.140875 -274.812929 
L 207.704047 -271.330708 
L 209.267219 -267.95229 
L 210.830391 -264.668151 
L 212.393563 -261.457729 
L 213.956735 -258.292747 
L 215.519907 -255.140972 
L 217.083079 -251.969953 
L 218.646251 -248.750319 
L 220.209423 -245.458329 
L 221.772594 -242.077488 
L 223.335766 -238.599199 
L 224.898938 -235.022525 
L 226.46211 -231.353276 
L 228.025282 -227.602639 
L 229.588454 -223.785644 
L 231.151626 -219.919684 
L 232.714798 -216.023253 
L 234.27797 -212.114992 
L 235.841142 -208.213055 
L 237.404314 -204.334691 
L 238.967486 -200.495973 
L 240.530658 -196.711533 
L 242.09383 -192.994235 
L 243.657002 -189.354766 
L 245.220174 -185.80117 
L 246.783345 -182.338446 
L 248.346517 -178.968311 
L 249.909689 -175.689278 
L 251.472861 -172.497122 
L 253.036033 -169.38575 
L 254.599205 -166.348415 
L 256.162377 -163.37912 
L 257.725549 -160.474019 
L 259.288721 -157.632574 
L 260.851893 -154.858258 
L 262.415065 -152.158675 
L 263.978237 -149.544998 
L 265.541409 -147.030801 
L 267.104581 -144.630394 
L 268.667753 -142.356889 
L 270.230925 -140.220252 
L 271.794096 -138.225586 
L 273.357268 -136.371897 
L 274.92044 -134.651468 
L 276.483612 -133.049937 
L 278.046784 -131.54706 
L 279.609956 -130.118052 
L 281.173128 -128.735366 
L 282.7363 -127.370711 
L 284.299472 -125.997109 
L 285.862644 -124.590808 
L 287.425816 -123.132905 
L 288.988988 -121.610561 
L 290.55216 -120.017751 
L 292.115332 -118.355544 
L 293.678504 -116.631907 
L 295.241676 -114.861104 
L 296.804847 -113.06273 
L 298.368019 -111.260462 
L 299.931191 -109.480594 
L 301.494363 -107.750436 
L 303.057535 -106.096642 
L 304.620707 -104.543565 
L 306.183879 -103.111725 
L 307.747051 -101.816473 
L 309.310223 -100.666969 
L 310.873395 -99.665545 
L 312.436567 -98.807553 
L 313.999739 -98.081722 
L 315.562911 -97.471036 
L 317.126083 -96.954089 
L 318.689255 -96.506804 
L 320.252427 -96.104369 
L 321.815598 -95.72321 
L 323.37877 -95.342781 
L 324.941942 -94.946998 
L 326.505114 -94.525152 
L 328.068286 -94.072214 
L 329.631458 -93.58851 
L 331.19463 -93.078823 
L 332.757802 -92.55106 
L 334.320974 -92.014658 
L 335.884146 -91.478955 
L 337.447318 -90.951721 
L 339.01049 -90.438043 
L 340.573662 -89.939687 
L 342.136834 -89.454992 
L 343.700006 -88.979293 
L 345.263177 -88.505776 
L 346.826349 -88.026635 
L 348.389521 -87.534364 
L 349.952693 -87.022989 
L 351.515865 -86.489083 
L 353.079037 -85.932441 
L 354.642209 -85.356319 
L 356.205381 -84.76724 
L 357.768553 -84.174386 
L 359.331725 -83.588686 
L 360.894897 -83.021715 
L 362.458069 -82.484542 
L 364.021241 -81.986672 
L 365.584413 -81.535201 
L 367.147585 -81.134259 
L 368.710757 -80.784795 
L 370.273928 -80.484694 
L 371.8371 -80.229192 
L 373.400272 -80.011514 
L 374.963444 -79.823655 
L 376.526616 -79.657189 
L 378.089788 -79.504037 
L 379.65296 -79.357096 
L 381.216132 -79.210693 
L 382.779304 -79.060831 
L 384.342476 -78.905233 
L 385.905648 -78.74321 
L 387.46882 -78.575405 
L 389.031992 -78.403455 
L 390.595164 -78.229643 
L 392.158336 -78.056572 
L 393.721508 -77.8869 
L 395.284679 -77.723163 
L 396.847851 -77.567664 
L 398.411023 -77.422434 
L 399.974195 -77.289236 
L 401.537367 -77.169582 
L 403.100539 -77.064744 
L 404.663711 -76.975744 
L 406.226883 -76.903313 
L 407.790055 -76.847817 
L 409.353227 -76.809173 
L 410.916399 -76.786759 
L 412.479571 -76.779343 
L 414.042743 -76.785052 
L 415.605915 -76.801388 
L 417.169087 -76.825298 
L 418.732259 -76.853308 
L 420.29543 -76.881685 
L 421.858602 -76.906642 
L 423.421774 -76.924541 
L 424.984946 -76.932091 
L 426.548118 -76.926512 
L 428.11129 -76.905657 
L 429.674462 -76.868088 
L 431.237634 -76.813099 
L 432.800806 -76.740694 
L 434.363978 -76.651533 
L 435.92715 -76.546843 
L 437.490322 -76.428317 
L 439.053494 -76.298003 
L 440.616666 -76.158189 
L 442.179838 -76.011298 
L 443.74301 -75.859788 
L 445.306181 -75.70606 
L 446.869353 -75.552395 
L 448.432525 -75.400888 
L 449.995697 -75.253418 
L 451.558869 -75.111616 
L 453.122041 -74.976864 
L 454.685213 -74.850288 
L 456.248385 -74.73277 
L 457.811557 -74.624957 
L 459.374729 -74.527276 
L 460.937901 -74.439951 
L 462.501073 -74.363017 
L 464.064245 -74.296344 
L 465.627417 -74.239662 
L 467.190589 -74.192589 
L 468.75376 -74.154665 
L 470.316932 -74.125389 
L 471.880104 -74.104248 
L 473.443276 -74.090744 
L 475.006448 -74.084408 
L 476.56962 -74.084797 
L 478.132792 -74.091481 
L 479.695964 -74.104006 
L 481.259136 -74.121852 
L 482.822308 -74.144387 
L 484.38548 -74.170821 
L 485.948652 -74.200177 
L 487.511824 -74.231279 
L 489.074996 -74.262774 
L 490.638168 -74.293179 
L 492.20134 -74.320959 
L 493.764511 -74.344629 
L 495.327683 -74.362861 
L 496.890855 -74.374596 
L 498.454027 -74.379134 
L 500.017199 -74.376193 
L 501.580371 -74.36594 
L 503.143543 -74.348963 
L 504.706715 -74.326224 
L 506.269887 -74.298958 
L 507.833059 -74.268566 
L 509.396231 -74.236498 
L 510.959403 -74.204137 
L 512.522575 -74.172709 
L 514.085747 -74.143212 
L 515.648919 -74.116383 
L 517.212091 -74.092691 
L 518.775262 -74.072354 
L 520.338434 -74.05538 
L 521.901606 -74.041617 
L 523.464778 -74.030808 
L 525.02795 -74.022647 
L 526.591122 -74.016828 
L 528.154294 -74.013084 
L 529.717466 -74.011216 
L 531.280638 -74.011119 
L 532.84381 -74.012786 
L 534.406982 -74.016314 
L 535.970154 -74.021891 
L 537.533326 -74.029776 
L 539.096498 -74.040275 
L 540.65967 -74.053696 
L 542.222842 -74.070303 
L 543.786013 -74.090263 
L 545.349185 -74.113589 
L 546.912357 -74.140088 
L 548.475529 -74.16932 
L 550.038701 -74.200579 
L 551.601873 -74.232893 
L 553.165045 -74.265059 
L 554.728217 -74.295707 
L 556.291389 -74.32339 
L 557.854561 -74.346694 
L 559.417733 -74.364358 
L 560.980905 -74.375383 
L 562.544077 -74.379132 
L 562.544077 -73.998844 
L 562.544077 -73.998844 
L 560.980905 -73.998844 
L 559.417733 -73.998844 
L 557.854561 -73.998844 
L 556.291389 -73.998844 
L 554.728217 -73.998844 
L 553.165045 -73.998844 
L 551.601873 -73.998844 
L 550.038701 -73.998844 
L 548.475529 -73.998844 
L 546.912357 -73.998844 
L 545.349185 -73.998844 
L 543.786013 -73.998844 
L 542.222842 -73.998844 
L 540.65967 -73.998844 
L 539.096498 -73.998844 
L 537.533326 -73.998844 
L 535.970154 -73.998844 
L 534.406982 -73.998844 
L 532.84381 -73.998844 
L 531.280638 -73.998844 
L 529.717466 -73.998844 
L 528.154294 -73.998844 
L 526.591122 -73.998844 
L 525.02795 -73.998844 
L 523.464778 -73.998844 
L 521.901606 -73.998844 
L 520.338434 -73.998844 
L 518.775262 -73.998844 
L 517.212091 -73.998844 
L 515.648919 -73.998844 
L 514.085747 -73.998844 
L 512.522575 -73.998844 
L 510.959403 -73.998844 
L 509.396231 -73.998844 
L 507.833059 -73.998844 
L 506.269887 -73.998844 
L 504.706715 -73.998844 
L 503.143543 -73.998844 
L 501.580371 -73.998844 
L 500.017199 -73.998844 
L 498.454027 -73.998844 
L 496.890855 -73.998844 
L 495.327683 -73.998844 
L 493.764511 -73.998844 
L 492.20134 -73.998844 
L 490.638168 -73.998844 
L 489.074996 -73.998844 
L 487.511824 -73.998844 
L 485.948652 -73.998844 
L 484.38548 -73.998844 
L 482.822308 -73.998844 
L 481.259136 -73.998844 
L 479.695964 -73.998844 
L 478.132792 -73.998844 
L 476.56962 -73.998844 
L 475.006448 -73.998844 
L 473.443276 -73.998844 
L 471.880104 -73.998844 
L 470.316932 -73.998844 
L 468.75376 -73.998844 
L 467.190589 -73.998844 
L 465.627417 -73.998844 
L 464.064245 -73.998844 
L 462.501073 -73.998844 
L 460.937901 -73.998844 
L 459.374729 -73.998844 
L 457.811557 -73.998844 
L 456.248385 -73.998844 
L 454.685213 -73.998844 
L 453.122041 -73.998844 
L 451.558869 -73.998844 
L 449.995697 -73.998844 
L 448.432525 -73.998844 
L 446.869353 -73.998844 
L 445.306181 -73.998844 
L 443.74301 -73.998844 
L 442.179838 -73.998844 
L 440.616666 -73.998844 
L 439.053494 -73.998844 
L 437.490322 -73.998844 
L 435.92715 -73.998844 
L 434.363978 -73.998844 
L 432.800806 -73.998844 
L 431.237634 -73.998844 
L 429.674462 -73.998844 
L 428.11129 -73.998844 
L 426.548118 -73.998844 
L 424.984946 -73.998844 
L 423.421774 -73.998844 
L 421.858602 -73.998844 
L 420.29543 -73.998844 
L 418.732259 -73.998844 
L 417.169087 -73.998844 
L 415.605915 -73.998844 
L 414.042743 -73.998844 
L 412.479571 -73.998844 
L 410.916399 -73.998844 
L 409.353227 -73.998844 
L 407.790055 -73.998844 
L 406.226883 -73.998844 
L 404.663711 -73.998844 
L 403.100539 -73.998844 
L 401.537367 -73.998844 
L 399.974195 -73.998844 
L 398.411023 -73.998844 
L 396.847851 -73.998844 
L 395.284679 -73.998844 
L 393.721508 -73.998844 
L 392.158336 -73.998844 
L 390.595164 -73.998844 
L 389.031992 -73.998844 
L 387.46882 -73.998844 
L 385.905648 -73.998844 
L 384.342476 -73.998844 
L 382.779304 -73.998844 
L 381.216132 -73.998844 
L 379.65296 -73.998844 
L 378.089788 -73.998844 
L 376.526616 -73.998844 
L 374.963444 -73.998844 
L 373.400272 -73.998844 
L 371.8371 -73.998844 
L 370.273928 -73.998844 
L 368.710757 -73.998844 
L 367.147585 -73.998844 
L 365.584413 -73.998844 
L 364.021241 -73.998844 
L 362.458069 -73.998844 
L 360.894897 -73.998844 
L 359.331725 -73.998844 
L 357.768553 -73.998844 
L 356.205381 -73.998844 
L 354.642209 -73.998844 
L 353.079037 -73.998844 
L 351.515865 -73.998844 
L 349.952693 -73.998844 
L 348.389521 -73.998844 
L 346.826349 -73.998844 
L 345.263177 -73.998844 
L 343.700006 -73.998844 
L 342.136834 -73.998844 
L 340.573662 -73.998844 
L 339.01049 -73.998844 
L 337.447318 -73.998844 
L 335.884146 -73.998844 
L 334.320974 -73.998844 
L 332.757802 -73.998844 
L 331.19463 -73.998844 
L 329.631458 -73.998844 
L 328.068286 -73.998844 
L 326.505114 -73.998844 
L 324.941942 -73.998844 
L 323.37877 -73.998844 
L 321.815598 -73.998844 
L 320.252427 -73.998844 
L 318.689255 -73.998844 
L 317.126083 -73.998844 
L 315.562911 -73.998844 
L 313.999739 -73.998844 
L 312.436567 -73.998844 
L 310.873395 -73.998844 
L 309.310223 -73.998844 
L 307.747051 -73.998844 
L 306.183879 -73.998844 
L 304.620707 -73.998844 
L 303.057535 -73.998844 
L 301.494363 -73.998844 
L 299.931191 -73.998844 
L 298.368019 -73.998844 
L 296.804847 -73.998844 
L 295.241676 -73.998844 
L 293.678504 -73.998844 
L 292.115332 -73.998844 
L 290.55216 -73.998844 
L 288.988988 -73.998844 
L 287.425816 -73.998844 
L 285.862644 -73.998844 
L 284.299472 -73.998844 
L 282.7363 -73.998844 
L 281.173128 -73.998844 
L 279.609956 -73.998844 
L 278.046784 -73.998844 
L 276.483612 -73.998844 
L 274.92044 -73.998844 
L 273.357268 -73.998844 
L 271.794096 -73.998844 
L 270.230925 -73.998844 
L 268.667753 -73.998844 
L 267.104581 -73.998844 
L 265.541409 -73.998844 
L 263.978237 -73.998844 
L 262.415065 -73.998844 
L 260.851893 -73.998844 
L 259.288721 -73.998844 
L 257.725549 -73.998844 
L 256.162377 -73.998844 
L 254.599205 -73.998844 
L 253.036033 -73.998844 
L 251.472861 -73.998844 
L 249.909689 -73.998844 
L 248.346517 -73.998844 
L 246.783345 -73.998844 
L 245.220174 -73.998844 
L 243.657002 -73.998844 
L 242.09383 -73.998844 
L 240.530658 -73.998844 
L 238.967486 -73.998844 
L 237.404314 -73.998844 
L 235.841142 -73.998844 
L 234.27797 -73.998844 
L 232.714798 -73.998844 
L 231.151626 -73.998844 
L 229.588454 -73.998844 
L 228.025282 -73.998844 
L 226.46211 -73.998844 
L 224.898938 -73.998844 
L 223.335766 -73.998844 
L 221.772594 -73.998844 
L 220.209423 -73.998844 
L 218.646251 -73.998844 
L 217.083079 -73.998844 
L 215.519907 -73.998844 
L 213.956735 -73.998844 
L 212.393563 -73.998844 
L 210.830391 -73.998844 
L 209.267219 -73.998844 
L 207.704047 -73.998844 
L 206.140875 -73.998844 
L 204.577703 -73.998844 
L 203.014531 -73.998844 
L 201.451359 -73.998844 
L 199.888187 -73.998844 
L 198.325015 -73.998844 
L 196.761844 -73.998844 
L 195.198672 -73.998844 
L 193.6355 -73.998844 
L 192.072328 -73.998844 
L 190.509156 -73.998844 
L 188.945984 -73.998844 
L 187.382812 -73.998844 
L 185.81964 -73.998844 
L 184.256468 -73.998844 
L 182.693296 -73.998844 
L 181.130124 -73.998844 
L 179.566952 -73.998844 
L 178.00378 -73.998844 
L 176.440608 -73.998844 
L 174.877436 -73.998844 
L 173.314264 -73.998844 
L 171.751093 -73.998844 
L 170.187921 -73.998844 
L 168.624749 -73.998844 
L 167.061577 -73.998844 
L 165.498405 -73.998844 
L 163.935233 -73.998844 
L 162.372061 -73.998844 
L 160.808889 -73.998844 
L 159.245717 -73.998844 
L 157.682545 -73.998844 
L 156.119373 -73.998844 
L 154.556201 -73.998844 
L 152.993029 -73.998844 
L 151.429857 -73.998844 
L 149.866685 -73.998844 
L 148.303513 -73.998844 
L 146.740342 -73.998844 
L 145.17717 -73.998844 
L 143.613998 -73.998844 
L 142.050826 -73.998844 
L 140.487654 -73.998844 
L 138.924482 -73.998844 
L 137.36131 -73.998844 
L 135.798138 -73.998844 
L 134.234966 -73.998844 
L 132.671794 -73.998844 
L 131.108622 -73.998844 
L 129.54545 -73.998844 
L 127.982278 -73.998844 
L 126.419106 -73.998844 
L 124.855934 -73.998844 
L 123.292762 -73.998844 
L 121.729591 -73.998844 
L 120.166419 -73.998844 
L 118.603247 -73.998844 
L 117.040075 -73.998844 
L 115.476903 -73.998844 
L 113.913731 -73.998844 
L 112.350559 -73.998844 
L 110.787387 -73.998844 
L 109.224215 -73.998844 
L 107.661043 -73.998844 
L 106.097871 -73.998844 
L 104.534699 -73.998844 
L 102.971527 -73.998844 
L 101.408355 -73.998844 
L 99.845183 -73.998844 
L 98.282011 -73.998844 
L 96.71884 -73.998844 
L 95.155668 -73.998844 
z
" style="stroke: #e76f51; stroke-opacity: 0.18"/>
    </defs>
    <g clip-path="url(#p9685473158)">
     <use xlink:href="#m8c7ff5387f" x="0" y="439.645344" style="fill: #e76f51; fill-opacity: 0.18; stroke: #e76f51; stroke-opacity: 0.18"/>
    </g>
   </g>
   <g id="matplotlib.axis_1">
    <g id="xtick_1">
     <g id="line2d_1">
      <path d="M 133.771804 380.9555 
L 133.771804 44.1575 
" clip-path="url(#p9685473158)" style="fill: none; stroke: #dddddd; stroke-width: 0.7; stroke-linecap: square"/>
     </g>
     <g id="line2d_2">
      <defs>
       <path id="m5a52670015" d="M 0 0 
L 0 3.5 
" style="stroke: #333333; stroke-width: 0.8"/>
      </defs>
      <g>
       <use xlink:href="#m5a52670015" x="133.771804" y="380.9555" style="fill: #333333; stroke: #333333; stroke-width: 0.8"/>
      </g>
     </g>
     <g id="text_1">
      <!-- 20 -->
      <g style="fill: #333333" transform="translate(126.454929 396.693703) scale(0.115 -0.115)">
       <defs>
        <path id="DejaVuSans-32" d="M 1228 531 
L 3431 531 
L 3431 0 
L 469 0 
L 469 531 
Q 828 903 1448 1529 
Q 2069 2156 2228 2338 
Q 2531 2678 2651 2914 
Q 2772 3150 2772 3378 
Q 2772 3750 2511 3984 
Q 2250 4219 1831 4219 
Q 1534 4219 1204 4116 
Q 875 4013 500 3803 
L 500 4441 
Q 881 4594 1212 4672 
Q 1544 4750 1819 4750 
Q 2544 4750 2975 4387 
Q 3406 4025 3406 3419 
Q 3406 3131 3298 2873 
Q 3191 2616 2906 2266 
Q 2828 2175 2409 1742 
Q 1991 1309 1228 531 
z
" transform="scale(0.015625)"/>
        <path id="DejaVuSans-30" d="M 2034 4250 
Q 1547 4250 1301 3770 
Q 1056 3291 1056 2328 
Q 1056 1369 1301 889 
Q 1547 409 2034 409 
Q 2525 409 2770 889 
Q 3016 1369 3016 2328 
Q 3016 3291 2770 3770 
Q 2525 4250 2034 4250 
z
M 2034 4750 
Q 2819 4750 3233 4129 
Q 3647 3509 3647 2328 
Q 3647 1150 3233 529 
Q 2819 -91 2034 -91 
Q 1250 -91 836 529 
Q 422 1150 422 2328 
Q 422 3509 836 4129 
Q 1250 4750 2034 4750 
z
" transform="scale(0.015625)"/>
       </defs>
       <use xlink:href="#DejaVuSans-32"/>
       <use xlink:href="#DejaVuSans-30" transform="translate(63.623047 0)"/>
      </g>
     </g>
    </g>
    <g id="xtick_2">
     <g id="line2d_3">
      <path d="M 200.351349 380.9555 
L 200.351349 44.1575 
" clip-path="url(#p9685473158)" style="fill: none; stroke: #dddddd; stroke-width: 0.7; stroke-linecap: square"/>
     </g>
     <g id="line2d_4">
      <g>
       <use xlink:href="#m5a52670015" x="200.351349" y="380.9555" style="fill: #333333; stroke: #333333; stroke-width: 0.8"/>
      </g>
     </g>
     <g id="text_2">
      <!-- 30 -->
      <g style="fill: #333333" transform="translate(193.034474 396.693703) scale(0.115 -0.115)">
       <defs>
        <path id="DejaVuSans-33" d="M 2597 2516 
Q 3050 2419 3304 2112 
Q 3559 1806 3559 1356 
Q 3559 666 3084 287 
Q 2609 -91 1734 -91 
Q 1441 -91 1130 -33 
Q 819 25 488 141 
L 488 750 
Q 750 597 1062 519 
Q 1375 441 1716 441 
Q 2309 441 2620 675 
Q 2931 909 2931 1356 
Q 2931 1769 2642 2001 
Q 2353 2234 1838 2234 
L 1294 2234 
L 1294 2753 
L 1863 2753 
Q 2328 2753 2575 2939 
Q 2822 3125 2822 3475 
Q 2822 3834 2567 4026 
Q 2313 4219 1838 4219 
Q 1578 4219 1281 4162 
Q 984 4106 628 3988 
L 628 4550 
Q 988 4650 1302 4700 
Q 1616 4750 1894 4750 
Q 2613 4750 3031 4423 
Q 3450 4097 3450 3541 
Q 3450 3153 3228 2886 
Q 3006 2619 2597 2516 
z
" transform="scale(0.015625)"/>
       </defs>
       <use xlink:href="#DejaVuSans-33"/>
       <use xlink:href="#DejaVuSans-30" transform="translate(63.623047 0)"/>
      </g>
     </g>
    </g>
    <g id="xtick_3">
     <g id="line2d_5">
      <path d="M 266.930895 380.9555 
L 266.930895 44.1575 
" clip-path="url(#p9685473158)" style="fill: none; stroke: #dddddd; stroke-width: 0.7; stroke-linecap: square"/>
     </g>
     <g id="line2d_6">
      <g>
       <use xlink:href="#m5a52670015" x="266.930895" y="380.9555" style="fill: #333333; stroke: #333333; stroke-width: 0.8"/>
      </g>
     </g>
     <g id="text_3">
      <!-- 40 -->
      <g style="fill: #333333" transform="translate(259.61402 396.693703) scale(0.115 -0.115)">
       <defs>
        <path id="DejaVuSans-34" d="M 2419 4116 
L 825 1625 
L 2419 1625 
L 2419 4116 
z
M 2253 4666 
L 3047 4666 
L 3047 1625 
L 3713 1625 
L 3713 1100 
L 3047 1100 
L 3047 0 
L 2419 0 
L 2419 1100 
L 313 1100 
L 313 1709 
L 2253 4666 
z
" transform="scale(0.015625)"/>
       </defs>
       <use xlink:href="#DejaVuSans-34"/>
       <use xlink:href="#DejaVuSans-30" transform="translate(63.623047 0)"/>
      </g>
     </g>
    </g>
    <g id="xtick_4">
     <g id="line2d_7">
      <path d="M 333.51044 380.9555 
L 333.51044 44.1575 
" clip-path="url(#p9685473158)" style="fill: none; stroke: #dddddd; stroke-width: 0.7; stroke-linecap: square"/>
     </g>
     <g id="line2d_8">
      <g>
       <use xlink:href="#m5a52670015" x="333.51044" y="380.9555" style="fill: #333333; stroke: #333333; stroke-width: 0.8"/>
      </g>
     </g>
     <g id="text_4">
      <!-- 50 -->
      <g style="fill: #333333" transform="translate(326.193565 396.693703) scale(0.115 -0.115)">
       <defs>
        <path id="DejaVuSans-35" d="M 691 4666 
L 3169 4666 
L 3169 4134 
L 1269 4134 
L 1269 2991 
Q 1406 3038 1543 3061 
Q 1681 3084 1819 3084 
Q 2600 3084 3056 2656 
Q 3513 2228 3513 1497 
Q 3513 744 3044 326 
Q 2575 -91 1722 -91 
Q 1428 -91 1123 -41 
Q 819 9 494 109 
L 494 744 
Q 775 591 1075 516 
Q 1375 441 1709 441 
Q 2250 441 2565 725 
Q 2881 1009 2881 1497 
Q 2881 1984 2565 2268 
Q 2250 2553 1709 2553 
Q 1456 2553 1204 2497 
Q 953 2441 691 2322 
L 691 4666 
z
" transform="scale(0.015625)"/>
       </defs>
       <use xlink:href="#DejaVuSans-35"/>
       <use xlink:href="#DejaVuSans-30" transform="translate(63.623047 0)"/>
      </g>
     </g>
    </g>
    <g id="xtick_5">
     <g id="line2d_9">
      <path d="M 400.089986 380.9555 
L 400.089986 44.1575 
" clip-path="url(#p9685473158)" style="fill: none; stroke: #dddddd; stroke-width: 0.7; stroke-linecap: square"/>
     </g>
     <g id="line2d_10">
      <g>
       <use xlink:href="#m5a52670015" x="400.089986" y="380.9555" style="fill: #333333; stroke: #333333; stroke-width: 0.8"/>
      </g>
     </g>
     <g id="text_5">
      <!-- 60 -->
      <g style="fill: #333333" transform="translate(392.773111 396.693703) scale(0.115 -0.115)">
       <defs>
        <path id="DejaVuSans-36" d="M 2113 2584 
Q 1688 2584 1439 2293 
Q 1191 2003 1191 1497 
Q 1191 994 1439 701 
Q 1688 409 2113 409 
Q 2538 409 2786 701 
Q 3034 994 3034 1497 
Q 3034 2003 2786 2293 
Q 2538 2584 2113 2584 
z
M 3366 4563 
L 3366 3988 
Q 3128 4100 2886 4159 
Q 2644 4219 2406 4219 
Q 1781 4219 1451 3797 
Q 1122 3375 1075 2522 
Q 1259 2794 1537 2939 
Q 1816 3084 2150 3084 
Q 2853 3084 3261 2657 
Q 3669 2231 3669 1497 
Q 3669 778 3244 343 
Q 2819 -91 2113 -91 
Q 1303 -91 875 529 
Q 447 1150 447 2328 
Q 447 3434 972 4092 
Q 1497 4750 2381 4750 
Q 2619 4750 2861 4703 
Q 3103 4656 3366 4563 
z
" transform="scale(0.015625)"/>
       </defs>
       <use xlink:href="#DejaVuSans-36"/>
       <use xlink:href="#DejaVuSans-30" transform="translate(63.623047 0)"/>
      </g>
     </g>
    </g>
    <g id="xtick_6">
     <g id="line2d_11">
      <path d="M 466.669531 380.9555 
L 466.669531 44.1575 
" clip-path="url(#p9685473158)" style="fill: none; stroke: #dddddd; stroke-width: 0.7; stroke-linecap: square"/>
     </g>
     <g id="line2d_12">
      <g>
       <use xlink:href="#m5a52670015" x="466.669531" y="380.9555" style="fill: #333333; stroke: #333333; stroke-width: 0.8"/>
      </g>
     </g>
     <g id="text_6">
      <!-- 70 -->
      <g style="fill: #333333" transform="translate(459.352656 396.693703) scale(0.115 -0.115)">
       <defs>
        <path id="DejaVuSans-37" d="M 525 4666 
L 3525 4666 
L 3525 4397 
L 1831 0 
L 1172 0 
L 2766 4134 
L 525 4134 
L 525 4666 
z
" transform="scale(0.015625)"/>
       </defs>
       <use xlink:href="#DejaVuSans-37"/>
       <use xlink:href="#DejaVuSans-30" transform="translate(63.623047 0)"/>
      </g>
     </g>
    </g>
    <g id="xtick_7">
     <g id="line2d_13">
      <path d="M 533.249077 380.9555 
L 533.249077 44.1575 
" clip-path="url(#p9685473158)" style="fill: none; stroke: #dddddd; stroke-width: 0.7; stroke-linecap: square"/>
     </g>
     <g id="line2d_14">
      <g>
       <use xlink:href="#m5a52670015" x="533.249077" y="380.9555" style="fill: #333333; stroke: #333333; stroke-width: 0.8"/>
      </g>
     </g>
     <g id="text_7">
      <!-- 80 -->
      <g style="fill: #333333" transform="translate(525.932202 396.693703) scale(0.115 -0.115)">
       <defs>
        <path id="DejaVuSans-38" d="M 2034 2216 
Q 1584 2216 1326 1975 
Q 1069 1734 1069 1313 
Q 1069 891 1326 650 
Q 1584 409 2034 409 
Q 2484 409 2743 651 
Q 3003 894 3003 1313 
Q 3003 1734 2745 1975 
Q 2488 2216 2034 2216 
z
M 1403 2484 
Q 997 2584 770 2862 
Q 544 3141 544 3541 
Q 544 4100 942 4425 
Q 1341 4750 2034 4750 
Q 2731 4750 3128 4425 
Q 3525 4100 3525 3541 
Q 3525 3141 3298 2862 
Q 3072 2584 2669 2484 
Q 3125 2378 3379 2068 
Q 3634 1759 3634 1313 
Q 3634 634 3220 271 
Q 2806 -91 2034 -91 
Q 1263 -91 848 271 
Q 434 634 434 1313 
Q 434 1759 690 2068 
Q 947 2378 1403 2484 
z
M 1172 3481 
Q 1172 3119 1398 2916 
Q 1625 2713 2034 2713 
Q 2441 2713 2670 2916 
Q 2900 3119 2900 3481 
Q 2900 3844 2670 4047 
Q 2441 4250 2034 4250 
Q 1625 4250 1398 4047 
Q 1172 3844 1172 3481 
z
" transform="scale(0.015625)"/>
       </defs>
       <use xlink:href="#DejaVuSans-38"/>
       <use xlink:href="#DejaVuSans-30" transform="translate(63.623047 0)"/>
      </g>
     </g>
    </g>
    <g id="text_8">
     <!-- Body Mass Index (kg/m$^2$) -->
     <g transform="translate(253.202031 418.915344) scale(0.13 -0.13)">
      <defs>
       <path id="DejaVuSans-42" d="M 1259 2228 
L 1259 519 
L 2272 519 
Q 2781 519 3026 730 
Q 3272 941 3272 1375 
Q 3272 1813 3026 2020 
Q 2781 2228 2272 2228 
L 1259 2228 
z
M 1259 4147 
L 1259 2741 
L 2194 2741 
Q 2656 2741 2882 2914 
Q 3109 3088 3109 3444 
Q 3109 3797 2882 3972 
Q 2656 4147 2194 4147 
L 1259 4147 
z
M 628 4666 
L 2241 4666 
Q 2963 4666 3353 4366 
Q 3744 4066 3744 3513 
Q 3744 3084 3544 2831 
Q 3344 2578 2956 2516 
Q 3422 2416 3680 2098 
Q 3938 1781 3938 1306 
Q 3938 681 3513 340 
Q 3088 0 2303 0 
L 628 0 
L 628 4666 
z
" transform="scale(0.015625)"/>
       <path id="DejaVuSans-6f" d="M 1959 3097 
Q 1497 3097 1228 2736 
Q 959 2375 959 1747 
Q 959 1119 1226 758 
Q 1494 397 1959 397 
Q 2419 397 2687 759 
Q 2956 1122 2956 1747 
Q 2956 2369 2687 2733 
Q 2419 3097 1959 3097 
z
M 1959 3584 
Q 2709 3584 3137 3096 
Q 3566 2609 3566 1747 
Q 3566 888 3137 398 
Q 2709 -91 1959 -91 
Q 1206 -91 779 398 
Q 353 888 353 1747 
Q 353 2609 779 3096 
Q 1206 3584 1959 3584 
z
" transform="scale(0.015625)"/>
       <path id="DejaVuSans-64" d="M 2906 2969 
L 2906 4863 
L 3481 4863 
L 3481 0 
L 2906 0 
L 2906 525 
Q 2725 213 2448 61 
Q 2172 -91 1784 -91 
Q 1150 -91 751 415 
Q 353 922 353 1747 
Q 353 2572 751 3078 
Q 1150 3584 1784 3584 
Q 2172 3584 2448 3432 
Q 2725 3281 2906 2969 
z
M 947 1747 
Q 947 1113 1208 752 
Q 1469 391 1925 391 
Q 2381 391 2643 752 
Q 2906 1113 2906 1747 
Q 2906 2381 2643 2742 
Q 2381 3103 1925 3103 
Q 1469 3103 1208 2742 
Q 947 2381 947 1747 
z
" transform="scale(0.015625)"/>
       <path id="DejaVuSans-79" d="M 2059 -325 
Q 1816 -950 1584 -1140 
Q 1353 -1331 966 -1331 
L 506 -1331 
L 506 -850 
L 844 -850 
Q 1081 -850 1212 -737 
Q 1344 -625 1503 -206 
L 1606 56 
L 191 3500 
L 800 3500 
L 1894 763 
L 2988 3500 
L 3597 3500 
L 2059 -325 
z
" transform="scale(0.015625)"/>
       <path id="DejaVuSans-20" transform="scale(0.015625)"/>
       <path id="DejaVuSans-4d" d="M 628 4666 
L 1569 4666 
L 2759 1491 
L 3956 4666 
L 4897 4666 
L 4897 0 
L 4281 0 
L 4281 4097 
L 3078 897 
L 2444 897 
L 1241 4097 
L 1241 0 
L 628 0 
L 628 4666 
z
" transform="scale(0.015625)"/>
       <path id="DejaVuSans-61" d="M 2194 1759 
Q 1497 1759 1228 1600 
Q 959 1441 959 1056 
Q 959 750 1161 570 
Q 1363 391 1709 391 
Q 2188 391 2477 730 
Q 2766 1069 2766 1631 
L 2766 1759 
L 2194 1759 
z
M 3341 1997 
L 3341 0 
L 2766 0 
L 2766 531 
Q 2569 213 2275 61 
Q 1981 -91 1556 -91 
Q 1019 -91 701 211 
Q 384 513 384 1019 
Q 384 1609 779 1909 
Q 1175 2209 1959 2209 
L 2766 2209 
L 2766 2266 
Q 2766 2663 2505 2880 
Q 2244 3097 1772 3097 
Q 1472 3097 1187 3025 
Q 903 2953 641 2809 
L 641 3341 
Q 956 3463 1253 3523 
Q 1550 3584 1831 3584 
Q 2591 3584 2966 3190 
Q 3341 2797 3341 1997 
z
" transform="scale(0.015625)"/>
       <path id="DejaVuSans-73" d="M 2834 3397 
L 2834 2853 
Q 2591 2978 2328 3040 
Q 2066 3103 1784 3103 
Q 1356 3103 1142 2972 
Q 928 2841 928 2578 
Q 928 2378 1081 2264 
Q 1234 2150 1697 2047 
L 1894 2003 
Q 2506 1872 2764 1633 
Q 3022 1394 3022 966 
Q 3022 478 2636 193 
Q 2250 -91 1575 -91 
Q 1294 -91 989 -36 
Q 684 19 347 128 
L 347 722 
Q 666 556 975 473 
Q 1284 391 1588 391 
Q 1994 391 2212 530 
Q 2431 669 2431 922 
Q 2431 1156 2273 1281 
Q 2116 1406 1581 1522 
L 1381 1569 
Q 847 1681 609 1914 
Q 372 2147 372 2553 
Q 372 3047 722 3315 
Q 1072 3584 1716 3584 
Q 2034 3584 2315 3537 
Q 2597 3491 2834 3397 
z
" transform="scale(0.015625)"/>
       <path id="DejaVuSans-49" d="M 628 4666 
L 1259 4666 
L 1259 0 
L 628 0 
L 628 4666 
z
" transform="scale(0.015625)"/>
       <path id="DejaVuSans-6e" d="M 3513 2113 
L 3513 0 
L 2938 0 
L 2938 2094 
Q 2938 2591 2744 2837 
Q 2550 3084 2163 3084 
Q 1697 3084 1428 2787 
Q 1159 2491 1159 1978 
L 1159 0 
L 581 0 
L 581 3500 
L 1159 3500 
L 1159 2956 
Q 1366 3272 1645 3428 
Q 1925 3584 2291 3584 
Q 2894 3584 3203 3211 
Q 3513 2838 3513 2113 
z
" transform="scale(0.015625)"/>
       <path id="DejaVuSans-65" d="M 3597 1894 
L 3597 1613 
L 953 1613 
Q 991 1019 1311 708 
Q 1631 397 2203 397 
Q 2534 397 2845 478 
Q 3156 559 3463 722 
L 3463 178 
Q 3153 47 2828 -22 
Q 2503 -91 2169 -91 
Q 1331 -91 842 396 
Q 353 884 353 1716 
Q 353 2575 817 3079 
Q 1281 3584 2069 3584 
Q 2775 3584 3186 3129 
Q 3597 2675 3597 1894 
z
M 3022 2063 
Q 3016 2534 2758 2815 
Q 2500 3097 2075 3097 
Q 1594 3097 1305 2825 
Q 1016 2553 972 2059 
L 3022 2063 
z
" transform="scale(0.015625)"/>
       <path id="DejaVuSans-78" d="M 3513 3500 
L 2247 1797 
L 3578 0 
L 2900 0 
L 1881 1375 
L 863 0 
L 184 0 
L 1544 1831 
L 300 3500 
L 978 3500 
L 1906 2253 
L 2834 3500 
L 3513 3500 
z
" transform="scale(0.015625)"/>
       <path id="DejaVuSans-28" d="M 1984 4856 
Q 1566 4138 1362 3434 
Q 1159 2731 1159 2009 
Q 1159 1288 1364 580 
Q 1569 -128 1984 -844 
L 1484 -844 
Q 1016 -109 783 600 
Q 550 1309 550 2009 
Q 550 2706 781 3412 
Q 1013 4119 1484 4856 
L 1984 4856 
z
" transform="scale(0.015625)"/>
       <path id="DejaVuSans-6b" d="M 581 4863 
L 1159 4863 
L 1159 1991 
L 2875 3500 
L 3609 3500 
L 1753 1863 
L 3688 0 
L 2938 0 
L 1159 1709 
L 1159 0 
L 581 0 
L 581 4863 
z
" transform="scale(0.015625)"/>
       <path id="DejaVuSans-67" d="M 2906 1791 
Q 2906 2416 2648 2759 
Q 2391 3103 1925 3103 
Q 1463 3103 1205 2759 
Q 947 2416 947 1791 
Q 947 1169 1205 825 
Q 1463 481 1925 481 
Q 2391 481 2648 825 
Q 2906 1169 2906 1791 
z
M 3481 434 
Q 3481 -459 3084 -895 
Q 2688 -1331 1869 -1331 
Q 1566 -1331 1297 -1286 
Q 1028 -1241 775 -1147 
L 775 -588 
Q 1028 -725 1275 -790 
Q 1522 -856 1778 -856 
Q 2344 -856 2625 -561 
Q 2906 -266 2906 331 
L 2906 616 
Q 2728 306 2450 153 
Q 2172 0 1784 0 
Q 1141 0 747 490 
Q 353 981 353 1791 
Q 353 2603 747 3093 
Q 1141 3584 1784 3584 
Q 2172 3584 2450 3431 
Q 2728 3278 2906 2969 
L 2906 3500 
L 3481 3500 
L 3481 434 
z
" transform="scale(0.015625)"/>
       <path id="DejaVuSans-2f" d="M 1625 4666 
L 2156 4666 
L 531 -594 
L 0 -594 
L 1625 4666 
z
" transform="scale(0.015625)"/>
       <path id="DejaVuSans-6d" d="M 3328 2828 
Q 3544 3216 3844 3400 
Q 4144 3584 4550 3584 
Q 5097 3584 5394 3201 
Q 5691 2819 5691 2113 
L 5691 0 
L 5113 0 
L 5113 2094 
Q 5113 2597 4934 2840 
Q 4756 3084 4391 3084 
Q 3944 3084 3684 2787 
Q 3425 2491 3425 1978 
L 3425 0 
L 2847 0 
L 2847 2094 
Q 2847 2600 2669 2842 
Q 2491 3084 2119 3084 
Q 1678 3084 1418 2786 
Q 1159 2488 1159 1978 
L 1159 0 
L 581 0 
L 581 3500 
L 1159 3500 
L 1159 2956 
Q 1356 3278 1631 3431 
Q 1906 3584 2284 3584 
Q 2666 3584 2933 3390 
Q 3200 3197 3328 2828 
z
" transform="scale(0.015625)"/>
       <path id="DejaVuSans-29" d="M 513 4856 
L 1013 4856 
Q 1481 4119 1714 3412 
Q 1947 2706 1947 2009 
Q 1947 1309 1714 600 
Q 1481 -109 1013 -844 
L 513 -844 
Q 928 -128 1133 580 
Q 1338 1288 1338 2009 
Q 1338 2731 1133 3434 
Q 928 4138 513 4856 
z
" transform="scale(0.015625)"/>
      </defs>
      <use xlink:href="#DejaVuSans-42" transform="translate(0 0.765625)"/>
      <use xlink:href="#DejaVuSans-6f" transform="translate(68.603516 0.765625)"/>
      <use xlink:href="#DejaVuSans-64" transform="translate(129.785156 0.765625)"/>
      <use xlink:href="#DejaVuSans-79" transform="translate(193.261719 0.765625)"/>
      <use xlink:href="#DejaVuSans-20" transform="translate(252.441406 0.765625)"/>
      <use xlink:href="#DejaVuSans-4d" transform="translate(284.228516 0.765625)"/>
      <use xlink:href="#DejaVuSans-61" transform="translate(370.507812 0.765625)"/>
      <use xlink:href="#DejaVuSans-73" transform="translate(431.787109 0.765625)"/>
      <use xlink:href="#DejaVuSans-73" transform="translate(483.886719 0.765625)"/>
      <use xlink:href="#DejaVuSans-20" transform="translate(535.986328 0.765625)"/>
      <use xlink:href="#DejaVuSans-49" transform="translate(567.773438 0.765625)"/>
      <use xlink:href="#DejaVuSans-6e" transform="translate(597.265625 0.765625)"/>
      <use xlink:href="#DejaVuSans-64" transform="translate(660.644531 0.765625)"/>
      <use xlink:href="#DejaVuSans-65" transform="translate(724.121094 0.765625)"/>
      <use xlink:href="#DejaVuSans-78" transform="translate(785.644531 0.765625)"/>
      <use xlink:href="#DejaVuSans-20" transform="translate(844.824219 0.765625)"/>
      <use xlink:href="#DejaVuSans-28" transform="translate(876.611328 0.765625)"/>
      <use xlink:href="#DejaVuSans-6b" transform="translate(915.625 0.765625)"/>
      <use xlink:href="#DejaVuSans-67" transform="translate(973.535156 0.765625)"/>
      <use xlink:href="#DejaVuSans-2f" transform="translate(1037.011719 0.765625)"/>
      <use xlink:href="#DejaVuSans-6d" transform="translate(1070.703125 0.765625)"/>
      <use xlink:href="#DejaVuSans-32" transform="translate(1169.072266 39.046875) scale(0.7)"/>
      <use xlink:href="#DejaVuSans-29" transform="translate(1216.342773 0.765625)"/>
     </g>
    </g>
   </g>
   <g id="matplotlib.axis_2">
    <g id="ytick_1">
     <g id="line2d_15">
      <path d="M 71.187031 365.6465 
L 598.497031 365.6465 
" clip-path="url(#p9685473158)" style="fill: none; stroke: #dddddd; stroke-width: 0.7; stroke-linecap: square"/>
     </g>
     <g id="line2d_16">
      <defs>
       <path id="m446c984cea" d="M 0 0 
L -3.5 0 
" style="stroke: #333333; stroke-width: 0.8"/>
      </defs>
      <g>
       <use xlink:href="#m446c984cea" x="71.187031" y="365.6465" style="fill: #333333; stroke: #333333; stroke-width: 0.8"/>
      </g>
     </g>
     <g id="text_9">
      <!-- 0.00 -->
      <g style="fill: #333333" transform="translate(38.581563 370.015602) scale(0.115 -0.115)">
       <defs>
        <path id="DejaVuSans-2e" d="M 684 794 
L 1344 794 
L 1344 0 
L 684 0 
L 684 794 
z
" transform="scale(0.015625)"/>
       </defs>
       <use xlink:href="#DejaVuSans-30"/>
       <use xlink:href="#DejaVuSans-2e" transform="translate(63.623047 0)"/>
       <use xlink:href="#DejaVuSans-30" transform="translate(95.410156 0)"/>
       <use xlink:href="#DejaVuSans-30" transform="translate(159.033203 0)"/>
      </g>
     </g>
    </g>
    <g id="ytick_2">
     <g id="line2d_17">
      <path d="M 71.187031 323.003049 
L 598.497031 323.003049 
" clip-path="url(#p9685473158)" style="fill: none; stroke: #dddddd; stroke-width: 0.7; stroke-linecap: square"/>
     </g>
     <g id="line2d_18">
      <g>
       <use xlink:href="#m446c984cea" x="71.187031" y="323.003049" style="fill: #333333; stroke: #333333; stroke-width: 0.8"/>
      </g>
     </g>
     <g id="text_10">
      <!-- 0.01 -->
      <g style="fill: #333333" transform="translate(38.581563 327.372151) scale(0.115 -0.115)">
       <defs>
        <path id="DejaVuSans-31" d="M 794 531 
L 1825 531 
L 1825 4091 
L 703 3866 
L 703 4441 
L 1819 4666 
L 2450 4666 
L 2450 531 
L 3481 531 
L 3481 0 
L 794 0 
L 794 531 
z
" transform="scale(0.015625)"/>
       </defs>
       <use xlink:href="#DejaVuSans-30"/>
       <use xlink:href="#DejaVuSans-2e" transform="translate(63.623047 0)"/>
       <use xlink:href="#DejaVuSans-30" transform="translate(95.410156 0)"/>
       <use xlink:href="#DejaVuSans-31" transform="translate(159.033203 0)"/>
      </g>
     </g>
    </g>
    <g id="ytick_3">
     <g id="line2d_19">
      <path d="M 71.187031 280.359599 
L 598.497031 280.359599 
" clip-path="url(#p9685473158)" style="fill: none; stroke: #dddddd; stroke-width: 0.7; stroke-linecap: square"/>
     </g>
     <g id="line2d_20">
      <g>
       <use xlink:href="#m446c984cea" x="71.187031" y="280.359599" style="fill: #333333; stroke: #333333; stroke-width: 0.8"/>
      </g>
     </g>
     <g id="text_11">
      <!-- 0.02 -->
      <g style="fill: #333333" transform="translate(38.581563 284.7287) scale(0.115 -0.115)">
       <use xlink:href="#DejaVuSans-30"/>
       <use xlink:href="#DejaVuSans-2e" transform="translate(63.623047 0)"/>
       <use xlink:href="#DejaVuSans-30" transform="translate(95.410156 0)"/>
       <use xlink:href="#DejaVuSans-32" transform="translate(159.033203 0)"/>
      </g>
     </g>
    </g>
    <g id="ytick_4">
     <g id="line2d_21">
      <path d="M 71.187031 237.716148 
L 598.497031 237.716148 
" clip-path="url(#p9685473158)" style="fill: none; stroke: #dddddd; stroke-width: 0.7; stroke-linecap: square"/>
     </g>
     <g id="line2d_22">
      <g>
       <use xlink:href="#m446c984cea" x="71.187031" y="237.716148" style="fill: #333333; stroke: #333333; stroke-width: 0.8"/>
      </g>
     </g>
     <g id="text_12">
      <!-- 0.03 -->
      <g style="fill: #333333" transform="translate(38.581563 242.08525) scale(0.115 -0.115)">
       <use xlink:href="#DejaVuSans-30"/>
       <use xlink:href="#DejaVuSans-2e" transform="translate(63.623047 0)"/>
       <use xlink:href="#DejaVuSans-30" transform="translate(95.410156 0)"/>
       <use xlink:href="#DejaVuSans-33" transform="translate(159.033203 0)"/>
      </g>
     </g>
    </g>
    <g id="ytick_5">
     <g id="line2d_23">
      <path d="M 71.187031 195.072698 
L 598.497031 195.072698 
" clip-path="url(#p9685473158)" style="fill: none; stroke: #dddddd; stroke-width: 0.7; stroke-linecap: square"/>
     </g>
     <g id="line2d_24">
      <g>
       <use xlink:href="#m446c984cea" x="71.187031" y="195.072698" style="fill: #333333; stroke: #333333; stroke-width: 0.8"/>
      </g>
     </g>
     <g id="text_13">
      <!-- 0.04 -->
      <g style="fill: #333333" transform="translate(38.581563 199.441799) scale(0.115 -0.115)">
       <use xlink:href="#DejaVuSans-30"/>
       <use xlink:href="#DejaVuSans-2e" transform="translate(63.623047 0)"/>
       <use xlink:href="#DejaVuSans-30" transform="translate(95.410156 0)"/>
       <use xlink:href="#DejaVuSans-34" transform="translate(159.033203 0)"/>
      </g>
     </g>
    </g>
    <g id="ytick_6">
     <g id="line2d_25">
      <path d="M 71.187031 152.429247 
L 598.497031 152.429247 
" clip-path="url(#p9685473158)" style="fill: none; stroke: #dddddd; stroke-width: 0.7; stroke-linecap: square"/>
     </g>
     <g id="line2d_26">
      <g>
       <use xlink:href="#m446c984cea" x="71.187031" y="152.429247" style="fill: #333333; stroke: #333333; stroke-width: 0.8"/>
      </g>
     </g>
     <g id="text_14">
      <!-- 0.05 -->
      <g style="fill: #333333" transform="translate(38.581563 156.798349) scale(0.115 -0.115)">
       <use xlink:href="#DejaVuSans-30"/>
       <use xlink:href="#DejaVuSans-2e" transform="translate(63.623047 0)"/>
       <use xlink:href="#DejaVuSans-30" transform="translate(95.410156 0)"/>
       <use xlink:href="#DejaVuSans-35" transform="translate(159.033203 0)"/>
      </g>
     </g>
    </g>
    <g id="ytick_7">
     <g id="line2d_27">
      <path d="M 71.187031 109.785797 
L 598.497031 109.785797 
" clip-path="url(#p9685473158)" style="fill: none; stroke: #dddddd; stroke-width: 0.7; stroke-linecap: square"/>
     </g>
     <g id="line2d_28">
      <g>
       <use xlink:href="#m446c984cea" x="71.187031" y="109.785797" style="fill: #333333; stroke: #333333; stroke-width: 0.8"/>
      </g>
     </g>
     <g id="text_15">
      <!-- 0.06 -->
      <g style="fill: #333333" transform="translate(38.581563 114.154898) scale(0.115 -0.115)">
       <use xlink:href="#DejaVuSans-30"/>
       <use xlink:href="#DejaVuSans-2e" transform="translate(63.623047 0)"/>
       <use xlink:href="#DejaVuSans-30" transform="translate(95.410156 0)"/>
       <use xlink:href="#DejaVuSans-36" transform="translate(159.033203 0)"/>
      </g>
     </g>
    </g>
    <g id="ytick_8">
     <g id="line2d_29">
      <path d="M 71.187031 67.142346 
L 598.497031 67.142346 
" clip-path="url(#p9685473158)" style="fill: none; stroke: #dddddd; stroke-width: 0.7; stroke-linecap: square"/>
     </g>
     <g id="line2d_30">
      <g>
       <use xlink:href="#m446c984cea" x="71.187031" y="67.142346" style="fill: #333333; stroke: #333333; stroke-width: 0.8"/>
      </g>
     </g>
     <g id="text_16">
      <!-- 0.07 -->
      <g style="fill: #333333" transform="translate(38.581563 71.511448) scale(0.115 -0.115)">
       <use xlink:href="#DejaVuSans-30"/>
       <use xlink:href="#DejaVuSans-2e" transform="translate(63.623047 0)"/>
       <use xlink:href="#DejaVuSans-30" transform="translate(95.410156 0)"/>
       <use xlink:href="#DejaVuSans-37" transform="translate(159.033203 0)"/>
      </g>
     </g>
    </g>
    <g id="text_17">
     <!-- Density -->
     <g transform="translate(27.877969 237.267672) rotate(-90) scale(0.13 -0.13)">
      <defs>
       <path id="DejaVuSans-44" d="M 1259 4147 
L 1259 519 
L 2022 519 
Q 2988 519 3436 956 
Q 3884 1394 3884 2338 
Q 3884 3275 3436 3711 
Q 2988 4147 2022 4147 
L 1259 4147 
z
M 628 4666 
L 1925 4666 
Q 3281 4666 3915 4102 
Q 4550 3538 4550 2338 
Q 4550 1131 3912 565 
Q 3275 0 1925 0 
L 628 0 
L 628 4666 
z
" transform="scale(0.015625)"/>
       <path id="DejaVuSans-69" d="M 603 3500 
L 1178 3500 
L 1178 0 
L 603 0 
L 603 3500 
z
M 603 4863 
L 1178 4863 
L 1178 4134 
L 603 4134 
L 603 4863 
z
" transform="scale(0.015625)"/>
       <path id="DejaVuSans-74" d="M 1172 4494 
L 1172 3500 
L 2356 3500 
L 2356 3053 
L 1172 3053 
L 1172 1153 
Q 1172 725 1289 603 
Q 1406 481 1766 481 
L 2356 481 
L 2356 0 
L 1766 0 
Q 1100 0 847 248 
Q 594 497 594 1153 
L 594 3053 
L 172 3053 
L 172 3500 
L 594 3500 
L 594 4494 
L 1172 4494 
z
" transform="scale(0.015625)"/>
      </defs>
      <use xlink:href="#DejaVuSans-44"/>
      <use xlink:href="#DejaVuSans-65" transform="translate(77.001953 0)"/>
      <use xlink:href="#DejaVuSans-6e" transform="translate(138.525391 0)"/>
      <use xlink:href="#DejaVuSans-73" transform="translate(201.904297 0)"/>
      <use xlink:href="#DejaVuSans-69" transform="translate(254.003906 0)"/>
      <use xlink:href="#DejaVuSans-74" transform="translate(281.787109 0)"/>
      <use xlink:href="#DejaVuSans-79" transform="translate(320.996094 0)"/>
     </g>
    </g>
   </g>
   <g id="line2d_31">
    <path d="M 99.816236 359.584198 
L 101.403902 358.370985 
L 102.991568 357.006264 
L 104.579234 355.477285 
L 106.1669 353.767759 
L 107.754566 351.857632 
L 109.342232 349.723469 
L 110.929898 347.339513 
L 112.517564 344.679397 
L 114.105231 341.718342 
L 115.692897 338.4355 
L 117.280563 334.81602 
L 118.868229 330.852299 
L 120.455895 326.544029 
L 123.631227 316.919526 
L 126.806559 306.005676 
L 129.981891 293.815411 
L 133.157224 280.271156 
L 136.332556 265.279903 
L 139.507888 248.872027 
L 142.68322 231.272674 
L 147.446218 203.389138 
L 161.735213 117.73744 
L 164.910545 101.119785 
L 166.498211 93.661174 
L 168.085877 86.869381 
L 169.673543 80.797175 
L 171.26121 75.478098 
L 172.848876 70.927966 
L 174.436542 67.148306 
L 176.024208 64.131127 
L 177.611874 61.864173 
L 179.19954 60.33567 
L 180.787206 59.537569 
L 182.374872 59.4665 
L 183.962538 60.1221 
L 185.550204 61.502943 
L 187.13787 63.600974 
L 188.725536 66.395782 
L 190.313203 69.850291 
L 191.900869 73.909174 
L 193.488535 78.500775 
L 196.663867 88.948485 
L 199.839199 100.546042 
L 204.602197 119.173612 
L 209.365196 138.871248 
L 217.303526 172.376539 
L 220.478858 184.821888 
L 223.65419 196.296016 
L 226.829523 206.928634 
L 242.706183 258.354169 
L 247.469182 273.630064 
L 250.644514 282.955675 
L 253.819846 291.216946 
L 255.407512 294.881236 
L 256.995178 298.218903 
L 258.582844 301.231652 
L 260.17051 303.931206 
L 261.758176 306.3379 
L 263.345842 308.478985 
L 264.933509 310.386973 
L 268.108841 313.651683 
L 271.284173 316.448771 
L 277.634837 321.892946 
L 280.810169 324.986665 
L 283.985502 328.383973 
L 291.923832 337.118973 
L 296.68683 341.862259 
L 301.449828 346.261217 
L 304.625161 348.986944 
L 307.800493 351.402453 
L 310.975825 353.372134 
L 314.151157 354.868541 
L 317.326489 356.003656 
L 326.852486 358.83249 
L 331.615484 360.162481 
L 334.790816 360.878141 
L 337.966148 361.401304 
L 341.141481 361.722121 
L 344.316813 361.846207 
L 347.492145 361.78679 
L 352.255143 361.431359 
L 358.605807 360.861639 
L 361.78114 360.729827 
L 364.956472 360.758799 
L 369.71947 361.076593 
L 374.482468 361.633474 
L 382.420799 362.862114 
L 388.771463 363.830549 
L 393.534461 364.320406 
L 398.29746 364.49799 
L 404.648124 364.368317 
L 410.998788 364.277913 
L 415.761786 364.467995 
L 431.638447 365.495689 
L 437.989112 365.529196 
L 447.515108 365.27982 
L 455.453439 365.149549 
L 463.391769 365.330621 
L 474.505432 365.599717 
L 490.382092 365.646269 
L 557.064068 365.567087 
L 568.177731 365.255366 
L 574.528395 365.147799 
L 574.528395 365.147799 
" clip-path="url(#p9685473158)" style="fill: none; stroke: #264653; stroke-width: 2; stroke-linecap: square"/>
   </g>
   <g id="line2d_32">
    <path d="M 95.155668 361.466753 
L 96.71884 360.512885 
L 98.282011 359.37084 
L 99.845183 358.010322 
L 101.408355 356.398522 
L 102.971527 354.500798 
L 104.534699 352.281657 
L 106.097871 349.706061 
L 107.661043 346.74103 
L 109.224215 343.35748 
L 110.787387 339.5322 
L 112.350559 335.249835 
L 113.913731 330.504688 
L 115.476903 325.302176 
L 118.603247 313.607091 
L 121.729591 300.44696 
L 126.419106 278.9505 
L 132.671794 249.70483 
L 135.798138 235.752546 
L 138.924482 222.518649 
L 142.050826 210.021693 
L 145.17717 198.192291 
L 149.866685 181.511387 
L 152.993029 171.049325 
L 156.119373 161.180416 
L 159.245717 152.057592 
L 162.372061 143.891955 
L 163.935233 140.238355 
L 165.498405 136.904647 
L 167.061577 133.910848 
L 168.624749 131.271251 
L 170.187921 128.993858 
L 171.751093 127.080533 
L 173.314264 125.527919 
L 174.877436 124.329001 
L 176.440608 123.475139 
L 178.00378 122.958241 
L 179.566952 122.772712 
L 181.130124 122.9168 
L 182.693296 123.393025 
L 184.256468 124.207526 
L 185.81964 125.3683 
L 187.382812 126.882547 
L 188.945984 128.753484 
L 190.509156 130.977123 
L 192.072328 133.539573 
L 193.6355 136.415346 
L 196.761844 142.94658 
L 201.451359 153.87533 
L 206.140875 164.832415 
L 209.267219 171.693054 
L 213.956735 181.352597 
L 220.209423 194.187015 
L 223.335766 201.046145 
L 228.025282 212.042705 
L 234.27797 227.530351 
L 240.530658 242.933811 
L 245.220174 253.844174 
L 248.346517 260.677033 
L 253.036033 270.259593 
L 257.725549 279.171324 
L 262.415065 287.486669 
L 265.541409 292.614543 
L 268.667753 297.288454 
L 271.794096 301.419758 
L 274.92044 304.993876 
L 278.046784 308.098283 
L 282.7363 312.274632 
L 287.425816 316.512438 
L 290.55216 319.627593 
L 293.678504 323.013437 
L 303.057535 333.548702 
L 306.183879 336.533619 
L 307.747051 337.82887 
L 309.310223 338.978375 
L 310.873395 339.979799 
L 312.436567 340.837791 
L 315.562911 342.174307 
L 318.689255 343.13854 
L 329.631458 346.056834 
L 354.642209 354.289024 
L 362.458069 357.160802 
L 365.584413 358.110143 
L 368.710757 358.860549 
L 371.8371 359.416152 
L 376.526616 359.988155 
L 404.663711 362.6696 
L 410.916399 362.858584 
L 418.732259 362.792036 
L 426.548118 362.718831 
L 432.800806 362.904649 
L 439.053494 363.347341 
L 460.937901 365.205393 
L 468.75376 365.490678 
L 476.56962 365.560546 
L 487.511824 365.414064 
L 500.017199 365.26915 
L 510.959403 365.441206 
L 525.02795 365.622696 
L 540.65967 365.591648 
L 557.854561 365.29865 
L 562.544077 365.266212 
L 562.544077 365.266212 
" clip-path="url(#p9685473158)" style="fill: none; stroke: #e76f51; stroke-width: 2; stroke-linecap: square"/>
   </g>
   <g id="patch_3">
    <path d="M 71.187031 380.9555 
L 71.187031 44.1575 
" style="fill: none; stroke: #333333; stroke-linejoin: miter; stroke-linecap: square"/>
   </g>
   <g id="patch_4">
    <path d="M 71.187031 380.9555 
L 598.497031 380.9555 
" style="fill: none; stroke: #333333; stroke-linejoin: miter; stroke-linecap: square"/>
   </g>
   <g id="text_18">
    <!-- Kernel Density of BMI by Sex -->
    <g transform="translate(204.018281 30.1575) scale(0.16 -0.16)">
     <defs>
      <path id="DejaVuSans-Bold-4b" d="M 588 4666 
L 1791 4666 
L 1791 2963 
L 3525 4666 
L 4922 4666 
L 2675 2456 
L 5153 0 
L 3647 0 
L 1791 1838 
L 1791 0 
L 588 0 
L 588 4666 
z
" transform="scale(0.015625)"/>
      <path id="DejaVuSans-Bold-65" d="M 4031 1759 
L 4031 1441 
L 1416 1441 
Q 1456 1047 1700 850 
Q 1944 653 2381 653 
Q 2734 653 3104 758 
Q 3475 863 3866 1075 
L 3866 213 
Q 3469 63 3072 -14 
Q 2675 -91 2278 -91 
Q 1328 -91 801 392 
Q 275 875 275 1747 
Q 275 2603 792 3093 
Q 1309 3584 2216 3584 
Q 3041 3584 3536 3087 
Q 4031 2591 4031 1759 
z
M 2881 2131 
Q 2881 2450 2695 2645 
Q 2509 2841 2209 2841 
Q 1884 2841 1681 2658 
Q 1478 2475 1428 2131 
L 2881 2131 
z
" transform="scale(0.015625)"/>
      <path id="DejaVuSans-Bold-72" d="M 3138 2547 
Q 2991 2616 2845 2648 
Q 2700 2681 2553 2681 
Q 2122 2681 1889 2404 
Q 1656 2128 1656 1613 
L 1656 0 
L 538 0 
L 538 3500 
L 1656 3500 
L 1656 2925 
Q 1872 3269 2151 3426 
Q 2431 3584 2822 3584 
Q 2878 3584 2943 3579 
Q 3009 3575 3134 3559 
L 3138 2547 
z
" transform="scale(0.015625)"/>
      <path id="DejaVuSans-Bold-6e" d="M 4056 2131 
L 4056 0 
L 2931 0 
L 2931 347 
L 2931 1631 
Q 2931 2084 2911 2256 
Q 2891 2428 2841 2509 
Q 2775 2619 2662 2680 
Q 2550 2741 2406 2741 
Q 2056 2741 1856 2470 
Q 1656 2200 1656 1722 
L 1656 0 
L 538 0 
L 538 3500 
L 1656 3500 
L 1656 2988 
Q 1909 3294 2193 3439 
Q 2478 3584 2822 3584 
Q 3428 3584 3742 3212 
Q 4056 2841 4056 2131 
z
" transform="scale(0.015625)"/>
      <path id="DejaVuSans-Bold-6c" d="M 538 4863 
L 1656 4863 
L 1656 0 
L 538 0 
L 538 4863 
z
" transform="scale(0.015625)"/>
      <path id="DejaVuSans-Bold-20" transform="scale(0.015625)"/>
      <path id="DejaVuSans-Bold-44" d="M 1791 3756 
L 1791 909 
L 2222 909 
Q 2959 909 3348 1275 
Q 3738 1641 3738 2338 
Q 3738 3031 3350 3393 
Q 2963 3756 2222 3756 
L 1791 3756 
z
M 588 4666 
L 1856 4666 
Q 2919 4666 3439 4514 
Q 3959 4363 4331 4000 
Q 4659 3684 4818 3271 
Q 4978 2859 4978 2338 
Q 4978 1809 4818 1395 
Q 4659 981 4331 666 
Q 3956 303 3431 151 
Q 2906 0 1856 0 
L 588 0 
L 588 4666 
z
" transform="scale(0.015625)"/>
      <path id="DejaVuSans-Bold-73" d="M 3272 3391 
L 3272 2541 
Q 2913 2691 2578 2766 
Q 2244 2841 1947 2841 
Q 1628 2841 1473 2761 
Q 1319 2681 1319 2516 
Q 1319 2381 1436 2309 
Q 1553 2238 1856 2203 
L 2053 2175 
Q 2913 2066 3209 1816 
Q 3506 1566 3506 1031 
Q 3506 472 3093 190 
Q 2681 -91 1863 -91 
Q 1516 -91 1145 -36 
Q 775 19 384 128 
L 384 978 
Q 719 816 1070 734 
Q 1422 653 1784 653 
Q 2113 653 2278 743 
Q 2444 834 2444 1013 
Q 2444 1163 2330 1236 
Q 2216 1309 1875 1350 
L 1678 1375 
Q 931 1469 631 1722 
Q 331 1975 331 2491 
Q 331 3047 712 3315 
Q 1094 3584 1881 3584 
Q 2191 3584 2531 3537 
Q 2872 3491 3272 3391 
z
" transform="scale(0.015625)"/>
      <path id="DejaVuSans-Bold-69" d="M 538 3500 
L 1656 3500 
L 1656 0 
L 538 0 
L 538 3500 
z
M 538 4863 
L 1656 4863 
L 1656 3950 
L 538 3950 
L 538 4863 
z
" transform="scale(0.015625)"/>
      <path id="DejaVuSans-Bold-74" d="M 1759 4494 
L 1759 3500 
L 2913 3500 
L 2913 2700 
L 1759 2700 
L 1759 1216 
Q 1759 972 1856 886 
Q 1953 800 2241 800 
L 2816 800 
L 2816 0 
L 1856 0 
Q 1194 0 917 276 
Q 641 553 641 1216 
L 641 2700 
L 84 2700 
L 84 3500 
L 641 3500 
L 641 4494 
L 1759 4494 
z
" transform="scale(0.015625)"/>
      <path id="DejaVuSans-Bold-79" d="M 78 3500 
L 1197 3500 
L 2138 1125 
L 2938 3500 
L 4056 3500 
L 2584 -331 
Q 2363 -916 2067 -1148 
Q 1772 -1381 1288 -1381 
L 641 -1381 
L 641 -647 
L 991 -647 
Q 1275 -647 1404 -556 
Q 1534 -466 1606 -231 
L 1638 -134 
L 78 3500 
z
" transform="scale(0.015625)"/>
      <path id="DejaVuSans-Bold-6f" d="M 2203 2784 
Q 1831 2784 1636 2517 
Q 1441 2250 1441 1747 
Q 1441 1244 1636 976 
Q 1831 709 2203 709 
Q 2569 709 2762 976 
Q 2956 1244 2956 1747 
Q 2956 2250 2762 2517 
Q 2569 2784 2203 2784 
z
M 2203 3584 
Q 3106 3584 3614 3096 
Q 4122 2609 4122 1747 
Q 4122 884 3614 396 
Q 3106 -91 2203 -91 
Q 1297 -91 786 396 
Q 275 884 275 1747 
Q 275 2609 786 3096 
Q 1297 3584 2203 3584 
z
" transform="scale(0.015625)"/>
      <path id="DejaVuSans-Bold-66" d="M 2841 4863 
L 2841 4128 
L 2222 4128 
Q 1984 4128 1890 4042 
Q 1797 3956 1797 3744 
L 1797 3500 
L 2753 3500 
L 2753 2700 
L 1797 2700 
L 1797 0 
L 678 0 
L 678 2700 
L 122 2700 
L 122 3500 
L 678 3500 
L 678 3744 
Q 678 4316 997 4589 
Q 1316 4863 1984 4863 
L 2841 4863 
z
" transform="scale(0.015625)"/>
      <path id="DejaVuSans-Bold-42" d="M 2456 2859 
Q 2741 2859 2887 2984 
Q 3034 3109 3034 3353 
Q 3034 3594 2887 3720 
Q 2741 3847 2456 3847 
L 1791 3847 
L 1791 2859 
L 2456 2859 
z
M 2497 819 
Q 2859 819 3042 972 
Q 3225 1125 3225 1434 
Q 3225 1738 3044 1889 
Q 2863 2041 2497 2041 
L 1791 2041 
L 1791 819 
L 2497 819 
z
M 3616 2497 
Q 4003 2384 4215 2081 
Q 4428 1778 4428 1338 
Q 4428 663 3972 331 
Q 3516 0 2584 0 
L 588 0 
L 588 4666 
L 2394 4666 
Q 3366 4666 3802 4372 
Q 4238 4078 4238 3431 
Q 4238 3091 4078 2852 
Q 3919 2613 3616 2497 
z
" transform="scale(0.015625)"/>
      <path id="DejaVuSans-Bold-4d" d="M 588 4666 
L 2119 4666 
L 3181 2169 
L 4250 4666 
L 5778 4666 
L 5778 0 
L 4641 0 
L 4641 3413 
L 3566 897 
L 2803 897 
L 1728 3413 
L 1728 0 
L 588 0 
L 588 4666 
z
" transform="scale(0.015625)"/>
      <path id="DejaVuSans-Bold-49" d="M 588 4666 
L 1791 4666 
L 1791 0 
L 588 0 
L 588 4666 
z
" transform="scale(0.015625)"/>
      <path id="DejaVuSans-Bold-62" d="M 2400 722 
Q 2759 722 2948 984 
Q 3138 1247 3138 1747 
Q 3138 2247 2948 2509 
Q 2759 2772 2400 2772 
Q 2041 2772 1848 2508 
Q 1656 2244 1656 1747 
Q 1656 1250 1848 986 
Q 2041 722 2400 722 
z
M 1656 2988 
Q 1888 3294 2169 3439 
Q 2450 3584 2816 3584 
Q 3463 3584 3878 3070 
Q 4294 2556 4294 1747 
Q 4294 938 3878 423 
Q 3463 -91 2816 -91 
Q 2450 -91 2169 54 
Q 1888 200 1656 506 
L 1656 0 
L 538 0 
L 538 4863 
L 1656 4863 
L 1656 2988 
z
" transform="scale(0.015625)"/>
      <path id="DejaVuSans-Bold-53" d="M 3834 4519 
L 3834 3531 
Q 3450 3703 3084 3790 
Q 2719 3878 2394 3878 
Q 1963 3878 1756 3759 
Q 1550 3641 1550 3391 
Q 1550 3203 1689 3098 
Q 1828 2994 2194 2919 
L 2706 2816 
Q 3484 2659 3812 2340 
Q 4141 2022 4141 1434 
Q 4141 663 3683 286 
Q 3225 -91 2284 -91 
Q 1841 -91 1394 -6 
Q 947 78 500 244 
L 500 1259 
Q 947 1022 1364 901 
Q 1781 781 2169 781 
Q 2563 781 2772 912 
Q 2981 1044 2981 1288 
Q 2981 1506 2839 1625 
Q 2697 1744 2272 1838 
L 1806 1941 
Q 1106 2091 782 2419 
Q 459 2747 459 3303 
Q 459 4000 909 4375 
Q 1359 4750 2203 4750 
Q 2588 4750 2994 4692 
Q 3400 4634 3834 4519 
z
" transform="scale(0.015625)"/>
      <path id="DejaVuSans-Bold-78" d="M 1422 1791 
L 159 3500 
L 1344 3500 
L 2059 2463 
L 2784 3500 
L 3969 3500 
L 2706 1797 
L 4031 0 
L 2847 0 
L 2059 1106 
L 1281 0 
L 97 0 
L 1422 1791 
z
" transform="scale(0.015625)"/>
     </defs>
     <use xlink:href="#DejaVuSans-Bold-4b"/>
     <use xlink:href="#DejaVuSans-Bold-65" transform="translate(75.740234 0)"/>
     <use xlink:href="#DejaVuSans-Bold-72" transform="translate(143.5625 0)"/>
     <use xlink:href="#DejaVuSans-Bold-6e" transform="translate(192.878906 0)"/>
     <use xlink:href="#DejaVuSans-Bold-65" transform="translate(264.070312 0)"/>
     <use xlink:href="#DejaVuSans-Bold-6c" transform="translate(331.892578 0)"/>
     <use xlink:href="#DejaVuSans-Bold-20" transform="translate(366.169922 0)"/>
     <use xlink:href="#DejaVuSans-Bold-44" transform="translate(400.984375 0)"/>
     <use xlink:href="#DejaVuSans-Bold-65" transform="translate(483.992188 0)"/>
     <use xlink:href="#DejaVuSans-Bold-6e" transform="translate(551.814453 0)"/>
     <use xlink:href="#DejaVuSans-Bold-73" transform="translate(623.005859 0)"/>
     <use xlink:href="#DejaVuSans-Bold-69" transform="translate(682.527344 0)"/>
     <use xlink:href="#DejaVuSans-Bold-74" transform="translate(716.804688 0)"/>
     <use xlink:href="#DejaVuSans-Bold-79" transform="translate(764.607422 0)"/>
     <use xlink:href="#DejaVuSans-Bold-20" transform="translate(829.792969 0)"/>
     <use xlink:href="#DejaVuSans-Bold-6f" transform="translate(864.607422 0)"/>
     <use xlink:href="#DejaVuSans-Bold-66" transform="translate(933.308594 0)"/>
     <use xlink:href="#DejaVuSans-Bold-20" transform="translate(976.814453 0)"/>
     <use xlink:href="#DejaVuSans-Bold-42" transform="translate(1011.628906 0)"/>
     <use xlink:href="#DejaVuSans-Bold-4d" transform="translate(1087.849609 0)"/>
     <use xlink:href="#DejaVuSans-Bold-49" transform="translate(1187.361328 0)"/>
     <use xlink:href="#DejaVuSans-Bold-20" transform="translate(1224.568359 0)"/>
     <use xlink:href="#DejaVuSans-Bold-62" transform="translate(1259.382812 0)"/>
     <use xlink:href="#DejaVuSans-Bold-79" transform="translate(1330.964844 0)"/>
     <use xlink:href="#DejaVuSans-Bold-20" transform="translate(1396.150391 0)"/>
     <use xlink:href="#DejaVuSans-Bold-53" transform="translate(1430.964844 0)"/>
     <use xlink:href="#DejaVuSans-Bold-65" transform="translate(1502.986328 0)"/>
     <use xlink:href="#DejaVuSans-Bold-78" transform="translate(1570.808594 0)"/>
    </g>
   </g>
   <g id="legend_1">
    <g id="line2d_33">
     <path d="M 449.333281 59.875625 
L 461.333281 59.875625 
L 473.333281 59.875625 
" style="fill: none; stroke: #264653; stroke-width: 2; stroke-linecap: square"/>
    </g>
    <g id="text_19">
     <!-- Male (n=2493) -->
     <g transform="translate(482.933281 64.075625) scale(0.12 -0.12)">
      <defs>
       <path id="DejaVuSans-6c" d="M 603 4863 
L 1178 4863 
L 1178 0 
L 603 0 
L 603 4863 
z
" transform="scale(0.015625)"/>
       <path id="DejaVuSans-3d" d="M 678 2906 
L 4684 2906 
L 4684 2381 
L 678 2381 
L 678 2906 
z
M 678 1631 
L 4684 1631 
L 4684 1100 
L 678 1100 
L 678 1631 
z
" transform="scale(0.015625)"/>
       <path id="DejaVuSans-39" d="M 703 97 
L 703 672 
Q 941 559 1184 500 
Q 1428 441 1663 441 
Q 2288 441 2617 861 
Q 2947 1281 2994 2138 
Q 2813 1869 2534 1725 
Q 2256 1581 1919 1581 
Q 1219 1581 811 2004 
Q 403 2428 403 3163 
Q 403 3881 828 4315 
Q 1253 4750 1959 4750 
Q 2769 4750 3195 4129 
Q 3622 3509 3622 2328 
Q 3622 1225 3098 567 
Q 2575 -91 1691 -91 
Q 1453 -91 1209 -44 
Q 966 3 703 97 
z
M 1959 2075 
Q 2384 2075 2632 2365 
Q 2881 2656 2881 3163 
Q 2881 3666 2632 3958 
Q 2384 4250 1959 4250 
Q 1534 4250 1286 3958 
Q 1038 3666 1038 3163 
Q 1038 2656 1286 2365 
Q 1534 2075 1959 2075 
z
" transform="scale(0.015625)"/>
      </defs>
      <use xlink:href="#DejaVuSans-4d"/>
      <use xlink:href="#DejaVuSans-61" transform="translate(86.279297 0)"/>
      <use xlink:href="#DejaVuSans-6c" transform="translate(147.558594 0)"/>
      <use xlink:href="#DejaVuSans-65" transform="translate(175.341797 0)"/>
      <use xlink:href="#DejaVuSans-20" transform="translate(236.865234 0)"/>
      <use xlink:href="#DejaVuSans-28" transform="translate(268.652344 0)"/>
      <use xlink:href="#DejaVuSans-6e" transform="translate(307.666016 0)"/>
      <use xlink:href="#DejaVuSans-3d" transform="translate(371.044922 0)"/>
      <use xlink:href="#DejaVuSans-32" transform="translate(454.833984 0)"/>
      <use xlink:href="#DejaVuSans-34" transform="translate(518.457031 0)"/>
      <use xlink:href="#DejaVuSans-39" transform="translate(582.080078 0)"/>
      <use xlink:href="#DejaVuSans-33" transform="translate(645.703125 0)"/>
      <use xlink:href="#DejaVuSans-29" transform="translate(709.326172 0)"/>
     </g>
    </g>
    <g id="line2d_34">
     <path d="M 449.333281 77.489375 
L 461.333281 77.489375 
L 473.333281 77.489375 
" style="fill: none; stroke: #e76f51; stroke-width: 2; stroke-linecap: square"/>
    </g>
    <g id="text_20">
     <!-- Female (n=2682) -->
     <g transform="translate(482.933281 81.689375) scale(0.12 -0.12)">
      <defs>
       <path id="DejaVuSans-46" d="M 628 4666 
L 3309 4666 
L 3309 4134 
L 1259 4134 
L 1259 2759 
L 3109 2759 
L 3109 2228 
L 1259 2228 
L 1259 0 
L 628 0 
L 628 4666 
z
" transform="scale(0.015625)"/>
      </defs>
      <use xlink:href="#DejaVuSans-46"/>
      <use xlink:href="#DejaVuSans-65" transform="translate(52.019531 0)"/>
      <use xlink:href="#DejaVuSans-6d" transform="translate(113.542969 0)"/>
      <use xlink:href="#DejaVuSans-61" transform="translate(210.955078 0)"/>
      <use xlink:href="#DejaVuSans-6c" transform="translate(272.234375 0)"/>
      <use xlink:href="#DejaVuSans-65" transform="translate(300.017578 0)"/>
      <use xlink:href="#DejaVuSans-20" transform="translate(361.541016 0)"/>
      <use xlink:href="#DejaVuSans-28" transform="translate(393.328125 0)"/>
      <use xlink:href="#DejaVuSans-6e" transform="translate(432.341797 0)"/>
      <use xlink:href="#DejaVuSans-3d" transform="translate(495.720703 0)"/>
      <use xlink:href="#DejaVuSans-32" transform="translate(579.509766 0)"/>
      <use xlink:href="#DejaVuSans-36" transform="translate(643.132812 0)"/>
      <use xlink:href="#DejaVuSans-38" transform="translate(706.755859 0)"/>
      <use xlink:href="#DejaVuSans-32" transform="translate(770.378906 0)"/>
      <use xlink:href="#DejaVuSans-29" transform="translate(834.001953 0)"/>
     </g>
    </g>
   </g>
  </g>
 </g>
 <defs>
  <clipPath id="p9685473158">
   <rect x="71.187031" y="44.1575" width="527.31" height="336.798"/>
  </clipPath>
 </defs>
</svg>
