<?xml version="1.0" encoding="utf-8" standalone="no"?>
<!DOCTYPE svg PUBLIC "-//W3C//DTD SVG 1.1//EN"
  "http://www.w3.org/Graphics/SVG/1.1/DTD/svg11.dtd">
<svg xmlns:xlink="http://www.w3.org/1999/xlink" width="609.180156pt" height="439.645344pt" viewBox="0 0 609.180156 439.645344" xmlns="http://www.w3.org/2000/svg" version="1.1">
 <metadata>
  <rdf:RDF xmlns:dc="http://purl.org/dc/elements/1.1/" xmlns:cc="http://creativecommons.org/ns#" xmlns:rdf="http://www.w3.org/1999/02/22-rdf-syntax-ns#">
   <cc:Work>
    <dc:type rdf:resource="http://purl.org/dc/dcmitype/StillImage"/>
    <dc:date>2026-06-28T06:10:02.276315</dc:date>
    <dc:format>image/svg+xml</dc:format>
    <dc:creator>
     <cc:Agent>
      <dc:title>Matplotlib v3.10.9, https://matplotlib.org/</dc:title>
     </cc:Agent>
    </dc:creator>
   </cc:Work>
  </rdf:RDF>
 </metadata>
 <defs>
  <style type="text/css">*{stroke-linejoin: round; stroke-linecap: butt}</style>
 </defs>
 <g id="figure_1">
  <g id="patch_1">
   <path d="M 0 439.645344 
L 609.180156 439.645344 
L 609.180156 -0 
L 0 -0 
z
" style="fill: #ffffff"/>
  </g>
  <g id="axes_1">
   <g id="patch_2">
    <path d="M 63.870156 380.9555 
L 591.180156 380.9555 
L 591.180156 44.1575 
L 63.870156 44.1575 
z
" style="fill: #ffffff"/>
   </g>
   <g id="matplotlib.axis_1">
    <g id="xtick_1">
     <g id="line2d_1">
      <path d="M 126.454929 380.9555 
L 126.454929 44.1575 
" clip-path="url(#pd6e036e5d3)" style="fill: none; stroke: #dddddd; stroke-width: 0.7; stroke-linecap: square"/>
     </g>
     <g id="line2d_2">
      <defs>
       <path id="mada565a0c6" d="M 0 0 
L 0 3.5 
" style="stroke: #333333; stroke-width: 0.8"/>
      </defs>
      <g>
       <use xlink:href="#mada565a0c6" x="126.454929" y="380.9555" style="fill: #333333; stroke: #333333; stroke-width: 0.8"/>
      </g>
     </g>
     <g id="text_1">
      <!-- 20 -->
      <g style="fill: #333333" transform="translate(119.138054 396.693703) scale(0.115 -0.115)">
       <defs>
        <path id="DejaVuSans-32" d="M 1228 531 
L 3431 531 
L 3431 0 
L 469 0 
L 469 531 
Q 828 903 1448 1529 
Q 2069 2156 2228 2338 
Q 2531 2678 2651 2914 
Q 2772 3150 2772 3378 
Q 2772 3750 2511 3984 
Q 2250 4219 1831 4219 
Q 1534 4219 1204 4116 
Q 875 4013 500 3803 
L 500 4441 
Q 881 4594 1212 4672 
Q 1544 4750 1819 4750 
Q 2544 4750 2975 4387 
Q 3406 4025 3406 3419 
Q 3406 3131 3298 2873 
Q 3191 2616 2906 2266 
Q 2828 2175 2409 1742 
Q 1991 1309 1228 531 
z
" transform="scale(0.015625)"/>
        <path id="DejaVuSans-30" d="M 2034 4250 
Q 1547 4250 1301 3770 
Q 1056 3291 1056 2328 
Q 1056 1369 1301 889 
Q 1547 409 2034 409 
Q 2525 409 2770 889 
Q 3016 1369 3016 2328 
Q 3016 3291 2770 3770 
Q 2525 4250 2034 4250 
z
M 2034 4750 
Q 2819 4750 3233 4129 
Q 3647 3509 3647 2328 
Q 3647 1150 3233 529 
Q 2819 -91 2034 -91 
Q 1250 -91 836 529 
Q 422 1150 422 2328 
Q 422 3509 836 4129 
Q 1250 4750 2034 4750 
z
" transform="scale(0.015625)"/>
       </defs>
       <use xlink:href="#DejaVuSans-32"/>
       <use xlink:href="#DejaVuSans-30" transform="translate(63.623047 0)"/>
      </g>
     </g>
    </g>
    <g id="xtick_2">
     <g id="line2d_3">
      <path d="M 193.034474 380.9555 
L 193.034474 44.1575 
" clip-path="url(#pd6e036e5d3)" style="fill: none; stroke: #dddddd; stroke-width: 0.7; stroke-linecap: square"/>
     </g>
     <g id="line2d_4">
      <g>
       <use xlink:href="#mada565a0c6" x="193.034474" y="380.9555" style="fill: #333333; stroke: #333333; stroke-width: 0.8"/>
      </g>
     </g>
     <g id="text_2">
      <!-- 30 -->
      <g style="fill: #333333" transform="translate(185.717599 396.693703) scale(0.115 -0.115)">
       <defs>
        <path id="DejaVuSans-33" d="M 2597 2516 
Q 3050 2419 3304 2112 
Q 3559 1806 3559 1356 
Q 3559 666 3084 287 
Q 2609 -91 1734 -91 
Q 1441 -91 1130 -33 
Q 819 25 488 141 
L 488 750 
Q 750 597 1062 519 
Q 1375 441 1716 441 
Q 2309 441 2620 675 
Q 2931 909 2931 1356 
Q 2931 1769 2642 2001 
Q 2353 2234 1838 2234 
L 1294 2234 
L 1294 2753 
L 1863 2753 
Q 2328 2753 2575 2939 
Q 2822 3125 2822 3475 
Q 2822 3834 2567 4026 
Q 2313 4219 1838 4219 
Q 1578 4219 1281 4162 
Q 984 4106 628 3988 
L 628 4550 
Q 988 4650 1302 4700 
Q 1616 4750 1894 4750 
Q 2613 4750 3031 4423 
Q 3450 4097 3450 3541 
Q 3450 3153 3228 2886 
Q 3006 2619 2597 2516 
z
" transform="scale(0.015625)"/>
       </defs>
       <use xlink:href="#DejaVuSans-33"/>
       <use xlink:href="#DejaVuSans-30" transform="translate(63.623047 0)"/>
      </g>
     </g>
    </g>
    <g id="xtick_3">
     <g id="line2d_5">
      <path d="M 259.61402 380.9555 
L 259.61402 44.1575 
" clip-path="url(#pd6e036e5d3)" style="fill: none; stroke: #dddddd; stroke-width: 0.7; stroke-linecap: square"/>
     </g>
     <g id="line2d_6">
      <g>
       <use xlink:href="#mada565a0c6" x="259.61402" y="380.9555" style="fill: #333333; stroke: #333333; stroke-width: 0.8"/>
      </g>
     </g>
     <g id="text_3">
      <!-- 40 -->
      <g style="fill: #333333" transform="translate(252.297145 396.693703) scale(0.115 -0.115)">
       <defs>
        <path id="DejaVuSans-34" d="M 2419 4116 
L 825 1625 
L 2419 1625 
L 2419 4116 
z
M 2253 4666 
L 3047 4666 
L 3047 1625 
L 3713 1625 
L 3713 1100 
L 3047 1100 
L 3047 0 
L 2419 0 
L 2419 1100 
L 313 1100 
L 313 1709 
L 2253 4666 
z
" transform="scale(0.015625)"/>
       </defs>
       <use xlink:href="#DejaVuSans-34"/>
       <use xlink:href="#DejaVuSans-30" transform="translate(63.623047 0)"/>
      </g>
     </g>
    </g>
    <g id="xtick_4">
     <g id="line2d_7">
      <path d="M 326.193565 380.9555 
L 326.193565 44.1575 
" clip-path="url(#pd6e036e5d3)" style="fill: none; stroke: #dddddd; stroke-width: 0.7; stroke-linecap: square"/>
     </g>
     <g id="line2d_8">
      <g>
       <use xlink:href="#mada565a0c6" x="326.193565" y="380.9555" style="fill: #333333; stroke: #333333; stroke-width: 0.8"/>
      </g>
     </g>
     <g id="text_4">
      <!-- 50 -->
      <g style="fill: #333333" transform="translate(318.87669 396.693703) scale(0.115 -0.115)">
       <defs>
        <path id="DejaVuSans-35" d="M 691 4666 
L 3169 4666 
L 3169 4134 
L 1269 4134 
L 1269 2991 
Q 1406 3038 1543 3061 
Q 1681 3084 1819 3084 
Q 2600 3084 3056 2656 
Q 3513 2228 3513 1497 
Q 3513 744 3044 326 
Q 2575 -91 1722 -91 
Q 1428 -91 1123 -41 
Q 819 9 494 109 
L 494 744 
Q 775 591 1075 516 
Q 1375 441 1709 441 
Q 2250 441 2565 725 
Q 2881 1009 2881 1497 
Q 2881 1984 2565 2268 
Q 2250 2553 1709 2553 
Q 1456 2553 1204 2497 
Q 953 2441 691 2322 
L 691 4666 
z
" transform="scale(0.015625)"/>
       </defs>
       <use xlink:href="#DejaVuSans-35"/>
       <use xlink:href="#DejaVuSans-30" transform="translate(63.623047 0)"/>
      </g>
     </g>
    </g>
    <g id="xtick_5">
     <g id="line2d_9">
      <path d="M 392.773111 380.9555 
L 392.773111 44.1575 
" clip-path="url(#pd6e036e5d3)" style="fill: none; stroke: #dddddd; stroke-width: 0.7; stroke-linecap: square"/>
     </g>
     <g id="line2d_10">
      <g>
       <use xlink:href="#mada565a0c6" x="392.773111" y="380.9555" style="fill: #333333; stroke: #333333; stroke-width: 0.8"/>
      </g>
     </g>
     <g id="text_5">
      <!-- 60 -->
      <g style="fill: #333333" transform="translate(385.456236 396.693703) scale(0.115 -0.115)">
       <defs>
        <path id="DejaVuSans-36" d="M 2113 2584 
Q 1688 2584 1439 2293 
Q 1191 2003 1191 1497 
Q 1191 994 1439 701 
Q 1688 409 2113 409 
Q 2538 409 2786 701 
Q 3034 994 3034 1497 
Q 3034 2003 2786 2293 
Q 2538 2584 2113 2584 
z
M 3366 4563 
L 3366 3988 
Q 3128 4100 2886 4159 
Q 2644 4219 2406 4219 
Q 1781 4219 1451 3797 
Q 1122 3375 1075 2522 
Q 1259 2794 1537 2939 
Q 1816 3084 2150 3084 
Q 2853 3084 3261 2657 
Q 3669 2231 3669 1497 
Q 3669 778 3244 343 
Q 2819 -91 2113 -91 
Q 1303 -91 875 529 
Q 447 1150 447 2328 
Q 447 3434 972 4092 
Q 1497 4750 2381 4750 
Q 2619 4750 2861 4703 
Q 3103 4656 3366 4563 
z
" transform="scale(0.015625)"/>
       </defs>
       <use xlink:href="#DejaVuSans-36"/>
       <use xlink:href="#DejaVuSans-30" transform="translate(63.623047 0)"/>
      </g>
     </g>
    </g>
    <g id="xtick_6">
     <g id="line2d_11">
      <path d="M 459.352656 380.9555 
L 459.352656 44.1575 
" clip-path="url(#pd6e036e5d3)" style="fill: none; stroke: #dddddd; stroke-width: 0.7; stroke-linecap: square"/>
     </g>
     <g id="line2d_12">
      <g>
       <use xlink:href="#mada565a0c6" x="459.352656" y="380.9555" style="fill: #333333; stroke: #333333; stroke-width: 0.8"/>
      </g>
     </g>
     <g id="text_6">
      <!-- 70 -->
      <g style="fill: #333333" transform="translate(452.035781 396.693703) scale(0.115 -0.115)">
       <defs>
        <path id="DejaVuSans-37" d="M 525 4666 
L 3525 4666 
L 3525 4397 
L 1831 0 
L 1172 0 
L 2766 4134 
L 525 4134 
L 525 4666 
z
" transform="scale(0.015625)"/>
       </defs>
       <use xlink:href="#DejaVuSans-37"/>
       <use xlink:href="#DejaVuSans-30" transform="translate(63.623047 0)"/>
      </g>
     </g>
    </g>
    <g id="xtick_7">
     <g id="line2d_13">
      <path d="M 525.932202 380.9555 
L 525.932202 44.1575 
" clip-path="url(#pd6e036e5d3)" style="fill: none; stroke: #dddddd; stroke-width: 0.7; stroke-linecap: square"/>
     </g>
     <g id="line2d_14">
      <g>
       <use xlink:href="#mada565a0c6" x="525.932202" y="380.9555" style="fill: #333333; stroke: #333333; stroke-width: 0.8"/>
      </g>
     </g>
     <g id="text_7">
      <!-- 80 -->
      <g style="fill: #333333" transform="translate(518.615327 396.693703) scale(0.115 -0.115)">
       <defs>
        <path id="DejaVuSans-38" d="M 2034 2216 
Q 1584 2216 1326 1975 
Q 1069 1734 1069 1313 
Q 1069 891 1326 650 
Q 1584 409 2034 409 
Q 2484 409 2743 651 
Q 3003 894 3003 1313 
Q 3003 1734 2745 1975 
Q 2488 2216 2034 2216 
z
M 1403 2484 
Q 997 2584 770 2862 
Q 544 3141 544 3541 
Q 544 4100 942 4425 
Q 1341 4750 2034 4750 
Q 2731 4750 3128 4425 
Q 3525 4100 3525 3541 
Q 3525 3141 3298 2862 
Q 3072 2584 2669 2484 
Q 3125 2378 3379 2068 
Q 3634 1759 3634 1313 
Q 3634 634 3220 271 
Q 2806 -91 2034 -91 
Q 1263 -91 848 271 
Q 434 634 434 1313 
Q 434 1759 690 2068 
Q 947 2378 1403 2484 
z
M 1172 3481 
Q 1172 3119 1398 2916 
Q 1625 2713 2034 2713 
Q 2441 2713 2670 2916 
Q 2900 3119 2900 3481 
Q 2900 3844 2670 4047 
Q 2441 4250 2034 4250 
Q 1625 4250 1398 4047 
Q 1172 3844 1172 3481 
z
" transform="scale(0.015625)"/>
       </defs>
       <use xlink:href="#DejaVuSans-38"/>
       <use xlink:href="#DejaVuSans-30" transform="translate(63.623047 0)"/>
      </g>
     </g>
    </g>
    <g id="text_8">
     <!-- Body Mass Index (kg/m$^2$) -->
     <g transform="translate(245.885156 418.915344) scale(0.13 -0.13)">
      <defs>
       <path id="DejaVuSans-42" d="M 1259 2228 
L 1259 519 
L 2272 519 
Q 2781 519 3026 730 
Q 3272 941 3272 1375 
Q 3272 1813 3026 2020 
Q 2781 2228 2272 2228 
L 1259 2228 
z
M 1259 4147 
L 1259 2741 
L 2194 2741 
Q 2656 2741 2882 2914 
Q 3109 3088 3109 3444 
Q 3109 3797 2882 3972 
Q 2656 4147 2194 4147 
L 1259 4147 
z
M 628 4666 
L 2241 4666 
Q 2963 4666 3353 4366 
Q 3744 4066 3744 3513 
Q 3744 3084 3544 2831 
Q 3344 2578 2956 2516 
Q 3422 2416 3680 2098 
Q 3938 1781 3938 1306 
Q 3938 681 3513 340 
Q 3088 0 2303 0 
L 628 0 
L 628 4666 
z
" transform="scale(0.015625)"/>
       <path id="DejaVuSans-6f" d="M 1959 3097 
Q 1497 3097 1228 2736 
Q 959 2375 959 1747 
Q 959 1119 1226 758 
Q 1494 397 1959 397 
Q 2419 397 2687 759 
Q 2956 1122 2956 1747 
Q 2956 2369 2687 2733 
Q 2419 3097 1959 3097 
z
M 1959 3584 
Q 2709 3584 3137 3096 
Q 3566 2609 3566 1747 
Q 3566 888 3137 398 
Q 2709 -91 1959 -91 
Q 1206 -91 779 398 
Q 353 888 353 1747 
Q 353 2609 779 3096 
Q 1206 3584 1959 3584 
z
" transform="scale(0.015625)"/>
       <path id="DejaVuSans-64" d="M 2906 2969 
L 2906 4863 
L 3481 4863 
L 3481 0 
L 2906 0 
L 2906 525 
Q 2725 213 2448 61 
Q 2172 -91 1784 -91 
Q 1150 -91 751 415 
Q 353 922 353 1747 
Q 353 2572 751 3078 
Q 1150 3584 1784 3584 
Q 2172 3584 2448 3432 
Q 2725 3281 2906 2969 
z
M 947 1747 
Q 947 1113 1208 752 
Q 1469 391 1925 391 
Q 2381 391 2643 752 
Q 2906 1113 2906 1747 
Q 2906 2381 2643 2742 
Q 2381 3103 1925 3103 
Q 1469 3103 1208 2742 
Q 947 2381 947 1747 
z
" transform="scale(0.015625)"/>
       <path id="DejaVuSans-79" d="M 2059 -325 
Q 1816 -950 1584 -1140 
Q 1353 -1331 966 -1331 
L 506 -1331 
L 506 -850 
L 844 -850 
Q 1081 -850 1212 -737 
Q 1344 -625 1503 -206 
L 1606 56 
L 191 3500 
L 800 3500 
L 1894 763 
L 2988 3500 
L 3597 3500 
L 2059 -325 
z
" transform="scale(0.015625)"/>
       <path id="DejaVuSans-20" transform="scale(0.015625)"/>
       <path id="DejaVuSans-4d" d="M 628 4666 
L 1569 4666 
L 2759 1491 
L 3956 4666 
L 4897 4666 
L 4897 0 
L 4281 0 
L 4281 4097 
L 3078 897 
L 2444 897 
L 1241 4097 
L 1241 0 
L 628 0 
L 628 4666 
z
" transform="scale(0.015625)"/>
       <path id="DejaVuSans-61" d="M 2194 1759 
Q 1497 1759 1228 1600 
Q 959 1441 959 1056 
Q 959 750 1161 570 
Q 1363 391 1709 391 
Q 2188 391 2477 730 
Q 2766 1069 2766 1631 
L 2766 1759 
L 2194 1759 
z
M 3341 1997 
L 3341 0 
L 2766 0 
L 2766 531 
Q 2569 213 2275 61 
Q 1981 -91 1556 -91 
Q 1019 -91 701 211 
Q 384 513 384 1019 
Q 384 1609 779 1909 
Q 1175 2209 1959 2209 
L 2766 2209 
L 2766 2266 
Q 2766 2663 2505 2880 
Q 2244 3097 1772 3097 
Q 1472 3097 1187 3025 
Q 903 2953 641 2809 
L 641 3341 
Q 956 3463 1253 3523 
Q 1550 3584 1831 3584 
Q 2591 3584 2966 3190 
Q 3341 2797 3341 1997 
z
" transform="scale(0.015625)"/>
       <path id="DejaVuSans-73" d="M 2834 3397 
L 2834 2853 
Q 2591 2978 2328 3040 
Q 2066 3103 1784 3103 
Q 1356 3103 1142 2972 
Q 928 2841 928 2578 
Q 928 2378 1081 2264 
Q 1234 2150 1697 2047 
L 1894 2003 
Q 2506 1872 2764 1633 
Q 3022 1394 3022 966 
Q 3022 478 2636 193 
Q 2250 -91 1575 -91 
Q 1294 -91 989 -36 
Q 684 19 347 128 
L 347 722 
Q 666 556 975 473 
Q 1284 391 1588 391 
Q 1994 391 2212 530 
Q 2431 669 2431 922 
Q 2431 1156 2273 1281 
Q 2116 1406 1581 1522 
L 1381 1569 
Q 847 1681 609 1914 
Q 372 2147 372 2553 
Q 372 3047 722 3315 
Q 1072 3584 1716 3584 
Q 2034 3584 2315 3537 
Q 2597 3491 2834 3397 
z
" transform="scale(0.015625)"/>
       <path id="DejaVuSans-49" d="M 628 4666 
L 1259 4666 
L 1259 0 
L 628 0 
L 628 4666 
z
" transform="scale(0.015625)"/>
       <path id="DejaVuSans-6e" d="M 3513 2113 
L 3513 0 
L 2938 0 
L 2938 2094 
Q 2938 2591 2744 2837 
Q 2550 3084 2163 3084 
Q 1697 3084 1428 2787 
Q 1159 2491 1159 1978 
L 1159 0 
L 581 0 
L 581 3500 
L 1159 3500 
L 1159 2956 
Q 1366 3272 1645 3428 
Q 1925 3584 2291 3584 
Q 2894 3584 3203 3211 
Q 3513 2838 3513 2113 
z
" transform="scale(0.015625)"/>
       <path id="DejaVuSans-65" d="M 3597 1894 
L 3597 1613 
L 953 1613 
Q 991 1019 1311 708 
Q 1631 397 2203 397 
Q 2534 397 2845 478 
Q 3156 559 3463 722 
L 3463 178 
Q 3153 47 2828 -22 
Q 2503 -91 2169 -91 
Q 1331 -91 842 396 
Q 353 884 353 1716 
Q 353 2575 817 3079 
Q 1281 3584 2069 3584 
Q 2775 3584 3186 3129 
Q 3597 2675 3597 1894 
z
M 3022 2063 
Q 3016 2534 2758 2815 
Q 2500 3097 2075 3097 
Q 1594 3097 1305 2825 
Q 1016 2553 972 2059 
L 3022 2063 
z
" transform="scale(0.015625)"/>
       <path id="DejaVuSans-78" d="M 3513 3500 
L 2247 1797 
L 3578 0 
L 2900 0 
L 1881 1375 
L 863 0 
L 184 0 
L 1544 1831 
L 300 3500 
L 978 3500 
L 1906 2253 
L 2834 3500 
L 3513 3500 
z
" transform="scale(0.015625)"/>
       <path id="DejaVuSans-28" d="M 1984 4856 
Q 1566 4138 1362 3434 
Q 1159 2731 1159 2009 
Q 1159 1288 1364 580 
Q 1569 -128 1984 -844 
L 1484 -844 
Q 1016 -109 783 600 
Q 550 1309 550 2009 
Q 550 2706 781 3412 
Q 1013 4119 1484 4856 
L 1984 4856 
z
" transform="scale(0.015625)"/>
       <path id="DejaVuSans-6b" d="M 581 4863 
L 1159 4863 
L 1159 1991 
L 2875 3500 
L 3609 3500 
L 1753 1863 
L 3688 0 
L 2938 0 
L 1159 1709 
L 1159 0 
L 581 0 
L 581 4863 
z
" transform="scale(0.015625)"/>
       <path id="DejaVuSans-67" d="M 2906 1791 
Q 2906 2416 2648 2759 
Q 2391 3103 1925 3103 
Q 1463 3103 1205 2759 
Q 947 2416 947 1791 
Q 947 1169 1205 825 
Q 1463 481 1925 481 
Q 2391 481 2648 825 
Q 2906 1169 2906 1791 
z
M 3481 434 
Q 3481 -459 3084 -895 
Q 2688 -1331 1869 -1331 
Q 1566 -1331 1297 -1286 
Q 1028 -1241 775 -1147 
L 775 -588 
Q 1028 -725 1275 -790 
Q 1522 -856 1778 -856 
Q 2344 -856 2625 -561 
Q 2906 -266 2906 331 
L 2906 616 
Q 2728 306 2450 153 
Q 2172 0 1784 0 
Q 1141 0 747 490 
Q 353 981 353 1791 
Q 353 2603 747 3093 
Q 1141 3584 1784 3584 
Q 2172 3584 2450 3431 
Q 2728 3278 2906 2969 
L 2906 3500 
L 3481 3500 
L 3481 434 
z
" transform="scale(0.015625)"/>
       <path id="DejaVuSans-2f" d="M 1625 4666 
L 2156 4666 
L 531 -594 
L 0 -594 
L 1625 4666 
z
" transform="scale(0.015625)"/>
       <path id="DejaVuSans-6d" d="M 3328 2828 
Q 3544 3216 3844 3400 
Q 4144 3584 4550 3584 
Q 5097 3584 5394 3201 
Q 5691 2819 5691 2113 
L 5691 0 
L 5113 0 
L 5113 2094 
Q 5113 2597 4934 2840 
Q 4756 3084 4391 3084 
Q 3944 3084 3684 2787 
Q 3425 2491 3425 1978 
L 3425 0 
L 2847 0 
L 2847 2094 
Q 2847 2600 2669 2842 
Q 2491 3084 2119 3084 
Q 1678 3084 1418 2786 
Q 1159 2488 1159 1978 
L 1159 0 
L 581 0 
L 581 3500 
L 1159 3500 
L 1159 2956 
Q 1356 3278 1631 3431 
Q 1906 3584 2284 3584 
Q 2666 3584 2933 3390 
Q 3200 3197 3328 2828 
z
" transform="scale(0.015625)"/>
       <path id="DejaVuSans-29" d="M 513 4856 
L 1013 4856 
Q 1481 4119 1714 3412 
Q 1947 2706 1947 2009 
Q 1947 1309 1714 600 
Q 1481 -109 1013 -844 
L 513 -844 
Q 928 -128 1133 580 
Q 1338 1288 1338 2009 
Q 1338 2731 1133 3434 
Q 928 4138 513 4856 
z
" transform="scale(0.015625)"/>
      </defs>
      <use xlink:href="#DejaVuSans-42" transform="translate(0 0.765625)"/>
      <use xlink:href="#DejaVuSans-6f" transform="translate(68.603516 0.765625)"/>
      <use xlink:href="#DejaVuSans-64" transform="translate(129.785156 0.765625)"/>
      <use xlink:href="#DejaVuSans-79" transform="translate(193.261719 0.765625)"/>
      <use xlink:href="#DejaVuSans-20" transform="translate(252.441406 0.765625)"/>
      <use xlink:href="#DejaVuSans-4d" transform="translate(284.228516 0.765625)"/>
      <use xlink:href="#DejaVuSans-61" transform="translate(370.507812 0.765625)"/>
      <use xlink:href="#DejaVuSans-73" transform="translate(431.787109 0.765625)"/>
      <use xlink:href="#DejaVuSans-73" transform="translate(483.886719 0.765625)"/>
      <use xlink:href="#DejaVuSans-20" transform="translate(535.986328 0.765625)"/>
      <use xlink:href="#DejaVuSans-49" transform="translate(567.773438 0.765625)"/>
      <use xlink:href="#DejaVuSans-6e" transform="translate(597.265625 0.765625)"/>
      <use xlink:href="#DejaVuSans-64" transform="translate(660.644531 0.765625)"/>
      <use xlink:href="#DejaVuSans-65" transform="translate(724.121094 0.765625)"/>
      <use xlink:href="#DejaVuSans-78" transform="translate(785.644531 0.765625)"/>
      <use xlink:href="#DejaVuSans-20" transform="translate(844.824219 0.765625)"/>
      <use xlink:href="#DejaVuSans-28" transform="translate(876.611328 0.765625)"/>
      <use xlink:href="#DejaVuSans-6b" transform="translate(915.625 0.765625)"/>
      <use xlink:href="#DejaVuSans-67" transform="translate(973.535156 0.765625)"/>
      <use xlink:href="#DejaVuSans-2f" transform="translate(1037.011719 0.765625)"/>
      <use xlink:href="#DejaVuSans-6d" transform="translate(1070.703125 0.765625)"/>
      <use xlink:href="#DejaVuSans-32" transform="translate(1169.072266 39.046875) scale(0.7)"/>
      <use xlink:href="#DejaVuSans-29" transform="translate(1216.342773 0.765625)"/>
     </g>
    </g>
   </g>
   <g id="matplotlib.axis_2">
    <g id="ytick_1">
     <g id="line2d_15">
      <path d="M 63.870156 365.760704 
L 591.180156 365.760704 
" clip-path="url(#pd6e036e5d3)" style="fill: none; stroke: #dddddd; stroke-width: 0.7; stroke-linecap: square"/>
     </g>
     <g id="line2d_16">
      <defs>
       <path id="mbf6cf12ea5" d="M 0 0 
L -3.5 0 
" style="stroke: #333333; stroke-width: 0.8"/>
      </defs>
      <g>
       <use xlink:href="#mbf6cf12ea5" x="63.870156" y="365.760704" style="fill: #333333; stroke: #333333; stroke-width: 0.8"/>
      </g>
     </g>
     <g id="text_9">
      <!-- 0.0 -->
      <g style="fill: #333333" transform="translate(38.581563 370.129805) scale(0.115 -0.115)">
       <defs>
        <path id="DejaVuSans-2e" d="M 684 794 
L 1344 794 
L 1344 0 
L 684 0 
L 684 794 
z
" transform="scale(0.015625)"/>
       </defs>
       <use xlink:href="#DejaVuSans-30"/>
       <use xlink:href="#DejaVuSans-2e" transform="translate(63.623047 0)"/>
       <use xlink:href="#DejaVuSans-30" transform="translate(95.410156 0)"/>
      </g>
     </g>
    </g>
    <g id="ytick_2">
     <g id="line2d_17">
      <path d="M 63.870156 304.501863 
L 591.180156 304.501863 
" clip-path="url(#pd6e036e5d3)" style="fill: none; stroke: #dddddd; stroke-width: 0.7; stroke-linecap: square"/>
     </g>
     <g id="line2d_18">
      <g>
       <use xlink:href="#mbf6cf12ea5" x="63.870156" y="304.501863" style="fill: #333333; stroke: #333333; stroke-width: 0.8"/>
      </g>
     </g>
     <g id="text_10">
      <!-- 0.2 -->
      <g style="fill: #333333" transform="translate(38.581563 308.870964) scale(0.115 -0.115)">
       <use xlink:href="#DejaVuSans-30"/>
       <use xlink:href="#DejaVuSans-2e" transform="translate(63.623047 0)"/>
       <use xlink:href="#DejaVuSans-32" transform="translate(95.410156 0)"/>
      </g>
     </g>
    </g>
    <g id="ytick_3">
     <g id="line2d_19">
      <path d="M 63.870156 243.243022 
L 591.180156 243.243022 
" clip-path="url(#pd6e036e5d3)" style="fill: none; stroke: #dddddd; stroke-width: 0.7; stroke-linecap: square"/>
     </g>
     <g id="line2d_20">
      <g>
       <use xlink:href="#mbf6cf12ea5" x="63.870156" y="243.243022" style="fill: #333333; stroke: #333333; stroke-width: 0.8"/>
      </g>
     </g>
     <g id="text_11">
      <!-- 0.4 -->
      <g style="fill: #333333" transform="translate(38.581563 247.612124) scale(0.115 -0.115)">
       <use xlink:href="#DejaVuSans-30"/>
       <use xlink:href="#DejaVuSans-2e" transform="translate(63.623047 0)"/>
       <use xlink:href="#DejaVuSans-34" transform="translate(95.410156 0)"/>
      </g>
     </g>
    </g>
    <g id="ytick_4">
     <g id="line2d_21">
      <path d="M 63.870156 181.984181 
L 591.180156 181.984181 
" clip-path="url(#pd6e036e5d3)" style="fill: none; stroke: #dddddd; stroke-width: 0.7; stroke-linecap: square"/>
     </g>
     <g id="line2d_22">
      <g>
       <use xlink:href="#mbf6cf12ea5" x="63.870156" y="181.984181" style="fill: #333333; stroke: #333333; stroke-width: 0.8"/>
      </g>
     </g>
     <g id="text_12">
      <!-- 0.6 -->
      <g style="fill: #333333" transform="translate(38.581563 186.353283) scale(0.115 -0.115)">
       <use xlink:href="#DejaVuSans-30"/>
       <use xlink:href="#DejaVuSans-2e" transform="translate(63.623047 0)"/>
       <use xlink:href="#DejaVuSans-36" transform="translate(95.410156 0)"/>
      </g>
     </g>
    </g>
    <g id="ytick_5">
     <g id="line2d_23">
      <path d="M 63.870156 120.725341 
L 591.180156 120.725341 
" clip-path="url(#pd6e036e5d3)" style="fill: none; stroke: #dddddd; stroke-width: 0.7; stroke-linecap: square"/>
     </g>
     <g id="line2d_24">
      <g>
       <use xlink:href="#mbf6cf12ea5" x="63.870156" y="120.725341" style="fill: #333333; stroke: #333333; stroke-width: 0.8"/>
      </g>
     </g>
     <g id="text_13">
      <!-- 0.8 -->
      <g style="fill: #333333" transform="translate(38.581563 125.094442) scale(0.115 -0.115)">
       <use xlink:href="#DejaVuSans-30"/>
       <use xlink:href="#DejaVuSans-2e" transform="translate(63.623047 0)"/>
       <use xlink:href="#DejaVuSans-38" transform="translate(95.410156 0)"/>
      </g>
     </g>
    </g>
    <g id="ytick_6">
     <g id="line2d_25">
      <path d="M 63.870156 59.4665 
L 591.180156 59.4665 
" clip-path="url(#pd6e036e5d3)" style="fill: none; stroke: #dddddd; stroke-width: 0.7; stroke-linecap: square"/>
     </g>
     <g id="line2d_26">
      <g>
       <use xlink:href="#mbf6cf12ea5" x="63.870156" y="59.4665" style="fill: #333333; stroke: #333333; stroke-width: 0.8"/>
      </g>
     </g>
     <g id="text_14">
      <!-- 1.0 -->
      <g style="fill: #333333" transform="translate(38.581563 63.835602) scale(0.115 -0.115)">
       <defs>
        <path id="DejaVuSans-31" d="M 794 531 
L 1825 531 
L 1825 4091 
L 703 3866 
L 703 4441 
L 1819 4666 
L 2450 4666 
L 2450 531 
L 3481 531 
L 3481 0 
L 794 0 
L 794 531 
z
" transform="scale(0.015625)"/>
       </defs>
       <use xlink:href="#DejaVuSans-31"/>
       <use xlink:href="#DejaVuSans-2e" transform="translate(63.623047 0)"/>
       <use xlink:href="#DejaVuSans-30" transform="translate(95.410156 0)"/>
      </g>
     </g>
    </g>
    <g id="text_15">
     <!-- Cumulative proportion -->
     <g transform="translate(27.877969 285.576891) rotate(-90) scale(0.13 -0.13)">
      <defs>
       <path id="DejaVuSans-43" d="M 4122 4306 
L 4122 3641 
Q 3803 3938 3442 4084 
Q 3081 4231 2675 4231 
Q 1875 4231 1450 3742 
Q 1025 3253 1025 2328 
Q 1025 1406 1450 917 
Q 1875 428 2675 428 
Q 3081 428 3442 575 
Q 3803 722 4122 1019 
L 4122 359 
Q 3791 134 3420 21 
Q 3050 -91 2638 -91 
Q 1578 -91 968 557 
Q 359 1206 359 2328 
Q 359 3453 968 4101 
Q 1578 4750 2638 4750 
Q 3056 4750 3426 4639 
Q 3797 4528 4122 4306 
z
" transform="scale(0.015625)"/>
       <path id="DejaVuSans-75" d="M 544 1381 
L 544 3500 
L 1119 3500 
L 1119 1403 
Q 1119 906 1312 657 
Q 1506 409 1894 409 
Q 2359 409 2629 706 
Q 2900 1003 2900 1516 
L 2900 3500 
L 3475 3500 
L 3475 0 
L 2900 0 
L 2900 538 
Q 2691 219 2414 64 
Q 2138 -91 1772 -91 
Q 1169 -91 856 284 
Q 544 659 544 1381 
z
M 1991 3584 
L 1991 3584 
z
" transform="scale(0.015625)"/>
       <path id="DejaVuSans-6c" d="M 603 4863 
L 1178 4863 
L 1178 0 
L 603 0 
L 603 4863 
z
" transform="scale(0.015625)"/>
       <path id="DejaVuSans-74" d="M 1172 4494 
L 1172 3500 
L 2356 3500 
L 2356 3053 
L 1172 3053 
L 1172 1153 
Q 1172 725 1289 603 
Q 1406 481 1766 481 
L 2356 481 
L 2356 0 
L 1766 0 
Q 1100 0 847 248 
Q 594 497 594 1153 
L 594 3053 
L 172 3053 
L 172 3500 
L 594 3500 
L 594 4494 
L 1172 4494 
z
" transform="scale(0.015625)"/>
       <path id="DejaVuSans-69" d="M 603 3500 
L 1178 3500 
L 1178 0 
L 603 0 
L 603 3500 
z
M 603 4863 
L 1178 4863 
L 1178 4134 
L 603 4134 
L 603 4863 
z
" transform="scale(0.015625)"/>
       <path id="DejaVuSans-76" d="M 191 3500 
L 800 3500 
L 1894 563 
L 2988 3500 
L 3597 3500 
L 2284 0 
L 1503 0 
L 191 3500 
z
" transform="scale(0.015625)"/>
       <path id="DejaVuSans-70" d="M 1159 525 
L 1159 -1331 
L 581 -1331 
L 581 3500 
L 1159 3500 
L 1159 2969 
Q 1341 3281 1617 3432 
Q 1894 3584 2278 3584 
Q 2916 3584 3314 3078 
Q 3713 2572 3713 1747 
Q 3713 922 3314 415 
Q 2916 -91 2278 -91 
Q 1894 -91 1617 61 
Q 1341 213 1159 525 
z
M 3116 1747 
Q 3116 2381 2855 2742 
Q 2594 3103 2138 3103 
Q 1681 3103 1420 2742 
Q 1159 2381 1159 1747 
Q 1159 1113 1420 752 
Q 1681 391 2138 391 
Q 2594 391 2855 752 
Q 3116 1113 3116 1747 
z
" transform="scale(0.015625)"/>
       <path id="DejaVuSans-72" d="M 2631 2963 
Q 2534 3019 2420 3045 
Q 2306 3072 2169 3072 
Q 1681 3072 1420 2755 
Q 1159 2438 1159 1844 
L 1159 0 
L 581 0 
L 581 3500 
L 1159 3500 
L 1159 2956 
Q 1341 3275 1631 3429 
Q 1922 3584 2338 3584 
Q 2397 3584 2469 3576 
Q 2541 3569 2628 3553 
L 2631 2963 
z
" transform="scale(0.015625)"/>
      </defs>
      <use xlink:href="#DejaVuSans-43"/>
      <use xlink:href="#DejaVuSans-75" transform="translate(69.824219 0)"/>
      <use xlink:href="#DejaVuSans-6d" transform="translate(133.203125 0)"/>
      <use xlink:href="#DejaVuSans-75" transform="translate(230.615234 0)"/>
      <use xlink:href="#DejaVuSans-6c" transform="translate(293.994141 0)"/>
      <use xlink:href="#DejaVuSans-61" transform="translate(321.777344 0)"/>
      <use xlink:href="#DejaVuSans-74" transform="translate(383.056641 0)"/>
      <use xlink:href="#DejaVuSans-69" transform="translate(422.265625 0)"/>
      <use xlink:href="#DejaVuSans-76" transform="translate(450.048828 0)"/>
      <use xlink:href="#DejaVuSans-65" transform="translate(509.228516 0)"/>
      <use xlink:href="#DejaVuSans-20" transform="translate(570.751953 0)"/>
      <use xlink:href="#DejaVuSans-70" transform="translate(602.539062 0)"/>
      <use xlink:href="#DejaVuSans-72" transform="translate(666.015625 0)"/>
      <use xlink:href="#DejaVuSans-6f" transform="translate(704.878906 0)"/>
      <use xlink:href="#DejaVuSans-70" transform="translate(766.060547 0)"/>
      <use xlink:href="#DejaVuSans-6f" transform="translate(829.537109 0)"/>
      <use xlink:href="#DejaVuSans-72" transform="translate(890.71875 0)"/>
      <use xlink:href="#DejaVuSans-74" transform="translate(931.832031 0)"/>
      <use xlink:href="#DejaVuSans-69" transform="translate(971.041016 0)"/>
      <use xlink:href="#DejaVuSans-6f" transform="translate(998.824219 0)"/>
      <use xlink:href="#DejaVuSans-6e" transform="translate(1060.005859 0)"/>
     </g>
    </g>
   </g>
   <g id="line2d_27">
    <path d="M 92.499361 365.637842 
L 93.830952 365.637842 
L 93.830952 365.51498 
L 96.494134 365.51498 
L 96.494134 365.392119 
L 97.825724 365.392119 
L 97.825724 365.023533 
L 101.820497 365.023533 
L 101.820497 364.900672 
L 102.486293 364.900672 
L 102.486293 364.654948 
L 104.483679 364.654948 
L 104.483679 364.409225 
L 105.149474 364.409225 
L 105.149474 364.286363 
L 106.481065 364.286363 
L 106.481065 364.163502 
L 107.146861 364.163502 
L 107.146861 363.794917 
L 107.812656 363.794917 
L 107.812656 363.549193 
L 108.478452 363.549193 
L 108.478452 363.426331 
L 109.144247 363.426331 
L 109.144247 363.30347 
L 109.810043 363.30347 
L 109.810043 363.057746 
L 111.141634 363.057746 
L 111.141634 362.689161 
L 112.473224 362.689161 
L 112.473224 362.5663 
L 113.804815 362.5663 
L 113.804815 362.320576 
L 114.470611 362.320576 
L 114.470611 362.074853 
L 115.136406 362.074853 
L 115.136406 361.829129 
L 115.802202 361.829129 
L 115.802202 361.214821 
L 116.467997 361.214821 
L 116.467997 361.091959 
L 117.133793 361.091959 
L 117.133793 360.846236 
L 117.799588 360.846236 
L 117.799588 360.600512 
L 118.465384 360.600512 
L 118.465384 360.231927 
L 119.131179 360.231927 
L 119.131179 359.617619 
L 119.796974 359.617619 
L 119.796974 359.00331 
L 120.46277 359.00331 
L 120.46277 358.26614 
L 121.128565 358.26614 
L 121.128565 357.897555 
L 121.794361 357.897555 
L 121.794361 357.283247 
L 122.460156 357.283247 
L 122.460156 356.914662 
L 123.125952 356.914662 
L 123.125952 356.546077 
L 123.791747 356.546077 
L 123.791747 355.808906 
L 124.457543 355.808906 
L 124.457543 355.071736 
L 125.789134 355.071736 
L 125.789134 354.457428 
L 126.454929 354.457428 
L 126.454929 353.843119 
L 127.120724 353.843119 
L 127.120724 353.474534 
L 127.78652 353.474534 
L 127.78652 352.860226 
L 128.452315 352.860226 
L 128.452315 352.245917 
L 129.118111 352.245917 
L 129.118111 350.648715 
L 129.783906 350.648715 
L 129.783906 350.402992 
L 130.449702 350.402992 
L 130.449702 349.788683 
L 131.115497 349.788683 
L 131.115497 349.420098 
L 131.781293 349.420098 
L 131.781293 348.682928 
L 132.447088 348.682928 
L 132.447088 347.945758 
L 133.112884 347.945758 
L 133.112884 347.700035 
L 133.778679 347.700035 
L 133.778679 346.717141 
L 134.444474 346.717141 
L 134.444474 345.611386 
L 135.11027 345.611386 
L 135.11027 344.628492 
L 135.776065 344.628492 
L 135.776065 344.259907 
L 136.441861 344.259907 
L 136.441861 343.03129 
L 137.107656 343.03129 
L 137.107656 341.802673 
L 137.773452 341.802673 
L 137.773452 339.836886 
L 138.439247 339.836886 
L 138.439247 338.362546 
L 139.105043 338.362546 
L 139.105043 337.502514 
L 139.770838 337.502514 
L 139.770838 336.273897 
L 140.436634 336.273897 
L 140.436634 335.536727 
L 141.102429 335.536727 
L 141.102429 334.30811 
L 141.768224 334.30811 
L 141.768224 333.325216 
L 142.43402 333.325216 
L 142.43402 331.482291 
L 143.099815 331.482291 
L 143.099815 329.762227 
L 143.765611 329.762227 
L 143.765611 328.656472 
L 144.431406 328.656472 
L 144.431406 327.182132 
L 145.097202 327.182132 
L 145.097202 325.58493 
L 145.762997 325.58493 
L 145.762997 324.847759 
L 146.428793 324.847759 
L 146.428793 323.864866 
L 147.094588 323.864866 
L 147.094588 322.759111 
L 147.760384 322.759111 
L 147.760384 321.039047 
L 148.426179 321.039047 
L 148.426179 319.933292 
L 149.091974 319.933292 
L 149.091974 318.458951 
L 149.75777 318.458951 
L 149.75777 316.861749 
L 150.423565 316.861749 
L 150.423565 315.510271 
L 151.089361 315.510271 
L 151.089361 314.158792 
L 151.755156 314.158792 
L 151.755156 312.070143 
L 152.420952 312.070143 
L 152.420952 309.735771 
L 153.086747 309.735771 
L 153.086747 307.524261 
L 153.752543 307.524261 
L 153.752543 305.804197 
L 154.418338 305.804197 
L 154.418338 303.469825 
L 155.084134 303.469825 
L 155.084134 301.258314 
L 155.749929 301.258314 
L 155.749929 300.029697 
L 156.415724 300.029697 
L 156.415724 298.678219 
L 157.08152 298.678219 
L 157.08152 296.343846 
L 157.747315 296.343846 
L 157.747315 294.378059 
L 158.413111 294.378059 
L 158.413111 292.657996 
L 159.078906 292.657996 
L 159.078906 290.692208 
L 159.744702 290.692208 
L 159.744702 288.849283 
L 160.410497 288.849283 
L 160.410497 286.760634 
L 161.076293 286.760634 
L 161.076293 283.934815 
L 161.742088 283.934815 
L 161.742088 281.846167 
L 162.407884 281.846167 
L 162.407884 280.003241 
L 163.073679 280.003241 
L 163.073679 277.546007 
L 163.739474 277.546007 
L 163.739474 275.457358 
L 164.40527 275.457358 
L 164.40527 273.36871 
L 165.071065 273.36871 
L 165.071065 270.542891 
L 165.736861 270.542891 
L 165.736861 268.822827 
L 166.402656 268.822827 
L 166.402656 266.85704 
L 167.068452 266.85704 
L 167.068452 264.399806 
L 167.734247 264.399806 
L 167.734247 261.942572 
L 168.400043 261.942572 
L 168.400043 259.853923 
L 169.065838 259.853923 
L 169.065838 257.396689 
L 169.731634 257.396689 
L 169.731634 255.308041 
L 170.397429 255.308041 
L 170.397429 252.35936 
L 171.063224 252.35936 
L 171.063224 249.902126 
L 171.72902 249.902126 
L 171.72902 247.936339 
L 172.394815 247.936339 
L 172.394815 246.093413 
L 173.060611 246.093413 
L 173.060611 244.37335 
L 173.726406 244.37335 
L 173.726406 242.407563 
L 174.392202 242.407563 
L 174.392202 239.581744 
L 175.057997 239.581744 
L 175.057997 237.738818 
L 175.723793 237.738818 
L 175.723793 234.790138 
L 176.389588 234.790138 
L 176.389588 232.824351 
L 177.055384 232.824351 
L 177.055384 231.227148 
L 177.721179 231.227148 
L 177.721179 229.1385 
L 178.386974 229.1385 
L 178.386974 226.435542 
L 179.05277 226.435542 
L 179.05277 223.486862 
L 179.718565 223.486862 
L 179.718565 221.029628 
L 180.384361 221.029628 
L 180.384361 219.186702 
L 181.050156 219.186702 
L 181.050156 216.483745 
L 181.715952 216.483745 
L 181.715952 213.780788 
L 182.381747 213.780788 
L 182.381747 211.815001 
L 183.047543 211.815001 
L 183.047543 209.357767 
L 183.713338 209.357767 
L 183.713338 207.760565 
L 184.379134 207.760565 
L 184.379134 206.163363 
L 185.044929 206.163363 
L 185.044929 203.951852 
L 185.710724 203.951852 
L 185.710724 201.371757 
L 186.37652 201.371757 
L 186.37652 198.914523 
L 187.042315 198.914523 
L 187.042315 195.720119 
L 187.708111 195.720119 
L 187.708111 194.000055 
L 188.373906 194.000055 
L 188.373906 192.771438 
L 189.039702 192.771438 
L 189.039702 190.559928 
L 189.705497 190.559928 
L 189.705497 188.962726 
L 190.371293 188.962726 
L 190.371293 187.1198 
L 191.037088 187.1198 
L 191.037088 185.276875 
L 191.702884 185.276875 
L 191.702884 183.433949 
L 192.368679 183.433949 
L 192.368679 180.853854 
L 193.034474 180.853854 
L 193.034474 178.888067 
L 193.70027 178.888067 
L 193.70027 177.168003 
L 194.366065 177.168003 
L 194.366065 175.447939 
L 195.031861 175.447939 
L 195.031861 174.710769 
L 195.697656 174.710769 
L 195.697656 172.499259 
L 196.363452 172.499259 
L 196.363452 171.14778 
L 197.029247 171.14778 
L 197.029247 169.304855 
L 197.695043 169.304855 
L 197.695043 167.584791 
L 198.360838 167.584791 
L 198.360838 165.987589 
L 199.026634 165.987589 
L 199.026634 163.407493 
L 199.692429 163.407493 
L 199.692429 161.441706 
L 200.358224 161.441706 
L 200.358224 159.598781 
L 201.02402 159.598781 
L 201.02402 157.264409 
L 201.689815 157.264409 
L 201.689815 155.667207 
L 202.355611 155.667207 
L 202.355611 154.315728 
L 203.021406 154.315728 
L 203.021406 153.332834 
L 203.687202 153.332834 
L 203.687202 151.489909 
L 204.352997 151.489909 
L 204.352997 149.40126 
L 205.018793 149.40126 
L 205.018793 148.172643 
L 205.684588 148.172643 
L 205.684588 146.329718 
L 206.350384 146.329718 
L 206.350384 144.978239 
L 207.016179 144.978239 
L 207.016179 143.258175 
L 207.681974 143.258175 
L 207.681974 142.029559 
L 208.34777 142.029559 
L 208.34777 140.555218 
L 209.013565 140.555218 
L 209.013565 139.326601 
L 209.679361 139.326601 
L 209.679361 138.220846 
L 210.345156 138.220846 
L 210.345156 136.869367 
L 211.010952 136.869367 
L 211.010952 135.886474 
L 211.676747 135.886474 
L 211.676747 134.657857 
L 212.342543 134.657857 
L 212.342543 132.937793 
L 213.008338 132.937793 
L 213.008338 131.832038 
L 213.674134 131.832038 
L 213.674134 130.603421 
L 214.339929 130.603421 
L 214.339929 129.497666 
L 215.005724 129.497666 
L 215.005724 129.006219 
L 215.67152 129.006219 
L 215.67152 127.531879 
L 216.337315 127.531879 
L 216.337315 125.44323 
L 217.003111 125.44323 
L 217.003111 124.951783 
L 217.668906 124.951783 
L 217.668906 123.600304 
L 218.334702 123.600304 
L 218.334702 122.740273 
L 219.000497 122.740273 
L 219.000497 121.880241 
L 219.666293 121.880241 
L 219.666293 120.160177 
L 220.332088 120.160177 
L 220.332088 118.808698 
L 220.997884 118.808698 
L 220.997884 118.071528 
L 221.663679 118.071528 
L 221.663679 116.597188 
L 222.329474 116.597188 
L 222.329474 115.122847 
L 222.99527 115.122847 
L 222.99527 114.385677 
L 223.661065 114.385677 
L 223.661065 113.771369 
L 224.326861 113.771369 
L 224.326861 112.665614 
L 224.992656 112.665614 
L 224.992656 111.805582 
L 225.658452 111.805582 
L 225.658452 110.20838 
L 226.324247 110.20838 
L 226.324247 109.348348 
L 226.990043 109.348348 
L 226.990043 108.611178 
L 227.655838 108.611178 
L 227.655838 107.628284 
L 228.321634 107.628284 
L 228.321634 106.522529 
L 228.987429 106.522529 
L 228.987429 105.785359 
L 229.653224 105.785359 
L 229.653224 104.556742 
L 230.31902 104.556742 
L 230.31902 103.69671 
L 230.984815 103.69671 
L 230.984815 103.082401 
L 231.650611 103.082401 
L 231.650611 101.485199 
L 232.316406 101.485199 
L 232.316406 100.870891 
L 232.982202 100.870891 
L 232.982202 100.133721 
L 233.647997 100.133721 
L 233.647997 99.150827 
L 234.313793 99.150827 
L 234.313793 98.65938 
L 234.979588 98.65938 
L 234.979588 98.413657 
L 235.645384 98.413657 
L 235.645384 97.430764 
L 236.311179 97.430764 
L 236.311179 96.570732 
L 236.976974 96.570732 
L 236.976974 96.079285 
L 237.64277 96.079285 
L 237.64277 95.587838 
L 238.308565 95.587838 
L 238.308565 94.604945 
L 238.974361 94.604945 
L 238.974361 93.376328 
L 239.640156 93.376328 
L 239.640156 92.762019 
L 240.305952 92.762019 
L 240.305952 92.024849 
L 240.971747 92.024849 
L 240.971747 91.164817 
L 241.637543 91.164817 
L 241.637543 90.796232 
L 242.303338 90.796232 
L 242.303338 90.304785 
L 242.969134 90.304785 
L 242.969134 90.059062 
L 243.634929 90.059062 
L 243.634929 89.19903 
L 244.300724 89.19903 
L 244.300724 88.953307 
L 244.96652 88.953307 
L 244.96652 88.584722 
L 245.632315 88.584722 
L 245.632315 87.601828 
L 246.298111 87.601828 
L 246.298111 87.478966 
L 246.963906 87.478966 
L 246.963906 87.110381 
L 247.629702 87.110381 
L 247.629702 86.618934 
L 248.295497 86.618934 
L 248.295497 86.127488 
L 248.961293 86.127488 
L 248.961293 85.636041 
L 249.627088 85.636041 
L 249.627088 85.267456 
L 250.292884 85.267456 
L 250.292884 85.144594 
L 250.958679 85.144594 
L 250.958679 84.530286 
L 251.624474 84.530286 
L 251.624474 83.793115 
L 252.29027 83.793115 
L 252.29027 83.547392 
L 252.956065 83.547392 
L 252.956065 82.933084 
L 253.621861 82.933084 
L 253.621861 82.810222 
L 254.287656 82.810222 
L 254.287656 82.318775 
L 254.953452 82.318775 
L 254.953452 81.95019 
L 255.619247 81.95019 
L 255.619247 81.21302 
L 256.285043 81.21302 
L 256.285043 80.967296 
L 256.950838 80.967296 
L 256.950838 80.598711 
L 257.616634 80.598711 
L 257.616634 80.47585 
L 258.282429 80.47585 
L 258.282429 79.984403 
L 258.948224 79.984403 
L 258.948224 79.861541 
L 259.61402 79.861541 
L 259.61402 79.370094 
L 260.279815 79.370094 
L 260.279815 79.001509 
L 260.945611 79.001509 
L 260.945611 78.141478 
L 261.611406 78.141478 
L 261.611406 77.895754 
L 262.942997 77.895754 
L 262.942997 77.772892 
L 263.608793 77.772892 
L 263.608793 77.527169 
L 264.274588 77.527169 
L 264.274588 77.281446 
L 264.940384 77.281446 
L 264.940384 76.667137 
L 265.606179 76.667137 
L 265.606179 76.17569 
L 266.271974 76.17569 
L 266.271974 75.561382 
L 266.93777 75.561382 
L 266.93777 75.192797 
L 267.603565 75.192797 
L 267.603565 74.824212 
L 268.269361 74.824212 
L 268.269361 74.455627 
L 268.935156 74.455627 
L 268.935156 74.332765 
L 269.600952 74.332765 
L 269.600952 74.087042 
L 270.932543 74.087042 
L 270.932543 73.595595 
L 271.598338 73.595595 
L 271.598338 73.349871 
L 272.264134 73.349871 
L 272.264134 72.981286 
L 272.929929 72.981286 
L 272.929929 72.735563 
L 273.595724 72.735563 
L 273.595724 72.121255 
L 274.26152 72.121255 
L 274.26152 71.875531 
L 274.927315 71.875531 
L 274.927315 71.506946 
L 275.593111 71.506946 
L 275.593111 70.892638 
L 276.258906 70.892638 
L 276.258906 70.646914 
L 276.924702 70.646914 
L 276.924702 70.401191 
L 277.590497 70.401191 
L 277.590497 70.278329 
L 278.256293 70.278329 
L 278.256293 69.786882 
L 278.922088 69.786882 
L 278.922088 69.418297 
L 279.587884 69.418297 
L 279.587884 69.295436 
L 280.919474 69.295436 
L 280.919474 69.172574 
L 281.58527 69.172574 
L 281.58527 68.803989 
L 282.916861 68.803989 
L 282.916861 68.681127 
L 283.582656 68.681127 
L 283.582656 68.435404 
L 284.248452 68.435404 
L 284.248452 68.066819 
L 286.245838 68.066819 
L 286.245838 67.943957 
L 286.911634 67.943957 
L 286.911634 67.821095 
L 287.577429 67.821095 
L 287.577429 67.575372 
L 288.243224 67.575372 
L 288.243224 67.45251 
L 288.90902 67.45251 
L 288.90902 67.329648 
L 289.574815 67.329648 
L 289.574815 66.961063 
L 290.240611 66.961063 
L 290.240611 66.71534 
L 290.906406 66.71534 
L 290.906406 66.592478 
L 291.572202 66.592478 
L 291.572202 66.346755 
L 292.237997 66.346755 
L 292.237997 66.101031 
L 292.903793 66.101031 
L 292.903793 65.732446 
L 293.569588 65.732446 
L 293.569588 65.609585 
L 294.235384 65.609585 
L 294.235384 65.486723 
L 294.901179 65.486723 
L 294.901179 65.241 
L 295.566974 65.241 
L 295.566974 64.995276 
L 297.564361 64.995276 
L 297.564361 64.872415 
L 300.227543 64.872415 
L 300.227543 64.626691 
L 300.893338 64.626691 
L 300.893338 64.503829 
L 302.890724 64.503829 
L 302.890724 64.380968 
L 306.219702 64.380968 
L 306.219702 64.135244 
L 309.548679 64.135244 
L 309.548679 64.012383 
L 310.214474 64.012383 
L 310.214474 63.889521 
L 310.88027 63.889521 
L 310.88027 63.643798 
L 312.211861 63.643798 
L 312.211861 63.398074 
L 313.543452 63.398074 
L 313.543452 63.275213 
L 314.875043 63.275213 
L 314.875043 63.152351 
L 315.540838 63.152351 
L 315.540838 63.029489 
L 316.206634 63.029489 
L 316.206634 62.906627 
L 318.20402 62.906627 
L 318.20402 62.783766 
L 322.198793 62.783766 
L 322.198793 62.660904 
L 324.196179 62.660904 
L 324.196179 62.538042 
L 326.193565 62.538042 
L 326.193565 62.415181 
L 330.854134 62.415181 
L 330.854134 62.292319 
L 332.85152 62.292319 
L 332.85152 62.169457 
L 336.180497 62.169457 
L 336.180497 62.046596 
L 338.843679 62.046596 
L 338.843679 61.923734 
L 344.835838 61.923734 
L 344.835838 61.800872 
L 349.496406 61.800872 
L 349.496406 61.67801 
L 350.827997 61.67801 
L 350.827997 61.432287 
L 351.493793 61.432287 
L 351.493793 61.309425 
L 355.488565 61.309425 
L 355.488565 61.186564 
L 356.820156 61.186564 
L 356.820156 60.94084 
L 361.480724 60.94084 
L 361.480724 60.817979 
L 366.141293 60.817979 
L 366.141293 60.695117 
L 366.807088 60.695117 
L 366.807088 60.572255 
L 368.138679 60.572255 
L 368.138679 60.449394 
L 369.47027 60.449394 
L 369.47027 60.326532 
L 377.459815 60.326532 
L 377.459815 60.20367 
L 379.457202 60.20367 
L 379.457202 60.080808 
L 396.767884 60.080808 
L 396.767884 59.957947 
L 405.423224 59.957947 
L 405.423224 59.835085 
L 406.08902 59.835085 
L 406.08902 59.712223 
L 447.368338 59.712223 
L 447.368338 59.589362 
L 567.21152 59.589362 
L 567.21152 59.4665 
L 567.21152 59.4665 
" clip-path="url(#pd6e036e5d3)" style="fill: none; stroke: #264653; stroke-width: 2; stroke-linecap: square"/>
   </g>
   <g id="line2d_28">
    <path d="M 87.838793 365.6465 
L 91.833565 365.6465 
L 91.833565 365.532296 
L 96.494134 365.532296 
L 96.494134 365.418093 
L 97.825724 365.418093 
L 97.825724 365.303889 
L 100.488906 365.303889 
L 100.488906 365.189685 
L 101.154702 365.189685 
L 101.154702 365.075482 
L 103.152088 365.075482 
L 103.152088 364.732871 
L 104.483679 364.732871 
L 104.483679 364.504463 
L 105.149474 364.504463 
L 105.149474 364.39026 
L 106.481065 364.39026 
L 106.481065 364.276056 
L 107.146861 364.276056 
L 107.146861 364.161852 
L 107.812656 364.161852 
L 107.812656 363.933445 
L 108.478452 363.933445 
L 108.478452 363.819242 
L 109.810043 363.819242 
L 109.810043 363.362427 
L 111.141634 363.362427 
L 111.141634 363.019816 
L 112.473224 363.019816 
L 112.473224 362.563001 
L 113.13902 362.563001 
L 113.13902 362.106187 
L 113.804815 362.106187 
L 113.804815 361.991983 
L 114.470611 361.991983 
L 114.470611 361.420965 
L 115.136406 361.420965 
L 115.136406 361.192557 
L 115.802202 361.192557 
L 115.802202 360.621539 
L 116.467997 360.621539 
L 116.467997 360.278928 
L 117.133793 360.278928 
L 117.133793 359.822114 
L 117.799588 359.822114 
L 117.799588 359.136892 
L 118.465384 359.136892 
L 118.465384 358.45167 
L 119.131179 358.45167 
L 119.131179 357.994855 
L 119.796974 357.994855 
L 119.796974 356.624411 
L 120.46277 356.624411 
L 120.46277 355.939189 
L 121.128565 355.939189 
L 121.128565 355.368171 
L 121.794361 355.368171 
L 121.794361 354.682949 
L 122.460156 354.682949 
L 122.460156 354.111931 
L 123.125952 354.111931 
L 123.125952 353.540913 
L 123.791747 353.540913 
L 123.791747 352.741487 
L 124.457543 352.741487 
L 124.457543 351.59945 
L 125.123338 351.59945 
L 125.123338 350.229007 
L 125.789134 350.229007 
L 125.789134 349.315377 
L 126.454929 349.315377 
L 126.454929 348.173341 
L 127.120724 348.173341 
L 127.120724 347.488119 
L 127.78652 347.488119 
L 127.78652 346.57449 
L 128.452315 346.57449 
L 128.452315 345.889268 
L 129.118111 345.889268 
L 129.118111 344.747231 
L 129.783906 344.747231 
L 129.783906 344.176213 
L 130.449702 344.176213 
L 130.449702 342.691565 
L 131.115497 342.691565 
L 131.115497 340.864307 
L 131.781293 340.864307 
L 131.781293 339.950678 
L 132.447088 339.950678 
L 132.447088 338.922845 
L 133.112884 338.922845 
L 133.112884 337.780808 
L 133.778679 337.780808 
L 133.778679 336.981383 
L 134.444474 336.981383 
L 134.444474 336.181957 
L 135.11027 336.181957 
L 135.11027 335.268328 
L 135.776065 335.268328 
L 135.776065 333.897884 
L 136.441861 333.897884 
L 136.441861 332.641644 
L 137.107656 332.641644 
L 137.107656 331.842218 
L 137.773452 331.842218 
L 137.773452 330.585978 
L 138.439247 330.585978 
L 138.439247 329.443941 
L 139.105043 329.443941 
L 139.105043 327.616683 
L 139.770838 327.616683 
L 139.770838 326.931461 
L 140.436634 326.931461 
L 140.436634 325.33261 
L 141.102429 325.33261 
L 141.102429 323.847962 
L 141.768224 323.847962 
L 141.768224 322.020704 
L 142.43402 322.020704 
L 142.43402 320.536056 
L 143.099815 320.536056 
L 143.099815 319.736631 
L 143.765611 319.736631 
L 143.765611 318.137779 
L 144.431406 318.137779 
L 144.431406 316.538928 
L 145.097202 316.538928 
L 145.097202 315.054281 
L 145.762997 315.054281 
L 145.762997 314.140651 
L 146.428793 314.140651 
L 146.428793 312.884411 
L 147.094588 312.884411 
L 147.094588 311.628171 
L 147.760384 311.628171 
L 147.760384 310.486134 
L 148.426179 310.486134 
L 148.426179 308.887283 
L 149.091974 308.887283 
L 149.091974 307.402636 
L 149.75777 307.402636 
L 149.75777 306.260599 
L 150.423565 306.260599 
L 150.423565 303.976526 
L 151.089361 303.976526 
L 151.089361 302.491879 
L 151.755156 302.491879 
L 151.755156 301.007231 
L 152.420952 301.007231 
L 152.420952 299.294176 
L 153.086747 299.294176 
L 153.086747 297.581121 
L 153.752543 297.581121 
L 153.752543 296.210678 
L 154.418338 296.210678 
L 154.418338 294.497623 
L 155.084134 294.497623 
L 155.084134 291.985142 
L 155.749929 291.985142 
L 155.749929 291.185717 
L 156.415724 291.185717 
L 156.415724 289.015847 
L 157.08152 289.015847 
L 157.08152 287.645403 
L 157.747315 287.645403 
L 157.747315 286.160756 
L 158.413111 286.160756 
L 158.413111 284.10509 
L 159.078906 284.10509 
L 159.078906 282.84885 
L 159.744702 282.84885 
L 159.744702 281.135795 
L 160.410497 281.135795 
L 160.410497 279.194333 
L 161.076293 279.194333 
L 161.076293 277.481278 
L 161.742088 277.481278 
L 161.742088 275.768223 
L 162.407884 275.768223 
L 162.407884 274.397779 
L 163.073679 274.397779 
L 163.073679 271.999503 
L 163.739474 271.999503 
L 163.739474 270.172244 
L 164.40527 270.172244 
L 164.40527 268.002375 
L 165.071065 268.002375 
L 165.071065 266.403523 
L 165.736861 266.403523 
L 165.736861 264.347858 
L 166.402656 264.347858 
L 166.402656 263.091617 
L 167.068452 263.091617 
L 167.068452 260.579137 
L 167.734247 260.579137 
L 167.734247 258.866082 
L 168.400043 258.866082 
L 168.400043 256.92462 
L 169.065838 256.92462 
L 169.065838 254.640547 
L 169.731634 254.640547 
L 169.731634 253.155899 
L 170.397429 253.155899 
L 170.397429 251.557048 
L 171.063224 251.557048 
L 171.063224 250.415012 
L 171.72902 250.415012 
L 171.72902 248.016735 
L 172.394815 248.016735 
L 172.394815 246.30368 
L 173.060611 246.30368 
L 173.060611 244.590625 
L 173.726406 244.590625 
L 173.726406 242.763367 
L 174.392202 242.763367 
L 174.392202 241.507127 
L 175.057997 241.507127 
L 175.057997 239.223054 
L 175.723793 239.223054 
L 175.723793 238.423628 
L 176.389588 238.423628 
L 176.389588 236.824777 
L 177.055384 236.824777 
L 177.055384 235.568537 
L 177.721179 235.568537 
L 177.721179 234.083889 
L 178.386974 234.083889 
L 178.386974 232.256631 
L 179.05277 232.256631 
L 179.05277 229.629946 
L 179.718565 229.629946 
L 179.718565 227.23167 
L 180.384361 227.23167 
L 180.384361 225.747022 
L 181.050156 225.747022 
L 181.050156 223.919764 
L 181.715952 223.919764 
L 181.715952 221.978302 
L 182.381747 221.978302 
L 182.381747 220.265247 
L 183.047543 220.265247 
L 183.047543 218.552192 
L 183.713338 218.552192 
L 183.713338 216.724933 
L 184.379134 216.724933 
L 184.379134 215.011879 
L 185.044929 215.011879 
L 185.044929 213.413027 
L 185.710724 213.413027 
L 185.710724 210.900547 
L 186.37652 210.900547 
L 186.37652 208.388067 
L 187.042315 208.388067 
L 187.042315 206.332401 
L 187.708111 206.332401 
L 187.708111 204.847753 
L 188.373906 204.847753 
L 188.373906 203.363106 
L 189.039702 203.363106 
L 189.039702 201.30744 
L 189.705497 201.30744 
L 189.705497 200.0512 
L 190.371293 200.0512 
L 190.371293 198.566552 
L 191.037088 198.566552 
L 191.037088 197.538719 
L 191.702884 197.538719 
L 191.702884 196.054072 
L 192.368679 196.054072 
L 192.368679 194.569424 
L 193.034474 194.569424 
L 193.034474 192.970573 
L 193.70027 192.970573 
L 193.70027 191.600129 
L 194.366065 191.600129 
L 194.366065 189.658667 
L 195.031861 189.658667 
L 195.031861 187.831409 
L 195.697656 187.831409 
L 195.697656 186.917779 
L 196.363452 186.917779 
L 196.363452 186.00415 
L 197.029247 186.00415 
L 197.029247 184.405299 
L 197.695043 184.405299 
L 197.695043 182.806448 
L 198.360838 182.806448 
L 198.360838 181.436004 
L 199.026634 181.436004 
L 199.026634 180.408171 
L 199.692429 180.408171 
L 199.692429 178.80932 
L 200.358224 178.80932 
L 200.358224 177.667283 
L 201.02402 177.667283 
L 201.02402 176.867858 
L 201.689815 176.867858 
L 201.689815 175.497414 
L 202.355611 175.497414 
L 202.355611 174.241174 
L 203.021406 174.241174 
L 203.021406 173.099137 
L 203.687202 173.099137 
L 203.687202 171.957101 
L 204.352997 171.957101 
L 204.352997 170.472453 
L 205.018793 170.472453 
L 205.018793 168.18838 
L 205.684588 168.18838 
L 205.684588 166.703732 
L 206.350384 166.703732 
L 206.350384 164.76227 
L 207.016179 164.76227 
L 207.016179 163.848641 
L 207.681974 163.848641 
L 207.681974 162.478197 
L 208.34777 162.478197 
L 208.34777 161.336161 
L 209.013565 161.336161 
L 209.013565 159.965717 
L 209.679361 159.965717 
L 209.679361 158.595273 
L 210.345156 158.595273 
L 210.345156 157.681644 
L 211.010952 157.681644 
L 211.010952 156.539607 
L 211.676747 156.539607 
L 211.676747 154.940756 
L 212.342543 154.940756 
L 212.342543 153.341905 
L 213.008338 153.341905 
L 213.008338 152.656683 
L 213.674134 152.656683 
L 213.674134 151.743054 
L 214.339929 151.743054 
L 214.339929 150.37261 
L 215.005724 150.37261 
L 215.005724 149.344777 
L 215.67152 149.344777 
L 215.67152 147.631722 
L 216.337315 147.631722 
L 216.337315 146.147074 
L 217.003111 146.147074 
L 217.003111 144.091409 
L 217.668906 144.091409 
L 217.668906 142.949372 
L 218.334702 142.949372 
L 218.334702 141.693132 
L 219.000497 141.693132 
L 219.000497 140.436892 
L 219.666293 140.436892 
L 219.666293 139.523262 
L 220.332088 139.523262 
L 220.332088 138.83804 
L 220.997884 138.83804 
L 220.997884 137.924411 
L 221.663679 137.924411 
L 221.663679 137.353393 
L 222.329474 137.353393 
L 222.329474 136.896578 
L 222.99527 136.896578 
L 222.99527 135.183523 
L 223.661065 135.183523 
L 223.661065 134.269894 
L 224.326861 134.269894 
L 224.326861 132.785247 
L 224.992656 132.785247 
L 224.992656 131.64321 
L 225.658452 131.64321 
L 225.658452 130.957988 
L 226.324247 130.957988 
L 226.324247 129.930155 
L 226.990043 129.930155 
L 226.990043 128.788119 
L 227.655838 128.788119 
L 227.655838 127.87449 
L 228.321634 127.87449 
L 228.321634 127.189268 
L 228.987429 127.189268 
L 228.987429 126.389842 
L 229.653224 126.389842 
L 229.653224 125.70462 
L 230.31902 125.70462 
L 230.31902 124.562584 
L 230.984815 124.562584 
L 230.984815 123.420547 
L 231.650611 123.420547 
L 231.650611 122.506918 
L 232.316406 122.506918 
L 232.316406 121.136474 
L 232.982202 121.136474 
L 232.982202 120.222845 
L 233.647997 120.222845 
L 233.647997 118.738197 
L 234.313793 118.738197 
L 234.313793 117.710364 
L 234.979588 117.710364 
L 234.979588 117.139346 
L 235.645384 117.139346 
L 235.645384 116.682531 
L 236.311179 116.682531 
L 236.311179 115.768902 
L 236.976974 115.768902 
L 236.976974 115.08368 
L 237.64277 115.08368 
L 237.64277 114.741069 
L 238.308565 114.741069 
L 238.308565 113.713236 
L 238.974361 113.713236 
L 238.974361 113.142218 
L 240.305952 113.142218 
L 240.305952 112.228589 
L 240.971747 112.228589 
L 240.971747 111.200756 
L 241.637543 111.200756 
L 241.637543 110.287127 
L 242.303338 110.287127 
L 242.303338 109.601905 
L 242.969134 109.601905 
L 242.969134 109.14509 
L 243.634929 109.14509 
L 243.634929 108.574072 
L 244.300724 108.574072 
L 244.300724 107.88885 
L 244.96652 107.88885 
L 244.96652 106.975221 
L 245.632315 106.975221 
L 245.632315 105.947388 
L 246.298111 105.947388 
L 246.298111 105.604777 
L 246.963906 105.604777 
L 246.963906 104.576944 
L 247.629702 104.576944 
L 247.629702 104.005926 
L 248.295497 104.005926 
L 248.295497 103.777518 
L 248.961293 103.777518 
L 248.961293 103.549111 
L 249.627088 103.549111 
L 249.627088 102.407074 
L 250.292884 102.407074 
L 250.292884 101.721852 
L 250.958679 101.721852 
L 250.958679 101.379242 
L 251.624474 101.379242 
L 251.624474 100.922427 
L 252.29027 100.922427 
L 252.29027 100.123001 
L 252.956065 100.123001 
L 252.956065 99.323576 
L 253.621861 99.323576 
L 253.621861 98.067336 
L 254.287656 98.067336 
L 254.287656 97.724725 
L 254.953452 97.724725 
L 254.953452 97.382114 
L 255.619247 97.382114 
L 255.619247 96.468484 
L 256.285043 96.468484 
L 256.285043 95.783262 
L 256.950838 95.783262 
L 256.950838 94.75543 
L 257.616634 94.75543 
L 257.616634 94.527022 
L 258.282429 94.527022 
L 258.282429 94.298615 
L 258.948224 94.298615 
L 258.948224 94.184411 
L 259.61402 94.184411 
L 259.61402 93.956004 
L 260.279815 93.956004 
L 260.279815 93.270782 
L 260.945611 93.270782 
L 260.945611 93.042375 
L 262.277202 93.042375 
L 262.277202 92.357153 
L 262.942997 92.357153 
L 262.942997 91.900338 
L 263.608793 91.900338 
L 263.608793 90.986709 
L 264.274588 90.986709 
L 264.274588 90.872505 
L 264.940384 90.872505 
L 264.940384 90.415691 
L 265.606179 90.415691 
L 265.606179 90.07308 
L 266.271974 90.07308 
L 266.271974 89.387858 
L 266.93777 89.387858 
L 266.93777 89.045247 
L 267.603565 89.045247 
L 267.603565 88.816839 
L 268.935156 88.816839 
L 268.935156 88.360025 
L 269.600952 88.360025 
L 269.600952 88.131617 
L 270.266747 88.131617 
L 270.266747 87.560599 
L 270.932543 87.560599 
L 270.932543 86.875377 
L 271.598338 86.875377 
L 271.598338 86.304359 
L 272.264134 86.304359 
L 272.264134 86.190155 
L 272.929929 86.190155 
L 272.929929 85.619137 
L 273.595724 85.619137 
L 273.595724 85.39073 
L 274.26152 85.39073 
L 274.26152 84.933915 
L 274.927315 84.933915 
L 274.927315 84.705508 
L 275.593111 84.705508 
L 275.593111 84.020286 
L 276.258906 84.020286 
L 276.258906 83.791879 
L 276.924702 83.791879 
L 276.924702 83.563471 
L 277.590497 83.563471 
L 277.590497 82.992453 
L 278.256293 82.992453 
L 278.256293 82.193027 
L 278.922088 82.193027 
L 278.922088 82.078824 
L 279.587884 82.078824 
L 279.587884 81.736213 
L 280.253679 81.736213 
L 280.253679 81.622009 
L 280.919474 81.622009 
L 280.919474 81.050991 
L 281.58527 81.050991 
L 281.58527 80.594176 
L 282.251065 80.594176 
L 282.251065 80.023158 
L 282.916861 80.023158 
L 282.916861 79.794751 
L 283.582656 79.794751 
L 283.582656 79.337936 
L 284.248452 79.337936 
L 284.248452 78.881121 
L 284.914247 78.881121 
L 284.914247 78.652714 
L 285.580043 78.652714 
L 285.580043 78.310103 
L 286.245838 78.310103 
L 286.245838 77.967492 
L 286.911634 77.967492 
L 286.911634 77.739085 
L 287.577429 77.739085 
L 287.577429 77.510678 
L 288.243224 77.510678 
L 288.243224 77.168067 
L 288.90902 77.168067 
L 288.90902 77.053863 
L 289.574815 77.053863 
L 289.574815 76.939659 
L 290.240611 76.939659 
L 290.240611 76.368641 
L 290.906406 76.368641 
L 290.906406 76.02603 
L 291.572202 76.02603 
L 291.572202 75.911826 
L 292.237997 75.911826 
L 292.237997 75.340808 
L 292.903793 75.340808 
L 292.903793 75.112401 
L 293.569588 75.112401 
L 293.569588 74.76979 
L 294.235384 74.76979 
L 294.235384 74.655586 
L 295.566974 74.655586 
L 295.566974 74.312975 
L 296.23277 74.312975 
L 296.23277 74.084568 
L 297.564361 74.084568 
L 297.564361 73.970364 
L 298.230156 73.970364 
L 298.230156 73.627753 
L 298.895952 73.627753 
L 298.895952 73.51355 
L 299.561747 73.51355 
L 299.561747 73.285142 
L 300.227543 73.285142 
L 300.227543 73.170939 
L 300.893338 73.170939 
L 300.893338 73.056735 
L 301.559134 73.056735 
L 301.559134 72.828328 
L 302.224929 72.828328 
L 302.224929 72.714124 
L 302.890724 72.714124 
L 302.890724 72.485717 
L 304.222315 72.485717 
L 304.222315 72.371513 
L 304.888111 72.371513 
L 304.888111 72.257309 
L 306.219702 72.257309 
L 306.219702 71.914698 
L 306.885497 71.914698 
L 306.885497 71.800495 
L 307.551293 71.800495 
L 307.551293 71.686291 
L 308.217088 71.686291 
L 308.217088 71.572087 
L 308.882884 71.572087 
L 308.882884 71.457884 
L 310.214474 71.457884 
L 310.214474 71.34368 
L 310.88027 71.34368 
L 310.88027 71.115273 
L 312.877656 71.115273 
L 312.877656 70.772662 
L 313.543452 70.772662 
L 313.543452 70.544255 
L 314.209247 70.544255 
L 314.209247 70.08744 
L 315.540838 70.08744 
L 315.540838 69.630625 
L 316.206634 69.630625 
L 316.206634 69.516422 
L 317.538224 69.516422 
L 317.538224 69.402218 
L 318.20402 69.402218 
L 318.20402 69.288014 
L 318.869815 69.288014 
L 318.869815 68.8312 
L 319.535611 68.8312 
L 319.535611 68.602792 
L 320.201406 68.602792 
L 320.201406 68.145978 
L 320.867202 68.145978 
L 320.867202 68.031774 
L 321.532997 68.031774 
L 321.532997 67.803367 
L 322.198793 67.803367 
L 322.198793 67.689163 
L 323.530384 67.689163 
L 323.530384 67.57496 
L 324.861974 67.57496 
L 324.861974 67.232349 
L 325.52777 67.232349 
L 325.52777 67.118145 
L 328.190952 67.118145 
L 328.190952 66.889738 
L 328.856747 66.889738 
L 328.856747 66.775534 
L 330.188338 66.775534 
L 330.188338 66.66133 
L 330.854134 66.66133 
L 330.854134 66.547127 
L 331.519929 66.547127 
L 331.519929 66.318719 
L 332.85152 66.318719 
L 332.85152 66.204516 
L 333.517315 66.204516 
L 333.517315 66.090312 
L 334.183111 66.090312 
L 334.183111 65.976108 
L 334.848906 65.976108 
L 334.848906 65.747701 
L 336.846293 65.747701 
L 336.846293 65.633497 
L 338.177884 65.633497 
L 338.177884 65.519294 
L 339.509474 65.519294 
L 339.509474 65.290886 
L 340.17527 65.290886 
L 340.17527 65.176683 
L 340.841065 65.176683 
L 340.841065 64.948275 
L 342.172656 64.948275 
L 342.172656 64.719868 
L 342.838452 64.719868 
L 342.838452 64.605664 
L 343.504247 64.605664 
L 343.504247 64.377257 
L 344.835838 64.377257 
L 344.835838 64.14885 
L 345.501634 64.14885 
L 345.501634 64.034646 
L 346.833224 64.034646 
L 346.833224 63.806239 
L 347.49902 63.806239 
L 347.49902 63.577832 
L 348.164815 63.577832 
L 348.164815 63.463628 
L 349.496406 63.463628 
L 349.496406 63.349424 
L 350.827997 63.349424 
L 350.827997 63.235221 
L 356.154361 63.235221 
L 356.154361 63.121017 
L 356.820156 63.121017 
L 356.820156 63.006813 
L 357.485952 63.006813 
L 357.485952 62.89261 
L 360.149134 62.89261 
L 360.149134 62.778406 
L 362.812315 62.778406 
L 362.812315 62.664202 
L 366.807088 62.664202 
L 366.807088 62.549999 
L 368.804474 62.549999 
L 368.804474 62.435795 
L 369.47027 62.435795 
L 369.47027 62.321591 
L 370.136065 62.321591 
L 370.136065 62.207388 
L 372.133452 62.207388 
L 372.133452 62.093184 
L 374.130838 62.093184 
L 374.130838 61.97898 
L 374.796634 61.97898 
L 374.796634 61.864777 
L 375.462429 61.864777 
L 375.462429 61.750573 
L 377.459815 61.750573 
L 377.459815 61.636369 
L 384.11777 61.636369 
L 384.11777 61.522166 
L 384.783565 61.522166 
L 384.783565 61.407962 
L 386.780952 61.407962 
L 386.780952 61.293758 
L 390.775724 61.293758 
L 390.775724 61.179555 
L 394.770497 61.179555 
L 394.770497 61.065351 
L 396.767884 61.065351 
L 396.767884 60.951148 
L 403.425838 60.951148 
L 403.425838 60.836944 
L 406.754815 60.836944 
L 406.754815 60.72274 
L 415.410156 60.72274 
L 415.410156 60.494333 
L 416.075952 60.494333 
L 416.075952 60.380129 
L 420.73652 60.380129 
L 420.73652 60.265926 
L 424.065497 60.265926 
L 424.065497 60.151722 
L 428.06027 60.151722 
L 428.06027 60.037518 
L 431.389247 60.037518 
L 431.389247 59.923315 
L 434.052429 59.923315 
L 434.052429 59.809111 
L 444.039361 59.809111 
L 444.039361 59.694907 
L 491.310838 59.694907 
L 491.310838 59.580704 
L 555.227202 59.580704 
L 555.227202 59.4665 
L 555.227202 59.4665 
" clip-path="url(#pd6e036e5d3)" style="fill: none; stroke: #e76f51; stroke-width: 2; stroke-linecap: square"/>
   </g>
   <g id="line2d_29">
    <path d="M 193.034474 380.9555 
L 193.034474 44.1575 
" clip-path="url(#pd6e036e5d3)" style="fill: none; stroke-dasharray: 3.7,1.6; stroke-dashoffset: 0; stroke: #888888"/>
   </g>
   <g id="patch_3">
    <path d="M 63.870156 380.9555 
L 63.870156 44.1575 
" style="fill: none; stroke: #333333; stroke-linejoin: miter; stroke-linecap: square"/>
   </g>
   <g id="patch_4">
    <path d="M 63.870156 380.9555 
L 591.180156 380.9555 
" style="fill: none; stroke: #333333; stroke-linejoin: miter; stroke-linecap: square"/>
   </g>
   <g id="text_16">
    <!-- Empirical Cumulative Distribution of BMI by Sex -->
    <g transform="translate(110.892656 30.1575) scale(0.16 -0.16)">
     <defs>
      <path id="DejaVuSans-Bold-45" d="M 588 4666 
L 3834 4666 
L 3834 3756 
L 1791 3756 
L 1791 2888 
L 3713 2888 
L 3713 1978 
L 1791 1978 
L 1791 909 
L 3903 909 
L 3903 0 
L 588 0 
L 588 4666 
z
" transform="scale(0.015625)"/>
      <path id="DejaVuSans-Bold-6d" d="M 3781 2919 
Q 3994 3244 4286 3414 
Q 4578 3584 4928 3584 
Q 5531 3584 5847 3212 
Q 6163 2841 6163 2131 
L 6163 0 
L 5038 0 
L 5038 1825 
Q 5041 1866 5042 1909 
Q 5044 1953 5044 2034 
Q 5044 2406 4934 2573 
Q 4825 2741 4581 2741 
Q 4263 2741 4089 2478 
Q 3916 2216 3909 1719 
L 3909 0 
L 2784 0 
L 2784 1825 
Q 2784 2406 2684 2573 
Q 2584 2741 2328 2741 
Q 2006 2741 1831 2477 
Q 1656 2213 1656 1722 
L 1656 0 
L 531 0 
L 531 3500 
L 1656 3500 
L 1656 2988 
Q 1863 3284 2130 3434 
Q 2397 3584 2719 3584 
Q 3081 3584 3359 3409 
Q 3638 3234 3781 2919 
z
" transform="scale(0.015625)"/>
      <path id="DejaVuSans-Bold-70" d="M 1656 506 
L 1656 -1331 
L 538 -1331 
L 538 3500 
L 1656 3500 
L 1656 2988 
Q 1888 3294 2169 3439 
Q 2450 3584 2816 3584 
Q 3463 3584 3878 3070 
Q 4294 2556 4294 1747 
Q 4294 938 3878 423 
Q 3463 -91 2816 -91 
Q 2450 -91 2169 54 
Q 1888 200 1656 506 
z
M 2400 2772 
Q 2041 2772 1848 2508 
Q 1656 2244 1656 1747 
Q 1656 1250 1848 986 
Q 2041 722 2400 722 
Q 2759 722 2948 984 
Q 3138 1247 3138 1747 
Q 3138 2247 2948 2509 
Q 2759 2772 2400 2772 
z
" transform="scale(0.015625)"/>
      <path id="DejaVuSans-Bold-69" d="M 538 3500 
L 1656 3500 
L 1656 0 
L 538 0 
L 538 3500 
z
M 538 4863 
L 1656 4863 
L 1656 3950 
L 538 3950 
L 538 4863 
z
" transform="scale(0.015625)"/>
      <path id="DejaVuSans-Bold-72" d="M 3138 2547 
Q 2991 2616 2845 2648 
Q 2700 2681 2553 2681 
Q 2122 2681 1889 2404 
Q 1656 2128 1656 1613 
L 1656 0 
L 538 0 
L 538 3500 
L 1656 3500 
L 1656 2925 
Q 1872 3269 2151 3426 
Q 2431 3584 2822 3584 
Q 2878 3584 2943 3579 
Q 3009 3575 3134 3559 
L 3138 2547 
z
" transform="scale(0.015625)"/>
      <path id="DejaVuSans-Bold-63" d="M 3366 3391 
L 3366 2478 
Q 3138 2634 2908 2709 
Q 2678 2784 2431 2784 
Q 1963 2784 1702 2511 
Q 1441 2238 1441 1747 
Q 1441 1256 1702 982 
Q 1963 709 2431 709 
Q 2694 709 2930 787 
Q 3166 866 3366 1019 
L 3366 103 
Q 3103 6 2833 -42 
Q 2563 -91 2291 -91 
Q 1344 -91 809 395 
Q 275 881 275 1747 
Q 275 2613 809 3098 
Q 1344 3584 2291 3584 
Q 2566 3584 2833 3536 
Q 3100 3488 3366 3391 
z
" transform="scale(0.015625)"/>
      <path id="DejaVuSans-Bold-61" d="M 2106 1575 
Q 1756 1575 1579 1456 
Q 1403 1338 1403 1106 
Q 1403 894 1545 773 
Q 1688 653 1941 653 
Q 2256 653 2472 879 
Q 2688 1106 2688 1447 
L 2688 1575 
L 2106 1575 
z
M 3816 1997 
L 3816 0 
L 2688 0 
L 2688 519 
Q 2463 200 2181 54 
Q 1900 -91 1497 -91 
Q 953 -91 614 226 
Q 275 544 275 1050 
Q 275 1666 698 1953 
Q 1122 2241 2028 2241 
L 2688 2241 
L 2688 2328 
Q 2688 2594 2478 2717 
Q 2269 2841 1825 2841 
Q 1466 2841 1156 2769 
Q 847 2697 581 2553 
L 581 3406 
Q 941 3494 1303 3539 
Q 1666 3584 2028 3584 
Q 2975 3584 3395 3211 
Q 3816 2838 3816 1997 
z
" transform="scale(0.015625)"/>
      <path id="DejaVuSans-Bold-6c" d="M 538 4863 
L 1656 4863 
L 1656 0 
L 538 0 
L 538 4863 
z
" transform="scale(0.015625)"/>
      <path id="DejaVuSans-Bold-20" transform="scale(0.015625)"/>
      <path id="DejaVuSans-Bold-43" d="M 4288 256 
Q 3956 84 3597 -3 
Q 3238 -91 2847 -91 
Q 1681 -91 1000 561 
Q 319 1213 319 2328 
Q 319 3447 1000 4098 
Q 1681 4750 2847 4750 
Q 3238 4750 3597 4662 
Q 3956 4575 4288 4403 
L 4288 3438 
Q 3953 3666 3628 3772 
Q 3303 3878 2944 3878 
Q 2300 3878 1931 3465 
Q 1563 3053 1563 2328 
Q 1563 1606 1931 1193 
Q 2300 781 2944 781 
Q 3303 781 3628 887 
Q 3953 994 4288 1222 
L 4288 256 
z
" transform="scale(0.015625)"/>
      <path id="DejaVuSans-Bold-75" d="M 500 1363 
L 500 3500 
L 1625 3500 
L 1625 3150 
Q 1625 2866 1622 2436 
Q 1619 2006 1619 1863 
Q 1619 1441 1641 1255 
Q 1663 1069 1716 984 
Q 1784 875 1895 815 
Q 2006 756 2150 756 
Q 2500 756 2700 1025 
Q 2900 1294 2900 1772 
L 2900 3500 
L 4019 3500 
L 4019 0 
L 2900 0 
L 2900 506 
Q 2647 200 2364 54 
Q 2081 -91 1741 -91 
Q 1134 -91 817 281 
Q 500 653 500 1363 
z
" transform="scale(0.015625)"/>
      <path id="DejaVuSans-Bold-74" d="M 1759 4494 
L 1759 3500 
L 2913 3500 
L 2913 2700 
L 1759 2700 
L 1759 1216 
Q 1759 972 1856 886 
Q 1953 800 2241 800 
L 2816 800 
L 2816 0 
L 1856 0 
Q 1194 0 917 276 
Q 641 553 641 1216 
L 641 2700 
L 84 2700 
L 84 3500 
L 641 3500 
L 641 4494 
L 1759 4494 
z
" transform="scale(0.015625)"/>
      <path id="DejaVuSans-Bold-76" d="M 97 3500 
L 1216 3500 
L 2088 1081 
L 2956 3500 
L 4078 3500 
L 2700 0 
L 1472 0 
L 97 3500 
z
" transform="scale(0.015625)"/>
      <path id="DejaVuSans-Bold-65" d="M 4031 1759 
L 4031 1441 
L 1416 1441 
Q 1456 1047 1700 850 
Q 1944 653 2381 653 
Q 2734 653 3104 758 
Q 3475 863 3866 1075 
L 3866 213 
Q 3469 63 3072 -14 
Q 2675 -91 2278 -91 
Q 1328 -91 801 392 
Q 275 875 275 1747 
Q 275 2603 792 3093 
Q 1309 3584 2216 3584 
Q 3041 3584 3536 3087 
Q 4031 2591 4031 1759 
z
M 2881 2131 
Q 2881 2450 2695 2645 
Q 2509 2841 2209 2841 
Q 1884 2841 1681 2658 
Q 1478 2475 1428 2131 
L 2881 2131 
z
" transform="scale(0.015625)"/>
      <path id="DejaVuSans-Bold-44" d="M 1791 3756 
L 1791 909 
L 2222 909 
Q 2959 909 3348 1275 
Q 3738 1641 3738 2338 
Q 3738 3031 3350 3393 
Q 2963 3756 2222 3756 
L 1791 3756 
z
M 588 4666 
L 1856 4666 
Q 2919 4666 3439 4514 
Q 3959 4363 4331 4000 
Q 4659 3684 4818 3271 
Q 4978 2859 4978 2338 
Q 4978 1809 4818 1395 
Q 4659 981 4331 666 
Q 3956 303 3431 151 
Q 2906 0 1856 0 
L 588 0 
L 588 4666 
z
" transform="scale(0.015625)"/>
      <path id="DejaVuSans-Bold-73" d="M 3272 3391 
L 3272 2541 
Q 2913 2691 2578 2766 
Q 2244 2841 1947 2841 
Q 1628 2841 1473 2761 
Q 1319 2681 1319 2516 
Q 1319 2381 1436 2309 
Q 1553 2238 1856 2203 
L 2053 2175 
Q 2913 2066 3209 1816 
Q 3506 1566 3506 1031 
Q 3506 472 3093 190 
Q 2681 -91 1863 -91 
Q 1516 -91 1145 -36 
Q 775 19 384 128 
L 384 978 
Q 719 816 1070 734 
Q 1422 653 1784 653 
Q 2113 653 2278 743 
Q 2444 834 2444 1013 
Q 2444 1163 2330 1236 
Q 2216 1309 1875 1350 
L 1678 1375 
Q 931 1469 631 1722 
Q 331 1975 331 2491 
Q 331 3047 712 3315 
Q 1094 3584 1881 3584 
Q 2191 3584 2531 3537 
Q 2872 3491 3272 3391 
z
" transform="scale(0.015625)"/>
      <path id="DejaVuSans-Bold-62" d="M 2400 722 
Q 2759 722 2948 984 
Q 3138 1247 3138 1747 
Q 3138 2247 2948 2509 
Q 2759 2772 2400 2772 
Q 2041 2772 1848 2508 
Q 1656 2244 1656 1747 
Q 1656 1250 1848 986 
Q 2041 722 2400 722 
z
M 1656 2988 
Q 1888 3294 2169 3439 
Q 2450 3584 2816 3584 
Q 3463 3584 3878 3070 
Q 4294 2556 4294 1747 
Q 4294 938 3878 423 
Q 3463 -91 2816 -91 
Q 2450 -91 2169 54 
Q 1888 200 1656 506 
L 1656 0 
L 538 0 
L 538 4863 
L 1656 4863 
L 1656 2988 
z
" transform="scale(0.015625)"/>
      <path id="DejaVuSans-Bold-6f" d="M 2203 2784 
Q 1831 2784 1636 2517 
Q 1441 2250 1441 1747 
Q 1441 1244 1636 976 
Q 1831 709 2203 709 
Q 2569 709 2762 976 
Q 2956 1244 2956 1747 
Q 2956 2250 2762 2517 
Q 2569 2784 2203 2784 
z
M 2203 3584 
Q 3106 3584 3614 3096 
Q 4122 2609 4122 1747 
Q 4122 884 3614 396 
Q 3106 -91 2203 -91 
Q 1297 -91 786 396 
Q 275 884 275 1747 
Q 275 2609 786 3096 
Q 1297 3584 2203 3584 
z
" transform="scale(0.015625)"/>
      <path id="DejaVuSans-Bold-6e" d="M 4056 2131 
L 4056 0 
L 2931 0 
L 2931 347 
L 2931 1631 
Q 2931 2084 2911 2256 
Q 2891 2428 2841 2509 
Q 2775 2619 2662 2680 
Q 2550 2741 2406 2741 
Q 2056 2741 1856 2470 
Q 1656 2200 1656 1722 
L 1656 0 
L 538 0 
L 538 3500 
L 1656 3500 
L 1656 2988 
Q 1909 3294 2193 3439 
Q 2478 3584 2822 3584 
Q 3428 3584 3742 3212 
Q 4056 2841 4056 2131 
z
" transform="scale(0.015625)"/>
      <path id="DejaVuSans-Bold-66" d="M 2841 4863 
L 2841 4128 
L 2222 4128 
Q 1984 4128 1890 4042 
Q 1797 3956 1797 3744 
L 1797 3500 
L 2753 3500 
L 2753 2700 
L 1797 2700 
L 1797 0 
L 678 0 
L 678 2700 
L 122 2700 
L 122 3500 
L 678 3500 
L 678 3744 
Q 678 4316 997 4589 
Q 1316 4863 1984 4863 
L 2841 4863 
z
" transform="scale(0.015625)"/>
      <path id="DejaVuSans-Bold-42" d="M 2456 2859 
Q 2741 2859 2887 2984 
Q 3034 3109 3034 3353 
Q 3034 3594 2887 3720 
Q 2741 3847 2456 3847 
L 1791 3847 
L 1791 2859 
L 2456 2859 
z
M 2497 819 
Q 2859 819 3042 972 
Q 3225 1125 3225 1434 
Q 3225 1738 3044 1889 
Q 2863 2041 2497 2041 
L 1791 2041 
L 1791 819 
L 2497 819 
z
M 3616 2497 
Q 4003 2384 4215 2081 
Q 4428 1778 4428 1338 
Q 4428 663 3972 331 
Q 3516 0 2584 0 
L 588 0 
L 588 4666 
L 2394 4666 
Q 3366 4666 3802 4372 
Q 4238 4078 4238 3431 
Q 4238 3091 4078 2852 
Q 3919 2613 3616 2497 
z
" transform="scale(0.015625)"/>
      <path id="DejaVuSans-Bold-4d" d="M 588 4666 
L 2119 4666 
L 3181 2169 
L 4250 4666 
L 5778 4666 
L 5778 0 
L 4641 0 
L 4641 3413 
L 3566 897 
L 2803 897 
L 1728 3413 
L 1728 0 
L 588 0 
L 588 4666 
z
" transform="scale(0.015625)"/>
      <path id="DejaVuSans-Bold-49" d="M 588 4666 
L 1791 4666 
L 1791 0 
L 588 0 
L 588 4666 
z
" transform="scale(0.015625)"/>
      <path id="DejaVuSans-Bold-79" d="M 78 3500 
L 1197 3500 
L 2138 1125 
L 2938 3500 
L 4056 3500 
L 2584 -331 
Q 2363 -916 2067 -1148 
Q 1772 -1381 1288 -1381 
L 641 -1381 
L 641 -647 
L 991 -647 
Q 1275 -647 1404 -556 
Q 1534 -466 1606 -231 
L 1638 -134 
L 78 3500 
z
" transform="scale(0.015625)"/>
      <path id="DejaVuSans-Bold-53" d="M 3834 4519 
L 3834 3531 
Q 3450 3703 3084 3790 
Q 2719 3878 2394 3878 
Q 1963 3878 1756 3759 
Q 1550 3641 1550 3391 
Q 1550 3203 1689 3098 
Q 1828 2994 2194 2919 
L 2706 2816 
Q 3484 2659 3812 2340 
Q 4141 2022 4141 1434 
Q 4141 663 3683 286 
Q 3225 -91 2284 -91 
Q 1841 -91 1394 -6 
Q 947 78 500 244 
L 500 1259 
Q 947 1022 1364 901 
Q 1781 781 2169 781 
Q 2563 781 2772 912 
Q 2981 1044 2981 1288 
Q 2981 1506 2839 1625 
Q 2697 1744 2272 1838 
L 1806 1941 
Q 1106 2091 782 2419 
Q 459 2747 459 3303 
Q 459 4000 909 4375 
Q 1359 4750 2203 4750 
Q 2588 4750 2994 4692 
Q 3400 4634 3834 4519 
z
" transform="scale(0.015625)"/>
      <path id="DejaVuSans-Bold-78" d="M 1422 1791 
L 159 3500 
L 1344 3500 
L 2059 2463 
L 2784 3500 
L 3969 3500 
L 2706 1797 
L 4031 0 
L 2847 0 
L 2059 1106 
L 1281 0 
L 97 0 
L 1422 1791 
z
" transform="scale(0.015625)"/>
     </defs>
     <use xlink:href="#DejaVuSans-Bold-45"/>
     <use xlink:href="#DejaVuSans-Bold-6d" transform="translate(68.310547 0)"/>
     <use xlink:href="#DejaVuSans-Bold-70" transform="translate(172.509766 0)"/>
     <use xlink:href="#DejaVuSans-Bold-69" transform="translate(244.091797 0)"/>
     <use xlink:href="#DejaVuSans-Bold-72" transform="translate(278.369141 0)"/>
     <use xlink:href="#DejaVuSans-Bold-69" transform="translate(327.685547 0)"/>
     <use xlink:href="#DejaVuSans-Bold-63" transform="translate(361.962891 0)"/>
     <use xlink:href="#DejaVuSans-Bold-61" transform="translate(421.240234 0)"/>
     <use xlink:href="#DejaVuSans-Bold-6c" transform="translate(488.720703 0)"/>
     <use xlink:href="#DejaVuSans-Bold-20" transform="translate(522.998047 0)"/>
     <use xlink:href="#DejaVuSans-Bold-43" transform="translate(557.8125 0)"/>
     <use xlink:href="#DejaVuSans-Bold-75" transform="translate(631.201172 0)"/>
     <use xlink:href="#DejaVuSans-Bold-6d" transform="translate(702.392578 0)"/>
     <use xlink:href="#DejaVuSans-Bold-75" transform="translate(806.591797 0)"/>
     <use xlink:href="#DejaVuSans-Bold-6c" transform="translate(877.783203 0)"/>
     <use xlink:href="#DejaVuSans-Bold-61" transform="translate(912.060547 0)"/>
     <use xlink:href="#DejaVuSans-Bold-74" transform="translate(979.541016 0)"/>
     <use xlink:href="#DejaVuSans-Bold-69" transform="translate(1027.34375 0)"/>
     <use xlink:href="#DejaVuSans-Bold-76" transform="translate(1061.621094 0)"/>
     <use xlink:href="#DejaVuSans-Bold-65" transform="translate(1126.806641 0)"/>
     <use xlink:href="#DejaVuSans-Bold-20" transform="translate(1194.628906 0)"/>
     <use xlink:href="#DejaVuSans-Bold-44" transform="translate(1229.443359 0)"/>
     <use xlink:href="#DejaVuSans-Bold-69" transform="translate(1312.451172 0)"/>
     <use xlink:href="#DejaVuSans-Bold-73" transform="translate(1346.728516 0)"/>
     <use xlink:href="#DejaVuSans-Bold-74" transform="translate(1406.25 0)"/>
     <use xlink:href="#DejaVuSans-Bold-72" transform="translate(1454.052734 0)"/>
     <use xlink:href="#DejaVuSans-Bold-69" transform="translate(1503.369141 0)"/>
     <use xlink:href="#DejaVuSans-Bold-62" transform="translate(1537.646484 0)"/>
     <use xlink:href="#DejaVuSans-Bold-75" transform="translate(1609.228516 0)"/>
     <use xlink:href="#DejaVuSans-Bold-74" transform="translate(1680.419922 0)"/>
     <use xlink:href="#DejaVuSans-Bold-69" transform="translate(1728.222656 0)"/>
     <use xlink:href="#DejaVuSans-Bold-6f" transform="translate(1762.5 0)"/>
     <use xlink:href="#DejaVuSans-Bold-6e" transform="translate(1831.201172 0)"/>
     <use xlink:href="#DejaVuSans-Bold-20" transform="translate(1902.392578 0)"/>
     <use xlink:href="#DejaVuSans-Bold-6f" transform="translate(1937.207031 0)"/>
     <use xlink:href="#DejaVuSans-Bold-66" transform="translate(2005.908203 0)"/>
     <use xlink:href="#DejaVuSans-Bold-20" transform="translate(2049.414062 0)"/>
     <use xlink:href="#DejaVuSans-Bold-42" transform="translate(2084.228516 0)"/>
     <use xlink:href="#DejaVuSans-Bold-4d" transform="translate(2160.449219 0)"/>
     <use xlink:href="#DejaVuSans-Bold-49" transform="translate(2259.960938 0)"/>
     <use xlink:href="#DejaVuSans-Bold-20" transform="translate(2297.167969 0)"/>
     <use xlink:href="#DejaVuSans-Bold-62" transform="translate(2331.982422 0)"/>
     <use xlink:href="#DejaVuSans-Bold-79" transform="translate(2403.564453 0)"/>
     <use xlink:href="#DejaVuSans-Bold-20" transform="translate(2468.75 0)"/>
     <use xlink:href="#DejaVuSans-Bold-53" transform="translate(2503.564453 0)"/>
     <use xlink:href="#DejaVuSans-Bold-65" transform="translate(2575.585938 0)"/>
     <use xlink:href="#DejaVuSans-Bold-78" transform="translate(2643.408203 0)"/>
    </g>
   </g>
   <g id="legend_1">
    <g id="line2d_30">
     <path d="M 440.619531 328.232375 
L 452.619531 328.232375 
L 452.619531 328.232375 
L 464.619531 328.232375 
L 464.619531 328.232375 
" style="fill: none; stroke: #264653; stroke-width: 2; stroke-linecap: square"/>
    </g>
    <g id="text_17">
     <!-- Male -->
     <g transform="translate(474.219531 332.432375) scale(0.12 -0.12)">
      <use xlink:href="#DejaVuSans-4d"/>
      <use xlink:href="#DejaVuSans-61" transform="translate(86.279297 0)"/>
      <use xlink:href="#DejaVuSans-6c" transform="translate(147.558594 0)"/>
      <use xlink:href="#DejaVuSans-65" transform="translate(175.341797 0)"/>
     </g>
    </g>
    <g id="line2d_31">
     <path d="M 440.619531 345.846125 
L 452.619531 345.846125 
L 452.619531 345.846125 
L 464.619531 345.846125 
L 464.619531 345.846125 
" style="fill: none; stroke: #e76f51; stroke-width: 2; stroke-linecap: square"/>
    </g>
    <g id="text_18">
     <!-- Female -->
     <g transform="translate(474.219531 350.046125) scale(0.12 -0.12)">
      <defs>
       <path id="DejaVuSans-46" d="M 628 4666 
L 3309 4666 
L 3309 4134 
L 1259 4134 
L 1259 2759 
L 3109 2759 
L 3109 2228 
L 1259 2228 
L 1259 0 
L 628 0 
L 628 4666 
z
" transform="scale(0.015625)"/>
      </defs>
      <use xlink:href="#DejaVuSans-46"/>
      <use xlink:href="#DejaVuSans-65" transform="translate(52.019531 0)"/>
      <use xlink:href="#DejaVuSans-6d" transform="translate(113.542969 0)"/>
      <use xlink:href="#DejaVuSans-61" transform="translate(210.955078 0)"/>
      <use xlink:href="#DejaVuSans-6c" transform="translate(272.234375 0)"/>
      <use xlink:href="#DejaVuSans-65" transform="translate(300.017578 0)"/>
     </g>
    </g>
    <g id="line2d_32">
     <path d="M 440.619531 363.459875 
L 452.619531 363.459875 
L 464.619531 363.459875 
" style="fill: none; stroke-dasharray: 3.7,1.6; stroke-dashoffset: 0; stroke: #888888"/>
    </g>
    <g id="text_19">
     <!-- Obesity threshold -->
     <g transform="translate(474.219531 367.659875) scale(0.12 -0.12)">
      <defs>
       <path id="DejaVuSans-4f" d="M 2522 4238 
Q 1834 4238 1429 3725 
Q 1025 3213 1025 2328 
Q 1025 1447 1429 934 
Q 1834 422 2522 422 
Q 3209 422 3611 934 
Q 4013 1447 4013 2328 
Q 4013 3213 3611 3725 
Q 3209 4238 2522 4238 
z
M 2522 4750 
Q 3503 4750 4090 4092 
Q 4678 3434 4678 2328 
Q 4678 1225 4090 567 
Q 3503 -91 2522 -91 
Q 1538 -91 948 565 
Q 359 1222 359 2328 
Q 359 3434 948 4092 
Q 1538 4750 2522 4750 
z
" transform="scale(0.015625)"/>
       <path id="DejaVuSans-62" d="M 3116 1747 
Q 3116 2381 2855 2742 
Q 2594 3103 2138 3103 
Q 1681 3103 1420 2742 
Q 1159 2381 1159 1747 
Q 1159 1113 1420 752 
Q 1681 391 2138 391 
Q 2594 391 2855 752 
Q 3116 1113 3116 1747 
z
M 1159 2969 
Q 1341 3281 1617 3432 
Q 1894 3584 2278 3584 
Q 2916 3584 3314 3078 
Q 3713 2572 3713 1747 
Q 3713 922 3314 415 
Q 2916 -91 2278 -91 
Q 1894 -91 1617 61 
Q 1341 213 1159 525 
L 1159 0 
L 581 0 
L 581 4863 
L 1159 4863 
L 1159 2969 
z
" transform="scale(0.015625)"/>
       <path id="DejaVuSans-68" d="M 3513 2113 
L 3513 0 
L 2938 0 
L 2938 2094 
Q 2938 2591 2744 2837 
Q 2550 3084 2163 3084 
Q 1697 3084 1428 2787 
Q 1159 2491 1159 1978 
L 1159 0 
L 581 0 
L 581 4863 
L 1159 4863 
L 1159 2956 
Q 1366 3272 1645 3428 
Q 1925 3584 2291 3584 
Q 2894 3584 3203 3211 
Q 3513 2838 3513 2113 
z
" transform="scale(0.015625)"/>
      </defs>
      <use xlink:href="#DejaVuSans-4f"/>
      <use xlink:href="#DejaVuSans-62" transform="translate(78.710938 0)"/>
      <use xlink:href="#DejaVuSans-65" transform="translate(142.1875 0)"/>
      <use xlink:href="#DejaVuSans-73" transform="translate(203.710938 0)"/>
      <use xlink:href="#DejaVuSans-69" transform="translate(255.810547 0)"/>
      <use xlink:href="#DejaVuSans-74" transform="translate(283.59375 0)"/>
      <use xlink:href="#DejaVuSans-79" transform="translate(322.802734 0)"/>
      <use xlink:href="#DejaVuSans-20" transform="translate(381.982422 0)"/>
      <use xlink:href="#DejaVuSans-74" transform="translate(413.769531 0)"/>
      <use xlink:href="#DejaVuSans-68" transform="translate(452.978516 0)"/>
      <use xlink:href="#DejaVuSans-72" transform="translate(516.357422 0)"/>
      <use xlink:href="#DejaVuSans-65" transform="translate(555.220703 0)"/>
      <use xlink:href="#DejaVuSans-73" transform="translate(616.744141 0)"/>
      <use xlink:href="#DejaVuSans-68" transform="translate(668.84375 0)"/>
      <use xlink:href="#DejaVuSans-6f" transform="translate(732.222656 0)"/>
      <use xlink:href="#DejaVuSans-6c" transform="translate(793.404297 0)"/>
      <use xlink:href="#DejaVuSans-64" transform="translate(821.1875 0)"/>
     </g>
    </g>
   </g>
  </g>
 </g>
 <defs>
  <clipPath id="pd6e036e5d3">
   <rect x="63.870156" y="44.1575" width="527.31" height="336.798"/>
  </clipPath>
 </defs>
</svg>
