<?xml version="1.0" encoding="utf-8" standalone="no"?>
<!DOCTYPE svg PUBLIC "-//W3C//DTD SVG 1.1//EN"
  "http://www.w3.org/Graphics/SVG/1.1/DTD/svg11.dtd">
<svg xmlns:xlink="http://www.w3.org/1999/xlink" width="746.87pt" height="475.088906pt" viewBox="0 0 746.87 475.088906" xmlns="http://www.w3.org/2000/svg" version="1.1">
 <metadata>
  <rdf:RDF xmlns:dc="http://purl.org/dc/elements/1.1/" xmlns:cc="http://creativecommons.org/ns#" xmlns:rdf="http://www.w3.org/1999/02/22-rdf-syntax-ns#">
   <cc:Work>
    <dc:type rdf:resource="http://purl.org/dc/dcmitype/StillImage"/>
    <dc:date>2026-06-28T06:10:18.738533</dc:date>
    <dc:format>image/svg+xml</dc:format>
    <dc:creator>
     <cc:Agent>
      <dc:title>Matplotlib v3.10.9, https://matplotlib.org/</dc:title>
     </cc:Agent>
    </dc:creator>
   </cc:Work>
  </rdf:RDF>
 </metadata>
 <defs>
  <style type="text/css">*{stroke-linejoin: round; stroke-linecap: butt}</style>
 </defs>
 <g id="figure_1">
  <g id="patch_1">
   <path d="M 0 475.088906 
L 746.87 475.088906 
L 746.87 0 
L 0 0 
z
" style="fill: #ffffff"/>
  </g>
  <g id="axes_1">
   <g id="patch_2">
    <path d="M 90.9475 418.3775 
L 655.9225 418.3775 
L 655.9225 44.1575 
L 90.9475 44.1575 
z
" style="fill: #ffffff"/>
   </g>
   <g id="FillBetweenPolyCollection_1">
    <defs>
     <path id="m36f1877273" d="M 116.628182 -116.470183 
L 116.628182 -92.531566 
L 121.816198 -95.683923 
L 127.004215 -98.835284 
L 132.192231 -101.985613 
L 137.380248 -105.134874 
L 142.568264 -108.28303 
L 147.756281 -111.430041 
L 152.944298 -114.575869 
L 158.132314 -117.720469 
L 163.320331 -120.8638 
L 168.508347 -124.005816 
L 173.696364 -127.14647 
L 178.88438 -130.285714 
L 184.072397 -133.423497 
L 189.260413 -136.559768 
L 194.44843 -139.694472 
L 199.636446 -142.827555 
L 204.824463 -145.958959 
L 210.012479 -149.088624 
L 215.200496 -152.216489 
L 220.388512 -155.342492 
L 225.576529 -158.466568 
L 230.764545 -161.588649 
L 235.952562 -164.708668 
L 241.140579 -167.826555 
L 246.328595 -170.942237 
L 251.516612 -174.055641 
L 256.704628 -177.166692 
L 261.892645 -180.275315 
L 267.080661 -183.381431 
L 272.268678 -186.484963 
L 277.456694 -189.58583 
L 282.644711 -192.683953 
L 287.832727 -195.77925 
L 293.020744 -198.871642 
L 298.20876 -201.961047 
L 303.396777 -205.047386 
L 308.584793 -208.130577 
L 313.77281 -211.210544 
L 318.960826 -214.287208 
L 324.148843 -217.360494 
L 329.33686 -220.430329 
L 334.524876 -223.496641 
L 339.712893 -226.559364 
L 344.900909 -229.618432 
L 350.088926 -232.673785 
L 355.276942 -235.725366 
L 360.464959 -238.773124 
L 365.652975 -241.817011 
L 370.840992 -244.856987 
L 376.029008 -247.893014 
L 381.217025 -250.925063 
L 386.405041 -253.953109 
L 391.593058 -256.977135 
L 396.781074 -259.99713 
L 401.969091 -263.013088 
L 407.157107 -266.025011 
L 412.345124 -269.032909 
L 417.53314 -272.036795 
L 422.721157 -275.03669 
L 427.909174 -278.032623 
L 433.09719 -281.024626 
L 438.285207 -284.01274 
L 443.473223 -286.997007 
L 448.66124 -289.977478 
L 453.849256 -292.954208 
L 459.037273 -295.927255 
L 464.225289 -298.896682 
L 469.413306 -301.862554 
L 474.601322 -304.824943 
L 479.789339 -307.78392 
L 484.977355 -310.739559 
L 490.165372 -313.691937 
L 495.353388 -316.641132 
L 500.541405 -319.587223 
L 505.729421 -322.530291 
L 510.917438 -325.470416 
L 516.105455 -328.407679 
L 521.293471 -331.34216 
L 526.481488 -334.27394 
L 531.669504 -337.203099 
L 536.857521 -340.129715 
L 542.045537 -343.053867 
L 547.233554 -345.975632 
L 552.42157 -348.895084 
L 557.609587 -351.812298 
L 562.797603 -354.727347 
L 567.98562 -357.640301 
L 573.173636 -360.55123 
L 578.361653 -363.460201 
L 583.549669 -366.36728 
L 588.737686 -369.272531 
L 593.925702 -372.176015 
L 599.113719 -375.077793 
L 604.301736 -377.977923 
L 609.489752 -380.876462 
L 614.677769 -383.773463 
L 619.865785 -386.66898 
L 625.053802 -389.563064 
L 630.241818 -392.455765 
L 630.241818 -413.921406 
L 630.241818 -413.921406 
L 625.053802 -410.780011 
L 619.865785 -407.64 
L 614.677769 -404.501422 
L 609.489752 -401.364329 
L 604.301736 -398.228772 
L 599.113719 -395.094807 
L 593.925702 -391.96249 
L 588.737686 -388.831879 
L 583.549669 -385.703034 
L 578.361653 -382.576018 
L 573.173636 -379.450894 
L 567.98562 -376.327728 
L 562.797603 -373.206587 
L 557.609587 -370.08754 
L 552.42157 -366.97066 
L 547.233554 -363.856017 
L 542.045537 -360.743686 
L 536.857521 -357.633743 
L 531.669504 -354.526264 
L 526.481488 -351.421327 
L 521.293471 -348.319012 
L 516.105455 -345.219398 
L 510.917438 -342.122566 
L 505.729421 -339.028595 
L 500.541405 -335.937568 
L 495.353388 -332.849565 
L 490.165372 -329.764664 
L 484.977355 -326.682947 
L 479.789339 -323.604491 
L 474.601322 -320.529373 
L 469.413306 -317.457666 
L 464.225289 -314.389444 
L 459.037273 -311.324775 
L 453.849256 -308.263727 
L 448.66124 -305.206362 
L 443.473223 -302.152738 
L 438.285207 -299.10291 
L 433.09719 -296.056928 
L 427.909174 -293.014836 
L 422.721157 -289.976674 
L 417.53314 -286.942474 
L 412.345124 -283.912265 
L 407.157107 -280.886067 
L 401.969091 -277.863896 
L 396.781074 -274.845759 
L 391.593058 -271.831658 
L 386.405041 -268.821589 
L 381.217025 -265.81554 
L 376.029008 -262.813494 
L 370.840992 -259.815426 
L 365.652975 -256.821306 
L 360.464959 -253.831098 
L 355.276942 -250.844761 
L 350.088926 -247.862247 
L 344.900909 -244.883505 
L 339.712893 -241.908478 
L 334.524876 -238.937105 
L 329.33686 -235.969322 
L 324.148843 -233.005062 
L 318.960826 -230.044253 
L 313.77281 -227.086821 
L 308.584793 -224.132693 
L 303.396777 -221.181789 
L 298.20876 -218.234033 
L 293.020744 -215.289343 
L 287.832727 -212.347639 
L 282.644711 -209.408842 
L 277.456694 -206.472869 
L 272.268678 -203.539641 
L 267.080661 -200.609077 
L 261.892645 -197.681099 
L 256.704628 -194.755626 
L 251.516612 -191.832582 
L 246.328595 -188.911892 
L 241.140579 -185.993478 
L 235.952562 -183.07727 
L 230.764545 -180.163194 
L 225.576529 -177.25118 
L 220.388512 -174.34116 
L 215.200496 -171.433068 
L 210.012479 -168.526838 
L 204.824463 -165.622408 
L 199.636446 -162.719717 
L 194.44843 -159.818704 
L 189.260413 -156.919314 
L 184.072397 -154.021489 
L 178.88438 -151.125177 
L 173.696364 -148.230326 
L 168.508347 -145.336885 
L 163.320331 -142.444805 
L 158.132314 -139.554041 
L 152.944298 -136.664547 
L 147.756281 -133.776279 
L 142.568264 -130.889195 
L 137.380248 -128.003256 
L 132.192231 -125.118422 
L 127.004215 -122.234655 
L 121.816198 -119.351921 
L 116.628182 -116.470183 
z
" style="stroke: #264653; stroke-opacity: 0.18"/>
    </defs>
    <g clip-path="url(#p6d4f6eeb4c)">
     <use xlink:href="#m36f1877273" x="0" y="475.088906" style="fill: #264653; fill-opacity: 0.18; stroke: #264653; stroke-opacity: 0.18"/>
    </g>
   </g>
   <g id="FillBetweenPolyCollection_2">
    <defs>
     <path id="m87dbef5532" d="M 116.628182 -95.919192 
L 116.628182 -73.721406 
L 121.816198 -76.872128 
L 127.004215 -80.021732 
L 132.192231 -83.170177 
L 137.380248 -86.317419 
L 142.568264 -89.463415 
L 147.756281 -92.608117 
L 152.944298 -95.751477 
L 158.132314 -98.893443 
L 163.320331 -102.033964 
L 168.508347 -105.172985 
L 173.696364 -108.310449 
L 178.88438 -111.446298 
L 184.072397 -114.58047 
L 189.260413 -117.712903 
L 194.44843 -120.843532 
L 199.636446 -123.972289 
L 204.824463 -127.099104 
L 210.012479 -130.223906 
L 215.200496 -133.34662 
L 220.388512 -136.467171 
L 225.576529 -139.585481 
L 230.764545 -142.701468 
L 235.952562 -145.815052 
L 241.140579 -148.926148 
L 246.328595 -152.034671 
L 251.516612 -155.140534 
L 256.704628 -158.243649 
L 261.892645 -161.343926 
L 267.080661 -164.441275 
L 272.268678 -167.535607 
L 277.456694 -170.62683 
L 282.644711 -173.714854 
L 287.832727 -176.799589 
L 293.020744 -179.880946 
L 298.20876 -182.958839 
L 303.396777 -186.033181 
L 308.584793 -189.10389 
L 313.77281 -192.170885 
L 318.960826 -195.234089 
L 324.148843 -198.29343 
L 329.33686 -201.34884 
L 334.524876 -204.400254 
L 339.712893 -207.447616 
L 344.900909 -210.490873 
L 350.088926 -213.529978 
L 355.276942 -216.564894 
L 360.464959 -219.595589 
L 365.652975 -222.622037 
L 370.840992 -225.644221 
L 376.029008 -228.662133 
L 381.217025 -231.67577 
L 386.405041 -234.685139 
L 391.593058 -237.690253 
L 396.781074 -240.691135 
L 401.969091 -243.687814 
L 407.157107 -246.680325 
L 412.345124 -249.668712 
L 417.53314 -252.653024 
L 422.721157 -255.633317 
L 427.909174 -258.609652 
L 433.09719 -261.582096 
L 438.285207 -264.550719 
L 443.473223 -267.515597 
L 448.66124 -270.476809 
L 453.849256 -273.434437 
L 459.037273 -276.388564 
L 464.225289 -279.339279 
L 469.413306 -282.286669 
L 474.601322 -285.230823 
L 479.789339 -288.171832 
L 484.977355 -291.109787 
L 490.165372 -294.044777 
L 495.353388 -296.976894 
L 500.541405 -299.906226 
L 505.729421 -302.832863 
L 510.917438 -305.756892 
L 516.105455 -308.678399 
L 521.293471 -311.597468 
L 526.481488 -314.514182 
L 531.669504 -317.428623 
L 536.857521 -320.340869 
L 542.045537 -323.250997 
L 547.233554 -326.159082 
L 552.42157 -329.065196 
L 557.609587 -331.969411 
L 562.797603 -334.871795 
L 567.98562 -337.772413 
L 573.173636 -340.671329 
L 578.361653 -343.568606 
L 583.549669 -346.464303 
L 588.737686 -349.358477 
L 593.925702 -352.251183 
L 599.113719 -355.142476 
L 604.301736 -358.032406 
L 609.489752 -360.921022 
L 614.677769 -363.808373 
L 619.865785 -366.694504 
L 625.053802 -369.579458 
L 630.241818 -372.463279 
L 630.241818 -394.552741 
L 630.241818 -394.552741 
L 625.053802 -391.402466 
L 619.865785 -388.253326 
L 614.677769 -385.105361 
L 609.489752 -381.958617 
L 604.301736 -378.813138 
L 599.113719 -375.668973 
L 593.925702 -372.52617 
L 588.737686 -369.384782 
L 583.549669 -366.24486 
L 578.361653 -363.106462 
L 573.173636 -359.969644 
L 567.98562 -356.834465 
L 562.797603 -353.700988 
L 557.609587 -350.569276 
L 552.42157 -347.439396 
L 547.233554 -344.311415 
L 542.045537 -341.185405 
L 536.857521 -338.061438 
L 531.669504 -334.939589 
L 526.481488 -331.819934 
L 521.293471 -328.702553 
L 516.105455 -325.587527 
L 510.917438 -322.474939 
L 505.729421 -319.364872 
L 500.541405 -316.257414 
L 495.353388 -313.152652 
L 490.165372 -310.050673 
L 484.977355 -306.951568 
L 479.789339 -303.855428 
L 474.601322 -300.762342 
L 469.413306 -297.672401 
L 464.225289 -294.585695 
L 459.037273 -291.502315 
L 453.849256 -288.422347 
L 448.66124 -285.34588 
L 443.473223 -282.272996 
L 438.285207 -279.203779 
L 433.09719 -276.138307 
L 427.909174 -273.076656 
L 422.721157 -270.018896 
L 417.53314 -266.965094 
L 412.345124 -263.915311 
L 407.157107 -260.869602 
L 401.969091 -257.828018 
L 396.781074 -254.790602 
L 391.593058 -251.757389 
L 386.405041 -248.728408 
L 381.217025 -245.703682 
L 376.029008 -242.683224 
L 370.840992 -239.66704 
L 365.652975 -236.655129 
L 360.464959 -233.647482 
L 355.276942 -230.644081 
L 350.088926 -227.644902 
L 344.900909 -224.649913 
L 339.712893 -221.659074 
L 334.524876 -218.672341 
L 329.33686 -215.68966 
L 324.148843 -212.710974 
L 318.960826 -209.73622 
L 313.77281 -206.76533 
L 308.584793 -203.798229 
L 303.396777 -200.834843 
L 298.20876 -197.87509 
L 293.020744 -194.918887 
L 287.832727 -191.96615 
L 282.644711 -189.01679 
L 277.456694 -186.070718 
L 272.268678 -183.127846 
L 267.080661 -180.188083 
L 261.892645 -177.251337 
L 256.704628 -174.317519 
L 251.516612 -171.386538 
L 246.328595 -168.458306 
L 241.140579 -165.532734 
L 235.952562 -162.609735 
L 230.764545 -159.689223 
L 225.576529 -156.771116 
L 220.388512 -153.85533 
L 215.200496 -150.941786 
L 210.012479 -148.030405 
L 204.824463 -145.121112 
L 199.636446 -142.213832 
L 194.44843 -139.308493 
L 189.260413 -136.405027 
L 184.072397 -133.503365 
L 178.88438 -130.603442 
L 173.696364 -127.705196 
L 168.508347 -124.808564 
L 163.320331 -121.91349 
L 158.132314 -119.019916 
L 152.944298 -116.127787 
L 147.756281 -113.237051 
L 142.568264 -110.347658 
L 137.380248 -107.459559 
L 132.192231 -104.572707 
L 127.004215 -101.687057 
L 121.816198 -98.802565 
L 116.628182 -95.919192 
z
" style="stroke: #e76f51; stroke-opacity: 0.18"/>
    </defs>
    <g clip-path="url(#p6d4f6eeb4c)">
     <use xlink:href="#m87dbef5532" x="0" y="475.088906" style="fill: #e76f51; fill-opacity: 0.18; stroke: #e76f51; stroke-opacity: 0.18"/>
    </g>
   </g>
   <g id="matplotlib.axis_1">
    <g id="xtick_1">
     <g id="line2d_1">
      <path d="M 116.628182 418.3775 
L 116.628182 44.1575 
" clip-path="url(#p6d4f6eeb4c)" style="fill: none; stroke: #dddddd; stroke-width: 0.7; stroke-linecap: square"/>
     </g>
     <g id="line2d_2">
      <defs>
       <path id="m88dd3cfe65" d="M 0 0 
L 0 3.5 
" style="stroke: #333333; stroke-width: 0.8"/>
      </defs>
      <g>
       <use xlink:href="#m88dd3cfe65" x="116.628182" y="418.3775" style="fill: #333333; stroke: #333333; stroke-width: 0.8"/>
      </g>
     </g>
     <g id="text_1">
      <!-- 20 -->
      <g style="fill: #333333" transform="translate(109.311307 434.115703) scale(0.115 -0.115)">
       <defs>
        <path id="DejaVuSans-32" d="M 1228 531 
L 3431 531 
L 3431 0 
L 469 0 
L 469 531 
Q 828 903 1448 1529 
Q 2069 2156 2228 2338 
Q 2531 2678 2651 2914 
Q 2772 3150 2772 3378 
Q 2772 3750 2511 3984 
Q 2250 4219 1831 4219 
Q 1534 4219 1204 4116 
Q 875 4013 500 3803 
L 500 4441 
Q 881 4594 1212 4672 
Q 1544 4750 1819 4750 
Q 2544 4750 2975 4387 
Q 3406 4025 3406 3419 
Q 3406 3131 3298 2873 
Q 3191 2616 2906 2266 
Q 2828 2175 2409 1742 
Q 1991 1309 1228 531 
z
" transform="scale(0.015625)"/>
        <path id="DejaVuSans-30" d="M 2034 4250 
Q 1547 4250 1301 3770 
Q 1056 3291 1056 2328 
Q 1056 1369 1301 889 
Q 1547 409 2034 409 
Q 2525 409 2770 889 
Q 3016 1369 3016 2328 
Q 3016 3291 2770 3770 
Q 2525 4250 2034 4250 
z
M 2034 4750 
Q 2819 4750 3233 4129 
Q 3647 3509 3647 2328 
Q 3647 1150 3233 529 
Q 2819 -91 2034 -91 
Q 1250 -91 836 529 
Q 422 1150 422 2328 
Q 422 3509 836 4129 
Q 1250 4750 2034 4750 
z
" transform="scale(0.015625)"/>
       </defs>
       <use xlink:href="#DejaVuSans-32"/>
       <use xlink:href="#DejaVuSans-30" transform="translate(63.623047 0)"/>
      </g>
     </g>
    </g>
    <g id="xtick_2">
     <g id="line2d_3">
      <path d="M 202.230455 418.3775 
L 202.230455 44.1575 
" clip-path="url(#p6d4f6eeb4c)" style="fill: none; stroke: #dddddd; stroke-width: 0.7; stroke-linecap: square"/>
     </g>
     <g id="line2d_4">
      <g>
       <use xlink:href="#m88dd3cfe65" x="202.230455" y="418.3775" style="fill: #333333; stroke: #333333; stroke-width: 0.8"/>
      </g>
     </g>
     <g id="text_2">
      <!-- 30 -->
      <g style="fill: #333333" transform="translate(194.91358 434.115703) scale(0.115 -0.115)">
       <defs>
        <path id="DejaVuSans-33" d="M 2597 2516 
Q 3050 2419 3304 2112 
Q 3559 1806 3559 1356 
Q 3559 666 3084 287 
Q 2609 -91 1734 -91 
Q 1441 -91 1130 -33 
Q 819 25 488 141 
L 488 750 
Q 750 597 1062 519 
Q 1375 441 1716 441 
Q 2309 441 2620 675 
Q 2931 909 2931 1356 
Q 2931 1769 2642 2001 
Q 2353 2234 1838 2234 
L 1294 2234 
L 1294 2753 
L 1863 2753 
Q 2328 2753 2575 2939 
Q 2822 3125 2822 3475 
Q 2822 3834 2567 4026 
Q 2313 4219 1838 4219 
Q 1578 4219 1281 4162 
Q 984 4106 628 3988 
L 628 4550 
Q 988 4650 1302 4700 
Q 1616 4750 1894 4750 
Q 2613 4750 3031 4423 
Q 3450 4097 3450 3541 
Q 3450 3153 3228 2886 
Q 3006 2619 2597 2516 
z
" transform="scale(0.015625)"/>
       </defs>
       <use xlink:href="#DejaVuSans-33"/>
       <use xlink:href="#DejaVuSans-30" transform="translate(63.623047 0)"/>
      </g>
     </g>
    </g>
    <g id="xtick_3">
     <g id="line2d_5">
      <path d="M 287.832727 418.3775 
L 287.832727 44.1575 
" clip-path="url(#p6d4f6eeb4c)" style="fill: none; stroke: #dddddd; stroke-width: 0.7; stroke-linecap: square"/>
     </g>
     <g id="line2d_6">
      <g>
       <use xlink:href="#m88dd3cfe65" x="287.832727" y="418.3775" style="fill: #333333; stroke: #333333; stroke-width: 0.8"/>
      </g>
     </g>
     <g id="text_3">
      <!-- 40 -->
      <g style="fill: #333333" transform="translate(280.515852 434.115703) scale(0.115 -0.115)">
       <defs>
        <path id="DejaVuSans-34" d="M 2419 4116 
L 825 1625 
L 2419 1625 
L 2419 4116 
z
M 2253 4666 
L 3047 4666 
L 3047 1625 
L 3713 1625 
L 3713 1100 
L 3047 1100 
L 3047 0 
L 2419 0 
L 2419 1100 
L 313 1100 
L 313 1709 
L 2253 4666 
z
" transform="scale(0.015625)"/>
       </defs>
       <use xlink:href="#DejaVuSans-34"/>
       <use xlink:href="#DejaVuSans-30" transform="translate(63.623047 0)"/>
      </g>
     </g>
    </g>
    <g id="xtick_4">
     <g id="line2d_7">
      <path d="M 373.435 418.3775 
L 373.435 44.1575 
" clip-path="url(#p6d4f6eeb4c)" style="fill: none; stroke: #dddddd; stroke-width: 0.7; stroke-linecap: square"/>
     </g>
     <g id="line2d_8">
      <g>
       <use xlink:href="#m88dd3cfe65" x="373.435" y="418.3775" style="fill: #333333; stroke: #333333; stroke-width: 0.8"/>
      </g>
     </g>
     <g id="text_4">
      <!-- 50 -->
      <g style="fill: #333333" transform="translate(366.118125 434.115703) scale(0.115 -0.115)">
       <defs>
        <path id="DejaVuSans-35" d="M 691 4666 
L 3169 4666 
L 3169 4134 
L 1269 4134 
L 1269 2991 
Q 1406 3038 1543 3061 
Q 1681 3084 1819 3084 
Q 2600 3084 3056 2656 
Q 3513 2228 3513 1497 
Q 3513 744 3044 326 
Q 2575 -91 1722 -91 
Q 1428 -91 1123 -41 
Q 819 9 494 109 
L 494 744 
Q 775 591 1075 516 
Q 1375 441 1709 441 
Q 2250 441 2565 725 
Q 2881 1009 2881 1497 
Q 2881 1984 2565 2268 
Q 2250 2553 1709 2553 
Q 1456 2553 1204 2497 
Q 953 2441 691 2322 
L 691 4666 
z
" transform="scale(0.015625)"/>
       </defs>
       <use xlink:href="#DejaVuSans-35"/>
       <use xlink:href="#DejaVuSans-30" transform="translate(63.623047 0)"/>
      </g>
     </g>
    </g>
    <g id="xtick_5">
     <g id="line2d_9">
      <path d="M 459.037273 418.3775 
L 459.037273 44.1575 
" clip-path="url(#p6d4f6eeb4c)" style="fill: none; stroke: #dddddd; stroke-width: 0.7; stroke-linecap: square"/>
     </g>
     <g id="line2d_10">
      <g>
       <use xlink:href="#m88dd3cfe65" x="459.037273" y="418.3775" style="fill: #333333; stroke: #333333; stroke-width: 0.8"/>
      </g>
     </g>
     <g id="text_5">
      <!-- 60 -->
      <g style="fill: #333333" transform="translate(451.720398 434.115703) scale(0.115 -0.115)">
       <defs>
        <path id="DejaVuSans-36" d="M 2113 2584 
Q 1688 2584 1439 2293 
Q 1191 2003 1191 1497 
Q 1191 994 1439 701 
Q 1688 409 2113 409 
Q 2538 409 2786 701 
Q 3034 994 3034 1497 
Q 3034 2003 2786 2293 
Q 2538 2584 2113 2584 
z
M 3366 4563 
L 3366 3988 
Q 3128 4100 2886 4159 
Q 2644 4219 2406 4219 
Q 1781 4219 1451 3797 
Q 1122 3375 1075 2522 
Q 1259 2794 1537 2939 
Q 1816 3084 2150 3084 
Q 2853 3084 3261 2657 
Q 3669 2231 3669 1497 
Q 3669 778 3244 343 
Q 2819 -91 2113 -91 
Q 1303 -91 875 529 
Q 447 1150 447 2328 
Q 447 3434 972 4092 
Q 1497 4750 2381 4750 
Q 2619 4750 2861 4703 
Q 3103 4656 3366 4563 
z
" transform="scale(0.015625)"/>
       </defs>
       <use xlink:href="#DejaVuSans-36"/>
       <use xlink:href="#DejaVuSans-30" transform="translate(63.623047 0)"/>
      </g>
     </g>
    </g>
    <g id="xtick_6">
     <g id="line2d_11">
      <path d="M 544.639545 418.3775 
L 544.639545 44.1575 
" clip-path="url(#p6d4f6eeb4c)" style="fill: none; stroke: #dddddd; stroke-width: 0.7; stroke-linecap: square"/>
     </g>
     <g id="line2d_12">
      <g>
       <use xlink:href="#m88dd3cfe65" x="544.639545" y="418.3775" style="fill: #333333; stroke: #333333; stroke-width: 0.8"/>
      </g>
     </g>
     <g id="text_6">
      <!-- 70 -->
      <g style="fill: #333333" transform="translate(537.32267 434.115703) scale(0.115 -0.115)">
       <defs>
        <path id="DejaVuSans-37" d="M 525 4666 
L 3525 4666 
L 3525 4397 
L 1831 0 
L 1172 0 
L 2766 4134 
L 525 4134 
L 525 4666 
z
" transform="scale(0.015625)"/>
       </defs>
       <use xlink:href="#DejaVuSans-37"/>
       <use xlink:href="#DejaVuSans-30" transform="translate(63.623047 0)"/>
      </g>
     </g>
    </g>
    <g id="xtick_7">
     <g id="line2d_13">
      <path d="M 630.241818 418.3775 
L 630.241818 44.1575 
" clip-path="url(#p6d4f6eeb4c)" style="fill: none; stroke: #dddddd; stroke-width: 0.7; stroke-linecap: square"/>
     </g>
     <g id="line2d_14">
      <g>
       <use xlink:href="#m88dd3cfe65" x="630.241818" y="418.3775" style="fill: #333333; stroke: #333333; stroke-width: 0.8"/>
      </g>
     </g>
     <g id="text_7">
      <!-- 80 -->
      <g style="fill: #333333" transform="translate(622.924943 434.115703) scale(0.115 -0.115)">
       <defs>
        <path id="DejaVuSans-38" d="M 2034 2216 
Q 1584 2216 1326 1975 
Q 1069 1734 1069 1313 
Q 1069 891 1326 650 
Q 1584 409 2034 409 
Q 2484 409 2743 651 
Q 3003 894 3003 1313 
Q 3003 1734 2745 1975 
Q 2488 2216 2034 2216 
z
M 1403 2484 
Q 997 2584 770 2862 
Q 544 3141 544 3541 
Q 544 4100 942 4425 
Q 1341 4750 2034 4750 
Q 2731 4750 3128 4425 
Q 3525 4100 3525 3541 
Q 3525 3141 3298 2862 
Q 3072 2584 2669 2484 
Q 3125 2378 3379 2068 
Q 3634 1759 3634 1313 
Q 3634 634 3220 271 
Q 2806 -91 2034 -91 
Q 1263 -91 848 271 
Q 434 634 434 1313 
Q 434 1759 690 2068 
Q 947 2378 1403 2484 
z
M 1172 3481 
Q 1172 3119 1398 2916 
Q 1625 2713 2034 2713 
Q 2441 2713 2670 2916 
Q 2900 3119 2900 3481 
Q 2900 3844 2670 4047 
Q 2441 4250 2034 4250 
Q 1625 4250 1398 4047 
Q 1172 3844 1172 3481 
z
" transform="scale(0.015625)"/>
       </defs>
       <use xlink:href="#DejaVuSans-38"/>
       <use xlink:href="#DejaVuSans-30" transform="translate(63.623047 0)"/>
      </g>
     </g>
    </g>
    <g id="text_8">
     <!-- Age (years) -->
     <g transform="translate(335.836563 454.385312) scale(0.13 -0.13)">
      <defs>
       <path id="DejaVuSans-41" d="M 2188 4044 
L 1331 1722 
L 3047 1722 
L 2188 4044 
z
M 1831 4666 
L 2547 4666 
L 4325 0 
L 3669 0 
L 3244 1197 
L 1141 1197 
L 716 0 
L 50 0 
L 1831 4666 
z
" transform="scale(0.015625)"/>
       <path id="DejaVuSans-67" d="M 2906 1791 
Q 2906 2416 2648 2759 
Q 2391 3103 1925 3103 
Q 1463 3103 1205 2759 
Q 947 2416 947 1791 
Q 947 1169 1205 825 
Q 1463 481 1925 481 
Q 2391 481 2648 825 
Q 2906 1169 2906 1791 
z
M 3481 434 
Q 3481 -459 3084 -895 
Q 2688 -1331 1869 -1331 
Q 1566 -1331 1297 -1286 
Q 1028 -1241 775 -1147 
L 775 -588 
Q 1028 -725 1275 -790 
Q 1522 -856 1778 -856 
Q 2344 -856 2625 -561 
Q 2906 -266 2906 331 
L 2906 616 
Q 2728 306 2450 153 
Q 2172 0 1784 0 
Q 1141 0 747 490 
Q 353 981 353 1791 
Q 353 2603 747 3093 
Q 1141 3584 1784 3584 
Q 2172 3584 2450 3431 
Q 2728 3278 2906 2969 
L 2906 3500 
L 3481 3500 
L 3481 434 
z
" transform="scale(0.015625)"/>
       <path id="DejaVuSans-65" d="M 3597 1894 
L 3597 1613 
L 953 1613 
Q 991 1019 1311 708 
Q 1631 397 2203 397 
Q 2534 397 2845 478 
Q 3156 559 3463 722 
L 3463 178 
Q 3153 47 2828 -22 
Q 2503 -91 2169 -91 
Q 1331 -91 842 396 
Q 353 884 353 1716 
Q 353 2575 817 3079 
Q 1281 3584 2069 3584 
Q 2775 3584 3186 3129 
Q 3597 2675 3597 1894 
z
M 3022 2063 
Q 3016 2534 2758 2815 
Q 2500 3097 2075 3097 
Q 1594 3097 1305 2825 
Q 1016 2553 972 2059 
L 3022 2063 
z
" transform="scale(0.015625)"/>
       <path id="DejaVuSans-20" transform="scale(0.015625)"/>
       <path id="DejaVuSans-28" d="M 1984 4856 
Q 1566 4138 1362 3434 
Q 1159 2731 1159 2009 
Q 1159 1288 1364 580 
Q 1569 -128 1984 -844 
L 1484 -844 
Q 1016 -109 783 600 
Q 550 1309 550 2009 
Q 550 2706 781 3412 
Q 1013 4119 1484 4856 
L 1984 4856 
z
" transform="scale(0.015625)"/>
       <path id="DejaVuSans-79" d="M 2059 -325 
Q 1816 -950 1584 -1140 
Q 1353 -1331 966 -1331 
L 506 -1331 
L 506 -850 
L 844 -850 
Q 1081 -850 1212 -737 
Q 1344 -625 1503 -206 
L 1606 56 
L 191 3500 
L 800 3500 
L 1894 763 
L 2988 3500 
L 3597 3500 
L 2059 -325 
z
" transform="scale(0.015625)"/>
       <path id="DejaVuSans-61" d="M 2194 1759 
Q 1497 1759 1228 1600 
Q 959 1441 959 1056 
Q 959 750 1161 570 
Q 1363 391 1709 391 
Q 2188 391 2477 730 
Q 2766 1069 2766 1631 
L 2766 1759 
L 2194 1759 
z
M 3341 1997 
L 3341 0 
L 2766 0 
L 2766 531 
Q 2569 213 2275 61 
Q 1981 -91 1556 -91 
Q 1019 -91 701 211 
Q 384 513 384 1019 
Q 384 1609 779 1909 
Q 1175 2209 1959 2209 
L 2766 2209 
L 2766 2266 
Q 2766 2663 2505 2880 
Q 2244 3097 1772 3097 
Q 1472 3097 1187 3025 
Q 903 2953 641 2809 
L 641 3341 
Q 956 3463 1253 3523 
Q 1550 3584 1831 3584 
Q 2591 3584 2966 3190 
Q 3341 2797 3341 1997 
z
" transform="scale(0.015625)"/>
       <path id="DejaVuSans-72" d="M 2631 2963 
Q 2534 3019 2420 3045 
Q 2306 3072 2169 3072 
Q 1681 3072 1420 2755 
Q 1159 2438 1159 1844 
L 1159 0 
L 581 0 
L 581 3500 
L 1159 3500 
L 1159 2956 
Q 1341 3275 1631 3429 
Q 1922 3584 2338 3584 
Q 2397 3584 2469 3576 
Q 2541 3569 2628 3553 
L 2631 2963 
z
" transform="scale(0.015625)"/>
       <path id="DejaVuSans-73" d="M 2834 3397 
L 2834 2853 
Q 2591 2978 2328 3040 
Q 2066 3103 1784 3103 
Q 1356 3103 1142 2972 
Q 928 2841 928 2578 
Q 928 2378 1081 2264 
Q 1234 2150 1697 2047 
L 1894 2003 
Q 2506 1872 2764 1633 
Q 3022 1394 3022 966 
Q 3022 478 2636 193 
Q 2250 -91 1575 -91 
Q 1294 -91 989 -36 
Q 684 19 347 128 
L 347 722 
Q 666 556 975 473 
Q 1284 391 1588 391 
Q 1994 391 2212 530 
Q 2431 669 2431 922 
Q 2431 1156 2273 1281 
Q 2116 1406 1581 1522 
L 1381 1569 
Q 847 1681 609 1914 
Q 372 2147 372 2553 
Q 372 3047 722 3315 
Q 1072 3584 1716 3584 
Q 2034 3584 2315 3537 
Q 2597 3491 2834 3397 
z
" transform="scale(0.015625)"/>
       <path id="DejaVuSans-29" d="M 513 4856 
L 1013 4856 
Q 1481 4119 1714 3412 
Q 1947 2706 1947 2009 
Q 1947 1309 1714 600 
Q 1481 -109 1013 -844 
L 513 -844 
Q 928 -128 1133 580 
Q 1338 1288 1338 2009 
Q 1338 2731 1133 3434 
Q 928 4138 513 4856 
z
" transform="scale(0.015625)"/>
      </defs>
      <use xlink:href="#DejaVuSans-41"/>
      <use xlink:href="#DejaVuSans-67" transform="translate(68.408203 0)"/>
      <use xlink:href="#DejaVuSans-65" transform="translate(131.884766 0)"/>
      <use xlink:href="#DejaVuSans-20" transform="translate(193.408203 0)"/>
      <use xlink:href="#DejaVuSans-28" transform="translate(225.195312 0)"/>
      <use xlink:href="#DejaVuSans-79" transform="translate(264.208984 0)"/>
      <use xlink:href="#DejaVuSans-65" transform="translate(323.388672 0)"/>
      <use xlink:href="#DejaVuSans-61" transform="translate(384.912109 0)"/>
      <use xlink:href="#DejaVuSans-72" transform="translate(446.191406 0)"/>
      <use xlink:href="#DejaVuSans-73" transform="translate(487.304688 0)"/>
      <use xlink:href="#DejaVuSans-29" transform="translate(539.404297 0)"/>
     </g>
    </g>
   </g>
   <g id="matplotlib.axis_2">
    <g id="ytick_1">
     <g id="line2d_15">
      <path d="M 90.9475 382.43331 
L 655.9225 382.43331 
" clip-path="url(#p6d4f6eeb4c)" style="fill: none; stroke: #dddddd; stroke-width: 0.7; stroke-linecap: square"/>
     </g>
     <g id="line2d_16">
      <defs>
       <path id="m5d776f5811" d="M 0 0 
L -3.5 0 
" style="stroke: #333333; stroke-width: 0.8"/>
      </defs>
      <g>
       <use xlink:href="#m5d776f5811" x="90.9475" y="382.43331" style="fill: #333333; stroke: #333333; stroke-width: 0.8"/>
      </g>
     </g>
     <g id="text_9">
      <!-- 110 -->
      <g style="fill: #333333" transform="translate(61.996875 386.802412) scale(0.115 -0.115)">
       <defs>
        <path id="DejaVuSans-31" d="M 794 531 
L 1825 531 
L 1825 4091 
L 703 3866 
L 703 4441 
L 1819 4666 
L 2450 4666 
L 2450 531 
L 3481 531 
L 3481 0 
L 794 0 
L 794 531 
z
" transform="scale(0.015625)"/>
       </defs>
       <use xlink:href="#DejaVuSans-31"/>
       <use xlink:href="#DejaVuSans-31" transform="translate(63.623047 0)"/>
       <use xlink:href="#DejaVuSans-30" transform="translate(127.246094 0)"/>
      </g>
     </g>
    </g>
    <g id="ytick_2">
     <g id="line2d_17">
      <path d="M 90.9475 333.901567 
L 655.9225 333.901567 
" clip-path="url(#p6d4f6eeb4c)" style="fill: none; stroke: #dddddd; stroke-width: 0.7; stroke-linecap: square"/>
     </g>
     <g id="line2d_18">
      <g>
       <use xlink:href="#m5d776f5811" x="90.9475" y="333.901567" style="fill: #333333; stroke: #333333; stroke-width: 0.8"/>
      </g>
     </g>
     <g id="text_10">
      <!-- 115 -->
      <g style="fill: #333333" transform="translate(61.996875 338.270669) scale(0.115 -0.115)">
       <use xlink:href="#DejaVuSans-31"/>
       <use xlink:href="#DejaVuSans-31" transform="translate(63.623047 0)"/>
       <use xlink:href="#DejaVuSans-35" transform="translate(127.246094 0)"/>
      </g>
     </g>
    </g>
    <g id="ytick_3">
     <g id="line2d_19">
      <path d="M 90.9475 285.369824 
L 655.9225 285.369824 
" clip-path="url(#p6d4f6eeb4c)" style="fill: none; stroke: #dddddd; stroke-width: 0.7; stroke-linecap: square"/>
     </g>
     <g id="line2d_20">
      <g>
       <use xlink:href="#m5d776f5811" x="90.9475" y="285.369824" style="fill: #333333; stroke: #333333; stroke-width: 0.8"/>
      </g>
     </g>
     <g id="text_11">
      <!-- 120 -->
      <g style="fill: #333333" transform="translate(61.996875 289.738926) scale(0.115 -0.115)">
       <use xlink:href="#DejaVuSans-31"/>
       <use xlink:href="#DejaVuSans-32" transform="translate(63.623047 0)"/>
       <use xlink:href="#DejaVuSans-30" transform="translate(127.246094 0)"/>
      </g>
     </g>
    </g>
    <g id="ytick_4">
     <g id="line2d_21">
      <path d="M 90.9475 236.838081 
L 655.9225 236.838081 
" clip-path="url(#p6d4f6eeb4c)" style="fill: none; stroke: #dddddd; stroke-width: 0.7; stroke-linecap: square"/>
     </g>
     <g id="line2d_22">
      <g>
       <use xlink:href="#m5d776f5811" x="90.9475" y="236.838081" style="fill: #333333; stroke: #333333; stroke-width: 0.8"/>
      </g>
     </g>
     <g id="text_12">
      <!-- 125 -->
      <g style="fill: #333333" transform="translate(61.996875 241.207182) scale(0.115 -0.115)">
       <use xlink:href="#DejaVuSans-31"/>
       <use xlink:href="#DejaVuSans-32" transform="translate(63.623047 0)"/>
       <use xlink:href="#DejaVuSans-35" transform="translate(127.246094 0)"/>
      </g>
     </g>
    </g>
    <g id="ytick_5">
     <g id="line2d_23">
      <path d="M 90.9475 188.306338 
L 655.9225 188.306338 
" clip-path="url(#p6d4f6eeb4c)" style="fill: none; stroke: #dddddd; stroke-width: 0.7; stroke-linecap: square"/>
     </g>
     <g id="line2d_24">
      <g>
       <use xlink:href="#m5d776f5811" x="90.9475" y="188.306338" style="fill: #333333; stroke: #333333; stroke-width: 0.8"/>
      </g>
     </g>
     <g id="text_13">
      <!-- 130 -->
      <g style="fill: #333333" transform="translate(61.996875 192.675439) scale(0.115 -0.115)">
       <use xlink:href="#DejaVuSans-31"/>
       <use xlink:href="#DejaVuSans-33" transform="translate(63.623047 0)"/>
       <use xlink:href="#DejaVuSans-30" transform="translate(127.246094 0)"/>
      </g>
     </g>
    </g>
    <g id="ytick_6">
     <g id="line2d_25">
      <path d="M 90.9475 139.774594 
L 655.9225 139.774594 
" clip-path="url(#p6d4f6eeb4c)" style="fill: none; stroke: #dddddd; stroke-width: 0.7; stroke-linecap: square"/>
     </g>
     <g id="line2d_26">
      <g>
       <use xlink:href="#m5d776f5811" x="90.9475" y="139.774594" style="fill: #333333; stroke: #333333; stroke-width: 0.8"/>
      </g>
     </g>
     <g id="text_14">
      <!-- 135 -->
      <g style="fill: #333333" transform="translate(61.996875 144.143696) scale(0.115 -0.115)">
       <use xlink:href="#DejaVuSans-31"/>
       <use xlink:href="#DejaVuSans-33" transform="translate(63.623047 0)"/>
       <use xlink:href="#DejaVuSans-35" transform="translate(127.246094 0)"/>
      </g>
     </g>
    </g>
    <g id="ytick_7">
     <g id="line2d_27">
      <path d="M 90.9475 91.242851 
L 655.9225 91.242851 
" clip-path="url(#p6d4f6eeb4c)" style="fill: none; stroke: #dddddd; stroke-width: 0.7; stroke-linecap: square"/>
     </g>
     <g id="line2d_28">
      <g>
       <use xlink:href="#m5d776f5811" x="90.9475" y="91.242851" style="fill: #333333; stroke: #333333; stroke-width: 0.8"/>
      </g>
     </g>
     <g id="text_15">
      <!-- 140 -->
      <g style="fill: #333333" transform="translate(61.996875 95.611953) scale(0.115 -0.115)">
       <use xlink:href="#DejaVuSans-31"/>
       <use xlink:href="#DejaVuSans-34" transform="translate(63.623047 0)"/>
       <use xlink:href="#DejaVuSans-30" transform="translate(127.246094 0)"/>
      </g>
     </g>
    </g>
    <g id="text_16">
     <!-- Predicted systolic BP (mmHg) -->
     <g transform="translate(51.293281 327.435) rotate(-90) scale(0.13 -0.13)">
      <defs>
       <path id="DejaVuSans-50" d="M 1259 4147 
L 1259 2394 
L 2053 2394 
Q 2494 2394 2734 2622 
Q 2975 2850 2975 3272 
Q 2975 3691 2734 3919 
Q 2494 4147 2053 4147 
L 1259 4147 
z
M 628 4666 
L 2053 4666 
Q 2838 4666 3239 4311 
Q 3641 3956 3641 3272 
Q 3641 2581 3239 2228 
Q 2838 1875 2053 1875 
L 1259 1875 
L 1259 0 
L 628 0 
L 628 4666 
z
" transform="scale(0.015625)"/>
       <path id="DejaVuSans-64" d="M 2906 2969 
L 2906 4863 
L 3481 4863 
L 3481 0 
L 2906 0 
L 2906 525 
Q 2725 213 2448 61 
Q 2172 -91 1784 -91 
Q 1150 -91 751 415 
Q 353 922 353 1747 
Q 353 2572 751 3078 
Q 1150 3584 1784 3584 
Q 2172 3584 2448 3432 
Q 2725 3281 2906 2969 
z
M 947 1747 
Q 947 1113 1208 752 
Q 1469 391 1925 391 
Q 2381 391 2643 752 
Q 2906 1113 2906 1747 
Q 2906 2381 2643 2742 
Q 2381 3103 1925 3103 
Q 1469 3103 1208 2742 
Q 947 2381 947 1747 
z
" transform="scale(0.015625)"/>
       <path id="DejaVuSans-69" d="M 603 3500 
L 1178 3500 
L 1178 0 
L 603 0 
L 603 3500 
z
M 603 4863 
L 1178 4863 
L 1178 4134 
L 603 4134 
L 603 4863 
z
" transform="scale(0.015625)"/>
       <path id="DejaVuSans-63" d="M 3122 3366 
L 3122 2828 
Q 2878 2963 2633 3030 
Q 2388 3097 2138 3097 
Q 1578 3097 1268 2742 
Q 959 2388 959 1747 
Q 959 1106 1268 751 
Q 1578 397 2138 397 
Q 2388 397 2633 464 
Q 2878 531 3122 666 
L 3122 134 
Q 2881 22 2623 -34 
Q 2366 -91 2075 -91 
Q 1284 -91 818 406 
Q 353 903 353 1747 
Q 353 2603 823 3093 
Q 1294 3584 2113 3584 
Q 2378 3584 2631 3529 
Q 2884 3475 3122 3366 
z
" transform="scale(0.015625)"/>
       <path id="DejaVuSans-74" d="M 1172 4494 
L 1172 3500 
L 2356 3500 
L 2356 3053 
L 1172 3053 
L 1172 1153 
Q 1172 725 1289 603 
Q 1406 481 1766 481 
L 2356 481 
L 2356 0 
L 1766 0 
Q 1100 0 847 248 
Q 594 497 594 1153 
L 594 3053 
L 172 3053 
L 172 3500 
L 594 3500 
L 594 4494 
L 1172 4494 
z
" transform="scale(0.015625)"/>
       <path id="DejaVuSans-6f" d="M 1959 3097 
Q 1497 3097 1228 2736 
Q 959 2375 959 1747 
Q 959 1119 1226 758 
Q 1494 397 1959 397 
Q 2419 397 2687 759 
Q 2956 1122 2956 1747 
Q 2956 2369 2687 2733 
Q 2419 3097 1959 3097 
z
M 1959 3584 
Q 2709 3584 3137 3096 
Q 3566 2609 3566 1747 
Q 3566 888 3137 398 
Q 2709 -91 1959 -91 
Q 1206 -91 779 398 
Q 353 888 353 1747 
Q 353 2609 779 3096 
Q 1206 3584 1959 3584 
z
" transform="scale(0.015625)"/>
       <path id="DejaVuSans-6c" d="M 603 4863 
L 1178 4863 
L 1178 0 
L 603 0 
L 603 4863 
z
" transform="scale(0.015625)"/>
       <path id="DejaVuSans-42" d="M 1259 2228 
L 1259 519 
L 2272 519 
Q 2781 519 3026 730 
Q 3272 941 3272 1375 
Q 3272 1813 3026 2020 
Q 2781 2228 2272 2228 
L 1259 2228 
z
M 1259 4147 
L 1259 2741 
L 2194 2741 
Q 2656 2741 2882 2914 
Q 3109 3088 3109 3444 
Q 3109 3797 2882 3972 
Q 2656 4147 2194 4147 
L 1259 4147 
z
M 628 4666 
L 2241 4666 
Q 2963 4666 3353 4366 
Q 3744 4066 3744 3513 
Q 3744 3084 3544 2831 
Q 3344 2578 2956 2516 
Q 3422 2416 3680 2098 
Q 3938 1781 3938 1306 
Q 3938 681 3513 340 
Q 3088 0 2303 0 
L 628 0 
L 628 4666 
z
" transform="scale(0.015625)"/>
       <path id="DejaVuSans-6d" d="M 3328 2828 
Q 3544 3216 3844 3400 
Q 4144 3584 4550 3584 
Q 5097 3584 5394 3201 
Q 5691 2819 5691 2113 
L 5691 0 
L 5113 0 
L 5113 2094 
Q 5113 2597 4934 2840 
Q 4756 3084 4391 3084 
Q 3944 3084 3684 2787 
Q 3425 2491 3425 1978 
L 3425 0 
L 2847 0 
L 2847 2094 
Q 2847 2600 2669 2842 
Q 2491 3084 2119 3084 
Q 1678 3084 1418 2786 
Q 1159 2488 1159 1978 
L 1159 0 
L 581 0 
L 581 3500 
L 1159 3500 
L 1159 2956 
Q 1356 3278 1631 3431 
Q 1906 3584 2284 3584 
Q 2666 3584 2933 3390 
Q 3200 3197 3328 2828 
z
" transform="scale(0.015625)"/>
       <path id="DejaVuSans-48" d="M 628 4666 
L 1259 4666 
L 1259 2753 
L 3553 2753 
L 3553 4666 
L 4184 4666 
L 4184 0 
L 3553 0 
L 3553 2222 
L 1259 2222 
L 1259 0 
L 628 0 
L 628 4666 
z
" transform="scale(0.015625)"/>
      </defs>
      <use xlink:href="#DejaVuSans-50"/>
      <use xlink:href="#DejaVuSans-72" transform="translate(58.552734 0)"/>
      <use xlink:href="#DejaVuSans-65" transform="translate(97.416016 0)"/>
      <use xlink:href="#DejaVuSans-64" transform="translate(158.939453 0)"/>
      <use xlink:href="#DejaVuSans-69" transform="translate(222.416016 0)"/>
      <use xlink:href="#DejaVuSans-63" transform="translate(250.199219 0)"/>
      <use xlink:href="#DejaVuSans-74" transform="translate(305.179688 0)"/>
      <use xlink:href="#DejaVuSans-65" transform="translate(344.388672 0)"/>
      <use xlink:href="#DejaVuSans-64" transform="translate(405.912109 0)"/>
      <use xlink:href="#DejaVuSans-20" transform="translate(469.388672 0)"/>
      <use xlink:href="#DejaVuSans-73" transform="translate(501.175781 0)"/>
      <use xlink:href="#DejaVuSans-79" transform="translate(553.275391 0)"/>
      <use xlink:href="#DejaVuSans-73" transform="translate(612.455078 0)"/>
      <use xlink:href="#DejaVuSans-74" transform="translate(664.554688 0)"/>
      <use xlink:href="#DejaVuSans-6f" transform="translate(703.763672 0)"/>
      <use xlink:href="#DejaVuSans-6c" transform="translate(764.945312 0)"/>
      <use xlink:href="#DejaVuSans-69" transform="translate(792.728516 0)"/>
      <use xlink:href="#DejaVuSans-63" transform="translate(820.511719 0)"/>
      <use xlink:href="#DejaVuSans-20" transform="translate(875.492188 0)"/>
      <use xlink:href="#DejaVuSans-42" transform="translate(907.279297 0)"/>
      <use xlink:href="#DejaVuSans-50" transform="translate(975.882812 0)"/>
      <use xlink:href="#DejaVuSans-20" transform="translate(1036.185547 0)"/>
      <use xlink:href="#DejaVuSans-28" transform="translate(1067.972656 0)"/>
      <use xlink:href="#DejaVuSans-6d" transform="translate(1106.986328 0)"/>
      <use xlink:href="#DejaVuSans-6d" transform="translate(1204.398438 0)"/>
      <use xlink:href="#DejaVuSans-48" transform="translate(1301.810547 0)"/>
      <use xlink:href="#DejaVuSans-67" transform="translate(1377.005859 0)"/>
      <use xlink:href="#DejaVuSans-29" transform="translate(1440.482422 0)"/>
     </g>
    </g>
   </g>
   <g id="line2d_29">
    <path d="M 116.628182 370.588032 
L 121.816198 367.570984 
L 127.004215 364.553937 
L 132.192231 361.536889 
L 137.380248 358.519841 
L 142.568264 355.502794 
L 147.756281 352.485746 
L 152.944298 349.468699 
L 158.132314 346.451651 
L 163.320331 343.434604 
L 168.508347 340.417556 
L 173.696364 337.400508 
L 178.88438 334.383461 
L 184.072397 331.366413 
L 189.260413 328.349366 
L 194.44843 325.332318 
L 199.636446 322.31527 
L 204.824463 319.298223 
L 210.012479 316.281175 
L 215.200496 313.264128 
L 220.388512 310.24708 
L 225.576529 307.230032 
L 230.764545 304.212985 
L 235.952562 301.195937 
L 241.140579 298.17889 
L 246.328595 295.161842 
L 251.516612 292.144795 
L 256.704628 289.127747 
L 261.892645 286.110699 
L 267.080661 283.093652 
L 272.268678 280.076604 
L 277.456694 277.059557 
L 282.644711 274.042509 
L 287.832727 271.025461 
L 293.020744 268.008414 
L 298.20876 264.991366 
L 303.396777 261.974319 
L 308.584793 258.957271 
L 313.77281 255.940224 
L 318.960826 252.923176 
L 324.148843 249.906128 
L 329.33686 246.889081 
L 334.524876 243.872033 
L 339.712893 240.854986 
L 344.900909 237.837938 
L 350.088926 234.82089 
L 355.276942 231.803843 
L 360.464959 228.786795 
L 365.652975 225.769748 
L 370.840992 222.7527 
L 376.029008 219.735652 
L 381.217025 216.718605 
L 386.405041 213.701557 
L 391.593058 210.68451 
L 396.781074 207.667462 
L 401.969091 204.650415 
L 407.157107 201.633367 
L 412.345124 198.616319 
L 417.53314 195.599272 
L 422.721157 192.582224 
L 427.909174 189.565177 
L 433.09719 186.548129 
L 438.285207 183.531081 
L 443.473223 180.514034 
L 448.66124 177.496986 
L 453.849256 174.479939 
L 459.037273 171.462891 
L 464.225289 168.445844 
L 469.413306 165.428796 
L 474.601322 162.411748 
L 479.789339 159.394701 
L 484.977355 156.377653 
L 490.165372 153.360606 
L 495.353388 150.343558 
L 500.541405 147.32651 
L 505.729421 144.309463 
L 510.917438 141.292415 
L 516.105455 138.275368 
L 521.293471 135.25832 
L 526.481488 132.241272 
L 531.669504 129.224225 
L 536.857521 126.207177 
L 542.045537 123.19013 
L 547.233554 120.173082 
L 552.42157 117.156035 
L 557.609587 114.138987 
L 562.797603 111.121939 
L 567.98562 108.104892 
L 573.173636 105.087844 
L 578.361653 102.070797 
L 583.549669 99.053749 
L 588.737686 96.036701 
L 593.925702 93.019654 
L 599.113719 90.002606 
L 604.301736 86.985559 
L 609.489752 83.968511 
L 614.677769 80.951464 
L 619.865785 77.934416 
L 625.053802 74.917368 
L 630.241818 71.900321 
" clip-path="url(#p6d4f6eeb4c)" style="fill: none; stroke: #264653; stroke-width: 2; stroke-linecap: square"/>
   </g>
   <g id="line2d_30">
    <path d="M 116.628182 390.268607 
L 121.816198 387.25156 
L 127.004215 384.234512 
L 132.192231 381.217465 
L 137.380248 378.200417 
L 142.568264 375.183369 
L 147.756281 372.166322 
L 152.944298 369.149274 
L 158.132314 366.132227 
L 163.320331 363.115179 
L 168.508347 360.098131 
L 173.696364 357.081084 
L 178.88438 354.064036 
L 184.072397 351.046989 
L 189.260413 348.029941 
L 194.44843 345.012894 
L 199.636446 341.995846 
L 204.824463 338.978798 
L 210.012479 335.961751 
L 215.200496 332.944703 
L 220.388512 329.927656 
L 225.576529 326.910608 
L 230.764545 323.89356 
L 235.952562 320.876513 
L 241.140579 317.859465 
L 246.328595 314.842418 
L 251.516612 311.82537 
L 256.704628 308.808323 
L 261.892645 305.791275 
L 267.080661 302.774227 
L 272.268678 299.75718 
L 277.456694 296.740132 
L 282.644711 293.723085 
L 287.832727 290.706037 
L 293.020744 287.688989 
L 298.20876 284.671942 
L 303.396777 281.654894 
L 308.584793 278.637847 
L 313.77281 275.620799 
L 318.960826 272.603752 
L 324.148843 269.586704 
L 329.33686 266.569656 
L 334.524876 263.552609 
L 339.712893 260.535561 
L 344.900909 257.518514 
L 350.088926 254.501466 
L 355.276942 251.484418 
L 360.464959 248.467371 
L 365.652975 245.450323 
L 370.840992 242.433276 
L 376.029008 239.416228 
L 381.217025 236.39918 
L 386.405041 233.382133 
L 391.593058 230.365085 
L 396.781074 227.348038 
L 401.969091 224.33099 
L 407.157107 221.313943 
L 412.345124 218.296895 
L 417.53314 215.279847 
L 422.721157 212.2628 
L 427.909174 209.245752 
L 433.09719 206.228705 
L 438.285207 203.211657 
L 443.473223 200.194609 
L 448.66124 197.177562 
L 453.849256 194.160514 
L 459.037273 191.143467 
L 464.225289 188.126419 
L 469.413306 185.109372 
L 474.601322 182.092324 
L 479.789339 179.075276 
L 484.977355 176.058229 
L 490.165372 173.041181 
L 495.353388 170.024134 
L 500.541405 167.007086 
L 505.729421 163.990038 
L 510.917438 160.972991 
L 516.105455 157.955943 
L 521.293471 154.938896 
L 526.481488 151.921848 
L 531.669504 148.9048 
L 536.857521 145.887753 
L 542.045537 142.870705 
L 547.233554 139.853658 
L 552.42157 136.83661 
L 557.609587 133.819563 
L 562.797603 130.802515 
L 567.98562 127.785467 
L 573.173636 124.76842 
L 578.361653 121.751372 
L 583.549669 118.734325 
L 588.737686 115.717277 
L 593.925702 112.700229 
L 599.113719 109.683182 
L 604.301736 106.666134 
L 609.489752 103.649087 
L 614.677769 100.632039 
L 619.865785 97.614992 
L 625.053802 94.597944 
L 630.241818 91.580896 
" clip-path="url(#p6d4f6eeb4c)" style="fill: none; stroke: #e76f51; stroke-width: 2; stroke-linecap: square"/>
   </g>
   <g id="patch_3">
    <path d="M 90.9475 418.3775 
L 90.9475 44.1575 
" style="fill: none; stroke: #333333; stroke-linejoin: miter; stroke-linecap: square"/>
   </g>
   <g id="patch_4">
    <path d="M 90.9475 418.3775 
L 655.9225 418.3775 
" style="fill: none; stroke: #333333; stroke-linejoin: miter; stroke-linecap: square"/>
   </g>
   <g id="text_17">
    <!-- Predicted Systolic Blood Pressure by Age and Sex (at median BMI and sodium) -->
    <g transform="translate(18 30.1575) scale(0.16 -0.16)">
     <defs>
      <path id="DejaVuSans-Bold-50" d="M 588 4666 
L 2584 4666 
Q 3475 4666 3951 4270 
Q 4428 3875 4428 3144 
Q 4428 2409 3951 2014 
Q 3475 1619 2584 1619 
L 1791 1619 
L 1791 0 
L 588 0 
L 588 4666 
z
M 1791 3794 
L 1791 2491 
L 2456 2491 
Q 2806 2491 2997 2661 
Q 3188 2831 3188 3144 
Q 3188 3456 2997 3625 
Q 2806 3794 2456 3794 
L 1791 3794 
z
" transform="scale(0.015625)"/>
      <path id="DejaVuSans-Bold-72" d="M 3138 2547 
Q 2991 2616 2845 2648 
Q 2700 2681 2553 2681 
Q 2122 2681 1889 2404 
Q 1656 2128 1656 1613 
L 1656 0 
L 538 0 
L 538 3500 
L 1656 3500 
L 1656 2925 
Q 1872 3269 2151 3426 
Q 2431 3584 2822 3584 
Q 2878 3584 2943 3579 
Q 3009 3575 3134 3559 
L 3138 2547 
z
" transform="scale(0.015625)"/>
      <path id="DejaVuSans-Bold-65" d="M 4031 1759 
L 4031 1441 
L 1416 1441 
Q 1456 1047 1700 850 
Q 1944 653 2381 653 
Q 2734 653 3104 758 
Q 3475 863 3866 1075 
L 3866 213 
Q 3469 63 3072 -14 
Q 2675 -91 2278 -91 
Q 1328 -91 801 392 
Q 275 875 275 1747 
Q 275 2603 792 3093 
Q 1309 3584 2216 3584 
Q 3041 3584 3536 3087 
Q 4031 2591 4031 1759 
z
M 2881 2131 
Q 2881 2450 2695 2645 
Q 2509 2841 2209 2841 
Q 1884 2841 1681 2658 
Q 1478 2475 1428 2131 
L 2881 2131 
z
" transform="scale(0.015625)"/>
      <path id="DejaVuSans-Bold-64" d="M 2919 2988 
L 2919 4863 
L 4044 4863 
L 4044 0 
L 2919 0 
L 2919 506 
Q 2688 197 2409 53 
Q 2131 -91 1766 -91 
Q 1119 -91 703 423 
Q 288 938 288 1747 
Q 288 2556 703 3070 
Q 1119 3584 1766 3584 
Q 2128 3584 2408 3439 
Q 2688 3294 2919 2988 
z
M 2181 722 
Q 2541 722 2730 984 
Q 2919 1247 2919 1747 
Q 2919 2247 2730 2509 
Q 2541 2772 2181 2772 
Q 1825 2772 1636 2509 
Q 1447 2247 1447 1747 
Q 1447 1247 1636 984 
Q 1825 722 2181 722 
z
" transform="scale(0.015625)"/>
      <path id="DejaVuSans-Bold-69" d="M 538 3500 
L 1656 3500 
L 1656 0 
L 538 0 
L 538 3500 
z
M 538 4863 
L 1656 4863 
L 1656 3950 
L 538 3950 
L 538 4863 
z
" transform="scale(0.015625)"/>
      <path id="DejaVuSans-Bold-63" d="M 3366 3391 
L 3366 2478 
Q 3138 2634 2908 2709 
Q 2678 2784 2431 2784 
Q 1963 2784 1702 2511 
Q 1441 2238 1441 1747 
Q 1441 1256 1702 982 
Q 1963 709 2431 709 
Q 2694 709 2930 787 
Q 3166 866 3366 1019 
L 3366 103 
Q 3103 6 2833 -42 
Q 2563 -91 2291 -91 
Q 1344 -91 809 395 
Q 275 881 275 1747 
Q 275 2613 809 3098 
Q 1344 3584 2291 3584 
Q 2566 3584 2833 3536 
Q 3100 3488 3366 3391 
z
" transform="scale(0.015625)"/>
      <path id="DejaVuSans-Bold-74" d="M 1759 4494 
L 1759 3500 
L 2913 3500 
L 2913 2700 
L 1759 2700 
L 1759 1216 
Q 1759 972 1856 886 
Q 1953 800 2241 800 
L 2816 800 
L 2816 0 
L 1856 0 
Q 1194 0 917 276 
Q 641 553 641 1216 
L 641 2700 
L 84 2700 
L 84 3500 
L 641 3500 
L 641 4494 
L 1759 4494 
z
" transform="scale(0.015625)"/>
      <path id="DejaVuSans-Bold-20" transform="scale(0.015625)"/>
      <path id="DejaVuSans-Bold-53" d="M 3834 4519 
L 3834 3531 
Q 3450 3703 3084 3790 
Q 2719 3878 2394 3878 
Q 1963 3878 1756 3759 
Q 1550 3641 1550 3391 
Q 1550 3203 1689 3098 
Q 1828 2994 2194 2919 
L 2706 2816 
Q 3484 2659 3812 2340 
Q 4141 2022 4141 1434 
Q 4141 663 3683 286 
Q 3225 -91 2284 -91 
Q 1841 -91 1394 -6 
Q 947 78 500 244 
L 500 1259 
Q 947 1022 1364 901 
Q 1781 781 2169 781 
Q 2563 781 2772 912 
Q 2981 1044 2981 1288 
Q 2981 1506 2839 1625 
Q 2697 1744 2272 1838 
L 1806 1941 
Q 1106 2091 782 2419 
Q 459 2747 459 3303 
Q 459 4000 909 4375 
Q 1359 4750 2203 4750 
Q 2588 4750 2994 4692 
Q 3400 4634 3834 4519 
z
" transform="scale(0.015625)"/>
      <path id="DejaVuSans-Bold-79" d="M 78 3500 
L 1197 3500 
L 2138 1125 
L 2938 3500 
L 4056 3500 
L 2584 -331 
Q 2363 -916 2067 -1148 
Q 1772 -1381 1288 -1381 
L 641 -1381 
L 641 -647 
L 991 -647 
Q 1275 -647 1404 -556 
Q 1534 -466 1606 -231 
L 1638 -134 
L 78 3500 
z
" transform="scale(0.015625)"/>
      <path id="DejaVuSans-Bold-73" d="M 3272 3391 
L 3272 2541 
Q 2913 2691 2578 2766 
Q 2244 2841 1947 2841 
Q 1628 2841 1473 2761 
Q 1319 2681 1319 2516 
Q 1319 2381 1436 2309 
Q 1553 2238 1856 2203 
L 2053 2175 
Q 2913 2066 3209 1816 
Q 3506 1566 3506 1031 
Q 3506 472 3093 190 
Q 2681 -91 1863 -91 
Q 1516 -91 1145 -36 
Q 775 19 384 128 
L 384 978 
Q 719 816 1070 734 
Q 1422 653 1784 653 
Q 2113 653 2278 743 
Q 2444 834 2444 1013 
Q 2444 1163 2330 1236 
Q 2216 1309 1875 1350 
L 1678 1375 
Q 931 1469 631 1722 
Q 331 1975 331 2491 
Q 331 3047 712 3315 
Q 1094 3584 1881 3584 
Q 2191 3584 2531 3537 
Q 2872 3491 3272 3391 
z
" transform="scale(0.015625)"/>
      <path id="DejaVuSans-Bold-6f" d="M 2203 2784 
Q 1831 2784 1636 2517 
Q 1441 2250 1441 1747 
Q 1441 1244 1636 976 
Q 1831 709 2203 709 
Q 2569 709 2762 976 
Q 2956 1244 2956 1747 
Q 2956 2250 2762 2517 
Q 2569 2784 2203 2784 
z
M 2203 3584 
Q 3106 3584 3614 3096 
Q 4122 2609 4122 1747 
Q 4122 884 3614 396 
Q 3106 -91 2203 -91 
Q 1297 -91 786 396 
Q 275 884 275 1747 
Q 275 2609 786 3096 
Q 1297 3584 2203 3584 
z
" transform="scale(0.015625)"/>
      <path id="DejaVuSans-Bold-6c" d="M 538 4863 
L 1656 4863 
L 1656 0 
L 538 0 
L 538 4863 
z
" transform="scale(0.015625)"/>
      <path id="DejaVuSans-Bold-42" d="M 2456 2859 
Q 2741 2859 2887 2984 
Q 3034 3109 3034 3353 
Q 3034 3594 2887 3720 
Q 2741 3847 2456 3847 
L 1791 3847 
L 1791 2859 
L 2456 2859 
z
M 2497 819 
Q 2859 819 3042 972 
Q 3225 1125 3225 1434 
Q 3225 1738 3044 1889 
Q 2863 2041 2497 2041 
L 1791 2041 
L 1791 819 
L 2497 819 
z
M 3616 2497 
Q 4003 2384 4215 2081 
Q 4428 1778 4428 1338 
Q 4428 663 3972 331 
Q 3516 0 2584 0 
L 588 0 
L 588 4666 
L 2394 4666 
Q 3366 4666 3802 4372 
Q 4238 4078 4238 3431 
Q 4238 3091 4078 2852 
Q 3919 2613 3616 2497 
z
" transform="scale(0.015625)"/>
      <path id="DejaVuSans-Bold-75" d="M 500 1363 
L 500 3500 
L 1625 3500 
L 1625 3150 
Q 1625 2866 1622 2436 
Q 1619 2006 1619 1863 
Q 1619 1441 1641 1255 
Q 1663 1069 1716 984 
Q 1784 875 1895 815 
Q 2006 756 2150 756 
Q 2500 756 2700 1025 
Q 2900 1294 2900 1772 
L 2900 3500 
L 4019 3500 
L 4019 0 
L 2900 0 
L 2900 506 
Q 2647 200 2364 54 
Q 2081 -91 1741 -91 
Q 1134 -91 817 281 
Q 500 653 500 1363 
z
" transform="scale(0.015625)"/>
      <path id="DejaVuSans-Bold-62" d="M 2400 722 
Q 2759 722 2948 984 
Q 3138 1247 3138 1747 
Q 3138 2247 2948 2509 
Q 2759 2772 2400 2772 
Q 2041 2772 1848 2508 
Q 1656 2244 1656 1747 
Q 1656 1250 1848 986 
Q 2041 722 2400 722 
z
M 1656 2988 
Q 1888 3294 2169 3439 
Q 2450 3584 2816 3584 
Q 3463 3584 3878 3070 
Q 4294 2556 4294 1747 
Q 4294 938 3878 423 
Q 3463 -91 2816 -91 
Q 2450 -91 2169 54 
Q 1888 200 1656 506 
L 1656 0 
L 538 0 
L 538 4863 
L 1656 4863 
L 1656 2988 
z
" transform="scale(0.015625)"/>
      <path id="DejaVuSans-Bold-41" d="M 3419 850 
L 1538 850 
L 1241 0 
L 31 0 
L 1759 4666 
L 3194 4666 
L 4922 0 
L 3713 0 
L 3419 850 
z
M 1838 1716 
L 3116 1716 
L 2478 3572 
L 1838 1716 
z
" transform="scale(0.015625)"/>
      <path id="DejaVuSans-Bold-67" d="M 2919 594 
Q 2688 288 2409 144 
Q 2131 0 1766 0 
Q 1125 0 706 504 
Q 288 1009 288 1791 
Q 288 2575 706 3076 
Q 1125 3578 1766 3578 
Q 2131 3578 2409 3434 
Q 2688 3291 2919 2981 
L 2919 3500 
L 4044 3500 
L 4044 353 
Q 4044 -491 3511 -936 
Q 2978 -1381 1966 -1381 
Q 1638 -1381 1331 -1331 
Q 1025 -1281 716 -1178 
L 716 -306 
Q 1009 -475 1290 -558 
Q 1572 -641 1856 -641 
Q 2406 -641 2662 -400 
Q 2919 -159 2919 353 
L 2919 594 
z
M 2181 2772 
Q 1834 2772 1640 2515 
Q 1447 2259 1447 1791 
Q 1447 1309 1634 1061 
Q 1822 813 2181 813 
Q 2531 813 2725 1069 
Q 2919 1325 2919 1791 
Q 2919 2259 2725 2515 
Q 2531 2772 2181 2772 
z
" transform="scale(0.015625)"/>
      <path id="DejaVuSans-Bold-61" d="M 2106 1575 
Q 1756 1575 1579 1456 
Q 1403 1338 1403 1106 
Q 1403 894 1545 773 
Q 1688 653 1941 653 
Q 2256 653 2472 879 
Q 2688 1106 2688 1447 
L 2688 1575 
L 2106 1575 
z
M 3816 1997 
L 3816 0 
L 2688 0 
L 2688 519 
Q 2463 200 2181 54 
Q 1900 -91 1497 -91 
Q 953 -91 614 226 
Q 275 544 275 1050 
Q 275 1666 698 1953 
Q 1122 2241 2028 2241 
L 2688 2241 
L 2688 2328 
Q 2688 2594 2478 2717 
Q 2269 2841 1825 2841 
Q 1466 2841 1156 2769 
Q 847 2697 581 2553 
L 581 3406 
Q 941 3494 1303 3539 
Q 1666 3584 2028 3584 
Q 2975 3584 3395 3211 
Q 3816 2838 3816 1997 
z
" transform="scale(0.015625)"/>
      <path id="DejaVuSans-Bold-6e" d="M 4056 2131 
L 4056 0 
L 2931 0 
L 2931 347 
L 2931 1631 
Q 2931 2084 2911 2256 
Q 2891 2428 2841 2509 
Q 2775 2619 2662 2680 
Q 2550 2741 2406 2741 
Q 2056 2741 1856 2470 
Q 1656 2200 1656 1722 
L 1656 0 
L 538 0 
L 538 3500 
L 1656 3500 
L 1656 2988 
Q 1909 3294 2193 3439 
Q 2478 3584 2822 3584 
Q 3428 3584 3742 3212 
Q 4056 2841 4056 2131 
z
" transform="scale(0.015625)"/>
      <path id="DejaVuSans-Bold-78" d="M 1422 1791 
L 159 3500 
L 1344 3500 
L 2059 2463 
L 2784 3500 
L 3969 3500 
L 2706 1797 
L 4031 0 
L 2847 0 
L 2059 1106 
L 1281 0 
L 97 0 
L 1422 1791 
z
" transform="scale(0.015625)"/>
      <path id="DejaVuSans-Bold-28" d="M 2413 -844 
L 1484 -844 
Q 1006 -72 778 623 
Q 550 1319 550 2003 
Q 550 2688 779 3389 
Q 1009 4091 1484 4856 
L 2413 4856 
Q 2013 4116 1813 3408 
Q 1613 2700 1613 2009 
Q 1613 1319 1811 609 
Q 2009 -100 2413 -844 
z
" transform="scale(0.015625)"/>
      <path id="DejaVuSans-Bold-6d" d="M 3781 2919 
Q 3994 3244 4286 3414 
Q 4578 3584 4928 3584 
Q 5531 3584 5847 3212 
Q 6163 2841 6163 2131 
L 6163 0 
L 5038 0 
L 5038 1825 
Q 5041 1866 5042 1909 
Q 5044 1953 5044 2034 
Q 5044 2406 4934 2573 
Q 4825 2741 4581 2741 
Q 4263 2741 4089 2478 
Q 3916 2216 3909 1719 
L 3909 0 
L 2784 0 
L 2784 1825 
Q 2784 2406 2684 2573 
Q 2584 2741 2328 2741 
Q 2006 2741 1831 2477 
Q 1656 2213 1656 1722 
L 1656 0 
L 531 0 
L 531 3500 
L 1656 3500 
L 1656 2988 
Q 1863 3284 2130 3434 
Q 2397 3584 2719 3584 
Q 3081 3584 3359 3409 
Q 3638 3234 3781 2919 
z
" transform="scale(0.015625)"/>
      <path id="DejaVuSans-Bold-4d" d="M 588 4666 
L 2119 4666 
L 3181 2169 
L 4250 4666 
L 5778 4666 
L 5778 0 
L 4641 0 
L 4641 3413 
L 3566 897 
L 2803 897 
L 1728 3413 
L 1728 0 
L 588 0 
L 588 4666 
z
" transform="scale(0.015625)"/>
      <path id="DejaVuSans-Bold-49" d="M 588 4666 
L 1791 4666 
L 1791 0 
L 588 0 
L 588 4666 
z
" transform="scale(0.015625)"/>
      <path id="DejaVuSans-Bold-29" d="M 513 -844 
Q 913 -100 1113 609 
Q 1313 1319 1313 2009 
Q 1313 2700 1113 3408 
Q 913 4116 513 4856 
L 1441 4856 
Q 1916 4091 2145 3389 
Q 2375 2688 2375 2003 
Q 2375 1319 2147 623 
Q 1919 -72 1441 -844 
L 513 -844 
z
" transform="scale(0.015625)"/>
     </defs>
     <use xlink:href="#DejaVuSans-Bold-50"/>
     <use xlink:href="#DejaVuSans-Bold-72" transform="translate(73.291016 0)"/>
     <use xlink:href="#DejaVuSans-Bold-65" transform="translate(122.607422 0)"/>
     <use xlink:href="#DejaVuSans-Bold-64" transform="translate(190.429688 0)"/>
     <use xlink:href="#DejaVuSans-Bold-69" transform="translate(262.011719 0)"/>
     <use xlink:href="#DejaVuSans-Bold-63" transform="translate(296.289062 0)"/>
     <use xlink:href="#DejaVuSans-Bold-74" transform="translate(355.566406 0)"/>
     <use xlink:href="#DejaVuSans-Bold-65" transform="translate(403.369141 0)"/>
     <use xlink:href="#DejaVuSans-Bold-64" transform="translate(471.191406 0)"/>
     <use xlink:href="#DejaVuSans-Bold-20" transform="translate(542.773438 0)"/>
     <use xlink:href="#DejaVuSans-Bold-53" transform="translate(577.587891 0)"/>
     <use xlink:href="#DejaVuSans-Bold-79" transform="translate(649.609375 0)"/>
     <use xlink:href="#DejaVuSans-Bold-73" transform="translate(714.794922 0)"/>
     <use xlink:href="#DejaVuSans-Bold-74" transform="translate(774.316406 0)"/>
     <use xlink:href="#DejaVuSans-Bold-6f" transform="translate(822.119141 0)"/>
     <use xlink:href="#DejaVuSans-Bold-6c" transform="translate(890.820312 0)"/>
     <use xlink:href="#DejaVuSans-Bold-69" transform="translate(925.097656 0)"/>
     <use xlink:href="#DejaVuSans-Bold-63" transform="translate(959.375 0)"/>
     <use xlink:href="#DejaVuSans-Bold-20" transform="translate(1018.652344 0)"/>
     <use xlink:href="#DejaVuSans-Bold-42" transform="translate(1053.466797 0)"/>
     <use xlink:href="#DejaVuSans-Bold-6c" transform="translate(1129.6875 0)"/>
     <use xlink:href="#DejaVuSans-Bold-6f" transform="translate(1163.964844 0)"/>
     <use xlink:href="#DejaVuSans-Bold-6f" transform="translate(1232.666016 0)"/>
     <use xlink:href="#DejaVuSans-Bold-64" transform="translate(1301.367188 0)"/>
     <use xlink:href="#DejaVuSans-Bold-20" transform="translate(1372.949219 0)"/>
     <use xlink:href="#DejaVuSans-Bold-50" transform="translate(1407.763672 0)"/>
     <use xlink:href="#DejaVuSans-Bold-72" transform="translate(1481.054688 0)"/>
     <use xlink:href="#DejaVuSans-Bold-65" transform="translate(1530.371094 0)"/>
     <use xlink:href="#DejaVuSans-Bold-73" transform="translate(1598.193359 0)"/>
     <use xlink:href="#DejaVuSans-Bold-73" transform="translate(1657.714844 0)"/>
     <use xlink:href="#DejaVuSans-Bold-75" transform="translate(1717.236328 0)"/>
     <use xlink:href="#DejaVuSans-Bold-72" transform="translate(1788.427734 0)"/>
     <use xlink:href="#DejaVuSans-Bold-65" transform="translate(1837.744141 0)"/>
     <use xlink:href="#DejaVuSans-Bold-20" transform="translate(1905.566406 0)"/>
     <use xlink:href="#DejaVuSans-Bold-62" transform="translate(1940.380859 0)"/>
     <use xlink:href="#DejaVuSans-Bold-79" transform="translate(2011.962891 0)"/>
     <use xlink:href="#DejaVuSans-Bold-20" transform="translate(2077.148438 0)"/>
     <use xlink:href="#DejaVuSans-Bold-41" transform="translate(2111.962891 0)"/>
     <use xlink:href="#DejaVuSans-Bold-67" transform="translate(2189.355469 0)"/>
     <use xlink:href="#DejaVuSans-Bold-65" transform="translate(2260.9375 0)"/>
     <use xlink:href="#DejaVuSans-Bold-20" transform="translate(2328.759766 0)"/>
     <use xlink:href="#DejaVuSans-Bold-61" transform="translate(2363.574219 0)"/>
     <use xlink:href="#DejaVuSans-Bold-6e" transform="translate(2431.054688 0)"/>
     <use xlink:href="#DejaVuSans-Bold-64" transform="translate(2502.246094 0)"/>
     <use xlink:href="#DejaVuSans-Bold-20" transform="translate(2573.828125 0)"/>
     <use xlink:href="#DejaVuSans-Bold-53" transform="translate(2608.642578 0)"/>
     <use xlink:href="#DejaVuSans-Bold-65" transform="translate(2680.664062 0)"/>
     <use xlink:href="#DejaVuSans-Bold-78" transform="translate(2748.486328 0)"/>
     <use xlink:href="#DejaVuSans-Bold-20" transform="translate(2812.988281 0)"/>
     <use xlink:href="#DejaVuSans-Bold-28" transform="translate(2847.802734 0)"/>
     <use xlink:href="#DejaVuSans-Bold-61" transform="translate(2893.505859 0)"/>
     <use xlink:href="#DejaVuSans-Bold-74" transform="translate(2960.986328 0)"/>
     <use xlink:href="#DejaVuSans-Bold-20" transform="translate(3008.789062 0)"/>
     <use xlink:href="#DejaVuSans-Bold-6d" transform="translate(3043.603516 0)"/>
     <use xlink:href="#DejaVuSans-Bold-65" transform="translate(3147.802734 0)"/>
     <use xlink:href="#DejaVuSans-Bold-64" transform="translate(3215.625 0)"/>
     <use xlink:href="#DejaVuSans-Bold-69" transform="translate(3287.207031 0)"/>
     <use xlink:href="#DejaVuSans-Bold-61" transform="translate(3321.484375 0)"/>
     <use xlink:href="#DejaVuSans-Bold-6e" transform="translate(3388.964844 0)"/>
     <use xlink:href="#DejaVuSans-Bold-20" transform="translate(3460.15625 0)"/>
     <use xlink:href="#DejaVuSans-Bold-42" transform="translate(3494.970703 0)"/>
     <use xlink:href="#DejaVuSans-Bold-4d" transform="translate(3571.191406 0)"/>
     <use xlink:href="#DejaVuSans-Bold-49" transform="translate(3670.703125 0)"/>
     <use xlink:href="#DejaVuSans-Bold-20" transform="translate(3707.910156 0)"/>
     <use xlink:href="#DejaVuSans-Bold-61" transform="translate(3742.724609 0)"/>
     <use xlink:href="#DejaVuSans-Bold-6e" transform="translate(3810.205078 0)"/>
     <use xlink:href="#DejaVuSans-Bold-64" transform="translate(3881.396484 0)"/>
     <use xlink:href="#DejaVuSans-Bold-20" transform="translate(3952.978516 0)"/>
     <use xlink:href="#DejaVuSans-Bold-73" transform="translate(3987.792969 0)"/>
     <use xlink:href="#DejaVuSans-Bold-6f" transform="translate(4047.314453 0)"/>
     <use xlink:href="#DejaVuSans-Bold-64" transform="translate(4116.015625 0)"/>
     <use xlink:href="#DejaVuSans-Bold-69" transform="translate(4187.597656 0)"/>
     <use xlink:href="#DejaVuSans-Bold-75" transform="translate(4221.875 0)"/>
     <use xlink:href="#DejaVuSans-Bold-6d" transform="translate(4293.066406 0)"/>
     <use xlink:href="#DejaVuSans-Bold-29" transform="translate(4397.265625 0)"/>
    </g>
   </g>
   <g id="legend_1">
    <g id="line2d_31">
     <path d="M 101.7475 59.875625 
L 113.7475 59.875625 
L 125.7475 59.875625 
" style="fill: none; stroke: #264653; stroke-width: 2; stroke-linecap: square"/>
    </g>
    <g id="text_18">
     <!-- Male -->
     <g transform="translate(135.3475 64.075625) scale(0.12 -0.12)">
      <defs>
       <path id="DejaVuSans-4d" d="M 628 4666 
L 1569 4666 
L 2759 1491 
L 3956 4666 
L 4897 4666 
L 4897 0 
L 4281 0 
L 4281 4097 
L 3078 897 
L 2444 897 
L 1241 4097 
L 1241 0 
L 628 0 
L 628 4666 
z
" transform="scale(0.015625)"/>
      </defs>
      <use xlink:href="#DejaVuSans-4d"/>
      <use xlink:href="#DejaVuSans-61" transform="translate(86.279297 0)"/>
      <use xlink:href="#DejaVuSans-6c" transform="translate(147.558594 0)"/>
      <use xlink:href="#DejaVuSans-65" transform="translate(175.341797 0)"/>
     </g>
    </g>
    <g id="line2d_32">
     <path d="M 101.7475 77.489375 
L 113.7475 77.489375 
L 125.7475 77.489375 
" style="fill: none; stroke: #e76f51; stroke-width: 2; stroke-linecap: square"/>
    </g>
    <g id="text_19">
     <!-- Female -->
     <g transform="translate(135.3475 81.689375) scale(0.12 -0.12)">
      <defs>
       <path id="DejaVuSans-46" d="M 628 4666 
L 3309 4666 
L 3309 4134 
L 1259 4134 
L 1259 2759 
L 3109 2759 
L 3109 2228 
L 1259 2228 
L 1259 0 
L 628 0 
L 628 4666 
z
" transform="scale(0.015625)"/>
      </defs>
      <use xlink:href="#DejaVuSans-46"/>
      <use xlink:href="#DejaVuSans-65" transform="translate(52.019531 0)"/>
      <use xlink:href="#DejaVuSans-6d" transform="translate(113.542969 0)"/>
      <use xlink:href="#DejaVuSans-61" transform="translate(210.955078 0)"/>
      <use xlink:href="#DejaVuSans-6c" transform="translate(272.234375 0)"/>
      <use xlink:href="#DejaVuSans-65" transform="translate(300.017578 0)"/>
     </g>
    </g>
   </g>
  </g>
 </g>
 <defs>
  <clipPath id="p6d4f6eeb4c">
   <rect x="90.9475" y="44.1575" width="564.975" height="374.22"/>
  </clipPath>
 </defs>
</svg>
