<?xml version="1.0" encoding="utf-8" standalone="no"?>
<!DOCTYPE svg PUBLIC "-//W3C//DTD SVG 1.1//EN"
  "http://www.w3.org/Graphics/SVG/1.1/DTD/svg11.dtd">
<svg xmlns:xlink="http://www.w3.org/1999/xlink" width="682.83375pt" height="437.666906pt" viewBox="0 0 682.83375 437.666906" xmlns="http://www.w3.org/2000/svg" version="1.1">
 <metadata>
  <rdf:RDF xmlns:dc="http://purl.org/dc/elements/1.1/" xmlns:cc="http://creativecommons.org/ns#" xmlns:rdf="http://www.w3.org/1999/02/22-rdf-syntax-ns#">
   <cc:Work>
    <dc:type rdf:resource="http://purl.org/dc/dcmitype/StillImage"/>
    <dc:date>2026-06-28T05:18:25.936687</dc:date>
    <dc:format>image/svg+xml</dc:format>
    <dc:creator>
     <cc:Agent>
      <dc:title>Matplotlib v3.10.9, https://matplotlib.org/</dc:title>
     </cc:Agent>
    </dc:creator>
   </cc:Work>
  </rdf:RDF>
 </metadata>
 <defs>
  <style type="text/css">*{stroke-linejoin: round; stroke-linecap: butt}</style>
 </defs>
 <g id="figure_1">
  <g id="patch_1">
   <path d="M 0 437.666906 
L 682.83375 437.666906 
L 682.83375 -0 
L 0 -0 
z
" style="fill: #ffffff"/>
  </g>
  <g id="axes_1">
   <g id="patch_2">
    <path d="M 62.19375 380.9555 
L 664.83375 380.9555 
L 664.83375 44.1575 
L 62.19375 44.1575 
z
" style="fill: #ffffff"/>
   </g>
   <g id="FillBetweenPolyCollection_1">
    <defs>
     <path id="m558eaa6a1d" d="M 140.936899 -74.571906 
L 134.110601 -74.571906 
L 131.901319 -77.638861 
L 128.793486 -80.705815 
L 124.682259 -83.77277 
L 119.581753 -86.839724 
L 113.666637 -89.906679 
L 107.262153 -92.973634 
L 100.782349 -96.040588 
L 94.649331 -99.107543 
L 89.222463 -102.174497 
L 84.747325 -105.241452 
L 81.335912 -108.308406 
L 78.991619 -111.375361 
L 77.660447 -114.442315 
L 77.25975 -117.50927 
L 77.665884 -120.576224 
L 78.700715 -123.643179 
L 80.158077 -126.710134 
L 81.852846 -129.777088 
L 83.645991 -132.844043 
L 85.440942 -135.910997 
L 87.193446 -138.977952 
L 88.953719 -142.044906 
L 90.890709 -145.111861 
L 93.228791 -148.178815 
L 96.101429 -151.24577 
L 99.425701 -154.312724 
L 102.913231 -157.379679 
L 106.225289 -160.446634 
L 109.151724 -163.513588 
L 111.677802 -166.580543 
L 113.913576 -169.647497 
L 115.974052 -172.714452 
L 117.905878 -175.781406 
L 119.684877 -178.848361 
L 121.256384 -181.915315 
L 122.58921 -184.98227 
L 123.721416 -188.049224 
L 124.7695 -191.116179 
L 125.881715 -194.183134 
L 127.156517 -197.250088 
L 128.581546 -200.317043 
L 130.037366 -203.383997 
L 131.363067 -206.450952 
L 132.439454 -209.517906 
L 133.237572 -212.584861 
L 133.806401 -215.651815 
L 134.216868 -218.71877 
L 134.510241 -221.785724 
L 134.691098 -224.852679 
L 134.763151 -227.919634 
L 134.768085 -230.986588 
L 134.787102 -234.053543 
L 134.900282 -237.120497 
L 135.137211 -240.187452 
L 135.460457 -243.254406 
L 135.794609 -246.321361 
L 136.074565 -249.388315 
L 136.274405 -252.45527 
L 136.402166 -255.522224 
L 136.477852 -258.589179 
L 136.518906 -261.656134 
L 136.539504 -264.723088 
L 136.553803 -267.790043 
L 136.574897 -270.856997 
L 136.611104 -273.923952 
L 136.664279 -276.990906 
L 136.731059 -280.057861 
L 136.805288 -283.124815 
L 136.880733 -286.19177 
L 136.953614 -289.258724 
L 137.023654 -292.325679 
L 137.092938 -295.392634 
L 137.163687 -298.459588 
L 137.236367 -301.526543 
L 137.30867 -304.593497 
L 137.375658 -307.660452 
L 137.431586 -310.727406 
L 137.472666 -313.794361 
L 137.498814 -316.861315 
L 137.513116 -319.92827 
L 137.51981 -322.995224 
L 137.522486 -326.062179 
L 137.5234 -329.129134 
L 137.523666 -332.196088 
L 137.523733 -335.263043 
L 137.523747 -338.329997 
L 137.523747 -341.396952 
L 137.523734 -344.463906 
L 137.523672 -347.530861 
L 137.523424 -350.597815 
L 137.522575 -353.66477 
L 137.520107 -356.731724 
L 137.51404 -359.798679 
L 137.501493 -362.865634 
L 137.479873 -365.932588 
L 137.449363 -368.999543 
L 137.415293 -372.066497 
L 137.387759 -375.133452 
L 137.377106 -378.200406 
L 137.670394 -378.200406 
L 137.670394 -378.200406 
L 137.659741 -375.133452 
L 137.632207 -372.066497 
L 137.598137 -368.999543 
L 137.567627 -365.932588 
L 137.546007 -362.865634 
L 137.53346 -359.798679 
L 137.527393 -356.731724 
L 137.524925 -353.66477 
L 137.524076 -350.597815 
L 137.523828 -347.530861 
L 137.523766 -344.463906 
L 137.523753 -341.396952 
L 137.523753 -338.329997 
L 137.523767 -335.263043 
L 137.523834 -332.196088 
L 137.5241 -329.129134 
L 137.525014 -326.062179 
L 137.52769 -322.995224 
L 137.534384 -319.92827 
L 137.548686 -316.861315 
L 137.574834 -313.794361 
L 137.615914 -310.727406 
L 137.671842 -307.660452 
L 137.73883 -304.593497 
L 137.811133 -301.526543 
L 137.883813 -298.459588 
L 137.954562 -295.392634 
L 138.023846 -292.325679 
L 138.093886 -289.258724 
L 138.166767 -286.19177 
L 138.242212 -283.124815 
L 138.316441 -280.057861 
L 138.383221 -276.990906 
L 138.436396 -273.923952 
L 138.472603 -270.856997 
L 138.493697 -267.790043 
L 138.507996 -264.723088 
L 138.528594 -261.656134 
L 138.569648 -258.589179 
L 138.645334 -255.522224 
L 138.773095 -252.45527 
L 138.972935 -249.388315 
L 139.252891 -246.321361 
L 139.587043 -243.254406 
L 139.910289 -240.187452 
L 140.147218 -237.120497 
L 140.260398 -234.053543 
L 140.279415 -230.986588 
L 140.284349 -227.919634 
L 140.356402 -224.852679 
L 140.537259 -221.785724 
L 140.830632 -218.71877 
L 141.241099 -215.651815 
L 141.809928 -212.584861 
L 142.608046 -209.517906 
L 143.684433 -206.450952 
L 145.010134 -203.383997 
L 146.465954 -200.317043 
L 147.890983 -197.250088 
L 149.165785 -194.183134 
L 150.278 -191.116179 
L 151.326084 -188.049224 
L 152.45829 -184.98227 
L 153.791116 -181.915315 
L 155.362623 -178.848361 
L 157.141622 -175.781406 
L 159.073448 -172.714452 
L 161.133924 -169.647497 
L 163.369698 -166.580543 
L 165.895776 -163.513588 
L 168.822211 -160.446634 
L 172.134269 -157.379679 
L 175.621799 -154.312724 
L 178.946071 -151.24577 
L 181.818709 -148.178815 
L 184.156791 -145.111861 
L 186.093781 -142.044906 
L 187.854054 -138.977952 
L 189.606558 -135.910997 
L 191.401509 -132.844043 
L 193.194654 -129.777088 
L 194.889423 -126.710134 
L 196.346785 -123.643179 
L 197.381616 -120.576224 
L 197.78775 -117.50927 
L 197.387053 -114.442315 
L 196.055881 -111.375361 
L 193.711588 -108.308406 
L 190.300175 -105.241452 
L 185.825037 -102.174497 
L 180.398169 -99.107543 
L 174.265151 -96.040588 
L 167.785347 -92.973634 
L 161.380863 -89.906679 
L 155.465747 -86.839724 
L 150.365241 -83.77277 
L 146.254014 -80.705815 
L 143.146181 -77.638861 
L 140.936899 -74.571906 
z
" style="stroke: #242424; stroke-width: 1.25"/>
    </defs>
    <g clip-path="url(#p749b65f15a)">
     <use xlink:href="#m558eaa6a1d" x="0" y="437.666906" style="fill: #d9bd7a; stroke: #242424; stroke-width: 1.25"/>
    </g>
   </g>
   <g id="FillBetweenPolyCollection_2">
    <defs>
     <path id="m42d7e27228" d="M 290.125427 -77.548656 
L 286.242073 -77.548656 
L 285.195001 -80.095861 
L 283.795545 -82.643065 
L 282.012566 -85.19027 
L 279.834593 -87.737474 
L 277.267917 -90.284679 
L 274.335129 -92.831884 
L 271.077442 -95.379088 
L 267.557538 -97.926293 
L 263.854143 -100.473497 
L 260.044024 -103.020702 
L 256.180628 -105.567906 
L 252.287465 -108.115111 
L 248.375487 -110.662315 
L 244.473655 -113.20952 
L 240.651881 -115.756724 
L 237.025987 -118.303929 
L 233.751068 -120.851134 
L 231.012653 -123.398338 
L 229.013067 -125.945543 
L 227.940928 -128.492747 
L 227.91975 -131.039952 
L 228.953636 -133.587156 
L 230.903648 -136.134361 
L 233.517874 -138.681565 
L 236.504198 -141.22877 
L 239.606011 -143.775974 
L 242.645232 -146.323179 
L 245.527976 -148.870384 
L 248.232525 -151.417588 
L 250.794812 -153.964793 
L 253.28723 -156.511997 
L 255.781254 -159.059202 
L 258.301563 -161.606406 
L 260.798876 -164.153611 
L 263.165069 -166.700815 
L 265.285322 -169.24802 
L 267.092965 -171.795224 
L 268.591848 -174.342429 
L 269.839603 -176.889634 
L 270.914767 -179.436838 
L 271.893851 -181.984043 
L 272.843785 -184.531247 
L 273.817716 -187.078452 
L 274.845889 -189.625656 
L 275.92838 -192.172861 
L 277.040528 -194.720065 
L 278.149206 -197.26727 
L 279.225347 -199.814474 
L 280.24232 -202.361679 
L 281.166733 -204.908884 
L 281.957982 -207.456088 
L 282.583978 -210.003293 
L 283.042534 -212.550497 
L 283.369835 -215.097702 
L 283.62687 -217.644906 
L 283.872288 -220.192111 
L 284.140182 -222.739315 
L 284.435823 -225.28652 
L 284.747652 -227.833724 
L 285.062733 -230.380929 
L 285.373807 -232.928134 
L 285.676038 -235.475338 
L 285.96058 -238.022543 
L 286.213133 -240.569747 
L 286.419788 -243.116952 
L 286.576059 -245.664156 
L 286.692873 -248.211361 
L 286.795296 -250.758565 
L 286.913441 -253.30577 
L 287.069113 -255.852974 
L 287.265042 -258.400179 
L 287.483263 -260.947384 
L 287.693884 -263.494588 
L 287.868476 -266.041793 
L 287.989847 -268.588997 
L 288.05395 -271.136202 
L 288.066034 -273.683406 
L 288.036198 -276.230611 
L 287.977524 -278.777815 
L 287.905977 -281.32502 
L 287.839184 -283.872224 
L 287.792672 -286.419429 
L 287.775316 -288.966634 
L 287.787282 -291.513838 
L 287.82205 -294.061043 
L 287.870853 -296.608247 
L 287.926237 -299.155452 
L 287.982893 -301.702656 
L 288.036592 -304.249861 
L 288.083281 -306.797065 
L 288.11934 -309.34427 
L 288.14235 -311.891474 
L 288.151408 -314.438679 
L 288.146913 -316.985884 
L 288.130594 -319.533088 
L 288.106148 -322.080293 
L 288.079773 -324.627497 
L 288.059308 -327.174702 
L 288.051593 -329.721906 
L 288.315907 -329.721906 
L 288.315907 -329.721906 
L 288.308192 -327.174702 
L 288.287727 -324.627497 
L 288.261352 -322.080293 
L 288.236906 -319.533088 
L 288.220587 -316.985884 
L 288.216092 -314.438679 
L 288.22515 -311.891474 
L 288.24816 -309.34427 
L 288.284219 -306.797065 
L 288.330908 -304.249861 
L 288.384607 -301.702656 
L 288.441263 -299.155452 
L 288.496647 -296.608247 
L 288.54545 -294.061043 
L 288.580218 -291.513838 
L 288.592184 -288.966634 
L 288.574828 -286.419429 
L 288.528316 -283.872224 
L 288.461523 -281.32502 
L 288.389976 -278.777815 
L 288.331302 -276.230611 
L 288.301466 -273.683406 
L 288.31355 -271.136202 
L 288.377653 -268.588997 
L 288.499024 -266.041793 
L 288.673616 -263.494588 
L 288.884237 -260.947384 
L 289.102458 -258.400179 
L 289.298387 -255.852974 
L 289.454059 -253.30577 
L 289.572204 -250.758565 
L 289.674627 -248.211361 
L 289.791441 -245.664156 
L 289.947712 -243.116952 
L 290.154367 -240.569747 
L 290.40692 -238.022543 
L 290.691462 -235.475338 
L 290.993693 -232.928134 
L 291.304767 -230.380929 
L 291.619848 -227.833724 
L 291.931677 -225.28652 
L 292.227318 -222.739315 
L 292.495212 -220.192111 
L 292.74063 -217.644906 
L 292.997665 -215.097702 
L 293.324966 -212.550497 
L 293.783522 -210.003293 
L 294.409518 -207.456088 
L 295.200767 -204.908884 
L 296.12518 -202.361679 
L 297.142153 -199.814474 
L 298.218294 -197.26727 
L 299.326972 -194.720065 
L 300.43912 -192.172861 
L 301.521611 -189.625656 
L 302.549784 -187.078452 
L 303.523715 -184.531247 
L 304.473649 -181.984043 
L 305.452733 -179.436838 
L 306.527897 -176.889634 
L 307.775652 -174.342429 
L 309.274535 -171.795224 
L 311.082178 -169.24802 
L 313.202431 -166.700815 
L 315.568624 -164.153611 
L 318.065937 -161.606406 
L 320.586246 -159.059202 
L 323.08027 -156.511997 
L 325.572688 -153.964793 
L 328.134975 -151.417588 
L 330.839524 -148.870384 
L 333.722268 -146.323179 
L 336.761489 -143.775974 
L 339.863302 -141.22877 
L 342.849626 -138.681565 
L 345.463852 -136.134361 
L 347.413864 -133.587156 
L 348.44775 -131.039952 
L 348.426572 -128.492747 
L 347.354433 -125.945543 
L 345.354847 -123.398338 
L 342.616432 -120.851134 
L 339.341513 -118.303929 
L 335.715619 -115.756724 
L 331.893845 -113.20952 
L 327.992013 -110.662315 
L 324.080035 -108.115111 
L 320.186872 -105.567906 
L 316.323476 -103.020702 
L 312.513357 -100.473497 
L 308.809962 -97.926293 
L 305.290058 -95.379088 
L 302.032371 -92.831884 
L 299.099583 -90.284679 
L 296.532907 -87.737474 
L 294.354934 -85.19027 
L 292.571955 -82.643065 
L 291.172499 -80.095861 
L 290.125427 -77.548656 
z
" style="stroke: #242424; stroke-width: 1.25"/>
    </defs>
    <g clip-path="url(#p749b65f15a)">
     <use xlink:href="#m42d7e27228" x="0" y="437.666906" style="fill: #388f84; stroke: #242424; stroke-width: 1.25"/>
    </g>
   </g>
   <g id="FillBetweenPolyCollection_3">
    <defs>
     <path id="m8726f470eb" d="M 439.656006 -74.997156 
L 438.031494 -74.997156 
L 437.546929 -77.982497 
L 436.741103 -80.967838 
L 435.421304 -83.953179 
L 433.448938 -86.93852 
L 430.83415 -89.923861 
L 427.729645 -92.909202 
L 424.298407 -95.894543 
L 420.553832 -98.879884 
L 416.32228 -101.865224 
L 411.386211 -104.850565 
L 405.700248 -107.835906 
L 399.501648 -110.821247 
L 393.255284 -113.806588 
L 387.536551 -116.791929 
L 382.930357 -119.77727 
L 379.892047 -122.762611 
L 378.57975 -125.747952 
L 378.828873 -128.733293 
L 380.320022 -131.718634 
L 382.738579 -134.703974 
L 385.786134 -137.689315 
L 389.148783 -140.674656 
L 392.52936 -143.659997 
L 395.696011 -146.645338 
L 398.508512 -149.630679 
L 400.966132 -152.61602 
L 403.247802 -155.601361 
L 405.637153 -158.586702 
L 408.349343 -161.572043 
L 411.412474 -164.557384 
L 414.685035 -167.542724 
L 417.953712 -170.528065 
L 421.027685 -173.513406 
L 423.779497 -176.498747 
L 426.124821 -179.484088 
L 427.995164 -182.469429 
L 429.370748 -185.45477 
L 430.345769 -188.440111 
L 431.11976 -191.425452 
L 431.885637 -194.410793 
L 432.719092 -197.396134 
L 433.573227 -200.381474 
L 434.355243 -203.366815 
L 434.99121 -206.352156 
L 435.44626 -209.337497 
L 435.735873 -212.322838 
L 435.936031 -215.308179 
L 436.154669 -218.29352 
L 436.463393 -221.278861 
L 436.850914 -224.264202 
L 437.243064 -227.249543 
L 437.561949 -230.234884 
L 437.768302 -233.220224 
L 437.866215 -236.205565 
L 437.887385 -239.190906 
L 437.875667 -242.176247 
L 437.876433 -245.161588 
L 437.923701 -248.146929 
L 438.02344 -251.13227 
L 438.148069 -254.117611 
L 438.256342 -257.102952 
L 438.323556 -260.088293 
L 438.351125 -263.073634 
L 438.352758 -266.058974 
L 438.342927 -269.044315 
L 438.338446 -272.029656 
L 438.358487 -275.014997 
L 438.414754 -278.000338 
L 438.502693 -280.985679 
L 438.603865 -283.97102 
L 438.696541 -286.956361 
L 438.765999 -289.941702 
L 438.808863 -292.927043 
L 438.830603 -295.912384 
L 438.839627 -298.897724 
L 438.842681 -301.883065 
L 438.843522 -304.868406 
L 438.84371 -307.853747 
L 438.843744 -310.839088 
L 438.843749 -313.824429 
L 438.84375 -316.80977 
L 438.84375 -319.795111 
L 438.84375 -322.780452 
L 438.84375 -325.765793 
L 438.84375 -328.751134 
L 438.84375 -331.736474 
L 438.84375 -334.721815 
L 438.843749 -337.707156 
L 438.843745 -340.692497 
L 438.843717 -343.677838 
L 438.84356 -346.663179 
L 438.842863 -349.64852 
L 438.840371 -352.633861 
L 438.833279 -355.619202 
L 438.817329 -358.604543 
L 438.789479 -361.589884 
L 438.752995 -364.575224 
L 438.720197 -367.560565 
L 438.706815 -370.545906 
L 438.980685 -370.545906 
L 438.980685 -370.545906 
L 438.967303 -367.560565 
L 438.934505 -364.575224 
L 438.898021 -361.589884 
L 438.870171 -358.604543 
L 438.854221 -355.619202 
L 438.847129 -352.633861 
L 438.844637 -349.64852 
L 438.84394 -346.663179 
L 438.843783 -343.677838 
L 438.843755 -340.692497 
L 438.843751 -337.707156 
L 438.84375 -334.721815 
L 438.84375 -331.736474 
L 438.84375 -328.751134 
L 438.84375 -325.765793 
L 438.84375 -322.780452 
L 438.84375 -319.795111 
L 438.84375 -316.80977 
L 438.843751 -313.824429 
L 438.843756 -310.839088 
L 438.84379 -307.853747 
L 438.843978 -304.868406 
L 438.844819 -301.883065 
L 438.847873 -298.897724 
L 438.856897 -295.912384 
L 438.878637 -292.927043 
L 438.921501 -289.941702 
L 438.990959 -286.956361 
L 439.083635 -283.97102 
L 439.184807 -280.985679 
L 439.272746 -278.000338 
L 439.329013 -275.014997 
L 439.349054 -272.029656 
L 439.344573 -269.044315 
L 439.334742 -266.058974 
L 439.336375 -263.073634 
L 439.363944 -260.088293 
L 439.431158 -257.102952 
L 439.539431 -254.117611 
L 439.66406 -251.13227 
L 439.763799 -248.146929 
L 439.811067 -245.161588 
L 439.811833 -242.176247 
L 439.800115 -239.190906 
L 439.821285 -236.205565 
L 439.919198 -233.220224 
L 440.125551 -230.234884 
L 440.444436 -227.249543 
L 440.836586 -224.264202 
L 441.224107 -221.278861 
L 441.532831 -218.29352 
L 441.751469 -215.308179 
L 441.951627 -212.322838 
L 442.24124 -209.337497 
L 442.69629 -206.352156 
L 443.332257 -203.366815 
L 444.114273 -200.381474 
L 444.968408 -197.396134 
L 445.801863 -194.410793 
L 446.56774 -191.425452 
L 447.341731 -188.440111 
L 448.316752 -185.45477 
L 449.692336 -182.469429 
L 451.562679 -179.484088 
L 453.908003 -176.498747 
L 456.659815 -173.513406 
L 459.733788 -170.528065 
L 463.002465 -167.542724 
L 466.275026 -164.557384 
L 469.338157 -161.572043 
L 472.050347 -158.586702 
L 474.439698 -155.601361 
L 476.721368 -152.61602 
L 479.178988 -149.630679 
L 481.991489 -146.645338 
L 485.15814 -143.659997 
L 488.538717 -140.674656 
L 491.901366 -137.689315 
L 494.948921 -134.703974 
L 497.367478 -131.718634 
L 498.858627 -128.733293 
L 499.10775 -125.747952 
L 497.795453 -122.762611 
L 494.757143 -119.77727 
L 490.150949 -116.791929 
L 484.432216 -113.806588 
L 478.185852 -110.821247 
L 471.987252 -107.835906 
L 466.301289 -104.850565 
L 461.36522 -101.865224 
L 457.133668 -98.879884 
L 453.389093 -95.894543 
L 449.957855 -92.909202 
L 446.85335 -89.923861 
L 444.238562 -86.93852 
L 442.266196 -83.953179 
L 440.946397 -80.967838 
L 440.140571 -77.982497 
L 439.656006 -74.997156 
z
" style="stroke: #242424; stroke-width: 1.25"/>
    </defs>
    <g clip-path="url(#p749b65f15a)">
     <use xlink:href="#m8726f470eb" x="0" y="437.666906" style="fill: #2c444d; stroke: #242424; stroke-width: 1.25"/>
    </g>
   </g>
   <g id="FillBetweenPolyCollection_4">
    <defs>
     <path id="mea1ae2b5a6" d="M 590.514247 -72.020406 
L 588.493253 -72.020406 
L 588.296189 -73.351997 
L 588.046438 -74.683588 
L 587.724733 -76.015179 
L 587.309398 -77.34677 
L 586.777773 -78.678361 
L 586.107914 -80.009952 
L 585.280501 -81.341543 
L 584.280844 -82.673134 
L 583.100876 -84.004724 
L 581.740872 -85.336315 
L 580.210526 -86.667906 
L 578.528892 -87.999497 
L 576.722801 -89.331088 
L 574.82357 -90.662679 
L 572.862316 -91.99427 
L 570.864653 -93.325861 
L 568.845948 -94.657452 
L 566.808407 -95.989043 
L 564.740945 -97.320634 
L 562.622131 -98.652224 
L 560.425734 -99.983815 
L 558.127667 -101.315406 
L 555.712829 -102.646997 
L 553.180421 -103.978588 
L 550.54687 -105.310179 
L 547.846121 -106.64177 
L 545.127657 -107.973361 
L 542.452853 -109.304952 
L 539.89026 -110.636543 
L 537.510104 -111.968134 
L 535.378129 -113.299724 
L 533.548909 -114.631315 
L 532.059114 -115.962906 
L 530.921727 -117.294497 
L 530.122659 -118.626088 
L 529.621227 -119.957679 
L 529.355454 -121.28927 
L 529.252065 -122.620861 
L 529.23975 -123.952452 
L 529.263123 -125.284043 
L 529.294282 -126.615634 
L 529.339158 -127.947224 
L 529.436973 -129.278815 
L 529.652719 -130.610406 
L 530.064241 -131.941997 
L 530.746769 -133.273588 
L 531.758186 -134.605179 
L 533.128059 -135.93677 
L 534.852376 -137.268361 
L 536.894558 -138.599952 
L 539.19192 -139.931543 
L 541.66568 -141.263134 
L 544.232097 -142.594724 
L 546.812447 -143.926315 
L 549.340211 -145.257906 
L 551.764772 -146.589497 
L 554.051925 -147.921088 
L 556.182228 -149.252679 
L 558.148459 -150.58427 
L 559.953294 -151.915861 
L 561.607725 -153.247452 
L 563.130158 -154.579043 
L 564.545588 -155.910634 
L 565.884159 -157.242224 
L 567.178592 -158.573815 
L 568.460486 -159.905406 
L 569.755987 -161.236997 
L 571.081706 -162.568588 
L 572.44184 -163.900179 
L 573.827223 -165.23177 
L 575.216582 -166.563361 
L 576.579781 -167.894952 
L 577.882439 -169.226543 
L 579.09106 -170.558134 
L 580.177818 -171.889724 
L 581.124287 -173.221315 
L 581.923618 -174.552906 
L 582.580962 -175.884497 
L 583.112191 -177.216088 
L 583.541167 -178.547679 
L 583.896029 -179.87927 
L 584.205091 -181.210861 
L 584.492972 -182.542452 
L 584.777569 -183.874043 
L 585.068297 -185.205634 
L 585.365838 -186.537224 
L 585.663348 -187.868815 
L 585.948864 -189.200406 
L 586.208459 -190.531997 
L 586.429593 -191.863588 
L 586.604099 -193.195179 
L 586.73028 -194.52677 
L 586.813739 -195.858361 
L 586.866799 -197.189952 
L 586.906579 -198.521543 
L 586.952098 -199.853134 
L 587.020986 -201.184724 
L 587.126461 -202.516315 
L 587.275212 -203.847906 
L 591.732288 -203.847906 
L 591.732288 -203.847906 
L 591.881039 -202.516315 
L 591.986514 -201.184724 
L 592.055402 -199.853134 
L 592.100921 -198.521543 
L 592.140701 -197.189952 
L 592.193761 -195.858361 
L 592.27722 -194.52677 
L 592.403401 -193.195179 
L 592.577907 -191.863588 
L 592.799041 -190.531997 
L 593.058636 -189.200406 
L 593.344152 -187.868815 
L 593.641662 -186.537224 
L 593.939203 -185.205634 
L 594.229931 -183.874043 
L 594.514528 -182.542452 
L 594.802409 -181.210861 
L 595.111471 -179.87927 
L 595.466333 -178.547679 
L 595.895309 -177.216088 
L 596.426538 -175.884497 
L 597.083882 -174.552906 
L 597.883213 -173.221315 
L 598.829682 -171.889724 
L 599.91644 -170.558134 
L 601.125061 -169.226543 
L 602.427719 -167.894952 
L 603.790918 -166.563361 
L 605.180277 -165.23177 
L 606.56566 -163.900179 
L 607.925794 -162.568588 
L 609.251513 -161.236997 
L 610.547014 -159.905406 
L 611.828908 -158.573815 
L 613.123341 -157.242224 
L 614.461912 -155.910634 
L 615.877342 -154.579043 
L 617.399775 -153.247452 
L 619.054206 -151.915861 
L 620.859041 -150.58427 
L 622.825272 -149.252679 
L 624.955575 -147.921088 
L 627.242728 -146.589497 
L 629.667289 -145.257906 
L 632.195053 -143.926315 
L 634.775403 -142.594724 
L 637.34182 -141.263134 
L 639.81558 -139.931543 
L 642.112942 -138.599952 
L 644.155124 -137.268361 
L 645.879441 -135.93677 
L 647.249314 -134.605179 
L 648.260731 -133.273588 
L 648.943259 -131.941997 
L 649.354781 -130.610406 
L 649.570527 -129.278815 
L 649.668342 -127.947224 
L 649.713218 -126.615634 
L 649.744377 -125.284043 
L 649.76775 -123.952452 
L 649.755435 -122.620861 
L 649.652046 -121.28927 
L 649.386273 -119.957679 
L 648.884841 -118.626088 
L 648.085773 -117.294497 
L 646.948386 -115.962906 
L 645.458591 -114.631315 
L 643.629371 -113.299724 
L 641.497396 -111.968134 
L 639.11724 -110.636543 
L 636.554647 -109.304952 
L 633.879843 -107.973361 
L 631.161379 -106.64177 
L 628.46063 -105.310179 
L 625.827079 -103.978588 
L 623.294671 -102.646997 
L 620.879833 -101.315406 
L 618.581766 -99.983815 
L 616.385369 -98.652224 
L 614.266555 -97.320634 
L 612.199093 -95.989043 
L 610.161552 -94.657452 
L 608.142847 -93.325861 
L 606.145184 -91.99427 
L 604.18393 -90.662679 
L 602.284699 -89.331088 
L 600.478608 -87.999497 
L 598.796974 -86.667906 
L 597.266628 -85.336315 
L 595.906624 -84.004724 
L 594.726656 -82.673134 
L 593.726999 -81.341543 
L 592.899586 -80.009952 
L 592.229727 -78.678361 
L 591.698102 -77.34677 
L 591.282767 -76.015179 
L 590.961062 -74.683588 
L 590.711311 -73.351997 
L 590.514247 -72.020406 
z
" style="stroke: #242424; stroke-width: 1.25"/>
    </defs>
    <g clip-path="url(#p749b65f15a)">
     <use xlink:href="#mea1ae2b5a6" x="0" y="437.666906" style="fill: #e2a473; stroke: #242424; stroke-width: 1.25"/>
    </g>
   </g>
   <g id="matplotlib.axis_1">
    <g id="xtick_1">
     <g id="line2d_1">
      <defs>
       <path id="m954a5b940d" d="M 0 0 
L 0 3.5 
" style="stroke: #333333; stroke-width: 0.8"/>
      </defs>
      <g>
       <use xlink:href="#m954a5b940d" x="137.52375" y="380.9555" style="fill: #333333; stroke: #333333; stroke-width: 0.8"/>
      </g>
     </g>
     <g id="text_1">
      <!-- 20-39 -->
      <g style="fill: #333333" transform="translate(120.815508 396.693703) scale(0.115 -0.115)">
       <defs>
        <path id="DejaVuSans-32" d="M 1228 531 
L 3431 531 
L 3431 0 
L 469 0 
L 469 531 
Q 828 903 1448 1529 
Q 2069 2156 2228 2338 
Q 2531 2678 2651 2914 
Q 2772 3150 2772 3378 
Q 2772 3750 2511 3984 
Q 2250 4219 1831 4219 
Q 1534 4219 1204 4116 
Q 875 4013 500 3803 
L 500 4441 
Q 881 4594 1212 4672 
Q 1544 4750 1819 4750 
Q 2544 4750 2975 4387 
Q 3406 4025 3406 3419 
Q 3406 3131 3298 2873 
Q 3191 2616 2906 2266 
Q 2828 2175 2409 1742 
Q 1991 1309 1228 531 
z
" transform="scale(0.015625)"/>
        <path id="DejaVuSans-30" d="M 2034 4250 
Q 1547 4250 1301 3770 
Q 1056 3291 1056 2328 
Q 1056 1369 1301 889 
Q 1547 409 2034 409 
Q 2525 409 2770 889 
Q 3016 1369 3016 2328 
Q 3016 3291 2770 3770 
Q 2525 4250 2034 4250 
z
M 2034 4750 
Q 2819 4750 3233 4129 
Q 3647 3509 3647 2328 
Q 3647 1150 3233 529 
Q 2819 -91 2034 -91 
Q 1250 -91 836 529 
Q 422 1150 422 2328 
Q 422 3509 836 4129 
Q 1250 4750 2034 4750 
z
" transform="scale(0.015625)"/>
        <path id="DejaVuSans-2d" d="M 313 2009 
L 1997 2009 
L 1997 1497 
L 313 1497 
L 313 2009 
z
" transform="scale(0.015625)"/>
        <path id="DejaVuSans-33" d="M 2597 2516 
Q 3050 2419 3304 2112 
Q 3559 1806 3559 1356 
Q 3559 666 3084 287 
Q 2609 -91 1734 -91 
Q 1441 -91 1130 -33 
Q 819 25 488 141 
L 488 750 
Q 750 597 1062 519 
Q 1375 441 1716 441 
Q 2309 441 2620 675 
Q 2931 909 2931 1356 
Q 2931 1769 2642 2001 
Q 2353 2234 1838 2234 
L 1294 2234 
L 1294 2753 
L 1863 2753 
Q 2328 2753 2575 2939 
Q 2822 3125 2822 3475 
Q 2822 3834 2567 4026 
Q 2313 4219 1838 4219 
Q 1578 4219 1281 4162 
Q 984 4106 628 3988 
L 628 4550 
Q 988 4650 1302 4700 
Q 1616 4750 1894 4750 
Q 2613 4750 3031 4423 
Q 3450 4097 3450 3541 
Q 3450 3153 3228 2886 
Q 3006 2619 2597 2516 
z
" transform="scale(0.015625)"/>
        <path id="DejaVuSans-39" d="M 703 97 
L 703 672 
Q 941 559 1184 500 
Q 1428 441 1663 441 
Q 2288 441 2617 861 
Q 2947 1281 2994 2138 
Q 2813 1869 2534 1725 
Q 2256 1581 1919 1581 
Q 1219 1581 811 2004 
Q 403 2428 403 3163 
Q 403 3881 828 4315 
Q 1253 4750 1959 4750 
Q 2769 4750 3195 4129 
Q 3622 3509 3622 2328 
Q 3622 1225 3098 567 
Q 2575 -91 1691 -91 
Q 1453 -91 1209 -44 
Q 966 3 703 97 
z
M 1959 2075 
Q 2384 2075 2632 2365 
Q 2881 2656 2881 3163 
Q 2881 3666 2632 3958 
Q 2384 4250 1959 4250 
Q 1534 4250 1286 3958 
Q 1038 3666 1038 3163 
Q 1038 2656 1286 2365 
Q 1534 2075 1959 2075 
z
" transform="scale(0.015625)"/>
       </defs>
       <use xlink:href="#DejaVuSans-32"/>
       <use xlink:href="#DejaVuSans-30" transform="translate(63.623047 0)"/>
       <use xlink:href="#DejaVuSans-2d" transform="translate(127.246094 0)"/>
       <use xlink:href="#DejaVuSans-33" transform="translate(163.330078 0)"/>
       <use xlink:href="#DejaVuSans-39" transform="translate(226.953125 0)"/>
      </g>
     </g>
    </g>
    <g id="xtick_2">
     <g id="line2d_2">
      <g>
       <use xlink:href="#m954a5b940d" x="288.18375" y="380.9555" style="fill: #333333; stroke: #333333; stroke-width: 0.8"/>
      </g>
     </g>
     <g id="text_2">
      <!-- 40-59 -->
      <g style="fill: #333333" transform="translate(271.475508 396.693703) scale(0.115 -0.115)">
       <defs>
        <path id="DejaVuSans-34" d="M 2419 4116 
L 825 1625 
L 2419 1625 
L 2419 4116 
z
M 2253 4666 
L 3047 4666 
L 3047 1625 
L 3713 1625 
L 3713 1100 
L 3047 1100 
L 3047 0 
L 2419 0 
L 2419 1100 
L 313 1100 
L 313 1709 
L 2253 4666 
z
" transform="scale(0.015625)"/>
        <path id="DejaVuSans-35" d="M 691 4666 
L 3169 4666 
L 3169 4134 
L 1269 4134 
L 1269 2991 
Q 1406 3038 1543 3061 
Q 1681 3084 1819 3084 
Q 2600 3084 3056 2656 
Q 3513 2228 3513 1497 
Q 3513 744 3044 326 
Q 2575 -91 1722 -91 
Q 1428 -91 1123 -41 
Q 819 9 494 109 
L 494 744 
Q 775 591 1075 516 
Q 1375 441 1709 441 
Q 2250 441 2565 725 
Q 2881 1009 2881 1497 
Q 2881 1984 2565 2268 
Q 2250 2553 1709 2553 
Q 1456 2553 1204 2497 
Q 953 2441 691 2322 
L 691 4666 
z
" transform="scale(0.015625)"/>
       </defs>
       <use xlink:href="#DejaVuSans-34"/>
       <use xlink:href="#DejaVuSans-30" transform="translate(63.623047 0)"/>
       <use xlink:href="#DejaVuSans-2d" transform="translate(127.246094 0)"/>
       <use xlink:href="#DejaVuSans-35" transform="translate(163.330078 0)"/>
       <use xlink:href="#DejaVuSans-39" transform="translate(226.953125 0)"/>
      </g>
     </g>
    </g>
    <g id="xtick_3">
     <g id="line2d_3">
      <g>
       <use xlink:href="#m954a5b940d" x="438.84375" y="380.9555" style="fill: #333333; stroke: #333333; stroke-width: 0.8"/>
      </g>
     </g>
     <g id="text_3">
      <!-- 60-79 -->
      <g style="fill: #333333" transform="translate(422.135508 396.693703) scale(0.115 -0.115)">
       <defs>
        <path id="DejaVuSans-36" d="M 2113 2584 
Q 1688 2584 1439 2293 
Q 1191 2003 1191 1497 
Q 1191 994 1439 701 
Q 1688 409 2113 409 
Q 2538 409 2786 701 
Q 3034 994 3034 1497 
Q 3034 2003 2786 2293 
Q 2538 2584 2113 2584 
z
M 3366 4563 
L 3366 3988 
Q 3128 4100 2886 4159 
Q 2644 4219 2406 4219 
Q 1781 4219 1451 3797 
Q 1122 3375 1075 2522 
Q 1259 2794 1537 2939 
Q 1816 3084 2150 3084 
Q 2853 3084 3261 2657 
Q 3669 2231 3669 1497 
Q 3669 778 3244 343 
Q 2819 -91 2113 -91 
Q 1303 -91 875 529 
Q 447 1150 447 2328 
Q 447 3434 972 4092 
Q 1497 4750 2381 4750 
Q 2619 4750 2861 4703 
Q 3103 4656 3366 4563 
z
" transform="scale(0.015625)"/>
        <path id="DejaVuSans-37" d="M 525 4666 
L 3525 4666 
L 3525 4397 
L 1831 0 
L 1172 0 
L 2766 4134 
L 525 4134 
L 525 4666 
z
" transform="scale(0.015625)"/>
       </defs>
       <use xlink:href="#DejaVuSans-36"/>
       <use xlink:href="#DejaVuSans-30" transform="translate(63.623047 0)"/>
       <use xlink:href="#DejaVuSans-2d" transform="translate(127.246094 0)"/>
       <use xlink:href="#DejaVuSans-37" transform="translate(163.330078 0)"/>
       <use xlink:href="#DejaVuSans-39" transform="translate(226.953125 0)"/>
      </g>
     </g>
    </g>
    <g id="xtick_4">
     <g id="line2d_4">
      <g>
       <use xlink:href="#m954a5b940d" x="589.50375" y="380.9555" style="fill: #333333; stroke: #333333; stroke-width: 0.8"/>
      </g>
     </g>
     <g id="text_4">
      <!-- 80+ -->
      <g style="fill: #333333" transform="translate(577.368555 396.693703) scale(0.115 -0.115)">
       <defs>
        <path id="DejaVuSans-38" d="M 2034 2216 
Q 1584 2216 1326 1975 
Q 1069 1734 1069 1313 
Q 1069 891 1326 650 
Q 1584 409 2034 409 
Q 2484 409 2743 651 
Q 3003 894 3003 1313 
Q 3003 1734 2745 1975 
Q 2488 2216 2034 2216 
z
M 1403 2484 
Q 997 2584 770 2862 
Q 544 3141 544 3541 
Q 544 4100 942 4425 
Q 1341 4750 2034 4750 
Q 2731 4750 3128 4425 
Q 3525 4100 3525 3541 
Q 3525 3141 3298 2862 
Q 3072 2584 2669 2484 
Q 3125 2378 3379 2068 
Q 3634 1759 3634 1313 
Q 3634 634 3220 271 
Q 2806 -91 2034 -91 
Q 1263 -91 848 271 
Q 434 634 434 1313 
Q 434 1759 690 2068 
Q 947 2378 1403 2484 
z
M 1172 3481 
Q 1172 3119 1398 2916 
Q 1625 2713 2034 2713 
Q 2441 2713 2670 2916 
Q 2900 3119 2900 3481 
Q 2900 3844 2670 4047 
Q 2441 4250 2034 4250 
Q 1625 4250 1398 4047 
Q 1172 3844 1172 3481 
z
" transform="scale(0.015625)"/>
        <path id="DejaVuSans-2b" d="M 2944 4013 
L 2944 2272 
L 4684 2272 
L 4684 1741 
L 2944 1741 
L 2944 0 
L 2419 0 
L 2419 1741 
L 678 1741 
L 678 2272 
L 2419 2272 
L 2419 4013 
L 2944 4013 
z
" transform="scale(0.015625)"/>
       </defs>
       <use xlink:href="#DejaVuSans-38"/>
       <use xlink:href="#DejaVuSans-30" transform="translate(63.623047 0)"/>
       <use xlink:href="#DejaVuSans-2b" transform="translate(127.246094 0)"/>
      </g>
     </g>
    </g>
    <g id="text_5">
     <!-- Age group (years) -->
     <g transform="translate(304.974141 416.963313) scale(0.13 -0.13)">
      <defs>
       <path id="DejaVuSans-41" d="M 2188 4044 
L 1331 1722 
L 3047 1722 
L 2188 4044 
z
M 1831 4666 
L 2547 4666 
L 4325 0 
L 3669 0 
L 3244 1197 
L 1141 1197 
L 716 0 
L 50 0 
L 1831 4666 
z
" transform="scale(0.015625)"/>
       <path id="DejaVuSans-67" d="M 2906 1791 
Q 2906 2416 2648 2759 
Q 2391 3103 1925 3103 
Q 1463 3103 1205 2759 
Q 947 2416 947 1791 
Q 947 1169 1205 825 
Q 1463 481 1925 481 
Q 2391 481 2648 825 
Q 2906 1169 2906 1791 
z
M 3481 434 
Q 3481 -459 3084 -895 
Q 2688 -1331 1869 -1331 
Q 1566 -1331 1297 -1286 
Q 1028 -1241 775 -1147 
L 775 -588 
Q 1028 -725 1275 -790 
Q 1522 -856 1778 -856 
Q 2344 -856 2625 -561 
Q 2906 -266 2906 331 
L 2906 616 
Q 2728 306 2450 153 
Q 2172 0 1784 0 
Q 1141 0 747 490 
Q 353 981 353 1791 
Q 353 2603 747 3093 
Q 1141 3584 1784 3584 
Q 2172 3584 2450 3431 
Q 2728 3278 2906 2969 
L 2906 3500 
L 3481 3500 
L 3481 434 
z
" transform="scale(0.015625)"/>
       <path id="DejaVuSans-65" d="M 3597 1894 
L 3597 1613 
L 953 1613 
Q 991 1019 1311 708 
Q 1631 397 2203 397 
Q 2534 397 2845 478 
Q 3156 559 3463 722 
L 3463 178 
Q 3153 47 2828 -22 
Q 2503 -91 2169 -91 
Q 1331 -91 842 396 
Q 353 884 353 1716 
Q 353 2575 817 3079 
Q 1281 3584 2069 3584 
Q 2775 3584 3186 3129 
Q 3597 2675 3597 1894 
z
M 3022 2063 
Q 3016 2534 2758 2815 
Q 2500 3097 2075 3097 
Q 1594 3097 1305 2825 
Q 1016 2553 972 2059 
L 3022 2063 
z
" transform="scale(0.015625)"/>
       <path id="DejaVuSans-20" transform="scale(0.015625)"/>
       <path id="DejaVuSans-72" d="M 2631 2963 
Q 2534 3019 2420 3045 
Q 2306 3072 2169 3072 
Q 1681 3072 1420 2755 
Q 1159 2438 1159 1844 
L 1159 0 
L 581 0 
L 581 3500 
L 1159 3500 
L 1159 2956 
Q 1341 3275 1631 3429 
Q 1922 3584 2338 3584 
Q 2397 3584 2469 3576 
Q 2541 3569 2628 3553 
L 2631 2963 
z
" transform="scale(0.015625)"/>
       <path id="DejaVuSans-6f" d="M 1959 3097 
Q 1497 3097 1228 2736 
Q 959 2375 959 1747 
Q 959 1119 1226 758 
Q 1494 397 1959 397 
Q 2419 397 2687 759 
Q 2956 1122 2956 1747 
Q 2956 2369 2687 2733 
Q 2419 3097 1959 3097 
z
M 1959 3584 
Q 2709 3584 3137 3096 
Q 3566 2609 3566 1747 
Q 3566 888 3137 398 
Q 2709 -91 1959 -91 
Q 1206 -91 779 398 
Q 353 888 353 1747 
Q 353 2609 779 3096 
Q 1206 3584 1959 3584 
z
" transform="scale(0.015625)"/>
       <path id="DejaVuSans-75" d="M 544 1381 
L 544 3500 
L 1119 3500 
L 1119 1403 
Q 1119 906 1312 657 
Q 1506 409 1894 409 
Q 2359 409 2629 706 
Q 2900 1003 2900 1516 
L 2900 3500 
L 3475 3500 
L 3475 0 
L 2900 0 
L 2900 538 
Q 2691 219 2414 64 
Q 2138 -91 1772 -91 
Q 1169 -91 856 284 
Q 544 659 544 1381 
z
M 1991 3584 
L 1991 3584 
z
" transform="scale(0.015625)"/>
       <path id="DejaVuSans-70" d="M 1159 525 
L 1159 -1331 
L 581 -1331 
L 581 3500 
L 1159 3500 
L 1159 2969 
Q 1341 3281 1617 3432 
Q 1894 3584 2278 3584 
Q 2916 3584 3314 3078 
Q 3713 2572 3713 1747 
Q 3713 922 3314 415 
Q 2916 -91 2278 -91 
Q 1894 -91 1617 61 
Q 1341 213 1159 525 
z
M 3116 1747 
Q 3116 2381 2855 2742 
Q 2594 3103 2138 3103 
Q 1681 3103 1420 2742 
Q 1159 2381 1159 1747 
Q 1159 1113 1420 752 
Q 1681 391 2138 391 
Q 2594 391 2855 752 
Q 3116 1113 3116 1747 
z
" transform="scale(0.015625)"/>
       <path id="DejaVuSans-28" d="M 1984 4856 
Q 1566 4138 1362 3434 
Q 1159 2731 1159 2009 
Q 1159 1288 1364 580 
Q 1569 -128 1984 -844 
L 1484 -844 
Q 1016 -109 783 600 
Q 550 1309 550 2009 
Q 550 2706 781 3412 
Q 1013 4119 1484 4856 
L 1984 4856 
z
" transform="scale(0.015625)"/>
       <path id="DejaVuSans-79" d="M 2059 -325 
Q 1816 -950 1584 -1140 
Q 1353 -1331 966 -1331 
L 506 -1331 
L 506 -850 
L 844 -850 
Q 1081 -850 1212 -737 
Q 1344 -625 1503 -206 
L 1606 56 
L 191 3500 
L 800 3500 
L 1894 763 
L 2988 3500 
L 3597 3500 
L 2059 -325 
z
" transform="scale(0.015625)"/>
       <path id="DejaVuSans-61" d="M 2194 1759 
Q 1497 1759 1228 1600 
Q 959 1441 959 1056 
Q 959 750 1161 570 
Q 1363 391 1709 391 
Q 2188 391 2477 730 
Q 2766 1069 2766 1631 
L 2766 1759 
L 2194 1759 
z
M 3341 1997 
L 3341 0 
L 2766 0 
L 2766 531 
Q 2569 213 2275 61 
Q 1981 -91 1556 -91 
Q 1019 -91 701 211 
Q 384 513 384 1019 
Q 384 1609 779 1909 
Q 1175 2209 1959 2209 
L 2766 2209 
L 2766 2266 
Q 2766 2663 2505 2880 
Q 2244 3097 1772 3097 
Q 1472 3097 1187 3025 
Q 903 2953 641 2809 
L 641 3341 
Q 956 3463 1253 3523 
Q 1550 3584 1831 3584 
Q 2591 3584 2966 3190 
Q 3341 2797 3341 1997 
z
" transform="scale(0.015625)"/>
       <path id="DejaVuSans-73" d="M 2834 3397 
L 2834 2853 
Q 2591 2978 2328 3040 
Q 2066 3103 1784 3103 
Q 1356 3103 1142 2972 
Q 928 2841 928 2578 
Q 928 2378 1081 2264 
Q 1234 2150 1697 2047 
L 1894 2003 
Q 2506 1872 2764 1633 
Q 3022 1394 3022 966 
Q 3022 478 2636 193 
Q 2250 -91 1575 -91 
Q 1294 -91 989 -36 
Q 684 19 347 128 
L 347 722 
Q 666 556 975 473 
Q 1284 391 1588 391 
Q 1994 391 2212 530 
Q 2431 669 2431 922 
Q 2431 1156 2273 1281 
Q 2116 1406 1581 1522 
L 1381 1569 
Q 847 1681 609 1914 
Q 372 2147 372 2553 
Q 372 3047 722 3315 
Q 1072 3584 1716 3584 
Q 2034 3584 2315 3537 
Q 2597 3491 2834 3397 
z
" transform="scale(0.015625)"/>
       <path id="DejaVuSans-29" d="M 513 4856 
L 1013 4856 
Q 1481 4119 1714 3412 
Q 1947 2706 1947 2009 
Q 1947 1309 1714 600 
Q 1481 -109 1013 -844 
L 513 -844 
Q 928 -128 1133 580 
Q 1338 1288 1338 2009 
Q 1338 2731 1133 3434 
Q 928 4138 513 4856 
z
" transform="scale(0.015625)"/>
      </defs>
      <use xlink:href="#DejaVuSans-41"/>
      <use xlink:href="#DejaVuSans-67" transform="translate(68.408203 0)"/>
      <use xlink:href="#DejaVuSans-65" transform="translate(131.884766 0)"/>
      <use xlink:href="#DejaVuSans-20" transform="translate(193.408203 0)"/>
      <use xlink:href="#DejaVuSans-67" transform="translate(225.195312 0)"/>
      <use xlink:href="#DejaVuSans-72" transform="translate(288.671875 0)"/>
      <use xlink:href="#DejaVuSans-6f" transform="translate(327.535156 0)"/>
      <use xlink:href="#DejaVuSans-75" transform="translate(388.716797 0)"/>
      <use xlink:href="#DejaVuSans-70" transform="translate(452.095703 0)"/>
      <use xlink:href="#DejaVuSans-20" transform="translate(515.572266 0)"/>
      <use xlink:href="#DejaVuSans-28" transform="translate(547.359375 0)"/>
      <use xlink:href="#DejaVuSans-79" transform="translate(586.373047 0)"/>
      <use xlink:href="#DejaVuSans-65" transform="translate(645.552734 0)"/>
      <use xlink:href="#DejaVuSans-61" transform="translate(707.076172 0)"/>
      <use xlink:href="#DejaVuSans-72" transform="translate(768.355469 0)"/>
      <use xlink:href="#DejaVuSans-73" transform="translate(809.46875 0)"/>
      <use xlink:href="#DejaVuSans-29" transform="translate(861.568359 0)"/>
     </g>
    </g>
   </g>
   <g id="matplotlib.axis_2">
    <g id="ytick_1">
     <g id="line2d_5">
      <path d="M 62.19375 340.982 
L 664.83375 340.982 
" clip-path="url(#p749b65f15a)" style="fill: none; stroke: #dddddd; stroke-width: 0.7; stroke-linecap: square"/>
     </g>
     <g id="line2d_6">
      <defs>
       <path id="m9355eb9aaa" d="M 0 0 
L -3.5 0 
" style="stroke: #333333; stroke-width: 0.8"/>
      </defs>
      <g>
       <use xlink:href="#m9355eb9aaa" x="62.19375" y="340.982" style="fill: #333333; stroke: #333333; stroke-width: 0.8"/>
      </g>
     </g>
     <g id="text_6">
      <!-- 20 -->
      <g style="fill: #333333" transform="translate(40.56 345.351102) scale(0.115 -0.115)">
       <use xlink:href="#DejaVuSans-32"/>
       <use xlink:href="#DejaVuSans-30" transform="translate(63.623047 0)"/>
      </g>
     </g>
    </g>
    <g id="ytick_2">
     <g id="line2d_7">
      <path d="M 62.19375 298.457 
L 664.83375 298.457 
" clip-path="url(#p749b65f15a)" style="fill: none; stroke: #dddddd; stroke-width: 0.7; stroke-linecap: square"/>
     </g>
     <g id="line2d_8">
      <g>
       <use xlink:href="#m9355eb9aaa" x="62.19375" y="298.457" style="fill: #333333; stroke: #333333; stroke-width: 0.8"/>
      </g>
     </g>
     <g id="text_7">
      <!-- 30 -->
      <g style="fill: #333333" transform="translate(40.56 302.826102) scale(0.115 -0.115)">
       <use xlink:href="#DejaVuSans-33"/>
       <use xlink:href="#DejaVuSans-30" transform="translate(63.623047 0)"/>
      </g>
     </g>
    </g>
    <g id="ytick_3">
     <g id="line2d_9">
      <path d="M 62.19375 255.932 
L 664.83375 255.932 
" clip-path="url(#p749b65f15a)" style="fill: none; stroke: #dddddd; stroke-width: 0.7; stroke-linecap: square"/>
     </g>
     <g id="line2d_10">
      <g>
       <use xlink:href="#m9355eb9aaa" x="62.19375" y="255.932" style="fill: #333333; stroke: #333333; stroke-width: 0.8"/>
      </g>
     </g>
     <g id="text_8">
      <!-- 40 -->
      <g style="fill: #333333" transform="translate(40.56 260.301102) scale(0.115 -0.115)">
       <use xlink:href="#DejaVuSans-34"/>
       <use xlink:href="#DejaVuSans-30" transform="translate(63.623047 0)"/>
      </g>
     </g>
    </g>
    <g id="ytick_4">
     <g id="line2d_11">
      <path d="M 62.19375 213.407 
L 664.83375 213.407 
" clip-path="url(#p749b65f15a)" style="fill: none; stroke: #dddddd; stroke-width: 0.7; stroke-linecap: square"/>
     </g>
     <g id="line2d_12">
      <g>
       <use xlink:href="#m9355eb9aaa" x="62.19375" y="213.407" style="fill: #333333; stroke: #333333; stroke-width: 0.8"/>
      </g>
     </g>
     <g id="text_9">
      <!-- 50 -->
      <g style="fill: #333333" transform="translate(40.56 217.776102) scale(0.115 -0.115)">
       <use xlink:href="#DejaVuSans-35"/>
       <use xlink:href="#DejaVuSans-30" transform="translate(63.623047 0)"/>
      </g>
     </g>
    </g>
    <g id="ytick_5">
     <g id="line2d_13">
      <path d="M 62.19375 170.882 
L 664.83375 170.882 
" clip-path="url(#p749b65f15a)" style="fill: none; stroke: #dddddd; stroke-width: 0.7; stroke-linecap: square"/>
     </g>
     <g id="line2d_14">
      <g>
       <use xlink:href="#m9355eb9aaa" x="62.19375" y="170.882" style="fill: #333333; stroke: #333333; stroke-width: 0.8"/>
      </g>
     </g>
     <g id="text_10">
      <!-- 60 -->
      <g style="fill: #333333" transform="translate(40.56 175.251102) scale(0.115 -0.115)">
       <use xlink:href="#DejaVuSans-36"/>
       <use xlink:href="#DejaVuSans-30" transform="translate(63.623047 0)"/>
      </g>
     </g>
    </g>
    <g id="ytick_6">
     <g id="line2d_15">
      <path d="M 62.19375 128.357 
L 664.83375 128.357 
" clip-path="url(#p749b65f15a)" style="fill: none; stroke: #dddddd; stroke-width: 0.7; stroke-linecap: square"/>
     </g>
     <g id="line2d_16">
      <g>
       <use xlink:href="#m9355eb9aaa" x="62.19375" y="128.357" style="fill: #333333; stroke: #333333; stroke-width: 0.8"/>
      </g>
     </g>
     <g id="text_11">
      <!-- 70 -->
      <g style="fill: #333333" transform="translate(40.56 132.726102) scale(0.115 -0.115)">
       <use xlink:href="#DejaVuSans-37"/>
       <use xlink:href="#DejaVuSans-30" transform="translate(63.623047 0)"/>
      </g>
     </g>
    </g>
    <g id="ytick_7">
     <g id="line2d_17">
      <path d="M 62.19375 85.832 
L 664.83375 85.832 
" clip-path="url(#p749b65f15a)" style="fill: none; stroke: #dddddd; stroke-width: 0.7; stroke-linecap: square"/>
     </g>
     <g id="line2d_18">
      <g>
       <use xlink:href="#m9355eb9aaa" x="62.19375" y="85.832" style="fill: #333333; stroke: #333333; stroke-width: 0.8"/>
      </g>
     </g>
     <g id="text_12">
      <!-- 80 -->
      <g style="fill: #333333" transform="translate(40.56 90.201102) scale(0.115 -0.115)">
       <use xlink:href="#DejaVuSans-38"/>
       <use xlink:href="#DejaVuSans-30" transform="translate(63.623047 0)"/>
      </g>
     </g>
    </g>
    <g id="text_13">
     <!-- Body Mass Index (kg/m$^2$) -->
     <g transform="translate(29.83 294.1965) rotate(-90) scale(0.13 -0.13)">
      <defs>
       <path id="DejaVuSans-42" d="M 1259 2228 
L 1259 519 
L 2272 519 
Q 2781 519 3026 730 
Q 3272 941 3272 1375 
Q 3272 1813 3026 2020 
Q 2781 2228 2272 2228 
L 1259 2228 
z
M 1259 4147 
L 1259 2741 
L 2194 2741 
Q 2656 2741 2882 2914 
Q 3109 3088 3109 3444 
Q 3109 3797 2882 3972 
Q 2656 4147 2194 4147 
L 1259 4147 
z
M 628 4666 
L 2241 4666 
Q 2963 4666 3353 4366 
Q 3744 4066 3744 3513 
Q 3744 3084 3544 2831 
Q 3344 2578 2956 2516 
Q 3422 2416 3680 2098 
Q 3938 1781 3938 1306 
Q 3938 681 3513 340 
Q 3088 0 2303 0 
L 628 0 
L 628 4666 
z
" transform="scale(0.015625)"/>
       <path id="DejaVuSans-64" d="M 2906 2969 
L 2906 4863 
L 3481 4863 
L 3481 0 
L 2906 0 
L 2906 525 
Q 2725 213 2448 61 
Q 2172 -91 1784 -91 
Q 1150 -91 751 415 
Q 353 922 353 1747 
Q 353 2572 751 3078 
Q 1150 3584 1784 3584 
Q 2172 3584 2448 3432 
Q 2725 3281 2906 2969 
z
M 947 1747 
Q 947 1113 1208 752 
Q 1469 391 1925 391 
Q 2381 391 2643 752 
Q 2906 1113 2906 1747 
Q 2906 2381 2643 2742 
Q 2381 3103 1925 3103 
Q 1469 3103 1208 2742 
Q 947 2381 947 1747 
z
" transform="scale(0.015625)"/>
       <path id="DejaVuSans-4d" d="M 628 4666 
L 1569 4666 
L 2759 1491 
L 3956 4666 
L 4897 4666 
L 4897 0 
L 4281 0 
L 4281 4097 
L 3078 897 
L 2444 897 
L 1241 4097 
L 1241 0 
L 628 0 
L 628 4666 
z
" transform="scale(0.015625)"/>
       <path id="DejaVuSans-49" d="M 628 4666 
L 1259 4666 
L 1259 0 
L 628 0 
L 628 4666 
z
" transform="scale(0.015625)"/>
       <path id="DejaVuSans-6e" d="M 3513 2113 
L 3513 0 
L 2938 0 
L 2938 2094 
Q 2938 2591 2744 2837 
Q 2550 3084 2163 3084 
Q 1697 3084 1428 2787 
Q 1159 2491 1159 1978 
L 1159 0 
L 581 0 
L 581 3500 
L 1159 3500 
L 1159 2956 
Q 1366 3272 1645 3428 
Q 1925 3584 2291 3584 
Q 2894 3584 3203 3211 
Q 3513 2838 3513 2113 
z
" transform="scale(0.015625)"/>
       <path id="DejaVuSans-78" d="M 3513 3500 
L 2247 1797 
L 3578 0 
L 2900 0 
L 1881 1375 
L 863 0 
L 184 0 
L 1544 1831 
L 300 3500 
L 978 3500 
L 1906 2253 
L 2834 3500 
L 3513 3500 
z
" transform="scale(0.015625)"/>
       <path id="DejaVuSans-6b" d="M 581 4863 
L 1159 4863 
L 1159 1991 
L 2875 3500 
L 3609 3500 
L 1753 1863 
L 3688 0 
L 2938 0 
L 1159 1709 
L 1159 0 
L 581 0 
L 581 4863 
z
" transform="scale(0.015625)"/>
       <path id="DejaVuSans-2f" d="M 1625 4666 
L 2156 4666 
L 531 -594 
L 0 -594 
L 1625 4666 
z
" transform="scale(0.015625)"/>
       <path id="DejaVuSans-6d" d="M 3328 2828 
Q 3544 3216 3844 3400 
Q 4144 3584 4550 3584 
Q 5097 3584 5394 3201 
Q 5691 2819 5691 2113 
L 5691 0 
L 5113 0 
L 5113 2094 
Q 5113 2597 4934 2840 
Q 4756 3084 4391 3084 
Q 3944 3084 3684 2787 
Q 3425 2491 3425 1978 
L 3425 0 
L 2847 0 
L 2847 2094 
Q 2847 2600 2669 2842 
Q 2491 3084 2119 3084 
Q 1678 3084 1418 2786 
Q 1159 2488 1159 1978 
L 1159 0 
L 581 0 
L 581 3500 
L 1159 3500 
L 1159 2956 
Q 1356 3278 1631 3431 
Q 1906 3584 2284 3584 
Q 2666 3584 2933 3390 
Q 3200 3197 3328 2828 
z
" transform="scale(0.015625)"/>
      </defs>
      <use xlink:href="#DejaVuSans-42" transform="translate(0 0.765625)"/>
      <use xlink:href="#DejaVuSans-6f" transform="translate(68.603516 0.765625)"/>
      <use xlink:href="#DejaVuSans-64" transform="translate(129.785156 0.765625)"/>
      <use xlink:href="#DejaVuSans-79" transform="translate(193.261719 0.765625)"/>
      <use xlink:href="#DejaVuSans-20" transform="translate(252.441406 0.765625)"/>
      <use xlink:href="#DejaVuSans-4d" transform="translate(284.228516 0.765625)"/>
      <use xlink:href="#DejaVuSans-61" transform="translate(370.507812 0.765625)"/>
      <use xlink:href="#DejaVuSans-73" transform="translate(431.787109 0.765625)"/>
      <use xlink:href="#DejaVuSans-73" transform="translate(483.886719 0.765625)"/>
      <use xlink:href="#DejaVuSans-20" transform="translate(535.986328 0.765625)"/>
      <use xlink:href="#DejaVuSans-49" transform="translate(567.773438 0.765625)"/>
      <use xlink:href="#DejaVuSans-6e" transform="translate(597.265625 0.765625)"/>
      <use xlink:href="#DejaVuSans-64" transform="translate(660.644531 0.765625)"/>
      <use xlink:href="#DejaVuSans-65" transform="translate(724.121094 0.765625)"/>
      <use xlink:href="#DejaVuSans-78" transform="translate(785.644531 0.765625)"/>
      <use xlink:href="#DejaVuSans-20" transform="translate(844.824219 0.765625)"/>
      <use xlink:href="#DejaVuSans-28" transform="translate(876.611328 0.765625)"/>
      <use xlink:href="#DejaVuSans-6b" transform="translate(915.625 0.765625)"/>
      <use xlink:href="#DejaVuSans-67" transform="translate(973.535156 0.765625)"/>
      <use xlink:href="#DejaVuSans-2f" transform="translate(1037.011719 0.765625)"/>
      <use xlink:href="#DejaVuSans-6d" transform="translate(1070.703125 0.765625)"/>
      <use xlink:href="#DejaVuSans-32" transform="translate(1169.072266 39.046875) scale(0.7)"/>
      <use xlink:href="#DejaVuSans-29" transform="translate(1216.342773 0.765625)"/>
     </g>
    </g>
   </g>
   <g id="line2d_19">
    <path d="M 78.723148 325.673 
L 196.324352 325.673 
" clip-path="url(#p749b65f15a)" style="fill: none; stroke-dasharray: 1.5625,0.9375; stroke-dashoffset: 0; stroke: #242424; stroke-width: 1.25"/>
   </g>
   <g id="line2d_20">
    <path d="M 82.39531 306.962 
L 192.65219 306.962 
" clip-path="url(#p749b65f15a)" style="fill: none; stroke-dasharray: 3.125,1.25; stroke-dashoffset: 0; stroke: #242424; stroke-width: 1.25"/>
   </g>
   <g id="line2d_21">
    <path d="M 98.266396 284.42375 
L 176.781104 284.42375 
" clip-path="url(#p749b65f15a)" style="fill: none; stroke-dasharray: 1.5625,0.9375; stroke-dashoffset: 0; stroke: #242424; stroke-width: 1.25"/>
   </g>
   <g id="line2d_22">
    <path d="M 234.613979 317.486938 
L 341.753521 317.486938 
" clip-path="url(#p749b65f15a)" style="fill: none; stroke-dasharray: 1.5625,0.9375; stroke-dashoffset: 0; stroke: #242424; stroke-width: 1.25"/>
   </g>
   <g id="line2d_23">
    <path d="M 230.32818 302.28425 
L 346.03932 302.28425 
" clip-path="url(#p749b65f15a)" style="fill: none; stroke-dasharray: 3.125,1.25; stroke-dashoffset: 0; stroke: #242424; stroke-width: 1.25"/>
   </g>
   <g id="line2d_24">
    <path d="M 254.979002 279.427063 
L 321.388498 279.427063 
" clip-path="url(#p749b65f15a)" style="fill: none; stroke-dasharray: 1.5625,0.9375; stroke-dashoffset: 0; stroke: #242424; stroke-width: 1.25"/>
   </g>
   <g id="line2d_25">
    <path d="M 382.628712 317.59325 
L 495.058788 317.59325 
" clip-path="url(#p749b65f15a)" style="fill: none; stroke-dasharray: 1.5625,0.9375; stroke-dashoffset: 0; stroke: #242424; stroke-width: 1.25"/>
   </g>
   <g id="line2d_26">
    <path d="M 382.599381 303.13475 
L 495.088119 303.13475 
" clip-path="url(#p749b65f15a)" style="fill: none; stroke-dasharray: 3.125,1.25; stroke-dashoffset: 0; stroke: #242424; stroke-width: 1.25"/>
   </g>
   <g id="line2d_27">
    <path d="M 402.420491 283.148 
L 475.267009 283.148 
" clip-path="url(#p749b65f15a)" style="fill: none; stroke-dasharray: 1.5625,0.9375; stroke-dashoffset: 0; stroke: #242424; stroke-width: 1.25"/>
   </g>
   <g id="line2d_28">
    <path d="M 533.666923 323.1215 
L 645.340577 323.1215 
" clip-path="url(#p749b65f15a)" style="fill: none; stroke-dasharray: 1.5625,0.9375; stroke-dashoffset: 0; stroke: #242424; stroke-width: 1.25"/>
   </g>
   <g id="line2d_29">
    <path d="M 529.354304 309.5135 
L 649.653196 309.5135 
" clip-path="url(#p749b65f15a)" style="fill: none; stroke-dasharray: 3.125,1.25; stroke-dashoffset: 0; stroke: #242424; stroke-width: 1.25"/>
   </g>
   <g id="line2d_30">
    <path d="M 541.806419 296.33075 
L 637.201081 296.33075 
" clip-path="url(#p749b65f15a)" style="fill: none; stroke-dasharray: 1.5625,0.9375; stroke-dashoffset: 0; stroke: #242424; stroke-width: 1.25"/>
   </g>
   <g id="patch_3">
    <path d="M 62.19375 380.9555 
L 62.19375 44.1575 
" style="fill: none; stroke: #333333; stroke-linejoin: miter; stroke-linecap: square"/>
   </g>
   <g id="patch_4">
    <path d="M 62.19375 380.9555 
L 664.83375 380.9555 
" style="fill: none; stroke: #333333; stroke-linejoin: miter; stroke-linecap: square"/>
   </g>
   <g id="text_14">
    <!-- Violin Plot of BMI Across Age Groups -->
    <g transform="translate(197.965 30.1575) scale(0.16 -0.16)">
     <defs>
      <path id="DejaVuSans-Bold-56" d="M 31 4666 
L 1241 4666 
L 2478 1222 
L 3713 4666 
L 4922 4666 
L 3194 0 
L 1759 0 
L 31 4666 
z
" transform="scale(0.015625)"/>
      <path id="DejaVuSans-Bold-69" d="M 538 3500 
L 1656 3500 
L 1656 0 
L 538 0 
L 538 3500 
z
M 538 4863 
L 1656 4863 
L 1656 3950 
L 538 3950 
L 538 4863 
z
" transform="scale(0.015625)"/>
      <path id="DejaVuSans-Bold-6f" d="M 2203 2784 
Q 1831 2784 1636 2517 
Q 1441 2250 1441 1747 
Q 1441 1244 1636 976 
Q 1831 709 2203 709 
Q 2569 709 2762 976 
Q 2956 1244 2956 1747 
Q 2956 2250 2762 2517 
Q 2569 2784 2203 2784 
z
M 2203 3584 
Q 3106 3584 3614 3096 
Q 4122 2609 4122 1747 
Q 4122 884 3614 396 
Q 3106 -91 2203 -91 
Q 1297 -91 786 396 
Q 275 884 275 1747 
Q 275 2609 786 3096 
Q 1297 3584 2203 3584 
z
" transform="scale(0.015625)"/>
      <path id="DejaVuSans-Bold-6c" d="M 538 4863 
L 1656 4863 
L 1656 0 
L 538 0 
L 538 4863 
z
" transform="scale(0.015625)"/>
      <path id="DejaVuSans-Bold-6e" d="M 4056 2131 
L 4056 0 
L 2931 0 
L 2931 347 
L 2931 1631 
Q 2931 2084 2911 2256 
Q 2891 2428 2841 2509 
Q 2775 2619 2662 2680 
Q 2550 2741 2406 2741 
Q 2056 2741 1856 2470 
Q 1656 2200 1656 1722 
L 1656 0 
L 538 0 
L 538 3500 
L 1656 3500 
L 1656 2988 
Q 1909 3294 2193 3439 
Q 2478 3584 2822 3584 
Q 3428 3584 3742 3212 
Q 4056 2841 4056 2131 
z
" transform="scale(0.015625)"/>
      <path id="DejaVuSans-Bold-20" transform="scale(0.015625)"/>
      <path id="DejaVuSans-Bold-50" d="M 588 4666 
L 2584 4666 
Q 3475 4666 3951 4270 
Q 4428 3875 4428 3144 
Q 4428 2409 3951 2014 
Q 3475 1619 2584 1619 
L 1791 1619 
L 1791 0 
L 588 0 
L 588 4666 
z
M 1791 3794 
L 1791 2491 
L 2456 2491 
Q 2806 2491 2997 2661 
Q 3188 2831 3188 3144 
Q 3188 3456 2997 3625 
Q 2806 3794 2456 3794 
L 1791 3794 
z
" transform="scale(0.015625)"/>
      <path id="DejaVuSans-Bold-74" d="M 1759 4494 
L 1759 3500 
L 2913 3500 
L 2913 2700 
L 1759 2700 
L 1759 1216 
Q 1759 972 1856 886 
Q 1953 800 2241 800 
L 2816 800 
L 2816 0 
L 1856 0 
Q 1194 0 917 276 
Q 641 553 641 1216 
L 641 2700 
L 84 2700 
L 84 3500 
L 641 3500 
L 641 4494 
L 1759 4494 
z
" transform="scale(0.015625)"/>
      <path id="DejaVuSans-Bold-66" d="M 2841 4863 
L 2841 4128 
L 2222 4128 
Q 1984 4128 1890 4042 
Q 1797 3956 1797 3744 
L 1797 3500 
L 2753 3500 
L 2753 2700 
L 1797 2700 
L 1797 0 
L 678 0 
L 678 2700 
L 122 2700 
L 122 3500 
L 678 3500 
L 678 3744 
Q 678 4316 997 4589 
Q 1316 4863 1984 4863 
L 2841 4863 
z
" transform="scale(0.015625)"/>
      <path id="DejaVuSans-Bold-42" d="M 2456 2859 
Q 2741 2859 2887 2984 
Q 3034 3109 3034 3353 
Q 3034 3594 2887 3720 
Q 2741 3847 2456 3847 
L 1791 3847 
L 1791 2859 
L 2456 2859 
z
M 2497 819 
Q 2859 819 3042 972 
Q 3225 1125 3225 1434 
Q 3225 1738 3044 1889 
Q 2863 2041 2497 2041 
L 1791 2041 
L 1791 819 
L 2497 819 
z
M 3616 2497 
Q 4003 2384 4215 2081 
Q 4428 1778 4428 1338 
Q 4428 663 3972 331 
Q 3516 0 2584 0 
L 588 0 
L 588 4666 
L 2394 4666 
Q 3366 4666 3802 4372 
Q 4238 4078 4238 3431 
Q 4238 3091 4078 2852 
Q 3919 2613 3616 2497 
z
" transform="scale(0.015625)"/>
      <path id="DejaVuSans-Bold-4d" d="M 588 4666 
L 2119 4666 
L 3181 2169 
L 4250 4666 
L 5778 4666 
L 5778 0 
L 4641 0 
L 4641 3413 
L 3566 897 
L 2803 897 
L 1728 3413 
L 1728 0 
L 588 0 
L 588 4666 
z
" transform="scale(0.015625)"/>
      <path id="DejaVuSans-Bold-49" d="M 588 4666 
L 1791 4666 
L 1791 0 
L 588 0 
L 588 4666 
z
" transform="scale(0.015625)"/>
      <path id="DejaVuSans-Bold-41" d="M 3419 850 
L 1538 850 
L 1241 0 
L 31 0 
L 1759 4666 
L 3194 4666 
L 4922 0 
L 3713 0 
L 3419 850 
z
M 1838 1716 
L 3116 1716 
L 2478 3572 
L 1838 1716 
z
" transform="scale(0.015625)"/>
      <path id="DejaVuSans-Bold-63" d="M 3366 3391 
L 3366 2478 
Q 3138 2634 2908 2709 
Q 2678 2784 2431 2784 
Q 1963 2784 1702 2511 
Q 1441 2238 1441 1747 
Q 1441 1256 1702 982 
Q 1963 709 2431 709 
Q 2694 709 2930 787 
Q 3166 866 3366 1019 
L 3366 103 
Q 3103 6 2833 -42 
Q 2563 -91 2291 -91 
Q 1344 -91 809 395 
Q 275 881 275 1747 
Q 275 2613 809 3098 
Q 1344 3584 2291 3584 
Q 2566 3584 2833 3536 
Q 3100 3488 3366 3391 
z
" transform="scale(0.015625)"/>
      <path id="DejaVuSans-Bold-72" d="M 3138 2547 
Q 2991 2616 2845 2648 
Q 2700 2681 2553 2681 
Q 2122 2681 1889 2404 
Q 1656 2128 1656 1613 
L 1656 0 
L 538 0 
L 538 3500 
L 1656 3500 
L 1656 2925 
Q 1872 3269 2151 3426 
Q 2431 3584 2822 3584 
Q 2878 3584 2943 3579 
Q 3009 3575 3134 3559 
L 3138 2547 
z
" transform="scale(0.015625)"/>
      <path id="DejaVuSans-Bold-73" d="M 3272 3391 
L 3272 2541 
Q 2913 2691 2578 2766 
Q 2244 2841 1947 2841 
Q 1628 2841 1473 2761 
Q 1319 2681 1319 2516 
Q 1319 2381 1436 2309 
Q 1553 2238 1856 2203 
L 2053 2175 
Q 2913 2066 3209 1816 
Q 3506 1566 3506 1031 
Q 3506 472 3093 190 
Q 2681 -91 1863 -91 
Q 1516 -91 1145 -36 
Q 775 19 384 128 
L 384 978 
Q 719 816 1070 734 
Q 1422 653 1784 653 
Q 2113 653 2278 743 
Q 2444 834 2444 1013 
Q 2444 1163 2330 1236 
Q 2216 1309 1875 1350 
L 1678 1375 
Q 931 1469 631 1722 
Q 331 1975 331 2491 
Q 331 3047 712 3315 
Q 1094 3584 1881 3584 
Q 2191 3584 2531 3537 
Q 2872 3491 3272 3391 
z
" transform="scale(0.015625)"/>
      <path id="DejaVuSans-Bold-67" d="M 2919 594 
Q 2688 288 2409 144 
Q 2131 0 1766 0 
Q 1125 0 706 504 
Q 288 1009 288 1791 
Q 288 2575 706 3076 
Q 1125 3578 1766 3578 
Q 2131 3578 2409 3434 
Q 2688 3291 2919 2981 
L 2919 3500 
L 4044 3500 
L 4044 353 
Q 4044 -491 3511 -936 
Q 2978 -1381 1966 -1381 
Q 1638 -1381 1331 -1331 
Q 1025 -1281 716 -1178 
L 716 -306 
Q 1009 -475 1290 -558 
Q 1572 -641 1856 -641 
Q 2406 -641 2662 -400 
Q 2919 -159 2919 353 
L 2919 594 
z
M 2181 2772 
Q 1834 2772 1640 2515 
Q 1447 2259 1447 1791 
Q 1447 1309 1634 1061 
Q 1822 813 2181 813 
Q 2531 813 2725 1069 
Q 2919 1325 2919 1791 
Q 2919 2259 2725 2515 
Q 2531 2772 2181 2772 
z
" transform="scale(0.015625)"/>
      <path id="DejaVuSans-Bold-65" d="M 4031 1759 
L 4031 1441 
L 1416 1441 
Q 1456 1047 1700 850 
Q 1944 653 2381 653 
Q 2734 653 3104 758 
Q 3475 863 3866 1075 
L 3866 213 
Q 3469 63 3072 -14 
Q 2675 -91 2278 -91 
Q 1328 -91 801 392 
Q 275 875 275 1747 
Q 275 2603 792 3093 
Q 1309 3584 2216 3584 
Q 3041 3584 3536 3087 
Q 4031 2591 4031 1759 
z
M 2881 2131 
Q 2881 2450 2695 2645 
Q 2509 2841 2209 2841 
Q 1884 2841 1681 2658 
Q 1478 2475 1428 2131 
L 2881 2131 
z
" transform="scale(0.015625)"/>
      <path id="DejaVuSans-Bold-47" d="M 4781 347 
Q 4331 128 3847 18 
Q 3363 -91 2847 -91 
Q 1681 -91 1000 561 
Q 319 1213 319 2328 
Q 319 3456 1012 4103 
Q 1706 4750 2913 4750 
Q 3378 4750 3804 4662 
Q 4231 4575 4609 4403 
L 4609 3438 
Q 4219 3659 3833 3768 
Q 3447 3878 3059 3878 
Q 2341 3878 1952 3476 
Q 1563 3075 1563 2328 
Q 1563 1588 1938 1184 
Q 2313 781 3003 781 
Q 3191 781 3352 804 
Q 3513 828 3641 878 
L 3641 1784 
L 2906 1784 
L 2906 2591 
L 4781 2591 
L 4781 347 
z
" transform="scale(0.015625)"/>
      <path id="DejaVuSans-Bold-75" d="M 500 1363 
L 500 3500 
L 1625 3500 
L 1625 3150 
Q 1625 2866 1622 2436 
Q 1619 2006 1619 1863 
Q 1619 1441 1641 1255 
Q 1663 1069 1716 984 
Q 1784 875 1895 815 
Q 2006 756 2150 756 
Q 2500 756 2700 1025 
Q 2900 1294 2900 1772 
L 2900 3500 
L 4019 3500 
L 4019 0 
L 2900 0 
L 2900 506 
Q 2647 200 2364 54 
Q 2081 -91 1741 -91 
Q 1134 -91 817 281 
Q 500 653 500 1363 
z
" transform="scale(0.015625)"/>
      <path id="DejaVuSans-Bold-70" d="M 1656 506 
L 1656 -1331 
L 538 -1331 
L 538 3500 
L 1656 3500 
L 1656 2988 
Q 1888 3294 2169 3439 
Q 2450 3584 2816 3584 
Q 3463 3584 3878 3070 
Q 4294 2556 4294 1747 
Q 4294 938 3878 423 
Q 3463 -91 2816 -91 
Q 2450 -91 2169 54 
Q 1888 200 1656 506 
z
M 2400 2772 
Q 2041 2772 1848 2508 
Q 1656 2244 1656 1747 
Q 1656 1250 1848 986 
Q 2041 722 2400 722 
Q 2759 722 2948 984 
Q 3138 1247 3138 1747 
Q 3138 2247 2948 2509 
Q 2759 2772 2400 2772 
z
" transform="scale(0.015625)"/>
     </defs>
     <use xlink:href="#DejaVuSans-Bold-56"/>
     <use xlink:href="#DejaVuSans-Bold-69" transform="translate(75.642578 0)"/>
     <use xlink:href="#DejaVuSans-Bold-6f" transform="translate(109.919922 0)"/>
     <use xlink:href="#DejaVuSans-Bold-6c" transform="translate(178.621094 0)"/>
     <use xlink:href="#DejaVuSans-Bold-69" transform="translate(212.898438 0)"/>
     <use xlink:href="#DejaVuSans-Bold-6e" transform="translate(247.175781 0)"/>
     <use xlink:href="#DejaVuSans-Bold-20" transform="translate(318.367188 0)"/>
     <use xlink:href="#DejaVuSans-Bold-50" transform="translate(353.181641 0)"/>
     <use xlink:href="#DejaVuSans-Bold-6c" transform="translate(426.472656 0)"/>
     <use xlink:href="#DejaVuSans-Bold-6f" transform="translate(460.75 0)"/>
     <use xlink:href="#DejaVuSans-Bold-74" transform="translate(529.451172 0)"/>
     <use xlink:href="#DejaVuSans-Bold-20" transform="translate(577.253906 0)"/>
     <use xlink:href="#DejaVuSans-Bold-6f" transform="translate(612.068359 0)"/>
     <use xlink:href="#DejaVuSans-Bold-66" transform="translate(680.769531 0)"/>
     <use xlink:href="#DejaVuSans-Bold-20" transform="translate(724.275391 0)"/>
     <use xlink:href="#DejaVuSans-Bold-42" transform="translate(759.089844 0)"/>
     <use xlink:href="#DejaVuSans-Bold-4d" transform="translate(835.310547 0)"/>
     <use xlink:href="#DejaVuSans-Bold-49" transform="translate(934.822266 0)"/>
     <use xlink:href="#DejaVuSans-Bold-20" transform="translate(972.029297 0)"/>
     <use xlink:href="#DejaVuSans-Bold-41" transform="translate(1006.84375 0)"/>
     <use xlink:href="#DejaVuSans-Bold-63" transform="translate(1084.236328 0)"/>
     <use xlink:href="#DejaVuSans-Bold-72" transform="translate(1143.513672 0)"/>
     <use xlink:href="#DejaVuSans-Bold-6f" transform="translate(1192.830078 0)"/>
     <use xlink:href="#DejaVuSans-Bold-73" transform="translate(1261.53125 0)"/>
     <use xlink:href="#DejaVuSans-Bold-73" transform="translate(1321.052734 0)"/>
     <use xlink:href="#DejaVuSans-Bold-20" transform="translate(1380.574219 0)"/>
     <use xlink:href="#DejaVuSans-Bold-41" transform="translate(1415.388672 0)"/>
     <use xlink:href="#DejaVuSans-Bold-67" transform="translate(1492.78125 0)"/>
     <use xlink:href="#DejaVuSans-Bold-65" transform="translate(1564.363281 0)"/>
     <use xlink:href="#DejaVuSans-Bold-20" transform="translate(1632.185547 0)"/>
     <use xlink:href="#DejaVuSans-Bold-47" transform="translate(1667 0)"/>
     <use xlink:href="#DejaVuSans-Bold-72" transform="translate(1749.080078 0)"/>
     <use xlink:href="#DejaVuSans-Bold-6f" transform="translate(1798.396484 0)"/>
     <use xlink:href="#DejaVuSans-Bold-75" transform="translate(1867.097656 0)"/>
     <use xlink:href="#DejaVuSans-Bold-70" transform="translate(1938.289062 0)"/>
     <use xlink:href="#DejaVuSans-Bold-73" transform="translate(2009.871094 0)"/>
    </g>
   </g>
  </g>
 </g>
 <defs>
  <clipPath id="p749b65f15a">
   <rect x="62.19375" y="44.1575" width="602.64" height="336.798"/>
  </clipPath>
 </defs>
</svg>
